<?xml version="1.0" encoding="utf-8"?>
<!-- Generator: Adobe Illustrator 21.0.2, SVG Export Plug-In . SVG Version: 6.00 Build 0)  -->
<svg version="1.1" xmlns="http://www.w3.org/2000/svg" xmlns:xlink="http://www.w3.org/1999/xlink" x="0px" y="0px"
	 viewBox="0 0 606.1 492" style="enable-background:new 0 0 606.1 492;" xml:space="preserve">
<style type="text/css">
	.st0{clip-path:url(#SVGID_2_);}
	.st1{fill:#FFFFFF;}
	.st2{fill:#231F20;}
	.st3{fill:#FFFFFF;stroke:#231F20;stroke-miterlimit:10;}
	.st4{fill:none;stroke:#231F20;stroke-width:3;stroke-miterlimit:10;}
</style>
<g id="Layer_5">
</g>
<g id="hover">
	<g id="Isolation_Mode">
		<g id="Layer_2">
		</g>
	</g>
</g>
<g id="Layer_9">
	<g>
		<defs>
			<rect id="SVGID_1_" x="13.4" y="-141.4" width="594.3" height="635.6"/>
		</defs>
		<clipPath id="SVGID_2_">
			<use xlink:href="#SVGID_1_"  style="overflow:visible;"/>
		</clipPath>
		<g class="st0">
			
				<image style="overflow:visible;opacity:0.75;" width="737" height="545" xlink:href="3C4DCA0E371769E0.png"  transform="matrix(1 0 0 1 111.1656 2.9702)">
			</image>
			<g>
				<g>
					<g>
						<path class="st1" d="M167,494.4c13.3,0.6,26.7,1.2,40,1.8c8.1,0.4,16.3,0.8,24.4,1.1c16,0.6,31.5,3.6,47.6,4.2
							c10.8,0.4,21.2,4.1,31.9,3.7c8.7-0.3,17.3-2.4,26.1-2.6c9.4-0.2,18.7-0.3,28.1-0.7c16.8-0.7,33.4-0.4,50.2-0.5
							c23.5-0.1,46.8-5.9,70.3-5.1c19,0.6,38.3,1.3,57.3,2.7c20.2,1.5,40.2,8.2,60.6,9.1c5.5,0.2,11.3-0.1,16.7,1.2
							c3.9,1,7.2,2,11.3,2.2c7.2,0.4,14.5,0.6,21.7,0.9c7.9,0.4,15.8,0.7,23.7,1.1c4.3,0.2,8.6,0.4,12.8,0.6
							c3.5,0.2,11.1,2.1,14.2,0.3c-3.1-7.1-18.7-4.7-24.9-5c-9.8-0.4-19-0.6-28.4-2.9c-9.5-2.3-20.6-1.5-30.3-1.9
							c-10.8-0.4-21-3.1-31.9-3.5c-18.6-0.8-37.2-1.7-55.8-2.6c-7-0.3-12.5-0.8-19.2-2.5c-11.9-3-26-1.7-38.2-2.2
							c-11.5-0.5-24.6-3-36-1.2c-19.6,3.1-39,1.9-58.9,1c-11-0.5-21.5,0.1-32.4,1.1c-6.3,0.6-12,1-18.3,0.8
							c-5.3-0.2-9.3-2.2-14.3-2.9c-12.4-1.7-25.6-1.1-38.1-1.6c-7.5-0.3-15.1-0.6-22.6-1.1c-6-0.4-11.3,0.9-17.2,1.3
							c-6.2,0.4-11.6,1.7-17.9,1.3c-6.6-0.4-13.1-1-19.7-0.5c-7.5,0.5-15.2,0.7-22.6,2.1c-5,0.9-13.3,4.3-17.8,1.1
							c0.2-3,1.5-4.6,1-7.6c-0.2-1.3-1.4-3.4-2-4.7c-1.2-2.7-2.2-5.5-3.3-8.2c-1-2.5-2.9-4.1-4-6.3c-2.2-4.2-2.2-8.5-0.9-13.1
							c0.5-1.8,2.2-3.8,2.1-5.8c-0.1-1.9-1.5-3.4-1.9-5.2c-1.2-6-1.6-5.9-7.1-9.7c-3.5-2.4-6.4-4.5-2.9-8c3.4-3.3,7-2.1,7-8.4
							c0-5.1-3.4-9.8-3.6-14.9l77.6-38.2l494.8,56.8l-10.8,83L167,494.4z"/>
						<g>
							<path class="st2" d="M167.1,494.4c11.3,0.5,22.5,0.8,33.6,1.2l33.6,1.4c11.3,0.6,22.4,2.2,33.6,3.2c2.8,0.3,5.6,0.4,8.4,0.6
								c2.8,0.1,5.6,0.2,8.5,0.6c5.6,0.7,11.1,1.9,16.7,2.6c2.8,0.4,5.5,0.6,8.3,0.6c2.8,0,5.5-0.3,8.3-0.6c5.5-0.7,11.1-1.6,16.8-2
								l33.7-1.1c11.3-0.4,22.5-0.4,33.7-0.4c5.6,0,11.3,0,16.8-0.1c5.6-0.2,11.2-0.6,16.7-1.2c11.1-1.2,22.3-2.8,33.6-3.5
								c5.6-0.4,11.3-0.5,17-0.4l16.8,0.6c11.2,0.4,22.5,0.9,33.7,1.6c5.6,0.3,11.3,0.8,16.9,1.6c5.6,0.8,11.1,1.9,16.7,3
								c11,2.2,22,4.4,33.1,4.8c5.5,0.2,11.3-0.2,17,1.3c2.8,0.7,5.4,1.4,8.1,1.8c1.4,0.2,2.6,0.3,4.1,0.4l4.2,0.2l33.7,1.5
								l16.8,0.8l2.1,0.1l1.1,0.1l1.1,0.1l4.2,0.6c1.4,0.2,2.7,0.3,4,0.3c1.3,0,2.6-0.1,3.4-0.6l-0.5,1.6c-0.9-2.1-3.4-3.2-6-3.7
								c-2.6-0.5-5.4-0.7-8.3-0.6c-2.8,0-5.6,0.2-8.6,0.2c-2.9-0.1-5.7-0.2-8.6-0.4c-5.7-0.3-11.5-0.7-17.2-1.8
								c-1.4-0.3-2.9-0.6-4.2-0.9c-1.4-0.3-2.7-0.6-4.1-0.8c-2.8-0.4-5.6-0.6-8.4-0.7c-5.7-0.2-11.4-0.1-17.1-0.3
								c-5.8-0.3-11.5-1.1-17.1-2c-5.7-0.9-11.2-1.6-16.9-1.8l-17.1-0.8l-34.2-1.7c-5.7-0.3-11.5-0.6-17.2-1.7
								c-1.4-0.3-2.8-0.6-4.2-0.9c-1.4-0.3-2.7-0.6-4.1-0.9c-2.8-0.5-5.6-0.8-8.4-0.9c-5.7-0.4-11.4-0.3-17.1-0.3
								c-2.9,0-5.7-0.1-8.6-0.2c-2.9-0.1-5.7-0.4-8.6-0.7c-5.7-0.5-11.4-1.1-17-1.2c-2.8,0-5.7,0-8.5,0.4c-2.8,0.4-5.7,0.8-8.5,1.1
								c-11.4,1.2-22.9,1.2-34.3,0.8c-11.4-0.3-22.8-1.4-34.2-0.8c-5.7,0.2-11.4,0.7-17.1,1.2c-5.7,0.5-11.4,0.9-17.2,0.7
								c-2.9-0.1-5.8-0.8-8.5-1.6c-1.4-0.4-2.7-0.7-4.1-1c-1.4-0.3-2.8-0.4-4.2-0.6c-5.7-0.6-11.4-0.8-17.1-1
								c-5.7-0.1-11.4-0.1-17.1-0.4l-17.1-0.8c-2.8-0.1-5.7-0.3-8.5-0.4c-2.8,0-5.6,0.3-8.5,0.6c-2.8,0.4-5.7,0.7-8.5,0.9
								c-2.8,0.3-5.7,0.7-8.5,1c-2.9,0.3-5.8,0.4-8.6,0.2c-2.9-0.2-5.7-0.4-8.5-0.5c-2.8-0.1-5.7-0.2-8.5,0l-8.5,0.5
								c-5.7,0.4-11.4,0.7-16.9,1.9c-2.7,0.6-5.5,1.5-8.4,1.9c-1.4,0.2-2.9,0.4-4.4,0.3c-1.5-0.1-3-0.5-4.3-1.4l-0.2-0.2l0-0.3
								c0.1-2.3,1.1-4.4,1.1-6.4c0-0.5,0-1-0.2-1.5c-0.1-0.5-0.3-1-0.6-1.4c-0.4-1-1-1.9-1.4-3l-2.5-6.1c-0.4-1-0.8-2.1-1.3-2.9
								c-0.5-0.9-1.1-1.8-1.8-2.6c-0.7-0.9-1.3-1.8-1.8-2.8c-0.5-1-0.9-2.1-1.2-3.2c-0.6-2.2-0.6-4.5-0.3-6.7
								c0.1-1.1,0.4-2.2,0.7-3.3c0.3-1.2,0.9-2.1,1.3-3.1c0.5-1,0.8-1.9,0.7-2.8c-0.1-0.9-0.6-1.8-1.1-2.8c-0.2-0.5-0.5-1-0.7-1.6
								c-0.2-0.6-0.2-1.1-0.4-1.6c-0.2-1-0.5-2.1-0.9-3c-0.7-1.8-2.6-2.9-4.4-4.1c-0.9-0.6-1.8-1.2-2.7-1.9
								c-0.9-0.7-1.8-1.3-2.6-2.3c-0.4-0.5-0.7-1.1-0.8-1.8c-0.1-0.7,0-1.4,0.3-2c0.6-1.2,1.4-2,2.3-2.8c1.8-1.5,4.2-2.1,5.2-3.5
								c0.5-0.7,0.7-1.7,0.8-2.7c0.1-1,0-2-0.2-3.1c-0.7-4.1-3.2-8-3.4-12.7l0-0.5l0.5-0.2l77.5-38.4l0.3-0.1l0.3,0l247.5,28
								l123.7,14.1l123.7,14.2l1.6,0.2l-0.2,1.6l-10.8,83l-0.2,1.4l-1.4,0c-44.8-0.9-89.5-1.9-134.2-2.9l-134.3-3.2l-134.8-3.3
								L167.1,494.4z M166.8,494.4l134.2,2.5l134.6,2.1l135,2.2c45,0.8,90.1,1.6,135.1,2.5l-1.5,1.3l10.7-83l1.4,1.7l-123.7-14.2
								l-123.7-14.3l-247.4-28.8l0.6-0.1l-77.7,38l0.4-0.8c0.2,4.1,2.5,8,3.4,12.5c0.2,1.1,0.3,2.3,0.2,3.4c-0.1,1.1-0.3,2.4-1,3.5
								c-0.8,1.1-1.9,1.7-2.8,2.2c-1,0.5-1.9,1-2.7,1.6c-0.8,0.6-1.5,1.4-1.9,2.2c-0.2,0.4-0.2,0.8-0.2,1.2c0.1,0.4,0.3,0.8,0.6,1.1
								c1.2,1.5,3.2,2.6,4.9,3.9c0.9,0.6,1.8,1.2,2.7,2c0.9,0.7,1.7,1.7,2.2,2.8c0.5,1.1,0.7,2.2,0.9,3.3c0.1,0.5,0.2,1.1,0.3,1.6
								c0.1,0.5,0.3,0.9,0.6,1.4c0.5,0.9,1.1,2,1.2,3.3c0.1,1.3-0.4,2.5-0.9,3.5c-0.5,1-1,1.9-1.3,2.9c-0.3,1-0.5,2.1-0.7,3.1
								c-0.3,2.1-0.2,4.2,0.3,6.2c0.3,1,0.6,2,1.1,2.9c0.4,0.9,1.1,1.8,1.7,2.7c0.6,0.9,1.3,1.8,1.9,2.8c0.6,1,0.9,2.1,1.3,3.1
								l2.4,6.1c0.4,1,0.9,1.9,1.4,2.9c0.2,0.5,0.5,1,0.6,1.6c0.2,0.6,0.2,1.2,0.2,1.8c0,1.2-0.3,2.3-0.6,3.4
								c-0.3,1-0.5,2.1-0.6,3.1l-0.2-0.5c1.1,0.7,2.4,1.1,3.8,1.2c1.4,0.1,2.8,0,4.1-0.2c2.8-0.4,5.5-1.3,8.3-1.9
								c5.7-1.2,11.4-1.6,17.1-1.9l8.6-0.5c2.9-0.1,5.8-0.1,8.6,0.1c2.9,0.1,5.7,0.3,8.6,0.5c2.8,0.2,5.6,0.1,8.5-0.2
								c2.8-0.3,5.7-0.7,8.5-0.9c2.9-0.2,5.7-0.5,8.5-0.9c2.8-0.4,5.7-0.7,8.6-0.6c2.9,0.1,5.7,0.3,8.6,0.4l17.1,0.8
								c5.7,0.2,11.4,0.2,17.1,0.3c5.7,0.1,11.4,0.3,17.2,0.9c1.4,0.2,2.9,0.3,4.3,0.6c1.4,0.3,2.8,0.7,4.2,1
								c2.8,0.8,5.5,1.5,8.3,1.5c5.7,0.2,11.4-0.2,17-0.7c5.7-0.5,11.4-1,17.1-1.2c5.7-0.2,11.5-0.3,17.2,0
								c5.7,0.3,11.4,0.5,17.1,0.7c11.4,0.4,22.8,0.4,34.2-0.9c2.8-0.3,5.6-0.8,8.5-1.2c2.9-0.4,5.8-0.5,8.6-0.4
								c5.8,0.1,11.5,0.6,17.2,1.1c2.8,0.2,5.7,0.5,8.5,0.6c2.8,0.1,5.7,0.1,8.5,0.1c5.7,0,11.4-0.1,17.2,0.2
								c2.9,0.2,5.8,0.4,8.6,0.9c1.4,0.2,2.9,0.5,4.3,0.9c1.4,0.3,2.8,0.6,4.1,0.9c5.5,1.1,11.2,1.4,16.9,1.6l34.3,1.5l17.1,0.7
								c5.7,0.1,11.5,0.9,17.2,1.7c5.7,0.8,11.3,1.6,16.9,1.9c5.7,0.2,11.4,0,17.1,0.2c2.9,0.1,5.8,0.3,8.7,0.7
								c1.4,0.2,2.9,0.5,4.3,0.8c1.4,0.3,2.7,0.6,4.1,0.9c5.5,1,11.2,1.5,16.9,1.7c2.8,0.1,5.7,0.3,8.5,0.4c2.8,0,5.7-0.2,8.5-0.2
								c2.9,0,5.8,0.1,8.8,0.7c1.5,0.3,3,0.8,4.4,1.6c0.7,0.4,1.4,0.9,2,1.5c0.6,0.6,1.1,1.4,1.5,2.1l0.5,1.1l-1,0.5
								c-1.7,0.9-3.3,0.9-4.8,0.9c-1.5,0-2.9-0.2-4.4-0.3l-4.2-0.6l-1-0.1l-1-0.1l-2.1-0.1l-16.8-0.8l-33.7-1.5l-4.2-0.2
								c-1.4,0-2.9-0.2-4.3-0.4c-2.9-0.4-5.6-1.2-8.3-1.9c-5.2-1.3-10.8-1-16.5-1.2c-11.4-0.5-22.5-2.8-33.5-5
								c-5.5-1.1-11-2.2-16.5-3c-5.5-0.9-11-1.3-16.7-1.7c-11.2-0.8-22.4-1.3-33.6-1.7l-16.8-0.6c-5.6-0.2-11.1-0.1-16.7,0.3
								c-11.2,0.7-22.3,2.3-33.5,3.4c-5.6,0.6-11.2,1-16.9,1.1c-5.7,0.1-11.3,0-16.9,0c-11.2-0.1-22.5-0.1-33.7,0.2l-33.7,0.9
								c-5.6,0.3-11.1,1.3-16.7,1.9c-2.8,0.3-5.6,0.6-8.5,0.6c-2.9,0-5.7-0.2-8.5-0.6c-5.6-0.8-11.1-2-16.6-2.7
								c-2.8-0.4-5.5-0.5-8.4-0.6c-2.8-0.2-5.6-0.4-8.4-0.7c-11.2-1.1-22.3-2.8-33.5-3.5l-33.7-1.7
								C189.2,495.7,178,494.9,166.8,494.4z"/>
						</g>
					</g>
					<g>
						<path class="st1" d="M262.9,193.7c-6.3,5.8-10.2,12.1-15.2,18.6c-5.7,7.3-12.3,14-18.1,21.3c-5.8,7.3-12.2,14-18,21.3
							c-3.4,4.2-5.2,8.4-7.4,13.1c-2.5,5.2-6,8.2-9.9,12.5c-5.8,6.3-9.6,15.1-13.5,22.5c-3.2,6.1-6.7,12-10,18.1
							c-7.8,14.6-14.8,29-23.1,42.7c-3.7,6-6.6,12.7-6.8,19.6c-0.3,9.4-3.6,15.6,9.7,16.4c22.8,1.5,45.8,2,68.7,3.1
							c10.6,0.5,21.3,1.1,32,1.5c15,0.5,29.9-2.7,44.9-2.6c13.7,0.1,27.9,0.2,41.6-0.5c15.2-0.8,29.5-0.7,44.9,0
							c5.1,0.2,10.8-0.1,15.8,0.9c4.2,0.9,7.5,3.2,11.4,4.6c9,3.2,18.2,3.4,27.7,3.8c8.7,0.4,17.4,0.8,26.1,1.2
							c7.3,0.3,17.5,2.5,24.4,0.7c-5.4-3.5-11.3-4.2-17.5-5.9c-6.9-1.9-13-5.6-19.6-8.1c-15-5.7-30.9-11.4-46.3-16.1
							c-13.9-4.2-26.6-8.5-39.8-14.3c-14.3-6.4-29.2-10.5-43.3-17.3c-9.9-4.8-20.5-9.7-31.2-12.9c-5.6-1.7-18.4-3.4-19.6-9.8
							c-0.5-2.3,2.6-5.9,3.6-7.9c2.6-4.8,4.8-9.6,7.1-14.5c2.1-4.6,5.1-8.8,7.1-13.3c1.6-3.7,1.5-7.4,2.5-11.2
							c1.7-6.2,6.3-11.7,7.9-17.8c1.9-6.9,0.9-15.2,1.2-22.3c0.5-11.2,2.7-23.5,1.7-34.7c-0.5-6.1-2.7-13.8-5-19.6
							c-1.7-4.1-11.6-18.3-17.4-10.3"/>
						<path class="st2" d="M263,193.9c-4.5,4.2-8.1,9.2-11.7,14.2c-1.8,2.5-3.6,5-5.6,7.4c-1.9,2.4-3.9,4.7-6,7.1c-2,2.3-4,4.6-6,7
							c-2,2.3-3.8,4.8-5.8,7.2c-3.9,4.8-8,9.4-11.9,14.1c-1,1.2-2,2.4-2.9,3.5c-1,1.2-1.9,2.4-2.7,3.6c-1.7,2.5-3,5.2-4.3,8
							c-0.7,1.4-1.3,2.8-2,4.2c-0.8,1.4-1.7,2.7-2.7,4c-2,2.5-4.2,4.6-6.2,6.9c-4,4.4-7,9.8-9.8,15.2c-1.4,2.7-2.8,5.5-4.2,8.2
							l-4.4,8.1c-6,10.7-11.5,21.7-17.3,32.6c-2.9,5.4-5.8,10.9-8.9,16.2c-1.6,2.7-3.2,5.2-4.5,7.9c-1.3,2.7-2.4,5.5-3.2,8.3
							c-0.4,1.4-0.6,2.9-0.7,4.3c-0.1,1.4-0.1,3.1-0.3,4.6c-0.1,1.5-0.3,3.1-0.4,4.5c-0.1,1.5,0,2.9,0.5,4c0.4,1.1,1.4,1.9,2.6,2.4
							c0.2,0.1,0.3,0.1,0.5,0.2l0.5,0.1c0.3,0.1,0.7,0.2,1,0.3c0.7,0.1,1.4,0.3,2.2,0.4c1.4,0.2,3,0.3,4.5,0.4l4.6,0.3
							c12.3,0.8,24.5,1.3,36.8,1.9c12.3,0.5,24.6,1.1,36.8,1.8l18.4,1c6.1,0.3,12.2,0,18.3-0.5c6.1-0.5,12.2-1.2,18.4-1.6
							c3.1-0.2,6.2-0.3,9.2-0.3l9.2,0.1c12.3,0.1,24.6-0.1,36.8-0.8c12.3-0.5,24.6-0.6,36.9-0.1l4.6,0.2c1.5,0,3.1,0,4.6,0
							c3.1,0,6.2,0.1,9.3,0.5c1.6,0.2,3.1,0.7,4.6,1.3c1.5,0.6,2.9,1.3,4.3,1.9c1.4,0.7,2.7,1.3,4.2,1.7c1.4,0.5,2.9,0.9,4.3,1.3
							c5.9,1.4,12,1.8,18.1,2l18.4,0.7l9.2,0.4c1.5,0.1,3.1,0.1,4.6,0.2c1.6,0.1,3.1,0.3,4.6,0.4c3.1,0.3,6.1,0.6,9.1,0.7
							c3,0.1,6,0,8.8-0.7l-0.4,2.4c-3.4-2.2-7.3-3.3-11.4-4.3c-2.1-0.5-4.1-1-6.2-1.6c-2.1-0.6-4.1-1.4-6.1-2.2
							c-4-1.7-7.8-3.6-11.6-5.1c-3.9-1.5-7.9-3-11.9-4.4c-8-2.9-15.9-5.7-24-8.3c-4-1.3-8.1-2.6-12.1-3.8c-4.1-1.2-8.1-2.5-12.2-3.8
							c-8.1-2.6-16.1-5.6-24-9c-3.9-1.7-7.7-3.4-11.7-5c-3.9-1.5-7.9-3-11.9-4.5c-8-2.9-16-5.9-23.7-9.6
							c-7.6-3.7-15.3-7.3-23.2-10.2c-2-0.7-4-1.4-6-2c-1-0.3-2-0.6-3-0.9l-3.1-0.8c-2.1-0.5-4.2-1.1-6.2-1.8
							c-2.1-0.7-4.1-1.6-6.1-2.9c-1-0.7-1.9-1.5-2.6-2.6c-0.4-0.5-0.6-1.1-0.9-1.8c-0.1-0.3-0.2-0.6-0.2-1c-0.1-0.4,0-0.8,0-1.1
							c0.2-1.4,0.8-2.4,1.4-3.4c0.6-1,1.2-1.9,1.8-2.7c0.3-0.4,0.5-0.8,0.8-1.3l0.7-1.4l1.5-2.8c1-1.9,1.9-3.8,2.8-5.7
							c0.9-1.9,1.7-3.8,2.7-5.8c1-1.9,2.1-3.8,3.1-5.6c1.1-1.8,2.1-3.6,3-5.5c0.9-1.8,1.4-3.7,1.7-5.8c0.4-2,0.6-4.2,1.2-6.4
							c0.6-2.1,1.5-4.2,2.5-6.1c2-3.8,4.3-7.4,5.4-11.3c1.1-3.9,1.3-8.1,1.3-12.3c0-4.2-0.1-8.5,0.3-12.8c0.6-8.5,1.9-16.9,2-25.3
							c0.3-8.4-1.6-16.8-4.5-24.7c-0.7-2-1.7-3.8-2.9-5.5c-1.2-1.7-2.5-3.4-4-4.9c-1.5-1.4-3.2-2.8-5.2-3.4c-1-0.3-2-0.3-3,0.1
							c-0.9,0.4-1.7,1.1-2.4,1.9l-0.2-0.2c0.6-0.9,1.4-1.7,2.5-2.1c1-0.4,2.2-0.5,3.2-0.2c2.1,0.6,3.9,1.9,5.5,3.4
							c1.6,1.5,2.9,3.1,4.2,4.9c1.2,1.7,2.4,3.6,3.1,5.6c1.6,4,2.8,8.1,3.7,12.2c0.5,2.1,0.8,4.2,1,6.3c0.2,2.1,0.3,4.3,0.3,6.4
							c0,8.6-1.1,17-1.6,25.4c-0.3,4.2-0.2,8.4-0.1,12.7c0,4.3,0,8.6-1.2,12.9c-1.2,4.3-3.5,8-5.4,11.7c-0.9,1.9-1.8,3.7-2.3,5.7
							c-0.6,1.9-0.8,4-1.1,6.1c-0.2,1.1-0.4,2.2-0.7,3.2c-0.3,1.1-0.7,2.2-1.2,3.2c-0.9,2-2,3.9-3,5.7c-1,1.8-2.1,3.7-3,5.5
							c-0.9,1.8-1.7,3.9-2.7,5.8c-0.9,1.9-1.8,3.9-2.8,5.8l-1.4,2.9l-0.7,1.4c-0.3,0.5-0.6,1-0.9,1.5c-0.6,0.9-1.2,1.8-1.7,2.6
							c-0.5,0.8-0.9,1.7-1,2.5c-0.1,0.5,0.2,1.4,0.7,2c0.5,0.7,1.1,1.3,1.9,1.8c1.6,1.1,3.5,1.8,5.4,2.5c1.9,0.6,4,1.2,6,1.7
							l3.1,0.8c1.1,0.3,2.1,0.6,3.1,0.9c2.1,0.6,4.1,1.3,6.1,2.1c8.1,2.9,15.8,6.5,23.5,10.2c7.6,3.7,15.5,6.6,23.4,9.5
							c4,1.5,8,2.9,12,4.5c4,1.5,7.9,3.3,11.8,5c7.7,3.3,15.7,6.2,23.7,8.9c4,1.3,8,2.6,12.1,3.8c4.1,1.2,8.1,2.5,12.2,3.9
							c8.1,2.7,16.1,5.5,24,8.5c4,1.5,7.9,2.9,11.9,4.5c4,1.6,7.8,3.6,11.6,5.2c1.9,0.8,3.9,1.5,5.8,2.1c2,0.6,4,1.1,6.1,1.6
							c4.1,1,8.5,2.3,12.2,4.7l2.5,1.7l-2.9,0.7c-3.2,0.8-6.4,0.8-9.5,0.6c-3.1-0.2-6.2-0.5-9.3-0.9c-1.5-0.2-3-0.3-4.5-0.4
							c-1.5-0.1-3-0.2-4.6-0.3l-9.2-0.5l-18.4-0.9c-6.1-0.3-12.4-0.7-18.5-2.3c-1.5-0.4-3-0.8-4.5-1.4c-1.5-0.5-2.9-1.2-4.3-1.9
							c-2.8-1.4-5.4-2.7-8.4-3.1c-3-0.5-6-0.6-9.1-0.6c-1.5,0-3.1,0-4.6-0.1l-4.6-0.2c-12.3-0.6-24.6-0.7-36.8-0.2
							c-12.3,0.7-24.6,0.8-36.9,0.7l-9.2-0.1c-3.1,0-6.1,0.1-9.2,0.3c-6.1,0.4-12.2,1.1-18.4,1.7c-6.1,0.6-12.3,0.9-18.5,0.6
							l-18.4-0.8c-12.3-0.5-24.6-1-36.9-1.3c-12.3-0.4-24.6-0.8-36.9-1.4l-4.6-0.2c-1.5-0.1-3.1-0.2-4.7-0.4
							c-0.8-0.1-1.6-0.3-2.4-0.4c-0.4-0.1-0.8-0.2-1.2-0.3l-0.6-0.2c-0.2-0.1-0.4-0.2-0.6-0.3c-0.8-0.3-1.6-0.8-2.3-1.4
							c-0.3-0.3-0.7-0.6-1-1.1c-0.2-0.4-0.6-0.8-0.7-1.2c-0.7-1.8-0.7-3.5-0.7-5.1c0.1-1.6,0.2-3.1,0.4-4.6c0.1-1.5,0.1-3,0.3-4.6
							c0.1-1.6,0.4-3.2,0.8-4.7c0.8-3.1,1.9-6.1,3.3-8.9c1.4-2.8,3.1-5.5,4.6-8.1c3.1-5.3,6.1-10.6,8.9-16.1
							c5.8-10.8,11.3-21.8,17.4-32.5l4.5-8.1c1.5-2.7,2.8-5.4,4.3-8.2c2.8-5.5,5.9-11,10.2-15.7c2.1-2.3,4.3-4.4,6.2-6.7
							c0.9-1.2,1.8-2.4,2.5-3.6c0.7-1.3,1.3-2.7,2-4.1c1.3-2.8,2.7-5.6,4.5-8.2c0.9-1.3,1.9-2.5,2.9-3.7c1-1.2,2-2.4,3-3.5
							c4-4.7,8.2-9.2,12.1-13.9c1.9-2.3,3.9-4.8,5.9-7.1c2-2.3,4.1-4.6,6.2-6.9c2.1-2.3,4.1-4.6,6.1-6.9c2-2.3,3.8-4.8,5.7-7.2
							c3.7-4.9,7.4-9.9,12.1-14L263,193.9z"/>
					</g>
					<g>
						<path class="st1" d="M241.5,234.8c2.5-0.3,4.5,0.4,6.1,2.2c-0.1,3.2-2.2,5.9-2.5,9.2c-0.4,3.1-0.5,6.7,0.1,9.8
							c0.4,1.8,1.1,4.4,1.8,6.1c2.5,6.7,2.8,5.3-1,11c-5.6,8.4,2,10.7,5.6,18.1c1.5,3.1,1.9,4.6,1.7,8.1c-0.4,5.7-1.2,3.3-5.1,4.5
							c-4.6,1.5-3.5,3.1-3.9,7.3c-0.2,2.2-2.2,7.4-1.9,9.4c0.6,3.6,8.5,6.3,11.5,7.5c5.9,2.4,11.7,4.7,17.6,7.2
							c9.8,4.3,18.2,9.4,27.3,14.9c8.1,4.9,17.1,8.1,25.3,12.6c21.7,11.8,46.9,16.3,70.2,24.1c13.4,4.5,27.3,7.6,40.8,12
							c8.3,2.8,16.1,7.4,23.9,11.6c25.5,13.6,52.6,24.6,80,34.2c11.6,4.1,22.2,10.4,33.6,15.1c13.8,5.7,27.8,9.7,42,13.9
							c12.5,3.7,24.2,9.6,36.8,13.2c11.9,3.4,23.7,6.8,35.2,11.5c15.4,6.4,29.7,13.9,44.6,21.3c1.4-3.6,0.5-8.3,0.7-12.1
							c0.3-5.2,2.2-9.7,3-14.7c0.8-5-0.2-10.2,0.8-15.2c1-5,2.4-9,2.6-14.3c0.2-7.4,1.3-13.8,3.6-20.9c2.8-8.9,3.5-18.8,5.1-28.1
							c0.9-4.9,2.9-8.9,4.1-13.6c1.2-4.2,0.8-8.8,1-13.1c0.2-5.5,3.3-17.8-2.5-20.6c-2.9-1.4-8.2-0.7-11.3-0.8
							c-4.9-0.2-8.5-1.2-13.2-2.3c-9-2-18.9-1.3-28.2-1.8c-9.7-0.4-19.8,0-29.4-1.7c-19.8-3.4-39.7-14-58.2-21.4
							c-16.2-6.4-31.4-15.7-47.7-21.6c-6.3-2.3-12.8-3.7-19.1-6.2c-9-3.6-19.1-7.4-28.6-9.3c-6.5-1.3-13-1.6-19.5-3.3
							c-7.2-1.9-14.3-3.4-21.6-4.6c-7.6-1.2-14.2-3-21.3-5.8c-7.2-2.8-15.1-3.5-22.5-5.6c-13.4-3.8-25.4-10.1-38.1-15.5
							c-9.4-4-19.6-4.8-29.1-9c-12.7-5.6-26-7.8-39.1-12.3c-9.1-3.1-17.8-7.3-26.9-10.6c-10.4-3.8-21.4-5.1-32-8
							c-3.3-0.9-19.9-6.6-17.7,1.5"/>
						<path class="st2" d="M241.5,234.7c1.1-0.2,2.3-0.1,3.4,0.3c1.1,0.4,2.1,1.1,2.9,1.9l0.1,0.1l0,0.1c-0.1,3.4-2.2,6.2-2.5,9.4
							c-0.3,3.2-0.5,6.5,0.2,9.6c0.4,1.6,0.8,3.1,1.3,4.6c0.5,1.5,1.2,3,1.7,4.5c0.3,0.8,0.6,1.6,0.6,2.5c0,1-0.4,1.8-0.8,2.5
							c-0.8,1.4-1.9,2.7-2.6,4.1c-0.8,1.4-1.4,2.8-1.3,4.3c0,1.5,0.7,2.9,1.7,4.1c1.9,2.5,4.3,4.9,5.9,7.9c0.8,1.5,1.5,3,1.8,4.7
							c0.3,1.7,0.2,3.4,0,5.1c0,0.4-0.1,0.8-0.2,1.3c-0.1,0.4-0.2,0.9-0.5,1.4c-0.1,0.2-0.4,0.5-0.7,0.7c-0.2,0.1-0.3,0.1-0.4,0.2
							c-0.1,0-0.3,0.1-0.4,0.1c-0.5,0.1-0.9,0.1-1.3,0.1c-0.8,0.1-1.5,0.2-2.2,0.5c-0.7,0.3-1.4,0.6-2,1c-0.6,0.4-0.8,0.8-1,1.5
							c-0.1,0.7-0.1,1.5-0.1,2.3c0,0.8-0.1,1.6-0.2,2.5c-0.2,0.8-0.4,1.6-0.6,2.4c-0.4,1.6-0.9,3.1-1.1,4.6
							c-0.1,0.4-0.1,0.7-0.1,1.1c0,0.3,0.1,0.6,0.2,0.8c0.2,0.6,0.8,1.1,1.3,1.6c1.1,0.9,2.5,1.7,4,2.4c1.4,0.7,2.9,1.3,4.4,1.9
							l9.1,3.7l9.1,3.7c3,1.3,6,2.7,8.9,4.1c5.8,3,11.5,6.3,17,9.7c2.8,1.7,5.5,3.3,8.4,4.7c2.9,1.4,5.8,2.8,8.8,4.1
							c3,1.4,5.9,2.7,8.8,4.2c2.9,1.5,5.7,3,8.7,4.3c11.7,5.4,24.2,9.1,36.7,12.6c6.3,1.8,12.5,3.5,18.8,5.4c3.1,0.9,6.2,2,9.3,3
							c3.1,1,6.2,1.9,9.3,2.8l18.8,5.3c3.1,0.9,6.3,1.9,9.4,2.9c3.1,1,6.2,2.2,9.2,3.6c6,2.8,11.6,6.1,17.3,9.1
							c5.7,3.1,11.5,6,17.3,8.8c11.7,5.6,23.6,10.8,35.7,15.6c6,2.4,12.1,4.7,18.2,6.9l9.2,3.3c3.1,1.2,6.1,2.5,9,3.8
							c5.9,2.8,11.7,5.8,17.6,8.5c5.9,2.7,12,5,18.1,7.2c6.1,2.1,12.3,4.1,18.5,6c6.2,1.9,12.5,3.6,18.6,5.9
							c6.1,2.2,12.1,4.8,18.2,7c3,1.1,6.1,2.2,9.2,3.1l9.4,2.7c6.2,1.8,12.5,3.7,18.6,5.9c6.1,2.2,12.2,4.7,18.1,7.4
							c11.9,5.4,23.5,11.3,35.1,17l-1,0.4c0.6-1.5,0.7-3.3,0.7-5c0-1.8-0.1-3.5-0.1-5.4c0-3.7,0.9-7.3,1.7-10.7
							c0.4-1.7,0.8-3.4,1.1-5.2c0.3-1.7,0.4-3.4,0.4-5.2c0-3.5-0.3-7.2,0.5-10.9c0.7-3.6,1.7-7,2.2-10.4c0.3-1.7,0.3-3.4,0.3-5.3
							c0.1-1.8,0.2-3.6,0.5-5.4c0.4-3.6,1.1-7.2,2.1-10.7c0.5-1.8,1-3.5,1.5-5.2c0.5-1.7,0.9-3.4,1.2-5.1c1.4-6.9,2-14.1,3.3-21.2
							c0.7-3.7,2-7.1,3.1-10.4c0.6-1.7,1.1-3.3,1.3-5c0.3-1.7,0.4-3.4,0.4-5.2c0-1.8,0-3.6,0.1-5.4c0.1-1.9,0.3-3.7,0.5-5.4
							c0.4-3.5,0.8-7.1,0.1-10.3c-0.3-1.6-1-3-2.1-3.7c-1.1-0.7-2.8-0.9-4.5-1c-1.7-0.1-3.5,0.1-5.3,0.1c-1.9,0-3.7-0.1-5.6-0.3
							c-3.7-0.5-7.2-1.5-10.6-2.2c-3.4-0.7-6.9-1-10.4-1.1c-3.5-0.1-7.1-0.1-10.7-0.2c-1.8,0-3.6-0.1-5.4-0.1
							c-1.8-0.1-3.5-0.1-5.3-0.2c-7.1-0.2-14.3-0.1-21.6-1.1c-3.6-0.5-7.2-1.3-10.7-2.1c-3.5-0.9-7-2-10.4-3.1
							c-13.7-4.7-26.6-11-39.8-16.3c-13.4-5.3-26-12.4-39-18.1c-3.3-1.4-6.5-2.7-9.9-3.9c-3.3-1.2-6.7-2.1-10.2-3.2
							c-1.7-0.5-3.4-1.1-5.2-1.7c-1.7-0.6-3.4-1.3-5.1-1.9c-3.3-1.3-6.6-2.6-10-3.8c-6.7-2.4-13.5-4.4-20.4-5.5
							c-3.5-0.5-7.1-0.9-10.6-1.6c-1.8-0.3-3.6-0.7-5.4-1.2c-1.7-0.5-3.4-0.9-5.2-1.3c-3.5-0.8-6.9-1.6-10.4-2.3
							c-1.7-0.3-3.5-0.7-5.2-1c-1.8-0.3-3.6-0.6-5.3-1c-3.5-0.7-7.1-1.7-10.5-2.8c-1.7-0.6-3.4-1.2-5.1-1.8c-1.7-0.7-3.3-1.2-5-1.7
							c-6.7-1.9-14-2.7-20.9-5c-6.9-2.2-13.6-5-20.1-7.9l-9.8-4.4l-4.9-2.2c-1.6-0.7-3.2-1.4-4.9-1.9c-6.6-2.3-13.8-3.5-20.6-5.9
							c-0.9-0.3-1.7-0.6-2.6-0.9l-2.5-1.1c-1.6-0.7-3.3-1.4-4.9-2c-3.3-1.2-6.7-2.3-10.1-3.3c-6.8-2-13.8-3.8-20.6-6
							c-6.8-2.2-13.4-5.1-20-7.9c-3.3-1.4-6.6-2.8-9.9-4c-3.3-1.2-6.8-2.2-10.2-3.1c-6.9-1.7-14-3-20.9-4.9c-3.4-1-6.8-2.1-10.4-2.7
							c-1.7-0.3-3.6-0.5-5.3-0.1c-0.8,0.2-1.7,0.6-2,1.4c-0.4,0.7-0.3,1.7-0.1,2.5l-0.3,0.1c-0.2-0.9-0.4-1.9,0.1-2.7
							c0.4-0.9,1.4-1.4,2.2-1.6c1.8-0.4,3.6-0.2,5.4,0c3.6,0.5,7,1.6,10.5,2.5c6.9,1.8,14,2.9,21,4.6c3.5,0.8,7,1.8,10.4,2.9
							c3.4,1.2,6.7,2.5,10,3.9c6.6,2.7,13.2,5.5,20,7.6c6.8,2.2,13.7,3.8,20.6,5.8c3.5,1,6.9,2,10.3,3.3c1.7,0.6,3.4,1.3,5,2l2.5,1
							c0.8,0.3,1.6,0.6,2.5,0.9c6.7,2.3,13.8,3.4,20.7,5.7c1.7,0.6,3.5,1.2,5.1,2l4.9,2.2l9.8,4.4c6.5,2.9,13.1,5.6,19.9,7.7
							c6.7,2.2,13.8,2.9,20.9,4.8c1.7,0.5,3.5,1.1,5.2,1.8c1.7,0.6,3.3,1.2,5,1.7c3.4,1.1,6.8,1.9,10.2,2.6c1.7,0.4,3.5,0.7,5.2,0.9
							c1.8,0.3,3.6,0.6,5.3,0.9c3.5,0.7,7.1,1.4,10.6,2.2c1.8,0.4,3.5,0.8,5.2,1.3c1.7,0.4,3.4,0.8,5.1,1.1c3.5,0.6,7,1,10.6,1.6
							c7.2,1.1,14.2,3.2,21,5.6c3.4,1.2,6.8,2.5,10.1,3.8c1.7,0.7,3.3,1.3,5,1.9c1.7,0.6,3.3,1.1,5,1.6c3.4,1,6.9,2,10.3,3.2
							c3.4,1.2,6.8,2.6,10.1,4c13.2,5.8,25.7,12.8,38.9,18c13.4,5.3,26.2,11.7,39.6,16.4c3.3,1.2,6.7,2.2,10.1,3.1
							c3.4,0.8,6.9,1.6,10.3,2.1c7,0.9,14.1,0.9,21.3,1.1c1.8,0,3.6,0.1,5.4,0.2c1.8,0.1,3.5,0.1,5.3,0.2c3.6,0.1,7.2,0.1,10.8,0.2
							c3.6,0.2,7.3,0.5,10.9,1.2c3.6,0.7,7,1.7,10.4,2.2c1.7,0.2,3.5,0.4,5.1,0.3c1.7,0,3.6-0.2,5.4-0.1c0.9,0,1.9,0.1,2.9,0.3
							c1,0.2,2,0.5,3,1.2c0.9,0.6,1.7,1.5,2.2,2.5c0.5,0.9,0.8,1.9,1,2.9c0.7,3.9,0.2,7.5-0.2,11.1c-0.2,1.8-0.5,3.6-0.5,5.2
							c-0.1,1.7-0.1,3.5-0.1,5.3c-0.1,1.8-0.2,3.7-0.5,5.5c-0.1,0.9-0.4,1.9-0.6,2.7c-0.3,0.9-0.5,1.8-0.8,2.6
							c-1.2,3.4-2.5,6.7-3.1,10.1c-1.3,6.9-2,14.1-3.4,21.2c-0.4,1.8-0.8,3.5-1.3,5.3c-0.5,1.8-1.1,3.4-1.5,5.1
							c-1,3.4-1.7,6.9-2.1,10.4c-0.2,1.8-0.4,3.5-0.5,5.3c-0.1,1.7-0.1,3.6-0.4,5.4c-0.5,3.6-1.6,7.1-2.3,10.5
							c-0.7,3.4-0.5,6.9-0.6,10.5c0,1.8-0.1,3.7-0.4,5.5c-0.3,1.8-0.7,3.6-1.2,5.3c-0.9,3.5-1.8,6.9-1.8,10.4c0,1.8,0.1,3.5,0.1,5.4
							c0,1.8-0.2,3.7-0.9,5.5l-0.3,0.7l-0.7-0.3c-11.6-5.8-23.1-11.9-35-17.3c-5.9-2.7-11.9-5.2-18-7.4c-6.1-2.2-12.3-4.1-18.5-6
							L650,487c-3.1-0.9-6.2-2-9.3-3.1c-6.1-2.3-12.1-4.8-18.2-7c-6.1-2.2-12.4-3.9-18.6-5.8c-6.2-1.9-12.5-3.8-18.6-5.9
							c-6.2-2.1-12.3-4.4-18.2-7.1c-6-2.7-11.7-5.6-17.7-8.3c-3-1.3-5.9-2.6-9-3.7l-9.2-3.2c-6.1-2.2-12.2-4.4-18.3-6.8
							c-12.1-4.7-24.2-9.7-36-15.2c-5.9-2.8-11.8-5.6-17.5-8.7c-5.8-3-11.4-6.3-17.2-9c-2.9-1.3-5.9-2.5-8.9-3.5
							c-3.1-1-6.2-1.9-9.3-2.8l-18.8-5.3c-3.1-0.9-6.3-1.8-9.4-2.8c-3.1-1-6.2-2-9.3-3c-6.2-1.9-12.4-3.7-18.7-5.4
							c-12.5-3.6-25.1-7.3-37-12.9c-3-1.4-5.9-2.9-8.8-4.4c-2.8-1.5-5.8-2.9-8.7-4.2c-2.9-1.4-5.9-2.7-8.8-4.2
							c-2.9-1.5-5.8-3.1-8.6-4.8c-5.6-3.4-11.1-6.7-16.8-9.7c-2.9-1.5-5.8-2.9-8.7-4.2l-9-3.7l-9-3.7c-1.5-0.6-3-1.2-4.5-2
							c-1.5-0.7-3-1.6-4.3-2.7c-0.7-0.6-1.3-1.2-1.7-2.2c-0.2-0.5-0.4-1-0.4-1.5c0-0.5,0-0.9,0.1-1.4c0.3-1.7,0.8-3.3,1.2-4.8
							c0.2-0.8,0.4-1.6,0.6-2.3c0.1-0.7,0.2-1.5,0.2-2.3c0-0.8,0-1.6,0.2-2.6c0.2-0.9,0.8-2,1.6-2.5c0.8-0.5,1.6-0.9,2.4-1.1
							c0.8-0.3,1.7-0.5,2.6-0.5c0.4,0,0.9,0,1.2-0.1c0.3-0.1,0.4-0.1,0.5-0.2c0.1-0.2,0.2-0.5,0.3-0.9c0.1-0.4,0.1-0.7,0.2-1.1
							c0.2-1.6,0.3-3.2,0-4.7c-0.2-1.5-0.9-2.9-1.6-4.3c-0.7-1.4-1.6-2.7-2.6-4c-1-1.3-2.1-2.5-3-3.9c-1-1.4-1.8-3-1.8-4.8
							c0-1.8,0.7-3.4,1.5-4.9c0.8-1.5,1.8-2.7,2.7-4.1c0.4-0.7,0.7-1.3,0.7-2c0-0.7-0.3-1.4-0.6-2.2c-0.6-1.5-1.2-3-1.7-4.6
							c-0.5-1.6-0.9-3.1-1.3-4.8c-0.6-3.3-0.4-6.6-0.1-9.8c0.4-3.4,2.5-6.1,2.7-9.3l0.1,0.2c-0.7-0.8-1.6-1.5-2.7-1.9
							c-1-0.4-2.2-0.4-3.3-0.3L241.5,234.7z"/>
					</g>
					<g>
						<path class="st1" d="M305.4,192.6c-6.9,0.3-14.8,7.4-19.9,11.7c-7,5.9-11.1,10.7-19.8,14.6c-8.1,3.6-31.5,5.4-33.6,15.2
							c5.9,4.7,16.1,5.6,23.3,7.3c13.3,3,27.1,4.2,40.5,6.3c15.3,2.4,29.8,7,45.1,7.9c12,0.7,25.7,6.1,36.7,10.9
							c8.8,3.8,20.6,2.7,29,8c-8.7-2.1-11.7-10.8-18.2-16c-5.4-4.3-11.1-8.4-16.5-12.7c-7.9-6.3-15.4-11.6-22.2-19.2
							c-7.8-8.7-18.1-15.7-25.4-24.6c-3.1-3.8-4.3-8.2-8.4-11.2c-5-3.7-10.9-4.7-15.8-9.6"/>
						<path class="st2" d="M305.4,192.7c-1.8,0.1-3.5,0.7-5.1,1.4c-1.6,0.7-3.1,1.7-4.6,2.7c-2.9,2-5.6,4.4-8.3,6.7
							c-2.7,2.3-5.3,4.8-8,7.2c-2.7,2.4-5.5,4.8-8.7,6.7c-1.6,1-3.2,1.8-4.9,2.6c-1.8,0.8-3.5,1.2-5.3,1.7l-10.5,2.7
							c-3.4,0.9-6.8,2-10,3.5c-1.6,0.7-3,1.6-4.2,2.7c-0.6,0.5-1.1,1.1-1.6,1.7c-0.4,0.6-0.7,1.3-0.9,2l-0.5-1.3
							c2.7,2.1,6.2,3.4,9.7,4.3c3.5,1,7.2,1.6,10.9,2.4l5.5,1.3c1.8,0.4,3.7,0.8,5.5,1.1c3.7,0.7,7.4,1.3,11.1,1.9
							c7.4,1.2,14.9,2.2,22.3,3.4c7.4,1.3,14.7,3,22.1,4.5c3.7,0.7,7.4,1.4,11.1,1.9c3.7,0.5,7.4,0.8,11.2,1c7.6,0.5,15,2.6,22.1,5
							c3.6,1.2,7.1,2.6,10.6,4c1.7,0.7,3.5,1.5,5.1,2.1c1.7,0.6,3.5,1,5.3,1.3c3.6,0.7,7.4,1.1,11.1,1.9c1.9,0.4,3.8,0.8,5.6,1.5
							c1.9,0.6,3.7,1.5,5.4,2.5l9,5.5l-10.2-2.8c-1.6-0.4-3.1-1-4.5-1.8c-1.4-0.8-2.7-1.8-3.8-2.9c-2.3-2.2-4.1-4.6-6-6.8
							c-0.9-1.1-1.9-2.2-2.9-3.2c-0.5-0.5-1-0.9-1.6-1.4l-1.7-1.4c-2.3-1.8-4.7-3.6-7.1-5.4c-2.4-1.8-4.7-3.6-7.1-5.5l-7-5.5
							c-4.7-3.7-9.3-7.6-13.5-11.9c-2.1-2.2-4-4.4-6.1-6.5c-2.1-2.1-4.3-4.1-6.4-6.1c-4.4-4-8.9-8-12.8-12.5c-0.5-0.6-1-1.1-1.5-1.7
							c-0.5-0.6-1-1.2-1.4-1.8c-0.9-1.3-1.6-2.6-2.3-3.9c-1.4-2.6-3-5-5.4-6.7c-2.3-1.7-5-3-7.7-4.4c-2.7-1.4-5.2-3-7.3-5.2l0.2-0.2
							c2.2,2,4.7,3.5,7.4,4.7c2.7,1.2,5.5,2.4,8,4.1c1.3,0.8,2.5,1.9,3.4,3.1c1,1.2,1.8,2.5,2.6,3.8c0.8,1.3,1.5,2.5,2.4,3.7
							c0.9,1.1,1.9,2.2,2.9,3.3c4,4.3,8.6,8.1,13.1,12c2.2,2,4.5,3.9,6.7,6c2.2,2.1,4.2,4.4,6.3,6.4c4.1,4.1,8.7,7.8,13.4,11.5
							l7.1,5.5c2.3,1.8,4.7,3.6,7.1,5.4c2.4,1.8,4.7,3.6,7.1,5.5l1.8,1.4c0.6,0.5,1.2,1,1.8,1.6c1.1,1.1,2.1,2.3,3.1,3.4
							c1.9,2.3,3.7,4.7,5.7,6.7c1,1,2.1,1.8,3.2,2.5c1.1,0.7,2.4,1.2,3.7,1.6l-1.1,2.7c-1.5-0.9-3.1-1.7-4.8-2.3
							c-1.7-0.6-3.5-1-5.3-1.4c-3.6-0.8-7.3-1.2-11.1-2c-1.9-0.4-3.7-0.9-5.6-1.5c-1.9-0.7-3.5-1.5-5.3-2.2
							c-3.4-1.5-6.9-2.9-10.4-4.2c-7-2.6-14.1-4.8-21.5-5.6c-7.5-0.6-15-1.9-22.3-3.5c-7.4-1.6-14.7-3.3-22-4.5
							c-7.4-1.2-14.9-2-22.3-2.9c-3.7-0.5-7.5-0.9-11.2-1.5c-1.9-0.3-3.7-0.6-5.6-1L253,242c-3.7-0.7-7.4-1.2-11.1-2.2
							c-3.7-0.9-7.5-2.2-10.7-4.7l-0.7-0.5l0.2-0.8c0.3-1,0.7-2,1.3-2.9c0.6-0.9,1.3-1.6,2-2.3c1.5-1.3,3.2-2.2,4.9-3
							c3.4-1.6,6.9-2.6,10.4-3.5c3.5-0.9,7-1.7,10.5-2.5c1.7-0.4,3.4-0.9,5-1.5c1.6-0.7,3.2-1.4,4.7-2.3c6.1-3.4,11.2-8.7,16.9-13.2
							c2.8-2.3,5.7-4.5,8.8-6.4c3.1-1.9,6.5-3.6,10.2-3.6L305.4,192.7z"/>
					</g>
					<path class="st3" d="M775.7,351.2c-8.3-0.4-16.7-0.8-25-1.1c-8.8-0.4-17.9-1.9-26.3,0.3c-12.1,3.1-24.6,4-36.4,7.8
						c-9.9,3.2-20.2,6.2-30.2,8.6c-11.7,2.8-23.7,3.3-35.5,4.5c-6.1,0.6-11.9,2.7-18.1,3.3c-8.1,0.8-15.9,3.4-23.7,5.3
						c-8.3,2-16.8,2.4-25.3,3.5c-17.2,2.3-33.7,6.9-51.1,5.6c-9.4-0.7-13.3-13.3-19-19.8c-9.1-10.3-19.1-19.2-26.3-30.9
						c-2.8-4.6-6.2-7.7-9.7-11.8c-4.2-4.9-6-10.9-10.4-15.9c-9.1-10.3-19.2-20.4-29.6-29.4c-5.8-5.1-11-9.9-16.3-15.4
						c-4.5-4.6-10.1-7.6-14.5-12.3c-6.6-7.1-12.8-14.8-19.5-21.9c-9.3-10-18.2-20.8-28.2-30.1c-10-9.3-20.6-17.8-31.2-26.5
						c-5.6-4.7-11.4-9.4-16.8-14.3c-5.2-4.7-8.1-10.5-12.7-15.7c-5.1-5.8-10.1-11.2-14.6-17.4c-4-5.5-10.3-8.4-14.4-13.7"/>
					<g>
						<path class="st1" d="M506.7,374.3c13.9,0.6,27.2,1.3,41,0.1c17.2-1.6,34.4-2.9,51.5-4.7c27.3-2.8,53.8-6.3,80.9-10.6
							c10.2-1.6,20.1-2,30.7-2.7c12.4-0.8,23.4-3.9,35.4-5.5c10.2-1.3,19.8-3.1,29.6-6c4.9-1.4,9.5-3.4,14.3-5.1
							c3.1-1.1,5.6-0.8,7.5-3.3c1.9-2.6,0.7-7.4,0.8-10.4c0.2-5.4-0.2-11.3,1.3-16.6c1.8-6.4,4.6-11.4,5.4-18
							c1.6-12.3,8.4-24,9.5-36.4c0.7-8.4,0.7-16.9,1.1-25.3c0.4-8,5.2-21.1-6.4-24.9c-8.4-2.7-22.9-1.4-32-1.8
							c-13.7-0.6-26.3-0.7-39.7,0.7c-6.3,0.6-12.3,2.5-18.7,3c-4.3,0.3-8-0.2-12.3,0.6c-4.3,0.8-8,1.9-12.3,2.4
							c-14.8,1.9-29.5,6-44.5,6.3c-7,0.1-13.4,1.6-20.5,1.2c-8.1-0.5-13.9,0.2-21.7,0.8c-15.2,1.3-30.3,3-45.5,4.8
							c-8.8,1.1-16.2,3.1-25.2,2.6c-6.9-0.4-11.5-0.5-17.8,0.7c-6.6,1.3-13.5,1.7-20.1,3.2c-6.7,1.5-14.5,5.5-21.4,5.9"/>
						<path class="st4" d="M506.7,374.3c13.9,0.6,27.2,1.3,41,0.1c17.2-1.6,34.4-2.9,51.5-4.7c27.3-2.8,53.8-6.3,80.9-10.6
							c10.2-1.6,20.1-2,30.7-2.7c12.4-0.8,23.4-3.9,35.4-5.5c10.2-1.3,19.8-3.1,29.6-6c4.9-1.4,9.5-3.4,14.3-5.1
							c3.1-1.1,5.6-0.8,7.5-3.3c1.9-2.6,0.7-7.4,0.8-10.4c0.2-5.4-0.2-11.3,1.3-16.6c1.8-6.4,4.6-11.4,5.4-18
							c1.6-12.3,8.4-24,9.5-36.4c0.7-8.4,0.7-16.9,1.1-25.3c0.4-8,5.2-21.1-6.4-24.9c-8.4-2.7-22.9-1.4-32-1.8
							c-13.7-0.6-26.3-0.7-39.7,0.7c-6.3,0.6-12.3,2.5-18.7,3c-4.3,0.3-8-0.2-12.3,0.6c-4.3,0.8-8,1.9-12.3,2.4
							c-14.8,1.9-29.5,6-44.5,6.3c-7,0.1-13.4,1.6-20.5,1.2c-8.1-0.5-13.9,0.2-21.7,0.8c-15.2,1.3-30.3,3-45.5,4.8
							c-8.8,1.1-16.2,3.1-25.2,2.6c-6.9-0.4-11.5-0.5-17.8,0.7c-6.6,1.3-13.5,1.7-20.1,3.2c-6.7,1.5-14.5,5.5-21.4,5.9"/>
					</g>
					<g>
						<path class="st1" d="M247.6,57.7c0.7,3.6,3.1,7.9,1.6,11.6c-2,4.8-7,3.4-10.7,5.4c-0.2,7.5,13.1,12.3,16.7,17.7
							c2.3,3.5,1.3,11.7,0.8,15.8c-1.4,11.2-14.2,0.8-16.7,7.8c-1.4,4.1,9.1,12.5,11.9,14.5c12,8.9,23.3,19.1,32.1,31.3
							c4.6,6.3,9.7,13.1,15.1,18.8c5.2,5.5,10.4,10.3,15.3,16.2c6.6,7.8,13.3,15.6,20.2,23.2c32.6,35.5,73,62,108.6,94.5
							c14.4,13.2,28.4,26,41.9,40c3.9,4.1,12.5,12.1,18.2,13.5c4.6,1.1,15.4,1.6,20.3,0.6c3.1-5.2-8.6-11.7-6.2-17
							c1.9-4.4,10.9,3.7,14.9-0.1c2.9-2.7-0.4-6.5-1.8-9.3c-1.9-4.1-1.3-4.4-0.7-8.5c1-6.8-8.4-17.1-10.7-23.8
							c1.5-3.5,6.5-0.9,9.3-1.5c-1.3-7.8-7.7-12.1-10.3-19.3c-2.7-7.5-1.6-15.8-5.9-22.7c-3.9-6.1-7-12.2-11.8-17.7
							c-4.5-5.1-7-11.1-11.7-16.1c-2.9-3.1-4.4-5.5-8-7.8c-4-2.6-5.9-5-8.9-8.6c-3.2-4-7.5-7.2-10.7-11.1c-2.9-3.4-4.8-6.9-8.2-9.8
							c-13-11.2-28-20.1-40.3-32c-3.4-3.3-6.6-7.5-10-10.6c-2.7-2.5-4.2-2.8-7.5-4.7c-7.2-4.2-12.6-10.7-19.1-15.7
							c-9.1-7-19.9-12.9-29.6-19c-11.6-7.3-22.1-16.4-33.4-24.2c-15.7-10.7-32.4-19.2-45.9-32.8c-2.6-2.6-10.7-10.7-14.1-10.8
							c-6.9-0.3-4.9,17.9-5.1,22.6"/>
						<path class="st2" d="M247.7,57.7c0.4,2,1.2,3.9,1.7,5.9c0.5,2,0.8,4.2-0.1,6.2c-0.4,1-1.1,1.9-2,2.5c-0.9,0.6-1.9,1-2.9,1.3
							c-2,0.5-4.1,0.7-5.8,1.6l0.2-0.4c0,1.1,0.3,2.2,0.8,3.1c0.5,1,1.2,1.9,2,2.7c1.6,1.6,3.5,3,5.4,4.4c1.9,1.3,3.9,2.6,5.7,4.1
							c0.9,0.8,1.8,1.6,2.6,2.6c0.8,1,1.2,2.3,1.5,3.5c0.5,2.4,0.5,4.8,0.4,7.2c-0.1,1.2-0.2,2.4-0.3,3.5c-0.1,1.2-0.2,2.3-0.4,3.6
							c-0.2,1.2-0.7,2.5-1.7,3.5c-1,1.1-2.4,1.5-3.6,1.7c-2.6,0.3-4.9-0.3-7.1-0.3c-1.1,0-2.2,0.1-2.9,0.6c-0.3,0.2-0.6,0.5-0.8,0.9
							c-0.1,0.2-0.2,0.4-0.3,0.6c0,0.2-0.1,0.3-0.1,0.5c0,0.8,0.6,1.8,1.2,2.7c0.6,0.9,1.3,1.8,2.1,2.6c1.5,1.7,3.2,3.2,5,4.7
							c1.8,1.5,3.6,2.8,5.5,4.3c7.5,5.7,14.6,11.8,21.1,18.7c3.2,3.4,6.3,7.1,9.1,10.9c2.8,3.8,5.5,7.5,8.5,11.1
							c2.9,3.6,6,7.1,9.3,10.4c3.3,3.3,6.6,6.6,9.8,10.1c1.6,1.7,3.1,3.6,4.6,5.3l4.5,5.4c3,3.6,6.1,7.1,9.2,10.6
							c6.2,7,12.6,13.7,19.3,20.2c6.7,6.5,13.6,12.8,20.7,18.9c7.1,6.1,14.3,12.1,21.5,18c14.5,11.9,29.1,23.6,43.2,35.9
							c7,6.2,13.9,12.6,20.7,18.9c6.9,6.4,13.7,12.7,20.4,19.3c3.3,3.3,6.6,6.6,9.9,10c3.3,3.3,6.8,6.4,10.6,9.1
							c1.9,1.3,3.9,2.5,6,3.2c1,0.3,2.2,0.5,3.3,0.7c1.1,0.1,2.3,0.3,3.5,0.3c2.3,0.2,4.6,0.2,7,0.2c2.3,0,4.6-0.2,6.8-0.6l-0.5,0.3
							c0.7-1.2,0.4-2.7-0.4-4.1c-0.8-1.4-1.8-2.7-2.8-4c-1-1.3-2.1-2.7-2.9-4.4c-0.8-1.6-1.2-4,0.6-5.7c0.5-0.4,1.1-0.6,1.6-0.7
							c0.5-0.1,1,0,1.5,0c0.9,0.1,1.8,0.4,2.6,0.6c1.6,0.5,3.2,1.1,4.7,1.4c1.5,0.3,3,0.2,3.9-0.7c0.5-0.5,0.7-1,0.8-1.6
							c0-0.6-0.2-1.3-0.5-2c-0.6-1.4-1.6-2.8-2.4-4.4c-0.4-0.8-0.7-1.6-1-2.4c-0.3-0.9-0.5-1.9-0.4-2.9c0.1-1,0.2-1.8,0.4-2.6
							l0.2-1.2l0.1-1.1c-0.1-1.5-0.5-3-1.1-4.5c-1.2-3-3-5.8-4.8-8.7c-1.8-2.9-3.7-5.7-5-9l-0.2-0.5l0.2-0.4
							c0.1-0.3,0.3-0.5,0.4-0.7c0.2-0.2,0.4-0.5,0.6-0.7c0.2-0.2,0.5-0.4,0.7-0.5c0.3-0.1,0.5-0.3,0.8-0.3c1.1-0.3,2.1-0.3,3-0.2
							c0.9,0.1,1.8,0.2,2.6,0.3c0.8,0.1,1.6,0.1,2.1,0l-1,1.4c-0.7-4-3.1-7.4-5.6-10.9c-1.3-1.8-2.6-3.6-3.6-5.6
							c-1.1-2-1.7-4.3-2.2-6.4c-1-4.4-1.2-8.7-2.3-12.7c-0.5-2-1.3-3.9-2.3-5.6c-1.1-1.8-2.3-3.7-3.4-5.5c-2.2-3.7-4.5-7.3-7.1-10.6
							c-0.7-0.8-1.3-1.6-2.1-2.5c-0.7-0.9-1.4-1.7-2-2.6c-1.3-1.8-2.5-3.6-3.6-5.4c-1.2-1.8-2.4-3.5-3.7-5.2
							c-0.7-0.8-1.3-1.5-2.1-2.4c-0.8-0.8-1.5-1.6-2.2-2.4c-1.4-1.6-2.8-3-4.5-4.1l-1.3-0.9c-0.5-0.3-0.9-0.6-1.4-1
							c-0.9-0.7-1.8-1.4-2.6-2.2c-1.6-1.6-3-3.3-4.4-5c-1.3-1.6-2.7-3.1-4.3-4.6c-1.5-1.5-3.1-2.9-4.7-4.5c-1.6-1.6-3-3.4-4.3-5.1
							c-1.3-1.7-2.5-3.4-3.9-4.9c-0.7-0.8-1.4-1.4-2.2-2.1l-2.5-2.1c-3.3-2.7-6.7-5.3-10.2-7.9c-6.9-5.1-14-10.2-20.6-15.8
							c-1.7-1.4-3.3-2.8-4.9-4.3c-0.8-0.8-1.6-1.5-2.4-2.3c-0.8-0.8-1.5-1.6-2.3-2.4c-1.5-1.6-2.9-3.3-4.3-4.8
							c-1.4-1.5-2.9-3.1-4.5-4.2c-0.8-0.6-1.6-1.1-2.6-1.6c-0.9-0.5-1.9-1-2.9-1.6c-1.9-1.1-3.8-2.4-5.5-3.8
							c-3.4-2.8-6.5-5.8-9.7-8.7c-3.1-2.9-6.6-5.4-10.1-7.8c-3.5-2.4-7.2-4.7-10.8-7c-3.7-2.3-7.4-4.5-11-6.8
							c-3.7-2.3-7.3-4.8-10.8-7.3c-7-5.1-13.7-10.5-20.7-15.6c-13.9-10.1-29.4-18.1-42.6-29.5c-0.8-0.7-1.6-1.4-2.4-2.2
							c-0.8-0.7-1.6-1.5-2.4-2.2c-1.6-1.5-3-3.1-4.6-4.6c-1.5-1.5-3.1-3-4.8-4.3c-0.8-0.7-1.7-1.3-2.5-1.9c-0.9-0.6-1.8-1.2-2.7-1.5
							c-0.9-0.4-1.9-0.2-2.7,0.4c-0.8,0.6-1.3,1.5-1.7,2.5c-0.7,2-1,4.1-1.2,6.2c-0.2,2.1-0.2,4.3-0.2,6.4c0,2.2,0.1,4.3,0,6.5
							l-0.3,0c0-4.3-0.4-8.6-0.1-13c0.1-2.2,0.4-4.4,1.1-6.5c0.4-1,0.9-2.1,1.9-2.8c0.5-0.4,1.1-0.6,1.7-0.7c0.6-0.1,1.2,0,1.8,0.2
							c1.1,0.4,2.1,0.9,3,1.5c0.9,0.6,1.8,1.3,2.6,1.9c1.7,1.4,3.3,2.8,4.9,4.3c1.6,1.5,3.1,3,4.7,4.5c0.8,0.8,1.6,1.5,2.4,2.2
							c0.8,0.7,1.6,1.4,2.4,2.1c13.2,11.1,28.7,18.8,42.9,28.8c7.1,5,13.9,10.4,20.8,15.4c3.5,2.5,7,4.9,10.7,7.1
							c3.7,2.3,7.4,4.4,11.1,6.7c3.7,2.2,7.4,4.5,11,6.9c3.6,2.4,7.2,5,10.4,7.9c3.3,2.9,6.4,5.9,9.7,8.5c1.7,1.3,3.4,2.5,5.1,3.6
							c0.9,0.5,1.8,1,2.8,1.5c1,0.5,2,1.1,3,1.8c1.9,1.4,3.4,3,5,4.6c1.5,1.6,2.9,3.2,4.3,4.8c1.4,1.6,2.9,3,4.5,4.5
							c1.6,1.4,3.2,2.8,4.8,4.2c6.6,5.5,13.6,10.5,20.5,15.6c3.5,2.6,6.9,5.2,10.3,8l2.5,2.1c0.8,0.7,1.7,1.5,2.5,2.4
							c1.6,1.7,2.9,3.5,4.1,5.2c1.3,1.7,2.6,3.3,4,4.8c1.5,1.5,3,3,4.6,4.5c1.6,1.5,3.1,3.1,4.5,4.9c1.4,1.7,2.7,3.3,4.1,4.8
							c0.7,0.7,1.5,1.4,2.3,2c0.4,0.3,0.8,0.6,1.2,0.9l1.4,0.9c1.9,1.3,3.6,3,5,4.6l2.1,2.4c0.7,0.8,1.5,1.7,2.2,2.5
							c1.4,1.8,2.6,3.6,3.8,5.4c1.2,1.8,2.3,3.6,3.5,5.3c0.6,0.9,1.2,1.7,1.9,2.5c0.6,0.8,1.4,1.6,2.1,2.5c2.8,3.5,5.1,7.2,7.3,10.9
							c1.1,1.9,2.2,3.7,3.4,5.5c1.2,2,2,4.2,2.6,6.3c1.1,4.4,1.4,8.7,2.3,12.8c0.4,2,1,4,1.9,5.8c0.9,1.8,2.1,3.6,3.3,5.3
							c1.2,1.8,2.5,3.5,3.6,5.5c1.1,2,1.9,4.2,2.3,6.5l0.2,1.2l-1.2,0.2c-1.1,0.2-2,0.1-2.9,0c-0.9-0.1-1.7-0.2-2.5-0.3
							c-0.8-0.1-1.5-0.1-2,0.1c-0.5,0.2-0.9,0.4-1.1,1l0-0.9c1.1,2.9,2.9,5.8,4.7,8.7c1.7,2.9,3.5,5.8,4.9,9
							c0.6,1.6,1.2,3.4,1.2,5.2l-0.1,1.4l-0.2,1.3c-0.1,0.8-0.3,1.7-0.4,2.4c-0.1,0.7,0,1.4,0.3,2.1c0.2,0.7,0.6,1.5,0.9,2.2
							c0.7,1.4,1.7,2.8,2.3,4.5c0.3,0.8,0.6,1.8,0.6,2.9c0,1.1-0.6,2.1-1.3,2.8c-0.7,0.8-1.8,1.2-2.7,1.3c-1,0.1-1.9,0-2.8-0.1
							c-1.8-0.4-3.4-1-4.9-1.5c-0.8-0.3-1.6-0.5-2.3-0.6c-0.7-0.1-1.4-0.1-1.8,0.2c-0.4,0.3-0.6,1-0.6,1.6c0,0.7,0.2,1.4,0.5,2.1
							c0.6,1.4,1.6,2.7,2.6,4.1c1,1.3,2.1,2.7,2.9,4.3c0.4,0.8,0.8,1.7,0.9,2.6c0.1,1-0.1,2-0.6,2.9l-0.2,0.3l-0.3,0.1
							c-2.4,0.4-4.8,0.5-7.1,0.5c-2.4,0-4.7-0.1-7.1-0.3c-1.2-0.1-2.3-0.2-3.5-0.4c-1.2-0.2-2.3-0.4-3.5-0.7
							c-2.4-0.8-4.4-2.1-6.3-3.4c-3.9-2.7-7.4-5.9-10.7-9.2c-3.3-3.4-6.5-6.7-9.8-10c-13.3-13.2-27.1-25.8-41.1-38.2
							c-14.1-12.3-28.9-23.8-43.5-35.4c-7.3-5.8-14.6-11.7-21.8-17.7c-7.2-6-14.2-12.2-21-18.7c-6.8-6.5-13.3-13.2-19.6-20.3
							c-3.1-3.5-6.2-7-9.2-10.6c-3.1-3.5-6-7.2-9.1-10.6c-3.1-3.4-6.4-6.7-9.7-10.1c-3.3-3.3-6.4-6.9-9.4-10.6
							c-2.9-3.7-5.7-7.5-8.5-11.3c-2.7-3.7-5.7-7.3-8.8-10.7c-6.3-6.8-13.3-12.9-20.7-18.6c-3.7-2.8-7.5-5.8-10.7-9.4
							c-0.8-0.9-1.6-1.8-2.2-2.9c-0.7-1.1-1.3-2.2-1.4-3.7c0-0.4,0-0.8,0.1-1.2c0.1-0.4,0.3-0.7,0.4-1c0.3-0.6,0.9-1.2,1.5-1.6
							c1.3-0.8,2.7-0.8,3.9-0.8c2.5,0.1,4.8,0.6,6.9,0.4c1-0.1,2-0.4,2.6-1.1c0.7-0.7,1.1-1.6,1.3-2.7c0.2-1,0.3-2.3,0.5-3.4
							c0.1-1.2,0.2-2.3,0.3-3.5c0.1-2.3,0.2-4.6-0.3-6.8c-0.2-1.1-0.6-2.1-1.2-2.9c-0.6-0.9-1.5-1.7-2.3-2.4
							c-1.7-1.5-3.7-2.8-5.6-4.2c-1.9-1.4-3.8-2.8-5.4-4.6c-0.8-0.9-1.6-1.9-2.1-2.9c-0.6-1.1-0.9-2.3-0.8-3.6l0-0.3l0.2-0.1
							c1.9-1,4.1-1.1,6-1.6c1-0.2,1.9-0.5,2.7-1.1c0.8-0.5,1.4-1.3,1.8-2.2c0.9-1.8,0.7-3.9,0.3-5.8c-0.5-2-1.2-3.9-1.6-5.9
							L247.7,57.7z"/>
					</g>
					<g>
						<path class="st1" d="M506.2,252.7c4.8,0.8,21.4-3.4,25.9-4.9c8-2.5,15.2-4.7,23.5-6.1c9.5-1.6,18.3-5.9,27.8-7.8
							c10.6-2,21-4.5,31.6-6.6c20.1-4,42-2.3,62.5-3.8c20.9-1.5,41-2.2,61.8-1.3c16.6,0.7,32.5,1.9,48.9,4.6c6,1,17.8,6.6,22.7,0.7
							c5.9-7.2,3.7-25.5,5.2-33.7c2.9-16.2,2.6-32.9,3.4-49.4c0.5-10.2,0.9-17-9.2-21.8c-8.9-4.2-19.4-5-28.4-8.8
							c-8.5-3.6-16.7-8.2-24.7-12.8c-10.1-5.7-18.8-12.6-29.4-17.5c-8.9-4.1-16.5-8.8-24.6-14.2c-9.6-6.4-20.2-10.9-30.5-15.8
							C659,47.3,642,38.7,627.1,35.7c-6.1-1.2-12.4-0.8-18.6-1.1c-13.8-0.6-27.5-1.3-41.3-1.9c-38.9-1.8-77.9-1.2-116.8-0.6
							c-19.6,0.3-39.7-0.5-59.1,1.7c-17.2,2-34.3,2.1-51.6,3.2c-18,1.1-35.6-0.1-53.6-0.8c-10.4-0.4-20.7,1.3-31.1,1.2
							c-8.5-0.1-16.5-2.1-24.7,0.9c3.7,15.1,21.7,21.1,33.4,27.6c20.3,11.4,38.7,25.3,57.7,38.9c11.2,8,21.9,17.3,31.7,27.1
							c10.3,10.4,21.4,20.1,31.5,30.9c9,9.6,19.9,19.7,27.3,30.5c7.1,10.3,15.2,18.1,26.4,23.6c13.1,6.5,26.3,13,39.2,20
							C492.5,245.1,506.2,252.7,506.2,252.7z"/>
						<g>
							<path class="st2" d="M506.2,252.6c1.2,0.2,2.6,0.1,3.9-0.1c1.3-0.1,2.6-0.3,3.9-0.6c2.6-0.5,5.2-1,7.8-1.6
								c2.6-0.6,5.2-1.3,7.7-2c2.6-0.7,5.1-1.6,7.6-2.4c5.1-1.6,10.2-3,15.4-4.1c2.6-0.5,5.2-0.9,7.8-1.6c2.6-0.7,5.1-1.5,7.6-2.3
								c5-1.7,10.1-3.5,15.3-4.6c5.2-1,10.4-2.2,15.6-3.3c5.2-1.1,10.4-2.3,15.6-3.4c5.2-1.1,10.6-1.8,15.9-2.2
								c10.6-0.9,21.3-0.9,31.9-1.2c5.3-0.1,10.6-0.4,15.9-0.7c5.3-0.4,10.6-0.7,15.9-1c10.6-0.5,21.3-0.8,31.9-0.7
								c10.7,0.1,21.3,0.6,31.9,1.4c5.3,0.4,10.6,0.9,15.9,1.5c2.7,0.3,5.3,0.6,7.9,1l4,0.6c1.3,0.2,2.6,0.4,4,0.7
								c2.7,0.6,5.2,1.5,7.7,2.1c2.5,0.6,5.1,1.1,7.5,1c1.2-0.1,2.3-0.3,3.3-0.8c1-0.5,1.7-1.3,2.3-2.3c1.3-2,1.9-4.5,2.4-7
								c0.9-5.1,1-10.4,1.1-15.7c0.1-2.7,0.1-5.3,0.5-8.1c0.2-1.4,0.4-2.7,0.6-4c0.2-1.3,0.4-2.6,0.6-3.9
								c1.3-10.5,1.7-21.1,2.1-31.7l0.3-8c0.1-2.7,0.3-5.3,0.4-7.9c0.1-2.6,0-5.2-0.7-7.6c-0.7-2.4-2.2-4.4-4.1-5.9
								c-2-1.6-4.3-2.6-6.8-3.6c-2.4-1-4.9-1.7-7.5-2.4c-5.1-1.4-10.3-2.5-15.4-4.3c-5.1-1.9-9.8-4.3-14.5-6.8
								c-4.7-2.5-9.3-5.2-13.9-7.8c-9.2-5.4-17.7-11.9-27.2-16.4c-4.8-2.2-9.6-4.7-14.1-7.5c-4.6-2.7-9-5.7-13.4-8.6
								c-8.9-5.7-18.7-9.9-28.3-14.5c-9.6-4.6-19.1-9.3-29-13.1c-4.9-1.9-10-3.6-15.1-4.7c-5.1-1.2-10.4-1.2-15.8-1.2
								c-2.7,0-5.3-0.1-8-0.3l-8-0.3l-15.9-0.7c-10.6-0.4-21.2-0.9-31.8-1.2c-21.2-0.5-42.5-0.4-63.7-0.2l-31.9,0.5
								c-10.6,0.2-21.3,0.1-31.9,0.3c-10.6,0.1-21.2,0.6-31.7,1.9c-10.6,1.2-21.3,1.7-31.9,2.2c-5.3,0.2-10.6,0.5-15.9,0.8
								c-5.3,0.4-10.7,0.6-16,0.6c-10.7,0.1-21.3-0.4-31.9-0.9l-8-0.3c-2.6-0.1-5.2,0-7.9,0.1c-5.3,0.2-10.5,0.7-15.9,0.9
								c-2.7,0.1-5.4,0.2-8.1,0.1c-2.7-0.1-5.4-0.3-8-0.5c-2.6-0.2-5.2-0.3-7.8-0.2c-2.5,0.2-5,0.6-7.4,1.5l1-1.8
								c0.8,3.3,2.5,6.4,4.7,9.1c2.3,2.7,5.1,4.9,8,6.9c6,4,12.8,6.9,19.3,10.4c13,7.2,25.2,15.5,37.2,24.1l17.9,13
								c6,4.3,11.9,8.8,17.6,13.6c5.7,4.8,11.1,9.8,16.3,15.1c5.2,5.2,10.5,10.3,15.8,15.4c5.3,5.1,10.6,10.2,15.7,15.6
								c5,5.4,10.2,10.6,15.3,16c2.5,2.7,5,5.5,7.3,8.3c1.2,1.4,2.3,2.9,3.4,4.4c1.1,1.5,2.2,3,3.2,4.5c4.2,5.9,9.2,11.4,15,15.8
								c2.9,2.2,6,4.1,9.2,5.8l9.9,5c6.6,3.3,13.1,6.7,19.7,10.1c3.3,1.7,6.5,3.5,9.7,5.3l9.6,5.4L506.2,252.6z M506.1,252.9
								l-19.5-10.5c-6.5-3.5-13-7-19.5-10.4c-6.6-3.4-13.2-6.6-19.8-9.9l-9.9-4.9c-3.3-1.7-6.5-3.6-9.5-5.8c-6-4.4-11.2-10-15.5-16
								c-4.2-6.1-8.9-11.6-14-16.9c-5-5.3-10.3-10.5-15.4-15.9c-5.1-5.3-10.4-10.4-15.7-15.4c-5.4-5-10.7-10.1-16-15.3
								c-5.2-5.2-10.6-10.1-16.2-14.8c-5.6-4.7-11.4-9.1-17.5-13.3l-18-12.9c-12-8.5-24.2-16.8-37-23.9c-6.4-3.5-13.3-6.4-19.6-10.5
								c-3.1-2.1-6.2-4.5-8.7-7.4c-2.5-2.9-4.5-6.5-5.4-10.3l-0.3-1.4l1.3-0.5c2.7-1,5.5-1.5,8.2-1.6c2.8-0.2,5.5,0,8.2,0.1
								c2.7,0.2,5.3,0.4,7.9,0.5c2.6,0.1,5.2,0,7.9-0.1c5.3-0.2,10.6-0.7,15.9-1c2.7-0.1,5.4-0.1,8.1-0.1l8,0.3
								c10.6,0.5,21.2,1,31.8,1c5.3,0,10.5-0.2,15.8-0.5c5.3-0.3,10.6-0.5,15.9-0.8c10.6-0.5,21.2-0.9,31.7-2
								c10.6-1.2,21.3-1.7,32-1.7c10.7-0.1,21.3,0.1,31.9,0l31.9-0.3c21.3-0.1,42.5,0,63.8,0.7c10.6,0.3,21.3,0.9,31.9,1.4l15.9,0.8
								l8,0.4c2.7,0.1,5.3,0.3,7.9,0.3c5.3,0.1,10.7,0.1,16,1.3c5.2,1.1,10.3,2.8,15.3,4.7c10,3.8,19.5,8.6,29.1,13.2
								c9.6,4.6,19.4,8.8,28.4,14.5c4.5,2.9,8.9,5.8,13.5,8.5c4.6,2.7,9.2,5.2,14.1,7.4c9.7,4.5,18.2,11.1,27.4,16.3
								c4.6,2.6,9.3,5.2,13.9,7.7c4.7,2.4,9.5,4.8,14.4,6.5c4.9,1.7,10.2,2.7,15.3,4.1c2.6,0.7,5.2,1.4,7.7,2.4c2.5,1,5,2.1,7.3,3.8
								c2.2,1.7,4.1,4.1,4.9,6.9c0.8,2.7,0.9,5.5,0.9,8.2c0,2.7-0.2,5.3-0.3,8l-0.3,8c-0.3,10.6-0.5,21.3-1.9,31.9
								c-0.2,1.3-0.4,2.7-0.6,4c-0.2,1.3-0.5,2.7-0.6,3.9c-0.3,2.5-0.4,5.2-0.4,7.8c-0.1,5.3-0.2,10.7-1.1,16.1
								c-0.5,2.7-1.2,5.4-2.8,8c-0.2,0.3-0.4,0.6-0.6,0.9c-0.2,0.3-0.5,0.6-0.7,0.9c-0.6,0.6-1.2,1.1-1.9,1.4
								c-1.4,0.8-2.9,1.1-4.4,1.2c-2.9,0.2-5.6-0.4-8.3-1c-2.6-0.6-5.2-1.5-7.7-2c-1.2-0.3-2.5-0.4-3.8-0.7l-3.9-0.6
								c-2.6-0.4-5.2-0.7-7.9-1c-5.3-0.6-10.5-1.1-15.8-1.5c-10.6-0.8-21.2-1.3-31.8-1.5c-10.6-0.2-21.2,0.1-31.8,0.6
								c-5.3,0.3-10.6,0.6-15.9,0.9c-5.3,0.4-10.7,0.6-16,0.6c-10.6,0.2-21.3,0.1-31.8,0.9c-5.3,0.4-10.5,1-15.7,2.1
								c-5.2,1-10.4,2.1-15.6,3.2c-5.2,1.1-10.4,2.2-15.6,3.1c-5.2,1-10.2,2.7-15.3,4.3c-2.5,0.8-5.1,1.6-7.7,2.2
								c-2.6,0.7-5.3,1.1-7.9,1.5c-5.2,1-10.3,2.3-15.4,3.8c-2.6,0.7-5.1,1.5-7.7,2.2c-2.6,0.7-5.2,1.3-7.7,1.9
								c-2.6,0.6-5.2,1.1-7.8,1.6c-1.3,0.2-2.6,0.4-4,0.5C508.8,252.9,507.5,253.1,506.1,252.9z"/>
						</g>
					</g>
				</g>
			</g>
		</g>
	</g>
</g>
</svg>
