<svg id="Layer_1" data-name="Layer 1" xmlns="http://www.w3.org/2000/svg" viewBox="0 0 601.27 39"><defs><style>.cls-1{fill:#fff;}</style></defs><title>books_header_border</title><rect class="cls-1" x="0.45" y="1.21" width="600" height="36.2"/><path d="M.34,1.1,75,.62,149.81.27c50-.09,100-.36,150.15-.24S400.28.47,450.34.64,550.41.76,600.45.55h.66v.66l.16,36.2v.82h-.83l-150,.57c-50,.07-100,.26-150,.17l-75-.06-75-.24-75-.33-75-.49H0v-.44Zm.21.21L.89,37.41.45,37l75-.49,75-.33,75-.24,75-.06c50-.1,100,.1,150,.17l150,.57-.82.82.16-36.2.66.66q-74.94-.33-149.89-.09c-49.94.17-99.74.57-149.62.61s-99.87-.15-149.85-.24L75.94,1.79Z"/></svg>