<svg xmlns="http://www.w3.org/2000/svg" viewBox="0 0 277.11 277.92"><defs><style>.cls-1{fill:#fff;}.cls-2{fill:#010101;}</style></defs><title>border_story</title><g id="Layer_2" data-name="Layer 2"><rect class="cls-1" x="1.25" y="1.56" width="274.31" height="275.03"/><path class="cls-2" d="M280.51,280.55l-68.24.54-68.58.41-68.77.23c-11.46.05-22.94,0-34.42,0l-34.41-.06H4.84v-1.24l.41-68.76.22-34.38.1-34.38.06-34.38L5.56,74.17c0-22.92-.2-45.84-.29-68.76V4.6h.82l68.58-.33L143.25,4l68.58-.15,68.58,0h1.55V5.42c0,23,0,46-.13,69l-.34,68.93Zm-.21-.21-1-137.86L279,73.9c-.12-22.84-.09-45.65-.13-68.49L280.4,7,211.82,7l-68.58-.15L74.67,6.57,6.09,6.24l.82-.82c-.09,22.92-.29,45.84-.29,68.76l-.06,34.38.06,34.38.1,34.38.22,34.38.41,68.76L6.09,279.2l34.17-.06c11.39,0,22.77,0,34.16,0l68.38.23,68.58.41Z" transform="translate(-4.84 -3.86)"/></g></svg>