<?xml version="1.0" encoding="utf-8"?>
<!-- Generator: Adobe Illustrator 21.0.2, SVG Export Plug-In . SVG Version: 6.00 Build 0)  -->
<svg version="1.1" id="Layer_1" xmlns="http://www.w3.org/2000/svg" xmlns:xlink="http://www.w3.org/1999/xlink" x="0px" y="0px"
	 viewBox="0 0 600 83" style="enable-background:new 0 0 600 83;" xml:space="preserve">
<style type="text/css">
	.st0{fill:#FFFFFF;}
	.st1{fill:#010101;}
</style>
<title>border_caption</title>
<g id="Layer_5">
	<g>
		<rect x="0.9" y="0.9" class="st0" width="598.1" height="60.5"/>
		<path d="M0.8,0.9L150,0.2L224.8,0h74.8l74.9,0.1l74.9,0.2l74.8,0.1L599,0.4h0.4v0.5l0.1,60.5V62H599l-149.5,0.5L300,62.5h-74.8
			l-74.8-0.2L0.9,61.8H0.5v-0.5L0.8,0.9z M0.9,1l0.3,60.4l-0.4-0.5l149.5-0.6l74.8-0.2h74.8l149.5,0.1l149.5,0.6l-0.5,0.6l0.1-60.5
			l0.4,0.5l-74.7-0.1l-74.7,0.1l-74.6,0.2l-74.6,0.1h-74.7l-74.7-0.1L0.9,1z"/>
	</g>
	<g>
		<path class="st1" d="M599,61.4l-74.4,0.2L450,61.7L300.4,62h-75l-75-0.1c-50-0.1-99.9-0.2-149.7-0.2H0.4v-0.2L0.3,31.1L0,0.9V0.5
			h0.9l149.5-0.2l149.5-0.1h149.5l149.5,0.2h1.1v0.5L599,61.4z M598.8,61.4L597.9,1l1.1,0.5L449.5,1.7H299.9L150.4,1.6L0.9,1.3
			L1.8,1L1.5,31.2L1.4,61.4l-0.5-0.2c49.8,0,99.6-0.1,149.3-0.2l74.6-0.1h74.6L448.8,61l74.9,0.1L598.8,61.4z"/>
		<g>
			<path d="M599.1,61.5l-74.9,0.7l-74.8,0.5l-74.8,0.2L337.2,63h-37.4c-49.9,0-99.8-0.3-149.7-0.7l-74.8-0.2L0.4,62.2H0v-0.5
				l-0.2-30.5L-0.5,0.5v-0.6h0.6l150-0.7L300-1c50,0,100,0,150,0.3l150,0.8h0.4v0.5L599.1,61.5z M598.9,61.4l0.7-60.9L600,1L450,1.2
				c-50,0.2-100,0.1-150,0.1H150L0,1.2l0.5-0.6l0.2,30.5l0.1,30.5l-0.4-0.5l74.8,0.2H150l149.7-0.3l37.4-0.1h37.4h74.8l74.8,0.1
				L598.9,61.4z"/>
			<path d="M598.7,61.3L597.5,1V0.3l0.5,0.2l1.1,0.5l2,0.9H599c-99.7,0.7-199.4,0.9-299.1,0.6L150.4,1.9H0.9h-3l2.8-1.3l0.9-0.3
				l0.8-0.3v0.9L2.1,31.2v30.2v1.2l-0.9-0.5L0.6,62l-3.5-1.5h3.8l149.5-0.6l74.7-0.2h74.7l74.7,0.2l74.7,0.3l74.7,0.3L598.7,61.3z
				 M598.9,61.4L524,61.7l-74.7,0.1L374.6,62h-74.7l-149.5,0.1L0.9,62l0.2-1.5l0.5,0.2l-0.9,0.7l0.2-30.2L1.2,0.9l0.7,0.6L1.1,1.9
				L0.9,0.6l149.5,0.5l149.5-0.3c49.8-0.2,99.7-0.2,149.5-0.1c49.8,0,99.7,0.1,149.5,0.2l-0.1,0.9l-1-0.5l0.5-0.5L598.9,61.4z"/>
		</g>
	</g>
</g>
</svg>
