<?xml version="1.0" encoding="utf-8"?>
<!-- Generator: Adobe Illustrator 21.0.2, SVG Export Plug-In . SVG Version: 6.00 Build 0)  -->
<svg version="1.1" id="Layer_1" xmlns="http://www.w3.org/2000/svg" xmlns:xlink="http://www.w3.org/1999/xlink" x="0px" y="0px"
	 viewBox="0 0 179.9 39" style="enable-background:new 0 0 179.9 39;" xml:space="preserve">
<style type="text/css">
	.st0{fill:#F1F1D4;}
	.st1{fill:#010101;}
</style>
<title>border_hover</title>
<rect x="0.8" y="1.6" class="st0" width="178.2" height="36.2"/>
<path class="st1" d="M179.1,37.9l-21.9,0.5l-22.1,0.3c-14.8,0.2-29.7,0.3-44.6,0.4c-14.9,0-30-0.2-44.9-0.4s-29.8-0.4-44.7-0.3H0.3
	v-0.5L0.2,19.6L0,1.6V0.8h0.8l22.3-0.3l22.3-0.2L89.9,0c14.8,0,29.7,0,44.6,0.2c14.9,0.2,29.7,0.2,44.6,0.5h0.9v0.9
	c-0.1,6.1-0.2,12.3-0.4,18.3L179.1,37.9z M178.9,37.6l-0.4-18.2c-0.2-6-0.3-11.9-0.4-17.9l0.9,0.9c-14.9,0.3-29.7,0.4-44.6,0.5
	s-29.7,0.2-44.6,0.2L45.4,3L23.1,2.7L0.8,2.4l0.8-0.8L1.4,19.7L1.3,37.8l-0.5-0.5c14.8,0.1,29.6-0.1,44.4-0.3s29.4-0.5,44.2-0.4
	s29.6,0.2,44.5,0.4l22.4,0.3L178.9,37.6z"/>
</svg>
