<svg xmlns="http://www.w3.org/2000/svg" viewBox="0 0 179.95 39.01"><defs><style>.cls-1{fill:#fff;}.cls-2{fill:#010101;}</style></defs><title>border</title><g id="Layer_5" data-name="Layer 5"><rect class="cls-1" x="0.83" y="1.6" width="178.19" height="36.15"/><path class="cls-2" d="M185,41.24l-21.92.45L141,42c-14.8.21-29.7.32-44.63.37s-30-.2-44.9-.42-29.83-.43-44.7-.34H6.25v-.49l-.1-18.08L5.91,5V4.17h.83L29,3.84l22.27-.21,44.55-.24q22.27,0,44.55.15c14.85.17,29.7.24,44.55.53l.93,0,0,.9c-.11,6.13-.2,12.26-.37,18.3Zm-.21-.21-.44-18.2c-.17-6-.26-11.93-.37-17.85l.91.91c-14.85.29-29.7.36-44.55.53s-29.7.18-44.55.15L51.28,6.34,29,6.13,6.73,5.8,7.55,5,7.32,23.06l-.1,18.08-.48-.48c14.82.09,29.65-.09,44.39-.34s29.42-.48,44.19-.42,29.56.16,44.47.37l22.41.32Z" transform="translate(-5.9 -3.38)"/></g></svg>