<svg id="Layer_1" data-name="Layer 1" xmlns="http://www.w3.org/2000/svg" viewBox="0 0 315.48 26.8"><defs><style>.cls-1{fill:#231f20;}</style></defs><title>BTB_Text3</title><g id="Layer_2" data-name="Layer 2"><path class="cls-1" d="M13,9.81A9,9,0,0,1,16.25,13a8.45,8.45,0,0,1,1.26,4.5,8.76,8.76,0,0,1-8.73,8.79H3.15V10.8H0L1.25,8.68h1.9V.53H10A4.93,4.93,0,0,1,13.63,2a5,5,0,0,1,1.5,3.66A4.81,4.81,0,0,1,13,9.81ZM5.25,8.72H10a2.81,2.81,0,0,0,2.2-.93,3.06,3.06,0,0,0,.83-2.1,2.93,2.93,0,0,0-.9-2.21A3,3,0,0,0,10,2.63H5.25Zm0,2.08V24.22H8.74a6.35,6.35,0,0,0,4.79-2,6.59,6.59,0,0,0,1.89-4.74A6.47,6.47,0,0,0,14.49,14,6.73,6.73,0,0,0,12,11.64a6.64,6.64,0,0,0-3.3-.87Z"/><path class="cls-1" d="M23.87,24.22h9.74V26.3H21.79V10.8H18.64l1.25-2.08h1.9V.53H33.61V2.62H23.87v6.1H30V10.8H23.87Z"/><path class="cls-1" d="M40.09,19V26.3H38V19H35.32l1.25-2.08H38V6.71a6.49,6.49,0,0,1,.91-3.33A6.77,6.77,0,0,1,41.38.92,6.57,6.57,0,0,1,48,.92a6.78,6.78,0,0,1,2.46,2.46,6.49,6.49,0,0,1,.91,3.33V26.3H49.34V19Zm0-2.08h9.25V6.71a4.48,4.48,0,0,0-.66-2.42A4.54,4.54,0,0,0,47,2.65a4.67,4.67,0,0,0-2.24-.57,4.32,4.32,0,0,0-3.33,1.4A4.62,4.62,0,0,0,40.09,6.7Z"/><path class="cls-1" d="M77.38,21.3a13.33,13.33,0,0,1-4.68,4,13.16,13.16,0,0,1-6.2,1.5A13,13,0,0,1,59.77,25a13.47,13.47,0,0,1-4.85-4.87,13.09,13.09,0,0,1-1.8-6.75A13.41,13.41,0,0,1,57,3.88,13.09,13.09,0,0,1,61.37,1a13.73,13.73,0,0,1,11.31.48,12.74,12.74,0,0,1,4.66,4L75.67,6.65a10.7,10.7,0,0,0-2.42-2.39,11.24,11.24,0,0,0-3.16-1.63,11.49,11.49,0,0,0-3.58-.55,11.17,11.17,0,0,0-5.65,1.5,11,11,0,0,0-4.13,4.15,11.36,11.36,0,0,0,19,12.38Z"/><path class="cls-1" d="M94.89,26.3H92.8V10.8H83.71V26.3H81.63V10.8H78.48l1.25-2.12h1.9V.53h2.08V8.68H92.8V.53h2.08Z"/><path class="cls-1" d="M118.19,2.62V26.3h-2.08V2.62H111V.53h12.32V2.62Z"/><path class="cls-1" d="M137.82,0a13.1,13.1,0,0,1,6.75,1.8,13.49,13.49,0,0,1,4.87,4.85,13,13,0,0,1,1.81,6.73,13.09,13.09,0,0,1-1.8,6.75,13.4,13.4,0,0,1-23.2,0,13.09,13.09,0,0,1-1.8-6.75,13.41,13.41,0,0,1,3.92-9.49A13.09,13.09,0,0,1,132.69,1,13.39,13.39,0,0,1,137.82,0Zm0,2.08a11.17,11.17,0,0,0-5.65,1.5A11,11,0,0,0,128,7.73a11.32,11.32,0,1,0,19.59,0,11,11,0,0,0-4.13-4.15A11.24,11.24,0,0,0,137.82,2.08Z"/><path class="cls-1" d="M165.25,6.9l4.55,13.42L176.51.54h2.2L169.8,26.8l-4.55-13.42L160.7,26.79,151.8.53H154l6.71,19.78Z"/><path class="cls-1" d="M181.93,8V26.3h-2.08V0l10.69,18.87V.53h2.08V26.79Z"/><path class="cls-1" d="M221.72,9.81A9,9,0,0,1,225,13a8.45,8.45,0,0,1,1.27,4.51,8.76,8.76,0,0,1-8.73,8.79h-5.63V10.8h-3.15L210,8.68h1.89V.53h6.86A4.93,4.93,0,0,1,222.36,2a5,5,0,0,1,1.5,3.66A4.81,4.81,0,0,1,221.72,9.81Zm-7.77-1.1h4.78a2.81,2.81,0,0,0,2.2-.93,3.06,3.06,0,0,0,.83-2.1,2.93,2.93,0,0,0-.89-2.2,3,3,0,0,0-2.14-.85h-4.78Zm0,2.08V24.22h3.49a6.35,6.35,0,0,0,4.79-2,6.6,6.6,0,0,0,1.92-4.74,6.47,6.47,0,0,0-.93-3.45,6.73,6.73,0,0,0-2.48-2.39,6.64,6.64,0,0,0-3.3-.87Z"/><path class="cls-1" d="M240.74,0a13.1,13.1,0,0,1,6.75,1.8,13.49,13.49,0,0,1,4.87,4.85,13,13,0,0,1,1.8,6.73,13.09,13.09,0,0,1-1.8,6.75,13.39,13.39,0,0,1-23.19,0,13.09,13.09,0,0,1-1.8-6.75,13.41,13.41,0,0,1,3.88-9.5A13.09,13.09,0,0,1,235.57,1,13.39,13.39,0,0,1,240.74,0Zm0,2.08a11.17,11.17,0,0,0-5.65,1.5A11,11,0,0,0,231,7.73a11.32,11.32,0,1,0,19.59,0,11,11,0,0,0-4.13-4.15A11.24,11.24,0,0,0,240.74,2.08Z"/><path class="cls-1" d="M268.67,0a13.09,13.09,0,0,1,6.75,1.8,13.48,13.48,0,0,1,4.83,4.85,13,13,0,0,1,1.8,6.73,13.1,13.1,0,0,1-1.8,6.75,13.39,13.39,0,0,1-23.19,0,13.09,13.09,0,0,1-1.81-6.75,13.41,13.41,0,0,1,4-9.5A13.09,13.09,0,0,1,263.57,1,13.39,13.39,0,0,1,268.67,0Zm0,2.08A11.17,11.17,0,0,0,263,3.58a11,11,0,0,0-4.13,4.15,11.32,11.32,0,1,0,19.59,0,11,11,0,0,0-4.13-4.15A11.24,11.24,0,0,0,268.67,2.08Z"/><path class="cls-1" d="M299.36,26.3H297l-8.45-15.54-2.69,4V26.3h-2.08V.53h2.08V11l7-10.42h2.5l-5.53,8.26Z"/><path class="cls-1" d="M302.51,20.31a5.36,5.36,0,0,0,2,3.11,5.42,5.42,0,0,0,3.41,1.17A5.25,5.25,0,0,0,311.84,23a5.36,5.36,0,0,0,1.57-3.88,5.31,5.31,0,0,0-4-5.31l-3-.76a6.31,6.31,0,0,1-3.5-2.33,6.41,6.41,0,0,1-1.35-4,6.32,6.32,0,0,1,1.91-4.64A6.32,6.32,0,0,1,308.06.15a6.43,6.43,0,0,1,3.28.89,6.57,6.57,0,0,1,2.41,2.37L312,4.48a4.15,4.15,0,0,0-3.87-2.2,4.25,4.25,0,0,0-3.16,1.35,4.45,4.45,0,0,0-.36,5.89,4.18,4.18,0,0,0,2.35,1.55l3,.76a7.3,7.3,0,0,1,4,2.69,7.4,7.4,0,0,1,1.57,4.62,7.26,7.26,0,0,1-2.23,5.34,7.36,7.36,0,0,1-5.34,2.2,7.28,7.28,0,0,1-4.66-1.63,7.57,7.57,0,0,1-2.69-4.17Z"/></g></svg>