<svg xmlns="http://www.w3.org/2000/svg" viewBox="0 0 192.62 69.99"><defs><style>.cls-1{fill:#010101;}</style></defs><title>BTB_Text</title><g id="Layer_2" data-name="Layer 2"><path class="cls-1" d="M20.34,17.91a9,9,0,0,1,3.26,3.16,8.45,8.45,0,0,1,1.25,4.53,8.76,8.76,0,0,1-8.79,8.79H10.49V18.89H7.34l1.25-2.12h1.9V8.63h6.86a5.11,5.11,0,0,1,5.12,5.15A4.81,4.81,0,0,1,20.34,17.91Zm-7.77-1.1h4.77a2.81,2.81,0,0,0,2.2-.93,3.06,3.06,0,0,0,.83-2.1,2.93,2.93,0,0,0-.89-2.22,3,3,0,0,0-2.14-.85H12.57Zm0,2.08V32.31h3.49a6.35,6.35,0,0,0,4.79-2,6.59,6.59,0,0,0,1.91-4.7,6.47,6.47,0,0,0-.93-3.45,6.73,6.73,0,0,0-2.48-2.39,6.64,6.64,0,0,0-3.3-.87Z" transform="translate(-7.34 -8.1)"/><path class="cls-1" d="M31.21,32.31H41v2.08H29.13V18.89H26l1.25-2.08h1.9V8.63H41v2.08H31.21v6.1h6.18v2.08H31.21Z" transform="translate(-7.34 -8.1)"/><path class="cls-1" d="M47.43,27.12v7.28H45.35V27.12H42.66L43.91,25h1.44V14.8a6.49,6.49,0,0,1,.91-3.33A6.77,6.77,0,0,1,48.72,9a6.57,6.57,0,0,1,6.67,0,6.78,6.78,0,0,1,2.46,2.46,6.49,6.49,0,0,1,.91,3.33V34.39H56.68V27.12Zm0-2.08h9.25V14.8A4.48,4.48,0,0,0,56,12.38a4.54,4.54,0,0,0-1.72-1.63,4.67,4.67,0,0,0-2.24-.57,4.32,4.32,0,0,0-3.33,1.4,4.62,4.62,0,0,0-1.29,3.22Z" transform="translate(-7.34 -8.1)"/><path class="cls-1" d="M84.72,29.39a13.33,13.33,0,0,1-4.68,4,13.16,13.16,0,0,1-6.2,1.5,13,13,0,0,1-6.73-1.8,13.47,13.47,0,0,1-4.85-4.87,13.09,13.09,0,0,1-1.8-6.75A13.41,13.41,0,0,1,64.39,12,13.09,13.09,0,0,1,68.71,9.1,13.73,13.73,0,0,1,80,9.55a12.74,12.74,0,0,1,4.66,4L83,14.76a10.7,10.7,0,0,0-2.43-2.41,11.24,11.24,0,0,0-3.16-1.63,11.49,11.49,0,0,0-3.58-.55,11.17,11.17,0,0,0-5.65,1.5,11,11,0,0,0-4.13,4.15A11.32,11.32,0,0,0,68.2,31.29a11.37,11.37,0,0,0,10.86.27,11.27,11.27,0,0,0,4-3.37Z" transform="translate(-7.34 -8.1)"/><path class="cls-1" d="M102.23,34.39h-2.08V18.89H91v15.5H89V18.89H85.82l1.25-2.12H89V8.63H91v8.15h9.09V8.63h2.08Z" transform="translate(-7.34 -8.1)"/><path class="cls-1" d="M125.53,10.71V34.39h-2.08V10.71h-5.12V8.63h12.32v2.08Z" transform="translate(-7.34 -8.1)"/><path class="cls-1" d="M145.16,8.1a13.09,13.09,0,0,1,6.75,1.8,13.48,13.48,0,0,1,4.87,4.85,13,13,0,0,1,1.8,6.73,13.1,13.1,0,0,1-1.8,6.75,13.43,13.43,0,0,1-4.87,4.87,13.5,13.5,0,0,1-13.47,0,13.47,13.47,0,0,1-4.85-4.87,13.09,13.09,0,0,1-1.8-6.75A13.41,13.41,0,0,1,135.71,12,13.09,13.09,0,0,1,140,9.1,13.39,13.39,0,0,1,145.16,8.1Zm0,2.08a11.17,11.17,0,0,0-5.65,1.5,11,11,0,0,0-4.13,4.15,11.32,11.32,0,0,0,4.13,15.46,11.31,11.31,0,0,0,17-9.81A11.2,11.2,0,0,0,155,15.83a11,11,0,0,0-4.13-4.15A11.24,11.24,0,0,0,145.16,10.18Z" transform="translate(-7.34 -8.1)"/><path class="cls-1" d="M172.6,15l4.55,13.42,6.71-19.78H186l-8.91,26.26L172.6,21.47,168,34.89,159.14,8.63h2.2L168,28.41Z" transform="translate(-7.34 -8.1)"/><path class="cls-1" d="M189.27,16.05V34.39h-2.08V8.13L197.87,27V8.63H200V34.89Z" transform="translate(-7.34 -8.1)"/><path class="cls-1" d="M63.56,61.11a9,9,0,0,1,3.26,3.16,8.45,8.45,0,0,1,1.25,4.53,8.76,8.76,0,0,1-8.79,8.79H53.7V62.09H50.56L51.81,60h1.9V51.82h6.86A5.11,5.11,0,0,1,65.68,57,4.81,4.81,0,0,1,63.56,61.11ZM55.79,60h4.77a2.81,2.81,0,0,0,2.2-.93,3.07,3.07,0,0,0,.83-2.1,2.93,2.93,0,0,0-.89-2.22,3,3,0,0,0-2.14-.85H55.79Zm0,2.08V75.51h3.49a6.35,6.35,0,0,0,4.79-2A6.59,6.59,0,0,0,66,68.8a6.47,6.47,0,0,0-.93-3.45A6.73,6.73,0,0,0,62.57,63a6.64,6.64,0,0,0-3.3-.87Z" transform="translate(-7.34 -8.1)"/><path class="cls-1" d="M82.58,51.3a13.1,13.1,0,0,1,6.75,1.8,13.5,13.5,0,0,1,4.87,4.85,13.5,13.5,0,0,1,0,13.47,13.43,13.43,0,0,1-4.87,4.87,13.5,13.5,0,0,1-13.47,0A13.47,13.47,0,0,1,71,71.42a13.09,13.09,0,0,1-1.8-6.74,13.41,13.41,0,0,1,3.92-9.49,13.08,13.08,0,0,1,4.32-2.88A13.37,13.37,0,0,1,82.58,51.3Zm0,2.08a11.17,11.17,0,0,0-5.65,1.5A11,11,0,0,0,72.8,59a11.32,11.32,0,0,0,4.13,15.46,11.31,11.31,0,0,0,17-9.81A11.2,11.2,0,0,0,92.39,59a11,11,0,0,0-4.13-4.15A11.24,11.24,0,0,0,82.58,53.38Z" transform="translate(-7.34 -8.1)"/><path class="cls-1" d="M110.51,51.3a13.1,13.1,0,0,1,6.75,1.8,13.5,13.5,0,0,1,4.87,4.85,13.5,13.5,0,0,1,0,13.47,13.43,13.43,0,0,1-4.87,4.87,13.5,13.5,0,0,1-13.47,0,13.47,13.47,0,0,1-4.85-4.87,13.09,13.09,0,0,1-1.8-6.74,13.41,13.41,0,0,1,3.92-9.49,13.08,13.08,0,0,1,4.32-2.88A13.37,13.37,0,0,1,110.51,51.3Zm0,2.08a11.17,11.17,0,0,0-5.65,1.5A11,11,0,0,0,100.73,59a11.32,11.32,0,0,0,4.13,15.46,11.31,11.31,0,0,0,17-9.81A11.21,11.21,0,0,0,120.32,59a11,11,0,0,0-4.13-4.15A11.24,11.24,0,0,0,110.51,53.38Z" transform="translate(-7.34 -8.1)"/><path class="cls-1" d="M141.2,77.59h-2.35L130.4,62.06l-2.69,4V77.59h-2.08V51.82h2.08V62.25l7-10.42h2.5l-5.53,8.26Z" transform="translate(-7.34 -8.1)"/><path class="cls-1" d="M144.35,71.61a5.36,5.36,0,0,0,2,3.11,5.43,5.43,0,0,0,3.41,1.18,5.26,5.26,0,0,0,3.92-1.61,5.46,5.46,0,0,0-2.48-9.19l-3-.76a6.31,6.31,0,0,1-3.5-2.33,6.42,6.42,0,0,1-1.34-4,6.53,6.53,0,0,1,6.56-6.56,6.43,6.43,0,0,1,3.28.89,6.56,6.56,0,0,1,2.41,2.37l-1.82,1a4.15,4.15,0,0,0-3.87-2.2,4.25,4.25,0,0,0-3.16,1.34,4.45,4.45,0,0,0-.36,5.89,4.18,4.18,0,0,0,2.35,1.55l3,.76a7.3,7.3,0,0,1,4,2.69,7.4,7.4,0,0,1,1.57,4.62,7.26,7.26,0,0,1-2.24,5.38,7.35,7.35,0,0,1-5.34,2.2,7.28,7.28,0,0,1-4.66-1.63,7.57,7.57,0,0,1-2.69-4.17Z" transform="translate(-7.34 -8.1)"/></g></svg>