<svg xmlns="http://www.w3.org/2000/svg" viewBox="0 0 315.47 26.79"><defs><style>.cls-1{fill:#fff;}</style></defs><title>BTB_text2</title><g id="Layer_2" data-name="Layer 2"><path class="cls-1" d="M17.75,13.33A9,9,0,0,1,21,16.5,8.45,8.45,0,0,1,22.26,21a8.76,8.76,0,0,1-8.79,8.79H7.9V14.32H4.75L6,12.2H7.9V4.05h6.86a4.93,4.93,0,0,1,3.62,1.5,5,5,0,0,1,1.5,3.66A4.81,4.81,0,0,1,17.75,13.33ZM10,12.24h4.77a2.81,2.81,0,0,0,2.2-.93,3.06,3.06,0,0,0,.83-2.1A2.93,2.93,0,0,0,16.9,7a3,3,0,0,0-2.14-.85H10Zm0,2.08V27.74h3.49a6.35,6.35,0,0,0,4.79-2A6.59,6.59,0,0,0,20.17,21a6.47,6.47,0,0,0-.93-3.45,6.73,6.73,0,0,0-2.48-2.39,6.64,6.64,0,0,0-3.3-.87Z" transform="translate(-4.75 -3.52)"/><path class="cls-1" d="M28.62,27.74h9.74v2.08H26.54V14.32H23.39l1.25-2.08h1.9V4.05H38.36V6.14H28.62v6.1H34.8v2.08H28.62Z" transform="translate(-4.75 -3.52)"/><path class="cls-1" d="M44.84,22.54v7.28H42.76V22.54H40.07l1.25-2.08h1.44V10.23a6.49,6.49,0,0,1,.91-3.33,6.77,6.77,0,0,1,2.46-2.46,6.57,6.57,0,0,1,6.67,0,6.78,6.78,0,0,1,2.46,2.46,6.49,6.49,0,0,1,.91,3.33V29.82H54.09V22.54Zm0-2.08h9.25V10.23a4.48,4.48,0,0,0-.66-2.42A4.54,4.54,0,0,0,51.7,6.17a4.67,4.67,0,0,0-2.24-.57A4.32,4.32,0,0,0,46.13,7a4.62,4.62,0,0,0-1.29,3.22Z" transform="translate(-4.75 -3.52)"/><path class="cls-1" d="M82.13,24.82a13.33,13.33,0,0,1-4.68,4,13.16,13.16,0,0,1-6.2,1.5,13,13,0,0,1-6.73-1.8,13.47,13.47,0,0,1-4.85-4.87,13.09,13.09,0,0,1-1.8-6.75A13.41,13.41,0,0,1,61.8,7.4a13.09,13.09,0,0,1,4.32-2.88A13.73,13.73,0,0,1,77.43,5a12.74,12.74,0,0,1,4.66,4l-1.67,1.17A10.7,10.7,0,0,0,78,7.78a11.24,11.24,0,0,0-3.16-1.63,11.49,11.49,0,0,0-3.58-.55,11.17,11.17,0,0,0-5.65,1.5,11,11,0,0,0-4.13,4.15,11.32,11.32,0,0,0,4.13,15.46A11.37,11.37,0,0,0,76.47,27a11.27,11.27,0,0,0,4-3.37Z" transform="translate(-4.75 -3.52)"/><path class="cls-1" d="M99.64,29.82H97.55V14.32H88.46v15.5H86.38V14.32H83.23l1.25-2.12h1.9V4.05h2.08V12.2h9.09V4.05h2.08Z" transform="translate(-4.75 -3.52)"/><path class="cls-1" d="M122.94,6.14V29.82h-2.08V6.14h-5.12V4.05h12.32V6.14Z" transform="translate(-4.75 -3.52)"/><path class="cls-1" d="M142.57,3.52a13.1,13.1,0,0,1,6.75,1.8,13.49,13.49,0,0,1,4.87,4.85A13,13,0,0,1,156,16.9a13.09,13.09,0,0,1-1.8,6.75,13.43,13.43,0,0,1-4.87,4.87,13.5,13.5,0,0,1-13.47,0A13.47,13.47,0,0,1,131,23.64a13.09,13.09,0,0,1-1.8-6.75,13.41,13.41,0,0,1,3.92-9.49,13.09,13.09,0,0,1,4.32-2.88A13.39,13.39,0,0,1,142.57,3.52Zm0,2.08a11.17,11.17,0,0,0-5.65,1.5,11,11,0,0,0-4.13,4.15,11.32,11.32,0,0,0,4.13,15.46,11.32,11.32,0,0,0,15.46-4.13,11.35,11.35,0,0,0,0-11.33,11,11,0,0,0-4.13-4.15A11.24,11.24,0,0,0,142.57,5.6Z" transform="translate(-4.75 -3.52)"/><path class="cls-1" d="M170,10.42l4.55,13.42,6.71-19.78h2.2l-8.91,26.26L170,16.9l-4.55,13.41L156.55,4.05h2.2l6.71,19.78Z" transform="translate(-4.75 -3.52)"/><path class="cls-1" d="M186.68,11.48V29.82H184.6V3.56l10.69,18.87V4.05h2.08V30.31Z" transform="translate(-4.75 -3.52)"/><path class="cls-1" d="M226.47,13.33a9,9,0,0,1,3.26,3.16A8.45,8.45,0,0,1,231,21a8.76,8.76,0,0,1-8.79,8.79h-5.57V14.32h-3.15l1.25-2.12h1.89V4.05h6.86a4.93,4.93,0,0,1,3.62,1.5,5,5,0,0,1,1.5,3.66A4.81,4.81,0,0,1,226.47,13.33Zm-7.77-1.1h4.78a2.81,2.81,0,0,0,2.2-.93,3.06,3.06,0,0,0,.83-2.1A2.93,2.93,0,0,0,225.62,7a3,3,0,0,0-2.14-.85H218.7Zm0,2.08V27.74h3.49a6.35,6.35,0,0,0,4.79-2A6.6,6.6,0,0,0,228.9,21a6.47,6.47,0,0,0-.93-3.45,6.73,6.73,0,0,0-2.48-2.39,6.64,6.64,0,0,0-3.3-.87Z" transform="translate(-4.75 -3.52)"/><path class="cls-1" d="M245.49,3.52a13.1,13.1,0,0,1,6.75,1.8,13.49,13.49,0,0,1,4.87,4.85,13,13,0,0,1,1.8,6.73,13.09,13.09,0,0,1-1.8,6.75,13.43,13.43,0,0,1-4.87,4.87,13.5,13.5,0,0,1-13.47,0,13.47,13.47,0,0,1-4.85-4.87,13.09,13.09,0,0,1-1.8-6.75A13.41,13.41,0,0,1,236,7.4a13.09,13.09,0,0,1,4.32-2.88A13.39,13.39,0,0,1,245.49,3.52Zm0,2.08a11.17,11.17,0,0,0-5.65,1.5,11,11,0,0,0-4.13,4.15,11.32,11.32,0,0,0,4.13,15.46,11.32,11.32,0,0,0,15.46-4.13,11.35,11.35,0,0,0,0-11.33,11,11,0,0,0-4.13-4.15A11.24,11.24,0,0,0,245.49,5.6Z" transform="translate(-4.75 -3.52)"/><path class="cls-1" d="M273.42,3.52a13.09,13.09,0,0,1,6.75,1.8A13.48,13.48,0,0,1,285,10.17a13,13,0,0,1,1.8,6.73,13.1,13.1,0,0,1-1.8,6.75,13.43,13.43,0,0,1-4.87,4.87,13.5,13.5,0,0,1-13.47,0,13.47,13.47,0,0,1-4.85-4.87A13.09,13.09,0,0,1,260,16.9,13.41,13.41,0,0,1,264,7.4a13.09,13.09,0,0,1,4.32-2.88A13.39,13.39,0,0,1,273.42,3.52Zm0,2.08a11.17,11.17,0,0,0-5.65,1.5,11,11,0,0,0-4.13,4.15,11.32,11.32,0,0,0,4.13,15.46,11.32,11.32,0,0,0,15.46-4.13,11.34,11.34,0,0,0,0-11.33,11,11,0,0,0-4.13-4.15A11.24,11.24,0,0,0,273.42,5.6Z" transform="translate(-4.75 -3.52)"/><path class="cls-1" d="M304.11,29.82h-2.35l-8.45-15.54-2.69,4V29.82h-2.08V4.05h2.08V14.47l7-10.42h2.5l-5.53,8.26Z" transform="translate(-4.75 -3.52)"/><path class="cls-1" d="M307.26,23.83a5.36,5.36,0,0,0,2,3.11,5.42,5.42,0,0,0,3.41,1.17,5.25,5.25,0,0,0,3.92-1.61,5.36,5.36,0,0,0,1.57-3.88,5.31,5.31,0,0,0-4.05-5.31l-3-.76a6.31,6.31,0,0,1-3.5-2.33,6.41,6.41,0,0,1-1.35-4,6.32,6.32,0,0,1,1.91-4.64,6.32,6.32,0,0,1,4.64-1.91,6.43,6.43,0,0,1,3.28.89,6.57,6.57,0,0,1,2.41,2.37L316.7,8a4.15,4.15,0,0,0-3.87-2.2,4.25,4.25,0,0,0-3.16,1.35,4.45,4.45,0,0,0-.36,5.89,4.18,4.18,0,0,0,2.35,1.55l3,.76a7.3,7.3,0,0,1,4,2.69,7.4,7.4,0,0,1,1.57,4.62A7.26,7.26,0,0,1,318,28a7.36,7.36,0,0,1-5.34,2.2A7.28,7.28,0,0,1,308,28.57a7.57,7.57,0,0,1-2.69-4.17Z" transform="translate(-4.75 -3.52)"/></g></svg>