<svg xmlns="http://www.w3.org/2000/svg" viewBox="0 0 390.8 447.13"><defs><style>.cls-1,.cls-3{fill:#231f20;}.cls-2{fill:#fff;}.cls-3{stroke:#fff;stroke-miterlimit:10;}</style></defs><title>Artboard 1</title><g id="Isolation_Mode" data-name="Isolation Mode"><path class="cls-1" d="M49.55,157.29s-1.9-28.6-1.8-42.4-1.3-78.2,6.2-83.1a6,6,0,0,1,4.9-1.3,3.62,3.62,0,0,1,2.4-3.9c2.8-.9,102.5-7.9,133.2-8.5s129.6,0,135.4,3.6c0,0,2.4.6,1.8,4-.4,2.5,2.1-.9,5.2,2.1s3.3,14.9,3.6,28.9,2.1,91.6-2.4,100.7c0,0,24.9,1.5,35.6,13.7s12.5,23.7,10.6,33.2-7.6,17.9-27.4,25.9c0,0,4.9,163.9-2.1,165.5l-58.4-.3S58.15,393,69.45,400l-26.2-.6s-2.7-.9-3.6-13.7-3-147.8-3-147.8-27.4-13.7-30.1-26.5,1.9-30.1,8.8-38C21.85,165.89,26.85,159.89,49.55,157.29Z"/><path class="cls-2" d="M49.45,157.19a2.48,2.48,0,0,1-.1-.9l-.1-1-.1-2-.3-3.9-.5-7.9c-.3-5.3-.6-10.5-.8-15.8-.1-2.6-.2-5.3-.2-7.9v-7.9l-.1-15.8c-.1-10.6,0-21.1.5-31.7.2-5.3.6-10.6,1.2-15.8.3-2.6.7-5.3,1.2-7.9a28.47,28.47,0,0,1,1.1-3.9,16.68,16.68,0,0,1,.8-2,5.34,5.34,0,0,1,1.6-1.8l-.1.1c.5-.4.9-.6,1.3-.9a7.84,7.84,0,0,1,1.4-.5,6.1,6.1,0,0,1,3-.1l-1.1,1.1a4.49,4.49,0,0,1,.4-2.6,4.59,4.59,0,0,1,1.9-2,2.84,2.84,0,0,1,1.2-.4l1.2-.2,2.2-.2c2.9-.3,5.7-.5,8.5-.8,5.7-.5,11.4-1,17.1-1.4q17.1-1.35,34.2-2.4t34.2-2.1c11.4-.6,22.8-1.3,34.3-1.6s22.9-.3,34.3-.2,22.8.1,34.3.3,22.8.4,34.3.9c5.7.2,11.4.5,17.1.8,2.9.2,5.7.4,8.6.7,1.4.1,2.9.3,4.3.5a20.69,20.69,0,0,1,2.2.4l1.1.3a6.94,6.94,0,0,1,1.3.5l-.3-.1a3.22,3.22,0,0,1,1.4.8,3.45,3.45,0,0,1,.9,1.2,5.14,5.14,0,0,1,.3,2.7l-.1.5v.1c0-.1-.1-.1-.1-.2s-.1-.2-.2-.2h-.1a.76.76,0,0,0,.4-.1,7.54,7.54,0,0,1,2.6,0,5.93,5.93,0,0,1,2.3,1.4,7,7,0,0,1,.8,1c.2.4.4.7.6,1.1a18.78,18.78,0,0,1,1.2,4.5,89.42,89.42,0,0,1,.9,8.9c.2,3,.2,5.9.3,8.9.2,11.8.4,23.6.5,35.4s.1,23.6-.2,35.4q-.15,8.85-.6,17.7c-.2,3-.4,5.9-.7,8.8-.2,1.5-.3,2.9-.6,4.4a18,18,0,0,1-1.2,4.4l-.4-.7a86,86,0,0,1,14.2,2.4,61.37,61.37,0,0,1,13.5,5.1,19.82,19.82,0,0,1,3.1,1.9c1,.7,1.9,1.5,2.9,2.2a31.89,31.89,0,0,1,2.6,2.6,31.13,31.13,0,0,1,2.3,2.8,48.14,48.14,0,0,1,4,6,39.28,39.28,0,0,1,3,6.6,34.84,34.84,0,0,1,1.8,14.3,28.34,28.34,0,0,1-4.6,13.7,30.92,30.92,0,0,1-4.8,5.4,48.32,48.32,0,0,1-5.8,4.3,77.46,77.46,0,0,1-12.9,6.4l.4-.6c.9,27.7,1.5,55.3,1.9,83,.2,13.8.2,27.7.1,41.5-.1,6.9-.2,13.8-.5,20.8-.2,3.5-.3,6.9-.7,10.4-.2,1.7-.3,3.5-.6,5.2a25.57,25.57,0,0,1-.5,2.7,3.94,3.94,0,0,1-.5,1.4,5.89,5.89,0,0,1-.4.8,2,2,0,0,1-1.3.9h-.3q-35.85,0-71.7-.2t-71.7-.2c-23.9.1-47.8.1-71.7.4-11.9.2-23.9.4-35.8.8-6,.2-11.9.4-17.9.8-3,.2-5.9.4-8.9.7a29.68,29.68,0,0,0-4.3.6c-.7.1-1.4.3-2,.4l-.6.2h0c.1,0,.1-.1.1-.2a.7.7,0,0,0,.2-.4v-.5c0-.1-.1-.2-.1-.3s0-.1-.1-.1-.1-.1-.1-.2h0l-.8,2.8-26.2-.6h-.3l-.2-.1a2.77,2.77,0,0,1-.8-.5c-.1-.1-.3-.2-.4-.4a3,3,0,0,1-.5-.7c-.3-.5-.5-.9-.7-1.3a13.38,13.38,0,0,1-.9-2.6,47.62,47.62,0,0,1-1-5.2c-.4-3.4-.6-6.9-.7-10.3-.2-6.8-.3-13.5-.5-20.3l-.7-40.6-.6-40.6-.5-40.6.5.8a114.68,114.68,0,0,1-13-7.8,77.27,77.27,0,0,1-11.7-9.7,27.29,27.29,0,0,1-4.5-6.2,14.74,14.74,0,0,1-1.3-3.7c-.2-1.3-.4-2.5-.5-3.8s-.1-2.5-.2-3.8a24.2,24.2,0,0,1,.2-3.8,64.58,64.58,0,0,1,1.1-7.5,51.56,51.56,0,0,1,5.2-14.2,30.06,30.06,0,0,1,4.5-6.1,53,53,0,0,1,5.3-5.3,34.55,34.55,0,0,1,13.4-6.7c1.2-.4,2.4-.6,3.6-.9s2.5-.5,3.7-.7l3.7-.6Zm.3.2-3.8.6c-1.3.2-2.5.4-3.7.6s-2.4.5-3.7.8-2.4.6-3.6,1a33.52,33.52,0,0,0-13.1,6.8,65,65,0,0,0-5.2,5.3,27.07,27.07,0,0,0-4.2,6,52.94,52.94,0,0,0-4.9,14,59.88,59.88,0,0,0-1,7.4c-.1,1.2-.1,2.5-.1,3.7s.1,2.5.2,3.7.3,2.4.5,3.6a11.79,11.79,0,0,0,1.2,3.3,30.05,30.05,0,0,0,4.3,5.8,68.84,68.84,0,0,0,11.5,9.3,109.73,109.73,0,0,0,12.8,7.5l.5.3v.6l1.7,81.1,1,40.6c.2,6.8.4,13.5.6,20.3.1,3.4.3,6.7.7,10a40.48,40.48,0,0,0,.9,4.8c.2.8.5,1.5.7,2.2.2.3.3.6.5.9.1.1.2.2.2.3a.1.1,0,0,0,.1.1h0a.31.31,0,0,1-.2-.1l-.4-.1,26.2.6-.8,2.8a1.76,1.76,0,0,1-.5-.4,1.38,1.38,0,0,1-.3-.4c-.1-.1-.1-.1-.1-.2a.6.6,0,0,1-.1-.4,1.1,1.1,0,0,1,0-.8,2.39,2.39,0,0,1,.3-.7c.1-.1.2-.3.3-.4s.2-.1.3-.2a3.62,3.62,0,0,1,1.5-.6,20.47,20.47,0,0,1,2.4-.5c1.5-.3,3-.4,4.5-.6,3-.3,6-.5,9-.7,6-.4,12-.6,17.9-.8,12-.4,23.9-.6,35.9-.8,23.9-.3,47.8-.5,71.7-.4s47.8.2,71.7.4l71.7.6h-.3c-.4.1-.3.2-.3.1s.1-.2.2-.3a7.59,7.59,0,0,1,.4-1.1,20.47,20.47,0,0,0,.5-2.4,44.29,44.29,0,0,0,.6-5.1c.3-3.4.5-6.9.7-10.3.3-6.9.5-13.8.7-20.7.3-13.8.3-27.6.2-41.5-.1-27.7-.6-55.3-1.2-83v-.4l.4-.2a82.9,82.9,0,0,0,12.7-6.2,38,38,0,0,0,5.7-4.2,38.73,38.73,0,0,0,4.7-5.2,27.76,27.76,0,0,0,4.5-13.1,34.58,34.58,0,0,0-1.7-13.9,36.91,36.91,0,0,0-2.9-6.4,46.31,46.31,0,0,0-3.9-5.9c-.7-1-1.5-1.8-2.2-2.8a30.2,30.2,0,0,0-8.3-6.4,57,57,0,0,0-13.2-5,95,95,0,0,0-14-2.3l-.7-.1.3-.7a17.64,17.64,0,0,0,1.1-4.1c.2-1.4.4-2.9.6-4.4.3-2.9.5-5.9.6-8.8.3-5.9.4-11.8.5-17.7.2-11.8.1-23.6-.1-35.4s-.5-23.6-.8-35.4c-.1-2.9-.2-5.9-.4-8.8a82.66,82.66,0,0,0-.9-8.7,23.36,23.36,0,0,0-1.1-4,5.93,5.93,0,0,0-.4-.8c-.2-.2-.3-.5-.6-.7a4.62,4.62,0,0,0-1.5-.9,3.63,3.63,0,0,0-1.8,0c-.2,0-.4.1-.7.1h-.3a.76.76,0,0,1-.4-.1c-.2-.1-.3-.2-.5-.3a.76.76,0,0,1-.2-.4,1.91,1.91,0,0,1-.1-1l.1-.6a2.73,2.73,0,0,0-.2-1.6,2.09,2.09,0,0,0-.4-.6,1.33,1.33,0,0,0-.5-.3l-.3-.1c-.3-.1-.4-.2-.7-.3l-1-.2-2.1-.3c-1.4-.2-2.8-.3-4.2-.4l-8.5-.6c-5.7-.3-11.4-.5-17.1-.7-11.4-.3-22.8-.5-34.2-.7-22.8-.3-45.7-.3-68.4,0-11.4.3-22.8.9-34.2,1.5s-22.8,1.3-34.2,2-22.8,1.5-34.2,2.3l-17.1,1.2c-2.8.2-5.7.4-8.5.7l-2.1.2-.9.1a1.88,1.88,0,0,0-.8.2,2.17,2.17,0,0,0-1,1.1,4.15,4.15,0,0,0-.3,1.6l.1,1.3-1.2-.2a5.45,5.45,0,0,0-2.2.1,3,3,0,0,0-1,.4,7.26,7.26,0,0,0-.9.5l-.1.1h0a2.91,2.91,0,0,0-.9,1.2,8.65,8.65,0,0,0-.7,1.7,22.38,22.38,0,0,0-1,3.7c-.6,2.5-.9,5.1-1.3,7.7-.6,5.2-1,10.5-1.3,15.7-.6,10.5-.7,21-.8,31.6l-.1,15.8-.1,7.9c0,2.6,0,5.3.1,7.9.1,5.3.3,10.5.6,15.8Z"/><path class="cls-1" d="M324,394.59s-7.4-170.4,11-196.9c16-23,33.1-9.4,35.1-6.3s16,23-18,33.5l1,172.8Z"/><path class="cls-2" d="M323.95,394.69c0-.1-.1-.3-.1-.4v-.9l-.1-1.1-.1-2.2-.3-4.5-.5-9c-.3-6-.5-12-.7-17.9l-.5-17.9c-.1-6-.2-12-.2-17.9-.1-12-.1-23.9.3-35.9s1-23.9,2-35.9a327.33,327.33,0,0,1,4.8-35.6,85.16,85.16,0,0,1,2.2-8.7,38.31,38.31,0,0,1,3.5-8.4,43.28,43.28,0,0,1,5.7-7.1,27.81,27.81,0,0,1,7.4-5.3,19.83,19.83,0,0,1,8.9-1.9,21.49,21.49,0,0,1,8.9,2.4,20.38,20.38,0,0,1,3.9,2.6,9.12,9.12,0,0,1,1.7,1.7c.3.4.5.7.7,1l.6,1a26.36,26.36,0,0,1,3.5,8.5,16.8,16.8,0,0,1-.8,9.4,19.25,19.25,0,0,1-5.7,7.5c-4.8,4-10.6,6.4-16.3,8.2l.9-1.3.5,43.2.2,21.6c.1,7.2.1,14.4.1,21.6.1,14.4,0,28.8-.1,43.2s-.2,28.8-.3,43.2v.8l-.8-.1c-4.9-.6-9.8-1.2-14.7-1.9Zm.2-.2,14.6,1.2,14.4,1.2-.8.7c-.3-14.4-.6-28.8-.8-43.2l-.6-43.2c-.1-7.2-.1-14.4-.2-21.6l-.1-21.6v-44.2l.9-.3c5.6-1.7,11.2-3.9,15.6-7.5a18.06,18.06,0,0,0,5.2-6.5,14.28,14.28,0,0,0,.9-8.2,23.77,23.77,0,0,0-3.1-8l-.6-.9a7,7,0,0,0-.6-.9,10.61,10.61,0,0,0-1.5-1.5,28,28,0,0,0-3.5-2.5,18.52,18.52,0,0,0-8.2-2.4,17.37,17.37,0,0,0-8.4,1.7c-5.3,2.5-9.4,7.1-12.7,11.9a37.26,37.26,0,0,0-3.4,8.2q-1.2,4.2-2.1,8.7c-2.2,11.7-3.1,23.7-3.9,35.6s-1,23.9-1.3,35.8-.5,23.9-.5,35.8v35.8Z"/><path class="cls-1" d="M68.35,398.69s6.5-176-12-202.8c-16-23.4-33.1-9.6-35.1-6.4s-16,23.4,18,34l3,174.2Z"/><path class="cls-2" d="M68.25,398.59l.1-36.6v-18.3l-.1-18.3c-.1-12.2-.4-24.4-.7-36.6s-.7-24.4-1.4-36.6c-.4-6.1-.8-12.2-1.4-18.3s-1.4-12.1-2.4-18.1a88.22,88.22,0,0,0-2-8.9,43.28,43.28,0,0,0-3.1-8.5c-.4-.7-.7-1.3-1.1-1.9s-.9-1.2-1.3-1.8c-.9-1.2-1.9-2.4-2.9-3.5a28.76,28.76,0,0,0-7-5.6,18,18,0,0,0-8.5-2.3,19.07,19.07,0,0,0-8.5,2.1,23.49,23.49,0,0,0-3.7,2.4c-.6.5-1.1,1-1.6,1.5-.2.3-.4.5-.6.8l-.6,1a25.24,25.24,0,0,0-3.3,8.2,14.49,14.49,0,0,0,.7,8.5,17,17,0,0,0,5.1,6.8,33.88,33.88,0,0,0,7.5,4.7,60.61,60.61,0,0,0,8.4,3.2l.9.3v1l1,43.5.4,21.8.3,21.8c.2,14.5.3,29,.4,43.6s.1,29,.2,43.6l-.7-.7Zm.2.2-26.1-.4h-.6v-.7c-.4-14.5-1-29-1.3-43.5s-.8-29-1.1-43.5l-.4-21.8-.3-21.8-.5-43.6.9,1.2a82.62,82.62,0,0,1-8.7-3.4,36.76,36.76,0,0,1-7.9-5.1,19.06,19.06,0,0,1-5.6-7.8,17.47,17.47,0,0,1-.5-9.6,28.11,28.11,0,0,1,3.8-8.7l.6-1a3.92,3.92,0,0,1,.8-1c.6-.6,1.2-1.1,1.8-1.6a21.31,21.31,0,0,1,13.2-4.6,18.42,18.42,0,0,1,4.7.7,16.32,16.32,0,0,1,4.3,1.8,29.13,29.13,0,0,1,7.2,5.8,25.39,25.39,0,0,1,2.9,3.6c.4.6.9,1.2,1.3,1.9s.8,1.3,1.2,2a45.43,45.43,0,0,1,3.2,8.7q1.2,4.5,2.1,9a341.73,341.73,0,0,1,4.7,36.4c1,12.2,1.8,24.4,2.1,36.7s.4,24.5.4,36.7c0,6.1,0,12.2-.1,18.4l-.4,18.3-.6,18.3-.4,9.2-.2,4.6-.1,2.3-.1,1.1v.9C68.55,398.49,68.55,398.69,68.45,398.79Z"/><path class="cls-1" d="M60.35,156s28.1,2,30.1,53.1l-1,32.1,210.6,2-2-11s0-45.1,9-56.2,21.1-11,22.1-30.1,9.4-106.2,2.7-120.3-244-15.5-272.8,4.8C58.95,30.49,54.35,146,60.35,156Z"/><path class="cls-2" d="M60.45,155.89c.2,0,.6.1,1,.1a3.55,3.55,0,0,1,1,.2,15.19,15.19,0,0,1,2,.6c1.3.5,2.6,1,3.8,1.6a20.71,20.71,0,0,1,3.5,2.2c.6.4,1.1.9,1.6,1.3l1.6,1.3c1,1,1.9,2,2.9,3l2.5,3.3,2.2,3.6a4.05,4.05,0,0,1,.5.9l.4.9.9,1.9.9,1.9a14.58,14.58,0,0,1,.7,1.9l1.4,3.9c.4,1.3.7,2.7,1.1,4s.7,2.7,1,4l.6,4.1.3,2,.3,2.1.7,8.3h0l-.8,32.1-1-1.1,52.6.3c17.5.1,35.1.2,52.6.4s35.1.4,52.6.7l52.6.9-.7.8-1.9-11v-.2a287.8,287.8,0,0,1,2-30.8,112.83,112.83,0,0,1,2.8-15.2,45.18,45.18,0,0,1,2.6-7.3,18.52,18.52,0,0,1,2.1-3.3,24,24,0,0,1,2.7-2.8c3.7-3.7,8.2-6.3,11.9-9.7a20.55,20.55,0,0,0,4.5-6,26.09,26.09,0,0,0,2.2-7.2c.2-1.2.3-2.5.4-3.8l.2-3.8.5-7.7,1.1-15.4c1.4-20.5,2.6-41,2.9-61.5,0-5.1,0-10.2-.2-15.3-.1-2.6-.3-5.1-.5-7.6a34.92,34.92,0,0,0-1.4-7.3l-.3-.8-.2-.4c-.1-.1-.1-.1-.1-.2a3.13,3.13,0,0,0-1.1-.8,32.35,32.35,0,0,0-3.3-1.3c-2.4-.7-4.9-1.2-7.4-1.7-5-.9-10.1-1.5-15.2-2-10.2-1-20.4-1.7-30.6-2.2s-20.5-.8-30.7-1-20.5-.3-30.8-.2-20.5.1-30.8.3c-20.5.5-41,1.3-61.4,3-10.2.8-20.4,1.8-30.5,3.4-5,.8-10.1,1.6-15,2.8a60.93,60.93,0,0,0-7.3,2.1,29.33,29.33,0,0,0-6.7,3.1l.5-.9c-.5,10.5-.8,20.9-1.2,31.4s-.6,21-.8,31.4-.3,21-.3,31.4c0,5.2.1,10.5.4,15.7q.15,3.9.6,7.8c.1,1.3.3,2.6.5,3.9a12.85,12.85,0,0,0,.4,1.9A6.83,6.83,0,0,0,60.45,155.89Zm-.2.2a9.72,9.72,0,0,1-.8-1.9c-.2-.6-.3-1.3-.5-1.9a26.29,26.29,0,0,1-.6-3.9c-.3-2.6-.6-5.2-.7-7.8-.4-5.2-.6-10.5-.7-15.7q-.45-15.75-.3-31.5.15-31.5,1.2-62.9v-.6l.5-.3a31.84,31.84,0,0,1,7.2-3.5,70.79,70.79,0,0,1,7.5-2.2c5-1.2,10.1-2.2,15.2-3,10.2-1.6,20.4-2.7,30.7-3.7,20.5-1.7,41.1-2.7,61.6-3.2,10.3-.2,20.6-.4,30.8-.4s20.6.1,30.8.4,20.6.6,30.8,1.2,20.5,1.3,30.8,2.4c5.1.6,10.2,1.2,15.3,2.2a64.62,64.62,0,0,1,7.6,1.8,29.93,29.93,0,0,1,3.8,1.5,8.31,8.31,0,0,1,1.9,1.5c.1.2.3.4.4.6l.2.5.4,1a42.63,42.63,0,0,1,1.4,7.8c.2,2.6.4,5.2.5,7.8.2,5.2.1,10.3,0,15.5-.5,20.6-2.1,41.1-3.7,61.5l-1.2,15.4-.6,7.7-.2,3.8c-.1,1.3-.2,2.6-.4,3.9a28.32,28.32,0,0,1-2.3,7.5,22.43,22.43,0,0,1-4.8,6.2c-3.8,3.6-8.3,6.1-12,9.7a34.45,34.45,0,0,0-2.6,2.8,13.24,13.24,0,0,0-2,3.2,36.1,36.1,0,0,0-2.5,7.2,108.43,108.43,0,0,0-2.7,15.1,262,262,0,0,0-1.7,30.7v-.1l2.1,11,.2.9h-.9l-52.6-.1c-17.5,0-35.1-.2-52.6-.3s-35.1-.4-52.6-.6l-52.6-.7h-1.1v-1.1l1.2-32.1v.1l-.5-8.2a12.31,12.31,0,0,0-.2-2l-.3-2-.6-4c-.2-1.3-.6-2.7-.9-4s-.6-2.7-.9-4l-1.3-3.9a14.58,14.58,0,0,0-.7-1.9l-.8-1.9-.8-1.9-.4-.9c-.2-.3-.3-.6-.5-.9l-2-3.5-2.4-3.3-2.7-3a17.38,17.38,0,0,0-1.5-1.3c-.5-.4-1-.9-1.6-1.3a24.64,24.64,0,0,0-3.4-2.2A20.61,20.61,0,0,0,60.25,156.09Z"/><path class="cls-1" d="M76.45,302.39l-4-33.1s-1-13,17-28.1,15-22.1,44.1-28.1,125-15.8,158.4,12c18,15,30.1,36.1,25.1,60.2s-2,24.1-28.1,26.1-200.5,0-200.5,0A16.77,16.77,0,0,1,76.45,302.39Z"/><path class="cls-2" d="M76.25,302.49,73.65,284l-1.3-9.3-.6-4.6-.1-.6v-.7a4.87,4.87,0,0,1,.1-1.2,20,20,0,0,1,.4-2.4c1.3-6.3,4.7-11.9,8.7-16.8,1-1.2,2.1-2.4,3.2-3.5l1.7-1.7,1.8-1.6c2.3-2.1,4.7-4.1,6.9-6.2s4.3-4.4,6.4-6.7a60.7,60.7,0,0,1,6.8-6.6,38.3,38.3,0,0,1,8.2-5,20.37,20.37,0,0,1,2.2-.9,19.46,19.46,0,0,1,2.2-.8c1.5-.5,3-1,4.5-1.4,3-.9,6.1-1.6,9.2-2.2s6.2-1.1,9.3-1.6c6.2-1,12.4-1.7,18.6-2.4a396.66,396.66,0,0,1,74.7-.6c6.2.6,12.4,1.5,18.5,2.7a126.68,126.68,0,0,1,18.1,4.7,66.07,66.07,0,0,1,16.8,8.4,36.49,36.49,0,0,1,3.7,2.9c1.2,1,2.4,2,3.5,3.1l1.7,1.6,1.6,1.7c.5.6,1.1,1.1,1.6,1.7l1.5,1.8a75.08,75.08,0,0,1,10.4,15.7,54.93,54.93,0,0,1,5.1,18.2l.2,2.4v4.8l-.2,2.4c-.1,1.6-.4,3.2-.6,4.7s-.6,3.1-.8,4.6c-.6,3-1.1,6.1-1.8,9.2a46.41,46.41,0,0,1-1.2,4.7,15.26,15.26,0,0,1-2.3,4.6,11.23,11.23,0,0,1-2,1.8,10.08,10.08,0,0,1-2.3,1.2,28.52,28.52,0,0,1-4.8,1.3c-3.2.6-6.3.8-9.4,1.1l-4.7.4-4.7.3c-3.1.2-6.2.2-9.4.3-12.5.3-24.9.4-37.4.4-24.9.1-49.8-.2-74.7-.5l-18.7-.3-18.7-.4c-12.4-.2-24.9-.5-37.3-.9h0a15.35,15.35,0,0,1-3.8-1.2,12,12,0,0,1-3.4-2.1,14.85,14.85,0,0,1-2.8-2.8A24.92,24.92,0,0,1,76.25,302.49Zm.3-.1a16.59,16.59,0,0,0,2.2,3.2,17.27,17.27,0,0,0,2.8,2.6,15.65,15.65,0,0,0,3.3,1.9,12.14,12.14,0,0,0,3.6,1h0l37.3-.1,37.3-.1,74.7-.1,18.7-.1c6.2,0,12.4-.1,18.6-.2,3.1-.1,6.2-.1,9.3-.3l4.6-.2,4.6-.3c3.1-.3,6.2-.5,9.1-1s5.9-1.3,7.5-3.3,2.3-5.1,3-8.1,1.2-6.1,1.9-9.1c.3-1.5.7-3.1.9-4.6a23.16,23.16,0,0,0,.6-4.5l.2-2.3a17.66,17.66,0,0,0,0-2.3v-2.3l-.2-2.3a54.32,54.32,0,0,0-4.5-17.7,70.53,70.53,0,0,0-9.8-15.6l-1.5-1.8c-.5-.6-1-1.1-1.6-1.7l-1.6-1.7-1.7-1.6c-1.1-1.1-2.2-2.1-3.4-3.1a32.65,32.65,0,0,0-3.6-2.9,66.9,66.9,0,0,0-16.4-8.4c-11.7-4.1-24.1-6.1-36.4-7.2a308,308,0,0,0-37.2-.8c-12.4.4-24.8,1.4-37.1,2.8s-24.7,3-36.6,6.2c-5.9,1.6-11.7,3.8-16.4,7.6a65.5,65.5,0,0,0-6.6,6.3c-2.1,2.3-4.3,4.5-6.6,6.7-1.2,1.1-2.3,2.2-3.5,3.2l-3.6,3-1.7,1.5-1.7,1.6c-1.1,1-2.1,2.2-3.2,3.3-4,4.6-7.4,9.9-8.7,15.8a17,17,0,0,0-.4,2.2c0,.4-.1.7-.1,1.1v.5l.1.6.5,4.6,1,9.3Z"/><path class="cls-2" d="M80.45,259.29s227.6-1,231.6,2C312,261.29,187.75,266.29,80.45,259.29Z"/><polygon class="cls-1" points="331.05 435.79 350.15 438.79 353.15 397.69 324.05 394.59 331.05 435.79"/><path class="cls-2" d="M331.15,435.69c3.4.2,6.6.5,9.8.8s6.3.7,9.3,1.1l-1.4,1.1c.2-3.4.4-6.9.7-10.3s.7-6.8,1.2-10.2.9-6.8,1.2-10.2.5-6.9.6-10.3l.5.6c-4.9-.3-9.7-.5-14.6-.9l-14.6-1.2,1.7-1.8c.3,1.7.6,3.3.9,5s.6,3.3.8,5l1.5,10.2C329.65,421.39,330.45,428.39,331.15,435.69Zm-.2.2c-1.6-6.4-3.2-13.2-4.6-20.1-.7-3.4-1.4-6.9-2.1-10.4-.3-1.7-.6-3.5-.9-5.3s-.6-3.5-.9-5.3l-.3-2.1,2,.2c4.8.6,9.7,1.2,14.5,1.9s9.6,1.5,14.5,2.2l.6.1-.1.5c-.4,3.4-.7,6.8-.9,10.3s-.3,6.9-.3,10.3-.1,6.9-.3,10.3-.5,6.9-.8,10.3l-.1,1.4-1.3-.2c-3.3-.6-6.5-1.2-9.7-1.9S333.95,436.59,330.95,435.89Z"/><polygon class="cls-1" points="48.35 438.79 65.35 438.79 68.35 398.69 42.35 397.69 48.35 438.79"/><path class="cls-2" d="M48.45,438.69c3-.2,5.9-.5,8.7-.7s5.5-.3,8.2-.4l-1.2,1.1c.1-1.7.2-3.3.3-5s.2-3.3.3-5c.3-3.3.7-6.7,1.1-10s.9-6.7,1.2-10,.5-6.7.6-10l.6.6c-4.3,0-8.7.1-13,.1s-8.7-.1-13-.2l1.6-1.7c.6,3.3,1,6.7,1.5,10s.8,6.7,1.2,10.1C47.25,424.39,47.85,431.29,48.45,438.69Zm-.2.2c-1.4-6.4-2.8-13.1-4.1-20-.6-3.4-1.2-6.9-1.8-10.4s-1-7-1.5-10.6l-.2-1.8,1.8.1c4.3.3,8.7.5,13,.8s8.6.8,13,1.1H69l-.1.6c-.4,3.3-.7,6.7-.9,10s-.3,6.7-.3,10.1-.1,6.7-.4,10.1c-.1,1.7-.2,3.3-.4,5s-.3,3.3-.5,5l-.1,1.1h-1.1c-3-.1-5.9-.2-8.8-.4S50.85,439.09,48.25,438.89Z"/><path class="cls-3" d="M129.65,92.49s18-33.8,46.9,6.6S114.85,114.09,129.65,92.49Z"/><path class="cls-1" d="M122,210c-1.9,0-3.7.1-5.6,0-2.8,0-4,1.3-6.3,2.9a24.65,24.65,0,0,0-4.1,3.8c-1.3,1.4-3.1,2.4-4.3,3.8a20.78,20.78,0,0,0-4.2,9.3,38.81,38.81,0,0,0-1,12.7c.6,4.2,4.5,7.8,7.8,9.9a21.83,21.83,0,0,0,6.5,2.7c2.1.5,4.1.5,6.2.9a30.52,30.52,0,0,1,5.1,1.7,22.75,22.75,0,0,0,6.8,1.3c3.9.3,8.1,1,12,.5.7-.1,1.3-.4,2-.5,1.4-.3,2.6-.1,4-.6a30.55,30.55,0,0,1,7.1-1.7c1.9-.3,4.3-.4,6-1.3.4-.2.8-.7,1.2-.9a9.85,9.85,0,0,1,1.7-.2,13.88,13.88,0,0,0,2.6-1c1.5-.6,4-.1,5.1-1.3-2.8-1.9-7.3-1.5-10.5-2a16.47,16.47,0,0,0-3.2-.6,9.74,9.74,0,0,1-3.4-.6c8.8.3,17.6-.1,26.3-.1,5.5,0,11-.1,16.5-.1h5.6c.9,0,3,.3,3.8-.1-1.6-1.9-5-2.8-7.1-4.1a24.77,24.77,0,0,0-5.7-2.7,37.63,37.63,0,0,1-5.5-2.3c-2-.8-4.1-1.4-6-2.3-4.4-2-7.9-5.2-11.5-8.3a12.06,12.06,0,0,1-2.1-2.4c-.5-.7-.9-1.6-1.6-2a17,17,0,0,0-2.4-.5c-1.1-.3-2-.5-3.1-.8a57.42,57.42,0,0,1-8.1-2.3c-2.4-.9-4.7-2.6-7.1-3.6a20.59,20.59,0,0,1-3.3-1.7c-.7-.5-1.2-1.3-1.9-1.7-1.4-.8-3.4-.9-5-1.2-1.9-.4-3.8-.5-5.5-1.4a18.23,18.23,0,0,0-4-1.1c-.8-.2-1.6,0-2.4-.2s-1.1-.7-1.9-.5"/><path class="cls-2" d="M122,210.19l-4,.2a11.29,11.29,0,0,0-3.8.5,15.28,15.28,0,0,0-3.2,2.2,24.35,24.35,0,0,0-2.9,2.6l-1.4,1.5a19.2,19.2,0,0,1-1.5,1.4,23.84,23.84,0,0,0-2.8,2.6,19.17,19.17,0,0,0-3.3,6.9,40.14,40.14,0,0,0-1.4,7.7,25.41,25.41,0,0,0-.1,3.9,14.38,14.38,0,0,0,.5,3.7,13.2,13.2,0,0,0,4.2,5.9,35.54,35.54,0,0,0,3.1,2.3,13.26,13.26,0,0,0,3.4,1.6,28,28,0,0,0,3.6,1c1.2.2,2.6.3,4,.6a19.09,19.09,0,0,1,4.1,1.1l1.9.8a6.36,6.36,0,0,0,1.8.6,23.28,23.28,0,0,0,3.8.8l4,.5a53.54,53.54,0,0,0,7.9.6,3.4,3.4,0,0,0,1-.1c.4,0,.5-.1.9-.1a12.91,12.91,0,0,1,2.1-.5,14.09,14.09,0,0,1,2-.1,16.68,16.68,0,0,0,1.8-.5,36.6,36.6,0,0,1,8-1.6,16.06,16.06,0,0,0,3.8-.8,5.93,5.93,0,0,0,.8-.4c.2-.2.5-.4.8-.7a4.51,4.51,0,0,1,2.1-.4,6.7,6.7,0,0,0,1.8-.7,10.39,10.39,0,0,1,1-.4,4.25,4.25,0,0,1,1.1-.2c.7-.1,1.4-.1,2-.2a3,3,0,0,0,1.5-.6l.1.8a10,10,0,0,0-3.9-1.3c-1.4-.2-2.9-.2-4.3-.3a16.35,16.35,0,0,1-2.2-.2c-.8-.1-1.5-.3-2.1-.4-.3,0-.6-.1-1-.1a4.87,4.87,0,0,1-1.2-.1,15.53,15.53,0,0,1-2.3-.5l-6-1.7,6.3.1c4.3,0,8.7-.1,13-.2l13.1-.4,13.1-.2,6.5-.1h3.4c.6,0,1.1.1,1.6.1h.6c.2,0,.3-.1.2,0l-.4,2.4a7.85,7.85,0,0,0-2-1.4c-.8-.4-1.7-.8-2.6-1.2a9.15,9.15,0,0,1-1.4-.7,2.51,2.51,0,0,1-.7-.4l-.7-.4c-.9-.5-1.7-1-2.5-1.4a18.6,18.6,0,0,0-2.5-1,13.43,13.43,0,0,1-3-1.2,39.66,39.66,0,0,0-5.3-2.2c-.9-.3-1.9-.7-2.9-1.1a24.37,24.37,0,0,1-2.8-1.4,37.53,37.53,0,0,1-5-3.6c-1.6-1.3-3-2.6-4.5-4a12.66,12.66,0,0,1-2.1-2.5,12.25,12.25,0,0,1-.8-1.2.89.89,0,0,0-.5-.4,12.3,12.3,0,0,0-1.3-.2.6.6,0,0,1-.4-.1,1,1,0,0,1-.4-.1l-.7-.2c-.9-.2-1.8-.5-2.8-.7a38.59,38.59,0,0,1-5.8-1.7c-.9-.4-1.9-.7-2.8-1.2l-2.7-1.5c-.9-.5-1.7-1-2.5-1.5s-1.7-.8-2.6-1.3a10,10,0,0,1-1.4-.8,6.53,6.53,0,0,1-1.2-1.1,3.24,3.24,0,0,0-.9-.8c-.3-.2-.8-.3-1.2-.5-.9-.2-1.9-.3-2.9-.5l-2.9-.6a14,14,0,0,1-2.9-.9,8.8,8.8,0,0,0-2.7-1l-1.4-.3a6.15,6.15,0,0,0-1.4-.1,3.65,3.65,0,0,1-1.5-.3c-.5-.2-.8-.5-1.3-.4l-.1-.3a2,2,0,0,1,1.5.3,3.18,3.18,0,0,0,1.4.2,7.52,7.52,0,0,1,1.5,0l1.5.2a14,14,0,0,1,2.9.9,22.92,22.92,0,0,0,2.8.7l2.9.4c.9.1,1.9.2,3,.4a9.83,9.83,0,0,1,1.6.5,5.26,5.26,0,0,1,1.4,1.1,3.51,3.51,0,0,0,1,.8l1.2.6c.9.4,1.8.7,2.7,1.2s1.8.9,2.7,1.4,1.7.9,2.6,1.3a21.51,21.51,0,0,0,2.7,1A35.29,35.29,0,0,0,161,222c.9.2,2,.4,3,.6l.7.2.3.1h.3c.4.1.9.1,1.6.2a3.7,3.7,0,0,1,1.1.5,3,3,0,0,1,.8.8,11.65,11.65,0,0,1,.8,1.3,11.23,11.23,0,0,0,1.8,2c1.5,1.3,3,2.6,4.5,3.8a35.47,35.47,0,0,0,4.7,3.2,22,22,0,0,0,5.2,2.2c.9.3,1.9.6,2.9,1s1.9.9,2.7,1.3a16.26,16.26,0,0,0,2.5,1,15.66,15.66,0,0,1,3,1.2c1,.5,1.8,1,2.7,1.5l.6.4.6.3,1.3.6a24.33,24.33,0,0,1,2.8,1.4,10.24,10.24,0,0,1,2.8,2.1l1.3,1.5-1.8.9a5.09,5.09,0,0,1-1.4.4h-1c-.6,0-1.2-.1-1.7-.1h-9.7l-13.1-.1h-13.1c-4.4,0-8.7-.1-13.1-.3l.3-1.6a14.61,14.61,0,0,0,2,.5c.3,0,.7.1,1,.1a4.87,4.87,0,0,1,1.2.1c.8.1,1.5.4,2.1.5l2.1.3a34.89,34.89,0,0,1,4.4.5,9.65,9.65,0,0,1,4.3,1.5l.5.4-.5.4a3.58,3.58,0,0,1-2.1.9c-.7.1-1.4.1-2,.2a2.92,2.92,0,0,0-.9.2,3.55,3.55,0,0,0-.9.4,6.79,6.79,0,0,1-2,.7c-.8.2-1.5,0-1.8.3-.2.1-.5.4-.8.6a3.09,3.09,0,0,1-1,.5,19.2,19.2,0,0,1-4,.9,32,32,0,0,0-7.7,1.7,11.68,11.68,0,0,1-2,.6c-.7.1-1.4.1-2,.2a6.07,6.07,0,0,0-1.8.5,4.25,4.25,0,0,1-1.1.2c-.3,0-.7.1-1,.1a55.81,55.81,0,0,1-8.2-.2l-4-.3a27,27,0,0,1-4.1-.6c-.7-.2-1.4-.4-2-.6l-1.9-.6a24.9,24.9,0,0,0-3.7-.9c-1.2-.2-2.6-.2-4-.5a17.64,17.64,0,0,1-4.1-1.1,27.56,27.56,0,0,1-3.9-1.8c-1.2-.8-2.3-1.6-3.4-2.5a14.75,14.75,0,0,1-2.9-3.2,11.58,11.58,0,0,1-2-4,16.73,16.73,0,0,1-.5-4.3c0-1.4.1-2.8.2-4.2a44.88,44.88,0,0,1,1.7-8.1,22,22,0,0,1,3.9-7.4,19.94,19.94,0,0,1,3.2-2.7l1.5-1.2,1.5-1.4a25.12,25.12,0,0,1,3.2-2.5,17.92,17.92,0,0,1,3.6-2.1,7.61,7.61,0,0,1,2.1-.3l2,.1,4,.2Z"/><path class="cls-1" d="M255.65,293.19c0,1.8,1.8,3.2,2.8,4.4,1.2,1.5,1.2,3.1,1.8,4.9.6,1.5,1.1,3,1.7,4.5s.4,3,1.1,4.5a17.76,17.76,0,0,1,1.6,7.9,30.75,30.75,0,0,1-.4,5.3c-.4,2.7,0,5.3-.6,8a16.68,16.68,0,0,0-.5,5,17.51,17.51,0,0,1-.6,3.3,11.49,11.49,0,0,0,.1,1.8,25.11,25.11,0,0,1-.4,2.7c-.3,1.7.2,3.4-.2,5-.5,2.2-.9,6,2.4,6.1,1.2,0,3.5-.1,4.2-1.3.7-1-.2-1.1.8-1.8a1.37,1.37,0,0,1,2.1.2c.5.7-.4,1.5.3,2.1.3.3,1.6.1,2,.1a8.55,8.55,0,0,0,1.6,0c1.3-.1,1.2-.3,2.3-1a11.75,11.75,0,0,1,3.6-2.1c1.4-.5,2.8-.3,4.3-1a11,11,0,0,0,5.9-7.2c.4-1.7,1.3-3.4,1.6-5.2a33.69,33.69,0,0,0,.1-5.5c0-1.2-.4-3.2-.1-4.4s1.1-1.8,1.1-3.3a45.73,45.73,0,0,1,.5-5.2c.3-2,1.1-3.4-.4-4.8A15.38,15.38,0,0,0,293,315a16.07,16.07,0,0,1-2.3-2.2c-.9-1.4-.6-3.5-.5-5,.1-2.9,1.8-6-1.2-8.1a13.84,13.84,0,0,1-3.9-4.1c-1.3-2-1.7-4.3-2.7-6.4-1.4-2.9-3.3-7-6.8-7.3a15.63,15.63,0,0,0-5.7.6c-.5.1-1.1.3-1.7.4a13.56,13.56,0,0,1-2,.2,4.48,4.48,0,0,0-1.3,1c-.8.5-1.8.6-2.5,1.1-.9.6-1.8,1.6-2.7,2.3-1.8,1.4-4.1,2.4-5.1,4.5"/><path class="cls-2" d="M255.75,293.19a3.6,3.6,0,0,0,1.3,2.3c.6.7,1.3,1.3,2,2.1a7.49,7.49,0,0,1,1.3,2.7c.1.5.3.9.4,1.3a11.21,11.21,0,0,0,.5,1.3l1.1,2.6.6,1.3a8.33,8.33,0,0,1,.4,1.5,8.23,8.23,0,0,0,.7,2.5l.3.6c.1.2.2.5.3.7a12.12,12.12,0,0,1,.5,1.4,19.55,19.55,0,0,1,.8,5.9c0,1,0,2-.1,3s-.2,2-.3,2.9c-.2,1.7-.1,3.6-.2,5.6a21.76,21.76,0,0,1-.5,2.9,11.53,11.53,0,0,0-.3,2.6v1.4a8.8,8.8,0,0,1-.2,1.7l-.3,1.4-.1.3v.8a8.29,8.29,0,0,1-.4,3.2,6,6,0,0,0-.2,1.2v1.3a11.59,11.59,0,0,1-.3,3.1,11.7,11.7,0,0,0-.4,2.6,3.48,3.48,0,0,0,.6,2.1c.4.5,1.2.6,2.2.5a5.1,5.1,0,0,0,2.5-.5,1.38,1.38,0,0,0,.4-.3c.1-.1.2-.3.3-.4s0-.2.1-.7.5-.6.7-.8a1.93,1.93,0,0,1,1.7-.4,2.18,2.18,0,0,1,.8.5,1.38,1.38,0,0,1,.3.4c.1.2.1.3.2.5,0,.7-.2,1.1-.1,1.3a.1.1,0,0,0,.1.1h.7l.7-.1h2.1a1.27,1.27,0,0,0,.6-.1c.2,0,.3-.1.5-.2.3-.3.8-.6,1.1-.9a10.68,10.68,0,0,1,2.5-1.6,5.78,5.78,0,0,1,1.4-.5l1.5-.3a5.66,5.66,0,0,0,2.5-.8,8.34,8.34,0,0,0,2.1-1.6,10.14,10.14,0,0,0,2.7-4.4l.3-1.4c.1-.5.3-1,.4-1.4a14.47,14.47,0,0,0,.7-2.6,24.3,24.3,0,0,0,0-5.4c0-.9-.2-1.8-.2-2.8a9.58,9.58,0,0,1,0-1.7,7.75,7.75,0,0,1,.5-1.8c.2-.5.4-.8.5-1.1,0-.1.1-.3.1-.4V326c0-1,.1-2,.2-3l.2-1.4.1-.7c0-.3.1-.5.1-.8.2-1,.4-1.8.2-2.1a1.76,1.76,0,0,0-.4-.5l-1-1a8.12,8.12,0,0,0-1-.9,10.59,10.59,0,0,1-1.2-1,4.35,4.35,0,0,1-.6-.7,4.05,4.05,0,0,1-.5-.9,6.07,6.07,0,0,1-.5-1.8c-.1-1.1,0-2.2,0-3.1,0-2.1.8-4.1.6-5.4a2.35,2.35,0,0,0-.7-1.4c-.2-.2-.7-.5-1.1-.8a12,12,0,0,1-1.2-1.1,15,15,0,0,1-2-2.4,6.38,6.38,0,0,1-.8-1.4,14.66,14.66,0,0,1-.6-1.4c-.4-1-.6-1.9-.9-2.7a26,26,0,0,0-1-2.5,17.91,17.91,0,0,0-2.7-4.5,4.08,4.08,0,0,0-1.8-1.2,8.26,8.26,0,0,0-2.4-.3,26.13,26.13,0,0,0-5.4.8h0l-2,.2.3-.1a8.34,8.34,0,0,0-1.2.8l-.1.1h-.1a7,7,0,0,1-1.7.6,5.17,5.17,0,0,0-1.3.6c-.9.6-1.7,1.4-2.6,2s-1.9,1.2-2.8,1.8a8,8,0,0,0-2.3,2.2l-.3-.1a8.9,8.9,0,0,1,2.1-2.6c.9-.7,1.8-1.3,2.6-2s1.5-1.5,2.4-2.3a5.07,5.07,0,0,1,1.6-.9c.5-.2,1-.4,1.4-.6l-.2.2a6.39,6.39,0,0,1,1.5-1.3l.1-.1h.2l2-.3h-.1a25,25,0,0,1,5.7-1.3,12,12,0,0,1,3.2.2,7.67,7.67,0,0,1,2.9,1.7,18.18,18.18,0,0,1,3.4,5.1,22.06,22.06,0,0,1,1.2,2.7c.4.9.7,1.8,1,2.6a11.73,11.73,0,0,0,.5,1.1,6.73,6.73,0,0,0,.7,1.1,10,10,0,0,0,1.6,1.9,3.92,3.92,0,0,0,1,.8c.3.3.7.4,1.2.9a5.33,5.33,0,0,1,1.9,3.5,16.7,16.7,0,0,1-.2,3.3l-.2,1.3c0,.2-.1.4-.1.6v.7a11.27,11.27,0,0,0,0,2.6,2,2,0,0,0,.2.9c0,.1.1.2.2.3a1.38,1.38,0,0,1,.3.4,9,9,0,0,0,1,.9c.3.3.8.7,1.1,1l1,1a4,4,0,0,1,1.1,1.9,7.17,7.17,0,0,1,.1,2c-.1.6-.2,1-.3,1.5,0,.2-.1.4-.1.6l-.1.7-.2,1.4-.3,2.7v.9a3.55,3.55,0,0,1-.2,1,6,6,0,0,1-.7,1.4c-.7,1-.2,2.9-.3,5a24.08,24.08,0,0,1-.3,5.9,23.07,23.07,0,0,1-1,2.8c-.2.4-.3.9-.5,1.3l-.4,1.4a12.39,12.39,0,0,1-3.4,5,13.79,13.79,0,0,1-2.5,1.7,6.3,6.3,0,0,1-3,.7,7.09,7.09,0,0,0-2.6.6,17.62,17.62,0,0,0-2.3,1.4l-1.1.8a2,2,0,0,1-.8.4,2.2,2.2,0,0,1-.8.1H274l-.7.1h-.8a.86.86,0,0,1-.6-.3,2.19,2.19,0,0,1-.3-.5,1.35,1.35,0,0,1,0-.9c0-.2.1-.4.1-.6s0-.1-.1-.2-.1-.1-.1-.2a.52.52,0,0,0-.4-.2c-.3-.1-.6.1-.9.3a.75.75,0,0,0-.3.3,3.2,3.2,0,0,1-.1.7,2,2,0,0,1-.4.8,2,2,0,0,1-.7.6,6.74,6.74,0,0,1-3,.8,8.54,8.54,0,0,1-1.6,0,2.93,2.93,0,0,1-1.6-.7,3.6,3.6,0,0,1-1-1.5,4.53,4.53,0,0,1-.3-1.6,14.17,14.17,0,0,1,.2-3,7.54,7.54,0,0,0,0-2.6c0-.5-.1-1-.1-1.5a8.75,8.75,0,0,1,.2-1.6,7.25,7.25,0,0,0,.2-2.5c0-.2-.1-.5-.1-.8v-.5l.1-.4.3-1.4a4.87,4.87,0,0,0,.1-1.2v-1.5a15.26,15.26,0,0,1,.3-3c.2-1,.4-1.8.5-2.7.2-1.7.1-3.7.3-5.7a34.09,34.09,0,0,0,.5-5.5,23.25,23.25,0,0,0-.5-5.3,6.46,6.46,0,0,0-.4-1.3c-.1-.2-.1-.4-.2-.6l-.3-.7a12.24,12.24,0,0,1-.6-3,5.27,5.27,0,0,0-.3-1.2l-.4-1.3-.9-2.7c-.1-.4-.3-.9-.4-1.4s-.2-1-.3-1.4a6.79,6.79,0,0,0-.9-2.5c-.5-.7-1.2-1.4-1.7-2.2a4.61,4.61,0,0,1-1.1-2.7Z"/><path class="cls-1" d="M206.75,200a20.31,20.31,0,0,1,7.7,1.5,18.88,18.88,0,0,0,2.5,1.1c1.3.3,2.5.2,3.8.8,2.1.9,4.1,2,6.1,2.8,1.1.5,2.3.4,3.4,1a12.75,12.75,0,0,0,2.5,1.5c2,.5,1.7.5,2.6,2.2.5.9,1.2,1.5,1.7,2.3a18.31,18.31,0,0,0,2.4,3.1c1.1,1.4,1.5,3.2,2.6,4.6a28.27,28.27,0,0,0,5.8,7.1c2.3,2.5,4.7,5.1,6.8,7.9,2.3,3.1,4.5,6.2,6.6,9.4a30,30,0,0,0,4.1,4.6c1.4,1.4,2.5,2.9,3.8,4.3a25,25,0,0,0,2.4,2.2c1.1,1,1.6,2.3,2.6,3.4,2.1,2.2,4.3,4.3,6.5,6.3,1.9,1.8,4.1,3,5.4,5.4.5,1,.6,2.1,1.1,3.1.7,1.4,1.7,2.2.1,3.4-1.3.9-3.1,1.3-4.5,2.1-1.2.6-2.3,1.2-3.5,1.7a72,72,0,0,0-7.6,3.2c-1.3.6-2.6,1.5-4,2a53.13,53.13,0,0,0-5.6,2,41.82,41.82,0,0,1-6.1,2.7,31.22,31.22,0,0,0-4.3,1.5c-1.3.6-2,1.8-3.1,2.8s-2.2,1.2-3,2.5a9.25,9.25,0,0,1-2.7,3.2c-1.5-1.7-2.3-4.2-3.2-6.2a64.1,64.1,0,0,0-4.5-7c-2.5-3.8-4.5-7.8-7.7-11.2a43.15,43.15,0,0,1-5.8-7c-1.1-1.8-2.8-3.2-3.6-5a37.68,37.68,0,0,0-2.8-4.8c-1.4-2-1.8-3.9-2.4-6.2-.5-1.8-1.9-3.3-2.8-5a12.66,12.66,0,0,1-1.5-3.1,14.46,14.46,0,0,1,0-3.6c0-2.1-.6-4-.6-6.1s.2-3.6-.9-5.4-2.6-1.9-3.5.1a9.47,9.47,0,0,0-.7,2.9c-.1,1.7-.4,3.3-.5,5-.1,2.3.3,9.7-4.2,7.2a32.64,32.64,0,0,1-3.6-2.9c-1.6-1.5-3.4-2.9-5-4.4-.9-.8-1.7-1.8-2.6-2.6a29.8,29.8,0,0,0-4.5-2.7,40.32,40.32,0,0,1-3.2-2.6c-.9-.6-1.8-.9-2.7-1.5-1.6-1.2-2.9-2.6-4.4-3.8-.8-.6-2.8-1.3-3.1-2.3.9-.7,2.1-.5,3.1-.6a9.9,9.9,0,0,0,3.9-1.8c1.7-1.2,3.8-1.7,5.6-2.9a78.61,78.61,0,0,0,10.4-8.7c1.5-1.3,2.4-3.2,3.8-4.7a25.89,25.89,0,0,1,5-3.7,17.58,17.58,0,0,1,9-2.4"/><path class="cls-2" d="M206.65,199.89a18.72,18.72,0,0,1,5.3.5,25.83,25.83,0,0,1,2.6.8c.9.3,1.6.8,2.4,1s1.7.2,2.6.4a7.36,7.36,0,0,1,1.4.4c.4.2.8.3,1.2.5,1.6.7,3.2,1.5,4.8,2.1.7.3,1.5.3,2.5.6a3.51,3.51,0,0,1,1.4.6c.4.3.8.5,1.1.7a3.55,3.55,0,0,0,.9.4,10.25,10.25,0,0,1,1.4.4,2.36,2.36,0,0,1,.9.6,2.31,2.31,0,0,1,.5.7,10.92,10.92,0,0,0,.6,1.1,22.57,22.57,0,0,1,1.6,2.1c.4.7,1,1.3,1.5,2l.9,1a5.67,5.67,0,0,1,.8,1.3c.5.8.8,1.7,1.2,2.4a8.8,8.8,0,0,0,.6,1,10.47,10.47,0,0,0,.8,1.1,19.11,19.11,0,0,0,1.4,2.1c1.1,1.3,2.3,2.5,3.6,3.8,2.4,2.6,4.8,5.2,7,8.1l6.1,8.7a28.77,28.77,0,0,0,3.2,3.9l.9.9,1,1c.6.7,1.2,1.4,1.7,2.1a16,16,0,0,0,1.6,1.9c.6.6,1.2,1.1,1.9,1.7a16.24,16.24,0,0,1,1.8,2.3,3.11,3.11,0,0,0,.7.9,7.64,7.64,0,0,0,.9.9l3.7,3.7,1.8,1.9c.6.6,1.3,1.1,1.9,1.7a11.69,11.69,0,0,1,3.6,4.3c.4,1,.5,1.9.8,2.6a4.07,4.07,0,0,0,.6,1.1,4.11,4.11,0,0,1,.6,1.6,1.49,1.49,0,0,1-.3,1,4.35,4.35,0,0,1-.6.7,5.67,5.67,0,0,1-1.3.8c-.9.4-1.7.7-2.5,1a6.11,6.11,0,0,0-1.2.5l-1.2.6a18.88,18.88,0,0,1-2.5,1.1,68.1,68.1,0,0,0-9.6,4.2,18.88,18.88,0,0,1-2.5,1.1c-.8.3-1.7.5-2.5.8a17,17,0,0,0-2.4.9l-2.4,1.2a30.68,30.68,0,0,1-5,2c-.8.3-1.7.5-2.5.8a5.33,5.33,0,0,0-2,1.3,17,17,0,0,1-1.9,1.9c-.7.6-1.6,1-2.1,1.5a3.11,3.11,0,0,0-.7.9,10.54,10.54,0,0,1-.7,1.1,9.52,9.52,0,0,1-1.9,2.1l-.5.3-.4-.4a13.74,13.74,0,0,1-2.4-4,35.35,35.35,0,0,0-1.9-3.9,39,39,0,0,0-2.5-3.6c-.9-1.2-1.7-2.4-2.6-3.7a75.71,75.71,0,0,0-4.9-7.2c-.5-.6-.9-1.1-1.4-1.6l-1.5-1.6c-1-1.1-2-2.2-3-3.4-.5-.6-.9-1.2-1.4-1.9l-.3-.5c-.1-.1-.2-.3-.3-.4-.2-.3-.4-.5-.6-.8a19.7,19.7,0,0,1-2.8-3.8c-.6-1.3-1.4-2.5-2.1-3.7l-.6-.9c-.2-.3-.5-.7-.7-1a10.72,10.72,0,0,1-1-2.2c-.3-.8-.5-1.5-.7-2.2l.1-1.2-.1-.4a.76.76,0,0,0-.2-.4,34.45,34.45,0,0,0-2.3-3.6l-1.1-2a6.13,6.13,0,0,1-.9-2.6,20.69,20.69,0,0,1,0-2.5v-1a3.4,3.4,0,0,0-.1-1c-.1-1.3-.5-2.8-.6-4.5a21.74,21.74,0,0,0-.3-4,3.69,3.69,0,0,0-.7-1.4.36.36,0,0,0-.3-.2h.2c.1,0,0,0-.1.2a2.39,2.39,0,0,0-.3.7,13.64,13.64,0,0,0-.4,1.7l-.1,1.1c0,.4-.1.8-.1,1.2-.1.8-.2,1.5-.3,2.2-.1,1.3-.1,2.8-.2,4.4-.1.8-.2,1.6-.4,2.5a5.34,5.34,0,0,1-.6,1.4c-.2.2-.3.5-.5.7s-.5.5-.8.6a3.78,3.78,0,0,1-2,.4c-.3-.1-.6-.1-.8-.2s-.5-.2-.7-.3a11.85,11.85,0,0,1-2.2-1.4c-1.2-1-2.2-2.1-3.3-3s-2.2-1.9-3.4-2.9-2.2-2.3-3.1-3.1a22.68,22.68,0,0,0-3.6-2.2c-.3-.2-.7-.4-1.1-.7a7.27,7.27,0,0,1-.9-.8,15.3,15.3,0,0,0-1.6-1.3c-.5-.3-1.1-.6-1.8-1a6.73,6.73,0,0,1-1.1-.7c-.3-.3-.6-.5-.9-.8-1.2-1-2.2-2.1-3.3-3l-.4-.3c-.1-.1-.2-.1-.3-.2l-1-.5c-.3-.2-.7-.4-1.1-.7a3.08,3.08,0,0,1-1.1-1.5l-.1-.9.6-.5a4.19,4.19,0,0,1,2.1-.8c.6-.1,1.1,0,1.5-.1a5.91,5.91,0,0,0,2.4-.9c.4-.2.8-.5,1.3-.8a10.93,10.93,0,0,1,1.5-.8c1-.5,1.9-.8,2.8-1.2a8.26,8.26,0,0,0,1.3-.7,14.81,14.81,0,0,1,1.3-.8l2.4-1.8c1.6-1.2,3.1-2.6,4.7-3.9l2.3-2a13.68,13.68,0,0,0,1.9-2.2,15.71,15.71,0,0,1,2.1-2.4,15,15,0,0,1,2.5-1.9,29.3,29.3,0,0,1,5.6-2.8,18.43,18.43,0,0,1,6.1-.9v.3a20,20,0,0,0-5.9,1.2,20.72,20.72,0,0,0-5.2,3,21.1,21.1,0,0,0-2.3,1.9,20.28,20.28,0,0,0-1.8,2.3,21.89,21.89,0,0,1-2,2.5l-2.2,2.1c-1.5,1.4-3,2.8-4.6,4.2a23.48,23.48,0,0,1-2.5,1.9c-.4.3-.9.6-1.3.9a10,10,0,0,1-1.4.8c-1,.5-1.9.9-2.8,1.3-.4.2-.8.5-1.2.7a14.64,14.64,0,0,1-1.3.9,8.78,8.78,0,0,1-3.3,1.3,9.24,9.24,0,0,1-1.5.1c-.4.1-.6.1-.8.3l.4-1.3c0-.1,0,.1.2.2a5.58,5.58,0,0,0,.8.5l1,.5a2.09,2.09,0,0,1,.6.4,1.76,1.76,0,0,0,.5.4c1.2,1,2.3,2.1,3.3,2.9.3.2.5.4.8.6a5.58,5.58,0,0,0,.8.5,22.06,22.06,0,0,1,2.1,1.1,14.28,14.28,0,0,1,1.8,1.5c.3.2.5.4.8.6a5.58,5.58,0,0,0,.8.5,24.88,24.88,0,0,1,4,2.4c1.3,1.1,2.2,2.2,3.2,3.1s2.2,1.9,3.4,2.9,2.2,2.1,3.3,2.9a9.72,9.72,0,0,0,1.5,1c.1,0,.2.1.3.2h.3a1.74,1.74,0,0,0,.4-.9,5.41,5.41,0,0,0,.3-1.9c.1-1.3.1-2.8.2-4.4.1-.8.2-1.5.3-2.2,0-.4.1-.7.1-1l.1-1.1a12.21,12.21,0,0,1,.6-2.6,4.41,4.41,0,0,1,2.1-2.6,2.65,2.65,0,0,1,2.3,0,3.27,3.27,0,0,1,1.4,1.1,5.49,5.49,0,0,1,1.3,2.5,16.63,16.63,0,0,1,.3,4.8c.1,1.3.3,2.7.5,4.3,0,.4.1.8.1,1.2v1.2a6,6,0,0,0,0,1.9c0,.8,1,2.2,1.6,3.4a39.31,39.31,0,0,1,2.4,3.9,1.42,1.42,0,0,1,.2.6c.1.2.1.5.2.6l.3,1.1c.2.7.4,1.4.6,2a14.17,14.17,0,0,0,.8,1.8,7.25,7.25,0,0,1,.5.9l.6,1a31.14,31.14,0,0,1,2.2,4,21.44,21.44,0,0,0,2.4,3.4,8.65,8.65,0,0,1,.7,1c.1.2.2.3.3.5l.3.5c.4.6.8,1.2,1.2,1.7.9,1.1,1.8,2.2,2.8,3.3l1.5,1.6,1.5,1.8a87.78,87.78,0,0,1,4.8,7.6c1.5,2.5,3.3,4.8,4.8,7.5s2.1,5.7,3.9,7.8l-.9-.1a6.85,6.85,0,0,0,1.7-1.7,4.13,4.13,0,0,0,.7-1.1,4.81,4.81,0,0,1,.9-1.1c.8-.7,1.6-1,2.2-1.5s1.2-1.2,1.8-1.8a10.64,10.64,0,0,1,1.1-.9,7.54,7.54,0,0,1,1.3-.6,19.76,19.76,0,0,1,2.6-.8,25.26,25.26,0,0,0,4.8-1.9l2.4-1.1a12.54,12.54,0,0,1,2.5-.9,20,20,0,0,0,4.8-1.9,65.39,65.39,0,0,1,9.7-4.4,16.27,16.27,0,0,0,2.3-1.1l1.2-.6c.4-.2.8-.4,1.3-.6a24.42,24.42,0,0,0,2.4-1,3.49,3.49,0,0,0,.9-.6c.3-.3.3-.4.3-.5a2.85,2.85,0,0,0-.4-.8c-.2-.4-.5-.8-.7-1.3-.4-.9-.5-1.8-.9-2.5a10,10,0,0,0-3.3-3.5c-.7-.5-1.4-1.1-2.1-1.7l-1.9-1.8-3.9-3.7-1-1a4.7,4.7,0,0,1-.9-1.2,10.49,10.49,0,0,0-1.5-1.9l-2-1.7c-.7-.7-1.3-1.4-1.9-2.1s-1.1-1.3-1.7-1.9l-.9-.9-1-.9a27.86,27.86,0,0,1-3.5-4.2l-6-8.6a83.5,83.5,0,0,0-6.7-8c-1.1-1.3-2.4-2.5-3.6-4a22.23,22.23,0,0,1-1.5-2.3,6.73,6.73,0,0,0-.7-1.1,5.39,5.39,0,0,1-.7-1.3c-.4-.9-.7-1.7-1.1-2.4a8.8,8.8,0,0,0-.6-1l-.8-1a17.69,17.69,0,0,1-1.6-2.2c-.4-.7-1-1.2-1.5-2.1-.3-.5-.4-.9-.6-1.2s-.2-.3-.2-.4a.35.35,0,0,0-.2-.1,7.59,7.59,0,0,1-1.1-.4,5.07,5.07,0,0,1-1.5-.7,7.64,7.64,0,0,0-1.1-.8,9.29,9.29,0,0,0-1-.5,17.07,17.07,0,0,1-2.6-.7c-1.6-.7-3.2-1.6-4.7-2.4l-1.2-.6a4.88,4.88,0,0,0-1.1-.4c-.8-.2-1.7-.2-2.6-.5a17.81,17.81,0,0,1-2.4-1.2l-2.4-.9a29.89,29.89,0,0,0-5.2-1Z"/><path class="cls-1" d="M73.85,181.29c1.8,1,3.4,2.2,5.2,3.2a17.74,17.74,0,0,1,3.3,1.9c1.4,1,2.5,2.2,3.8,3.1,2.3,1.6,4.3,3.5,6.6,5.1a31.13,31.13,0,0,0,4,2.2c2.3,1.2,4.5,2.7,6.8,3.9,6.9,3.7,14.7,4.9,22,7.7,1.4.5,2.8.7,4.2,1.3s2.7,1.5,4.1,1.9c5.4,1.5,10.4,4.2,16,5.2,1.4.3,2.8.7,4.2,1,1.7.4,3.1,1.4,4.8,1.8a8.73,8.73,0,0,1,2.2.5c.4.2.7.7,1.1.9,1.2.5,3.3.1,4.6.1a19.53,19.53,0,0,0,7.5-1.7c1.3-.6,1.3-1,1.3-2.3-.1-2.6.1-4.7-1-7.1a9.25,9.25,0,0,0-2.9-3.3c-1.3-.9-2.4-.9-3.9-1.3a36.45,36.45,0,0,1-3.5-1.4c-2.1-.8-4.3-1.4-6.5-2-3-.9-5.9-2.4-8.9-3.6-3.3-1.4-6.8-2.5-9.8-4.4a30.67,30.67,0,0,0-3.9-2.3c-2.1-1-3.4-2.5-5.2-3.9-1.5-1.2-3.3-2-4.8-3.3-1.2-1-2.3-2.2-3.5-3.2a115.24,115.24,0,0,1-8.9-8.2,62.84,62.84,0,0,0-9.6-9c-1.6-1.2-3.5-2.1-5.1-3.3a30.79,30.79,0,0,1-3.8-4.3c-2.5-3-4.9-6-8.4-7.9a15.57,15.57,0,0,0-1.5-.6,15.46,15.46,0,0,1-2.7-2.4c-1.5-1.2-2.5-1.9-3.7-.2-.6.9-.9,2.2-1.5,3.2a22,22,0,0,0-1.7,2.5c-1,2-.7,3.3-2.9,4.5,1.7,1.6,4.6,2.4,4.6,5,0,.6.3,2.1,0,2.7-.6,1.1-1.9.7-2.7,1.3,0,1.4,1.7,1.9,2.6,2.4a37.8,37.8,0,0,1,4.3,2.6c2.2,1.7,2.5,3.6,2.6,6.2s-.7,4.4-3.1,5.8c-1.8,1-5.8,1-7.4-.6"/><path class="cls-2" d="M73.95,181.19c2.4,1.2,4.5,2.7,6.9,3.7a12.38,12.38,0,0,1,3.4,2.2l1.5,1.2c.5.4,1,.7,1.6,1.1,2.2,1.5,4.2,3.3,6.3,4.6,1.1.6,2.2,1.2,3.4,1.8a39,39,0,0,1,3.5,1.9c1.1.7,2.3,1.3,3.4,1.9a37.27,37.27,0,0,0,3.5,1.6,69.12,69.12,0,0,0,7.3,2.4c2.5.7,5,1.4,7.6,2.2,1.3.4,2.6.8,3.8,1.3s2.4.6,3.8,1.1,2.6,1.3,3.6,1.7c.3.1.5.2.8.3l1,.3c.6.2,1.3.4,1.9.6,2.5.9,4.9,1.9,7.3,2.8,1.2.4,2.4.9,3.7,1.2.6.2,1.2.3,1.9.5l1.9.5,1.9.5,1,.3a4.18,4.18,0,0,1,1,.4,15.93,15.93,0,0,0,3.5,1.4l1,.2a3.37,3.37,0,0,1,1.2.4,2.94,2.94,0,0,1,.8.8l.1.1h.1c.1,0,.2.1.4.1a24,24,0,0,0,3.8,0,18.93,18.93,0,0,0,7.4-1.6,4.34,4.34,0,0,0,.7-.4c.2-.1.2-.3.2-.6v-1.9a15.83,15.83,0,0,0-.3-3.8,7.67,7.67,0,0,0-1.5-3.3,9.23,9.23,0,0,0-2.9-2.3c-1.1-.5-2.5-.4-3.8-.9a9.82,9.82,0,0,1-1.8-.8,13.36,13.36,0,0,0-1.8-.7c-2.5-.8-5-1.3-7.6-2.2s-4.9-2.1-7.3-3-4.9-1.8-7.4-2.9a39.71,39.71,0,0,1-3.5-2c-.6-.3-1.1-.7-1.6-1-.3-.1-.5-.3-.8-.4s-.7-.3-1-.5a21.93,21.93,0,0,1-3.3-2.5,21,21,0,0,0-3-2.2,16.3,16.3,0,0,1-1.7-1.1l-.9-.6a5.72,5.72,0,0,1-.8-.7l-2.9-2.7c-2-1.7-4-3.4-6-5.2a38.34,38.34,0,0,1-2.9-2.8c-.9-1-1.8-1.9-2.7-2.8a70.29,70.29,0,0,0-5.7-5.2,14.31,14.31,0,0,0-1.5-1.1c-.5-.3-1-.7-1.5-1a32.58,32.58,0,0,1-3.4-2.2,12.87,12.87,0,0,1-3-3.2l-1.2-1.5-1.2-1.5a26.07,26.07,0,0,0-5.3-5.2c-.2-.2-.5-.3-.7-.5l-1-.4a2.19,2.19,0,0,0-.8-.3,4.87,4.87,0,0,0-.7-.3,1,1,0,0,1-.5-.4,7.81,7.81,0,0,1-1.6-1.5,7.41,7.41,0,0,0-1.3-1.2,2.09,2.09,0,0,0-.6-.4c-.2-.1-.2-.1-.1-.1s.1-.1,0,0a2.18,2.18,0,0,0-.4.5,8.36,8.36,0,0,0-.7,1.6,4.67,4.67,0,0,1-.5,1,8.8,8.8,0,0,1-.6,1c-.4.6-.8,1.1-1.1,1.5s-.5,1-.7,1.5a5.69,5.69,0,0,1-1,2.1,4.33,4.33,0,0,1-2,1.6l.3-2a29.84,29.84,0,0,0,2.4,1.8,4.27,4.27,0,0,1,1.4,1.3,5.73,5.73,0,0,1,1,1.9,1.09,1.09,0,0,1,.1.5v.5l.1.8v.9a3,3,0,0,1-.2,1.2,1.27,1.27,0,0,1-.4.6c-.1.2-.3.3-.5.5a3.45,3.45,0,0,1-1.1.5,2.39,2.39,0,0,0-1.1.3l.4-.8a.37.37,0,0,0,.1.3c.1.1.2.3.4.4.4.3,1,.5,1.6.9a30.24,30.24,0,0,1,3.3,2.1,8.36,8.36,0,0,1,2.9,3A8.59,8.59,0,0,1,84,175a9.41,9.41,0,0,1-.7,4,6.27,6.27,0,0,1-3,2.8,7.79,7.79,0,0,1-4,.5,5.75,5.75,0,0,1-3.6-1.4l.2-.2a5.18,5.18,0,0,0,3.5,1,8.12,8.12,0,0,0,3.5-.7,5.28,5.28,0,0,0,2.4-2.5,8.24,8.24,0,0,0,.4-3.5,9.42,9.42,0,0,0-.8-3.4,6.91,6.91,0,0,0-2.5-2.3,34.73,34.73,0,0,0-3.3-1.8c-.5-.3-1.1-.5-1.8-.9a4.06,4.06,0,0,1-1-.9,2.69,2.69,0,0,1-.5-1.5v-.5l.4-.3a4,4,0,0,1,1.9-.7.69.69,0,0,0,.5-.3v-1.1c-.1-.5-.1-1.2-.2-1.4a3,3,0,0,0-1.5-1.7,30.73,30.73,0,0,1-2.8-2l-1.3-1.2,1.5-.9a3.09,3.09,0,0,0,1.6-2.3,7.37,7.37,0,0,1,.9-2.1c.4-.7.9-1.2,1.2-1.7a2.51,2.51,0,0,0,.4-.7,6.89,6.89,0,0,0,.3-.8,6.9,6.9,0,0,1,.9-2,4.36,4.36,0,0,1,.9-1.1,3.38,3.38,0,0,1,1.7-.8,3.25,3.25,0,0,1,1.8.3,4.13,4.13,0,0,1,1.1.7,11.43,11.43,0,0,1,1.6,1.4,5.83,5.83,0,0,0,1.3,1.1c.1.1.2.1.3.2a.35.35,0,0,0,.2.1c.2.1.6.2,1.1.4l.2.1.1.1.2.1c.2.1.3.2.5.3l.9.6a29.7,29.7,0,0,1,6,5.7l1.3,1.5c.4.5.8,1.1,1.2,1.6a11.51,11.51,0,0,0,2.4,2.5,29.81,29.81,0,0,0,3.2,2,10.38,10.38,0,0,1,1.7,1.2,18.26,18.26,0,0,1,1.6,1.3,76.79,76.79,0,0,1,5.9,5.5c.9,1,1.8,2,2.7,2.9l2.7,2.7c1.9,1.8,3.9,3.4,5.8,5.2l2.9,2.7c.2.2.5.4.7.6a3,3,0,0,0,.7.5,8.64,8.64,0,0,0,1.6,1,26,26,0,0,1,3.3,2.5,19.44,19.44,0,0,0,2.9,2.3,2,2,0,0,0,.8.4c.3.2.6.3.9.5a9.91,9.91,0,0,1,1.7,1.1,28,28,0,0,0,3.2,2c2.2,1.2,4.7,2.1,7.1,3.2s4.8,2.3,7.2,3.2,5,1.5,7.5,2.5a15.39,15.39,0,0,1,1.9.8,14.17,14.17,0,0,0,1.8.8c1.1.5,2.5.5,3.8,1a9,9,0,0,1,4.9,6.3,18,18,0,0,1,.3,4,13.36,13.36,0,0,1,0,2,1.85,1.85,0,0,1-.5,1.2,2.66,2.66,0,0,1-1,.6,20.8,20.8,0,0,1-7.8,1.9,24.87,24.87,0,0,1-4,.2c-.2,0-.4-.1-.6-.1l-.2-.1c-.1,0-.1-.1-.2-.1s-.2-.1-.3-.2l-.6-.6a4.07,4.07,0,0,1-.7-.2l-1-.1a19.82,19.82,0,0,1-3.9-1.3l-.9-.3c-.3-.1-.5-.1-.9-.2l-1.9-.4-1.9-.4a14.15,14.15,0,0,1-2-.4c-1.3-.3-2.6-.7-3.9-1.1-2.5-.8-5-1.8-7.4-2.6l-1.8-.6-.9-.3a7.59,7.59,0,0,1-1.1-.4c-1.4-.6-2.5-1.3-3.5-1.7s-2.4-.6-3.8-1.1c-1.2-.5-2.4-.9-3.7-1.3-2.5-.8-5-1.5-7.5-2.3a67,67,0,0,1-7.5-2.7,43.83,43.83,0,0,1-7.1-3.8c-1.1-.7-2.2-1.4-3.3-2s-2.3-1.2-3.5-2a79.49,79.49,0,0,1-6.2-5c-.5-.4-1.1-.8-1.6-1.2a19.2,19.2,0,0,1-1.5-1.4,17,17,0,0,0-3-2.3,31.31,31.31,0,0,1-3.4-2.1c-1.1-.8-2.1-1.5-3.2-2.2Z"/><path class="cls-1" d="M172.15,202.49c.1-2.3,2.6-4,4-5.5a29.39,29.39,0,0,1,4.4-3.5c1.6-1,3.3-1.3,4.9-2.2,2.1-1.2,4.1-2.3,6.2-3.3,1.7-.8,3.4-1.8,5.2-2.7,2.3-1.1,4.8-1.9,7-3.2s4-2.9,6.4-3.7a14.35,14.35,0,0,0,3.4-1.4c1.5-.9,2.7-2.3,4.2-3.2,2.7-1.7,5.7-3.2,8.5-4.6,1.5-.7,2.7-1.8,4.1-2.6,2.7-1.5,5.1-3.5,7.8-5.1a95.24,95.24,0,0,0,8.8-5.8c3.3-2.6,5.9-6.1,9.4-8.4,2.8-1.9,5.8-3.4,9.2-3.4,1.6,0,2.7-.4,3.8.9a5.45,5.45,0,0,1,1.2,2.4c0,1.5-.7,1.6-2.1,2.2a72.17,72.17,0,0,0-13.1,6.4c-4.8,3-9.4,6.7-14.5,8.9a19,19,0,0,0-5.3,3.3,44.63,44.63,0,0,1-5,3.5c-2,1.4-3.7,3-5.5,4.5-2,1.7-4.1,3.1-6.1,4.8a148.14,148.14,0,0,1-11.8,9.1,29.78,29.78,0,0,0-3.3,2.9c-1.9,2-4.1,3.5-6,5.5-1.5,1.7-2.9,3.4-4.4,5.1-.7.8-1.5,1.4-2.2,2.2-1.1,1.2-1.8,2.6-2.9,3.8-1.8,2-3.9,3.5-5.5,5.6-.6.9-2.1,3.8-3.3,3.5s-1.8-6.2-2.1-7.3c-.4-1.4-1.5-3.2-.1-4.4a20.12,20.12,0,0,1,2.9-1.7c1.2-.8,2.3-1.5,3.6-2.3a59.3,59.3,0,0,0,6.2-4,38.19,38.19,0,0,0,5.3-4.5,27.94,27.94,0,0,0,3.4-4.3c.6-.9,2.7-2.4,2.8-3.5-1-1.1-4,1.9-4.9,2.4-1.7,1-3.5,1.6-4.9,2.9-1.2,1.2-2.3,2.4-3.6,3.5s-2.7,1.6-3.9,2.9c-1.7,1.7-3.4,3.2-5.8,3.7s-4.9-.5-7.2-.5"/><path class="cls-2" d="M171.95,202.49a5.83,5.83,0,0,1,2.1-3.9l1.6-1.6c.5-.5,1-1.1,1.6-1.6a24.16,24.16,0,0,1,3.6-2.7c1.3-.8,2.8-1.2,4-1.9,2.5-1.4,5.1-2.9,7.7-4.3l3.9-2.1c1.3-.7,2.7-1.3,4-1.9a32,32,0,0,0,3.7-1.9c1.2-.7,2.3-1.7,3.7-2.4a14.72,14.72,0,0,1,2.2-1c.7-.3,1.4-.5,2-.7a8.27,8.27,0,0,0,1.6-.9,18.26,18.26,0,0,0,1.6-1.3,13.3,13.3,0,0,1,1.9-1.4c.7-.4,1.3-.8,1.9-1.2a37.16,37.16,0,0,1,3.9-2.1l2-1,1-.5a2.18,2.18,0,0,0,.8-.5c.6-.4,1.1-.8,1.8-1.2a8.79,8.79,0,0,1,1-.6l1-.6c2.4-1.4,4.7-3.2,7.3-4.7s5.1-2.9,7.4-4.5a49.28,49.28,0,0,0,6.5-5.6c1.1-1,2.2-2,3.4-2.9a19,19,0,0,1,3.9-2.3,16.91,16.91,0,0,1,4.3-1.5,17.85,17.85,0,0,1,2.3-.2,16.13,16.13,0,0,1,2.2,0,3.26,3.26,0,0,1,1.3.4,2.58,2.58,0,0,1,.9.9,5.29,5.29,0,0,1,1.1,2.1,2.85,2.85,0,0,1,0,1.3,2,2,0,0,1-.8,1.2c-.8.4-1.4.6-2.1.9a66.75,66.75,0,0,0-15.4,8.1c-2.4,1.6-4.8,3.4-7.3,4.9a37.16,37.16,0,0,1-3.9,2.1,16.85,16.85,0,0,0-3.7,2.1,10.1,10.1,0,0,0-1.6,1.3c-.5.5-1.2,1-1.8,1.5-1.2.9-2.5,1.6-3.6,2.5-2.2,1.7-4.3,3.8-6.7,5.6l-3.4,2.7c-1.1.9-2.2,1.9-3.3,2.8-2.3,1.9-4.5,3.7-6.9,5.5l-1.8,1.3-.9.6c-.3.2-.5.4-.8.6-1.1.9-1.9,1.9-3.1,3s-2.3,2-3.3,2.9c-.5.5-1,.9-1.5,1.4s-.9,1.1-1.4,1.6l-2.8,3.3-.4.4-.4.4-.8.8-1.4,1.4a33.63,33.63,0,0,1-2.7,3.6c-1.1,1.2-2.2,2.1-3.2,3.1a19.2,19.2,0,0,0-1.4,1.5,6.45,6.45,0,0,0-1.1,1.6,11.54,11.54,0,0,1-1.5,2,3.86,3.86,0,0,1-1.5,1.1,2.88,2.88,0,0,1-1.6,0,2.54,2.54,0,0,1-1.2-1,7.62,7.62,0,0,1-.9-2.5c-.2-.8-.3-1.5-.5-2.2l-.4-2.1a13,13,0,0,0-.6-1.9,5.77,5.77,0,0,1-.3-1.4,3,3,0,0,1,.3-1.8,4,4,0,0,1,1.1-1.4,7.46,7.46,0,0,1,1.2-.7,14.51,14.51,0,0,0,1.8-1l1.9-1.2a18.56,18.56,0,0,1,1.9-1.1c.6-.4,1.2-.7,1.8-1.1,1.2-.7,2.4-1.5,3.6-2.3s2.3-1.6,3.4-2.5,2.2-1.9,3.1-2.9a35.39,35.39,0,0,0,2.6-3.5c.6-.7,1.1-1.1,1.6-1.6.2-.2.4-.5.6-.7s.3-.5.3-.4l.3.9a.1.1,0,0,0,.1.1h0a6.89,6.89,0,0,1-.8.3,8.85,8.85,0,0,0-1.7,1.2,5.5,5.5,0,0,0-.9.7,6,6,0,0,1-1.1.6l-2,1a9.91,9.91,0,0,0-1.7,1.1c-.5.4-1,1-1.6,1.5a24.51,24.51,0,0,1-3.5,2.9,14,14,0,0,0-1.8,1.2c-.3.2-.5.4-.8.6l-.8.8a11.35,11.35,0,0,1-3.9,2.5,5.93,5.93,0,0,1-2.3.5,8.69,8.69,0,0,1-2.3-.1,33.53,33.53,0,0,0-4.4-.7v-.3c1.5,0,3,.3,4.4.4a7,7,0,0,0,4.1-.6,12,12,0,0,0,3.4-2.5l.8-.8a6.47,6.47,0,0,1,.9-.8,21.4,21.4,0,0,1,1.9-1.3,21.52,21.52,0,0,0,3.2-2.9c.5-.5,1-1.1,1.6-1.6a9,9,0,0,1,2-1.4l2-1.1a9,9,0,0,1,.9-.5c.2-.2.5-.4.8-.7a10.82,10.82,0,0,1,3.1-2l.4-.1h.5a1.42,1.42,0,0,1,.6.2c.2.1.4.3.6.4l.4.3-.1.5a3.06,3.06,0,0,1-.6,1.5,8.74,8.74,0,0,1-.8,1c-.5.6-1.1,1.1-1.4,1.5-.8,1.1-1.6,2.4-2.6,3.6s-2.1,2.2-3.2,3.2a30.66,30.66,0,0,1-3.5,2.8c-1.2.9-2.4,1.7-3.7,2.5-.6.4-1.3.8-1.9,1.2l-1.8,1.2-1.8,1.2a21.86,21.86,0,0,1-2,1.1,5.74,5.74,0,0,1-.7.4c-.1.1-.2.2-.2.3s-.1.5.2,1.1a16.33,16.33,0,0,1,.7,2.3l.4,2.2c.1.7.3,1.4.4,2s.4,1.3.5,1.6c0,0,.1,0-.4-.3-.2,0-.2-.1-.3-.1h-.2c-.1.1.1,0,.2-.2.3-.4.7-.9,1.1-1.5a12.14,12.14,0,0,1,1.4-2c.5-.6,1.1-1.2,1.6-1.7,1.1-1.1,2.2-2,3.1-3s1.5-2.1,2.6-3.4a9.12,9.12,0,0,1,1.7-1.7l.8-.7.3-.3.4-.4,2.9-3.3c.5-.6.9-1.1,1.5-1.7a12.88,12.88,0,0,1,1.7-1.6c1.1-1,2.3-1.9,3.3-2.8s2-2.1,3.3-3.1a8.65,8.65,0,0,1,1-.7l.9-.6,1.8-1.3c2.3-1.7,4.7-3.4,6.9-5.3,1.1-.9,2.2-1.8,3.4-2.7l3.5-2.6c2.3-1.7,4.4-3.7,6.9-5.4,1.3-.9,2.6-1.6,3.7-2.3a10.1,10.1,0,0,0,1.6-1.3,22,22,0,0,1,1.8-1.4,38.45,38.45,0,0,1,4-2.1c1.3-.6,2.6-1.2,3.8-1.9,2.5-1.4,4.9-3.1,7.4-4.7a72.29,72.29,0,0,1,7.6-4.5c2.6-1.3,5.3-2.5,8-3.6a18.19,18.19,0,0,0,1.9-.8,1.28,1.28,0,0,0,.4-.6,2.72,2.72,0,0,0,0-.9,4,4,0,0,0-.9-1.7,2.37,2.37,0,0,0-1.5-.9c-.6,0-1.4.1-2.1.1a14.92,14.92,0,0,0-2.1.2,13.16,13.16,0,0,0-3.9,1.5,27.14,27.14,0,0,0-3.5,2.4c-1.1.9-2.1,1.9-3.1,2.9a53.87,53.87,0,0,1-6.5,6.1,86,86,0,0,1-7.4,4.9c-2.4,1.5-4.7,3.4-7.3,4.9l-.9.5-.9.6a20.28,20.28,0,0,0-1.8,1.3,10.91,10.91,0,0,1-1.1.6l-1,.5-1.9,1c-1.3.7-2.6,1.3-3.8,2-.6.4-1.2.7-1.8,1.1a16.67,16.67,0,0,0-1.6,1.2,12.38,12.38,0,0,1-1.8,1.4,9.41,9.41,0,0,1-2.2,1.2c-.8.3-1.5.5-2.1.7a14.17,14.17,0,0,0-1.8.8c-1.2.6-2.4,1.5-3.7,2.3a31.07,31.07,0,0,1-4.1,2c-1.4.6-2.7,1.1-4,1.7l-3.9,1.9-7.8,3.9c-1.4.7-2.8,1-4.1,1.6a37.51,37.51,0,0,0-3.6,2.4,10.71,10.71,0,0,0-1.6,1.4l-1.6,1.4c-1,1-2.1,2.1-2.2,3.5Z"/><path class="cls-1" d="M155.55,131.69c0,6.7.1,13.4.1,20.1,0,1.3-.1,2.6,0,3.8.1,1,.5,1.7.6,2.6a45.57,45.57,0,0,1,0,6.4"/><path class="cls-2" d="M155.65,131.69a12.31,12.31,0,0,1,1,4.1,14.09,14.09,0,0,1,.1,4.1,32,32,0,0,0-.7,4.1,14.28,14.28,0,0,0,.4,4.1,29,29,0,0,1,.6,4.1l.1,2,.1.9v.4l.1.3.2,1a5.85,5.85,0,0,1,.2,1.3,7.84,7.84,0,0,1-.2,2.2,19.09,19.09,0,0,1-1.1,4.1h-.3a21.66,21.66,0,0,1-.9-4.1,10.62,10.62,0,0,0-.4-1.9c-.1-.3-.1-.5-.2-.8a6.89,6.89,0,0,0-.4-1,1.48,1.48,0,0,1-.1-.7c0-.2-.1-.5-.1-.7v-1.1a14.91,14.91,0,0,1,.2-2.1c.1-.6.1-1.4.2-2a15.52,15.52,0,0,1,.4-2.1,14.45,14.45,0,0,0,.3-4.1c-.1-1.4-.6-2.7-.8-4.1a14.1,14.1,0,0,1,.1-4.1,14.48,14.48,0,0,1,1-4.1Z"/><path class="cls-1" d="M47.65,169.79a32.94,32.94,0,0,0,5.4,3.8c1.6.8,3.5,1.2,5.2,1.9a52.7,52.7,0,0,1,5.1,1.9c1.6.9,3.5.8,5.3,1.2,2.8.5,6.7,1.2,9.5.5,1.8-.4,1.5-2.6,1.3-4.1-.2-1-.5-1.8-1.5-2.1s-1.5.5-2.2-.4c1.1-.4,2.6.1,3.5-1.1a2.53,2.53,0,0,0-.7-3.5c-1.1-1-2.5-1.4-3.6-2.3-1.6-1.2-4.6-2.5-5.4-4.4.7-.9,2.7-.5,3.8-.5,1.3,0,2.7.1,4.1,0s1.9-.6,1.5-2.1c-.3-1.2-1.5-1.6-2.2-2.5s-1.5-2.7-2.6-3.1c-.8-.4-3.3-.2-4.2,0a35.25,35.25,0,0,1-3.9,1.5,17,17,0,0,1-3.9.1,22.57,22.57,0,0,0-3.7.1c-1.1.2-3.2.3-3.8,1.3s-.6,2.5-1,3.5a11.7,11.7,0,0,0-.4,3.2,10.76,10.76,0,0,1-.7,3.1c-.6,1.2-2.1,1-2.9,2-1.4,1.6-1.5,4.9-1.4,7"/><path class="cls-2" d="M47.75,169.59q2.25,1.5,4.5,2.7a25.56,25.56,0,0,0,4.9,1.6c.4.1.9.3,1.3.4a5.64,5.64,0,0,0,1.2.4c.8.2,1.7.5,2.6.8.4.2.9.3,1.4.5l.3.2.2.1c.2.1.3.1.5.2a15,15,0,0,0,2.4.4,21.88,21.88,0,0,1,2.7.4c.9.1,1.7.3,2.6.4a28,28,0,0,0,4.9.3c.2,0,.4-.1.6-.1s.2,0,.3-.1a1.41,1.41,0,0,0,.4-.4,5.17,5.17,0,0,0,.1-2.2c-.1-.9-.2-1.5-.7-1.7a2.22,2.22,0,0,0-.9-.1,3.08,3.08,0,0,1-.9-.1,1.56,1.56,0,0,1-.8-.6l-.6-.7.9-.2c.9-.3,1.8-.1,2.4-.3a2,2,0,0,0,.8-.4,1.23,1.23,0,0,0,.4-.8,2.11,2.11,0,0,0-.6-1.8,6.42,6.42,0,0,0-1.8-1.3,22.46,22.46,0,0,1-2.1-1.2c-.6-.4-1.3-.8-2-1.2a23.92,23.92,0,0,1-2.1-1.3,4.7,4.7,0,0,1-1.8-2.1l-.2-.4.3-.4a1.85,1.85,0,0,1,1.2-.8,5.16,5.16,0,0,1,1.1-.2,12,12,0,0,1,1.9,0c1.2-.1,2.5,0,3.6-.1a2,2,0,0,0,.8-.1c.2,0,.4-.1.3-.1a.35.35,0,0,0-.1.2h0a1.09,1.09,0,0,0-.1-.5,2.07,2.07,0,0,0-.7-.8,5.55,5.55,0,0,0-.8-.6,3.45,3.45,0,0,1-.8-.9c-.4-.6-.7-1.1-1.1-1.6a8.78,8.78,0,0,0-.7-.8,1,1,0,0,1-.4-.1h-.8a8.75,8.75,0,0,0-1.6.2,16.36,16.36,0,0,0-3.2,1.3,5.85,5.85,0,0,1-2.2.5,13.33,13.33,0,0,1-2,0,10.87,10.87,0,0,1-1.8-.1h-1.8a2.2,2.2,0,0,0-.8.1l-.9.1a6.52,6.52,0,0,0-1.6.3c-.2.1-.4.1-.5.2s0-.1-.1.1a8.64,8.64,0,0,0-.5,1.5l-.2,1c0,.2-.1.3-.2.5l-.1.4a7,7,0,0,0-.2,1.6,14.94,14.94,0,0,1-.8,4,3.38,3.38,0,0,1-.7,1.1,4.13,4.13,0,0,1-1.1.7,15.06,15.06,0,0,0-1.5.6,7.3,7.3,0,0,0-.9,1.3c-.2.5-.4,1.1-.6,1.7a22.26,22.26,0,0,0-.5,3.6h-.3a23.81,23.81,0,0,1-.1-3.8,6.74,6.74,0,0,1,1.3-3.9,9.68,9.68,0,0,1,1.8-1.1,1,1,0,0,0,.5-.4c.1-.1.1-.2.2-.5a12.32,12.32,0,0,0,.3-3.4,7.84,7.84,0,0,1,.2-2.1,4.33,4.33,0,0,1,.1-.5l.1-.4.1-.9a10.43,10.43,0,0,1,.5-2.1,3.05,3.05,0,0,1,1-1.3,3.38,3.38,0,0,1,1.2-.6,9.69,9.69,0,0,1,2-.5l.9-.2a4.1,4.1,0,0,1,1.1-.1H65a3.53,3.53,0,0,0,1.4-.3,22.3,22.3,0,0,1,3.8-1.4,14.77,14.77,0,0,1,2.1-.1,4.1,4.1,0,0,1,1.1.1,5.09,5.09,0,0,1,1.4.4,5.51,5.51,0,0,1,1.9,1.8c.4.6.7,1.2,1,1.6a1.76,1.76,0,0,0,.4.5c.2.2.4.3.7.6a4.11,4.11,0,0,1,1.5,2.2,5.07,5.07,0,0,1,.2,1.3,1.49,1.49,0,0,1-.2.9,2,2,0,0,1-.7.9,2.64,2.64,0,0,1-1.5.5c-.4,0-.7.1-1.1.1-1.3,0-2.5-.1-3.8-.2a14.05,14.05,0,0,0-1.8-.2c-.5,0-1,.1-1,.2l.1-.8a5.11,5.11,0,0,0,1.1,1.6c.5.5,1.2.9,1.8,1.4s1.3.9,2,1.4a13.24,13.24,0,0,0,2,1.2,7.42,7.42,0,0,1,2,1.6,3.05,3.05,0,0,1,.8,2.6,3.1,3.1,0,0,1-.6,1.3,3.17,3.17,0,0,1-1.2.8c-.9.2-1.7.2-2.3.4l.2-.9c.3.2.3.2.7.1.2,0,.5-.1.8-.1a2.92,2.92,0,0,1,.9.2,2.76,2.76,0,0,1,1.4,1.2,4.42,4.42,0,0,1,.5,1.5,6.36,6.36,0,0,1,.1,3.1,2.49,2.49,0,0,1-1.2,1.7,6.31,6.31,0,0,1-.9.4c-.2.1-.5.1-.7.2-3.9.7-7.6-.3-10.9-.8a14,14,0,0,1-2.8-.6c-.2-.1-.5-.2-.7-.3l-.4-.2-.3-.1a3.7,3.7,0,0,0-1.1-.5c-.8-.3-1.6-.6-2.5-.9-.4-.2-.9-.4-1.3-.6s-.8-.3-1.2-.5a19.82,19.82,0,0,1-4.9-2.3,35.21,35.21,0,0,1-4.1-3.6Z"/><path class="cls-1" d="M245.45,154.59c-1.1.2-1.8-.4-2.8-.6a17.65,17.65,0,0,0-2.3,0h-2.1c-1.2.1-1.3.4-2.3,1a18.93,18.93,0,0,1-3.5,1.7c-1.8.6-3.8.2-3.8,2.5-.1,4.4,4.8,5.9,8.5,4.8a13.1,13.1,0,0,0,4.9-3.4c1.3-1.3,4.2-3.4,3.9-5.5"/><path class="cls-2" d="M245.45,154.79a2.51,2.51,0,0,1-1.5.2,6.15,6.15,0,0,0-1.3-.1,5.16,5.16,0,0,0-1.1.2l-.7.1a1.7,1.7,0,0,1-.7.1c-.4,0-.9.1-1.3.1s-.8.1-1,.1-.1.1-.3.1-.3.2-.5.4a5.39,5.39,0,0,1-1.3.7,9,9,0,0,1-2.8.8c-1,.2-2,.1-2.7.3s-1.1.7-1,1.6a3.12,3.12,0,0,0,.9,2.1,3.68,3.68,0,0,0,1.9,1.1,7.8,7.8,0,0,0,2.2.4,8.33,8.33,0,0,0,2.2-.3,8.82,8.82,0,0,0,2-.9c.7-.4,1.4-.9,2-1.3a8.74,8.74,0,0,1,1-.8,10.62,10.62,0,0,0,1.1-.9l2.1-1.5a3.67,3.67,0,0,0,1.4-2h.3a3.58,3.58,0,0,1-.5,3,13.71,13.71,0,0,1-1.7,2.3,7,7,0,0,0-.8,1c-.2.3-.6.7-.9,1.1a10.59,10.59,0,0,1-2.3,1.9,8.44,8.44,0,0,1-2.9,1.2,8.62,8.62,0,0,1-3.2.1,8.19,8.19,0,0,1-3-1,6.36,6.36,0,0,1-2.2-2.4,5.32,5.32,0,0,1-.5-3,2.82,2.82,0,0,1,.4-1.5,3.05,3.05,0,0,1,1.3-1,14.54,14.54,0,0,0,2.5-.9c.7-.4,1.4-.9,2.1-1.4l1-.7a6.13,6.13,0,0,0,.6-.4,2.32,2.32,0,0,1,1-.4,5.14,5.14,0,0,1,1.7-.1c.5,0,.9.1,1.4.1l.6.1h.7a5,5,0,0,1,1.6.3c1,.4,1.5,1,2.4,1.2Z"/><path class="cls-1" d="M244.45,168.59c-1.8,1-2.6,2.9,0,3.3a9.15,9.15,0,0,0,3.3,0c1.1-.2,1.7-1.1,2.7-1.4-.6,1.1-4.9,4.5-2.9,5.9a7,7,0,0,0,2.5,0c1.4-.3,3.5-2.2,4.4-3.2,1.8-2,2.4-4.5,3.5-6.8a15.36,15.36,0,0,0,1.2-3.4c.3-1,1-2.2.8-3.3"/><path class="cls-2" d="M244.45,168.69a7.63,7.63,0,0,0-.8,1.1c-.2.4-.2.8-.1.8h.1c.1,0,.2.1.3.1.3,0,.7.1,1.1.1a14,14,0,0,0,2.3-.2c.2-.1.5-.2.9-.4a12.63,12.63,0,0,1,1.6-.7l2.9-.6-1.5,2.2a2.94,2.94,0,0,1-.8.8l-.8.6a17.41,17.41,0,0,0-1.4,1.2,3.07,3.07,0,0,0-.9,1.4v.3c0,.1,0,.2.1.2a.1.1,0,0,0,.1.1l.1.1c.1.1,0,0,.2,0a5.55,5.55,0,0,0,1.7-.3,3.33,3.33,0,0,0,.6-.3,2.65,2.65,0,0,0,.6-.5,28.34,28.34,0,0,0,2.4-2.5c1.3-1.6,1.9-3.9,3.2-6.2l.5-.8c.1-.2.3-.5.4-.7.3-.5.5-1.1.8-1.6.5-1.3,1.4-2.1,1.7-3.3h.3a3.76,3.76,0,0,1,.1,2.1,4.4,4.4,0,0,1-.2,1l-.1.9c-.1.6-.2,1.3-.3,1.9-.1.3-.2.7-.3,1l-.3.9a30.44,30.44,0,0,1-1.3,3.5,11.52,11.52,0,0,1-2.4,3.5,13.32,13.32,0,0,1-3.3,2.4,4.18,4.18,0,0,1-1,.4,5,5,0,0,1-1.2.2,7.84,7.84,0,0,1-2.1-.2c-.1,0-.2-.1-.4-.1s-.2-.2-.3-.2l-.2-.2c-.1-.1-.1-.2-.2-.3a1.48,1.48,0,0,1-.1-.7,1.27,1.27,0,0,1,.1-.6,5.24,5.24,0,0,1,1-1.8l1.1-1.6.5-.8a3.29,3.29,0,0,0,.3-.6l1.3,1.6c-.3.2-.5.4-.9.7a4.8,4.8,0,0,1-1.6.9,5.84,5.84,0,0,1-1.8.2,8.75,8.75,0,0,1-1.6-.2,6.4,6.4,0,0,1-1.7-.5,2.36,2.36,0,0,1-.9-.6,1.85,1.85,0,0,1-.5-1.2,2.2,2.2,0,0,1,1-1.8,4.71,4.71,0,0,1,1.5-.6Z"/><path class="cls-1" d="M235.35,140.69a9,9,0,0,1,4.3.6c1.5.7,1.9,2.1,2.6,3.5.9,1.8,1.4,4,2.6,5.7.5.6,1.1,1.1,1.6,1.7s.5,1.6,1.3,2.3"/><path class="cls-2" d="M235.35,140.59a4.39,4.39,0,0,1,2.7-.9,3.89,3.89,0,0,1,1.5.2,4.88,4.88,0,0,1,.7.3,3,3,0,0,1,.7.5,7.4,7.4,0,0,1,1.2,2.8,2.38,2.38,0,0,0,.6,1.1,7.63,7.63,0,0,0,.8,1.1,13.66,13.66,0,0,1,1.5,2.1,14,14,0,0,0,1.2,1.8c.1.2.3.4.5.8a3.69,3.69,0,0,1,.8,1.4,4.42,4.42,0,0,1,.2,1.5,4.87,4.87,0,0,0,.1,1.2l-.2.2a2.38,2.38,0,0,1-1.3-.9,2.94,2.94,0,0,0-.8-.8,9.21,9.21,0,0,1-.8-.5,3.8,3.8,0,0,1-1.1-1.1,8.76,8.76,0,0,1-1.2-2.6,11.71,11.71,0,0,1-.4-2.6,5,5,0,0,0-.2-1.2,3.7,3.7,0,0,0-.5-1.1,2.9,2.9,0,0,0-1.8-1.2c-.1,0-.3-.1-.4-.1s-.3-.1-.4-.2l-.9-.4a12.21,12.21,0,0,1-2.4-1.1Z"/><path class="cls-1" d="M92.75,228.39c0-8.1-.7-16.8,4.2-23.7,2.7-3.8,8.9-1.9,12.7-1.2,2.2.4,10.1,1.2,9.7,4.8-2.6.7-5.4-.6-7.8.8a30.84,30.84,0,0,0-4.8,3.2c-1.6,1.4-3.3,2.5-4.8,3.9-2.2,2-4,5-5.9,7.3-1.6,1.9-3.6,4.3-3.2,7"/><path class="cls-2" d="M92.65,228.39a52.26,52.26,0,0,1-.8-12.5,24.29,24.29,0,0,1,1.3-6.4,16.36,16.36,0,0,1,3.3-5.7,6.52,6.52,0,0,1,3.1-1.8,9.2,9.2,0,0,1,3.3-.2,61.7,61.7,0,0,1,6.2,1.1c2,.4,4.1.5,6.2.9a10.15,10.15,0,0,1,3.2,1.1,4.54,4.54,0,0,1,1.5,1.3,4.67,4.67,0,0,1,.5,1,4.87,4.87,0,0,1,.1,1.2v.8l-1,.3a17.62,17.62,0,0,1-5,.3,4.84,4.84,0,0,0-1.8.3,5.89,5.89,0,0,0-.8.4l-1,.6a23.59,23.59,0,0,0-3.6,2.6c-1.2,1.1-2.6,1.9-3.8,2.9l-1.7,1.4c-.5.5-1,1-1.5,1.6-1,1.1-1.9,2.4-3,3.6s-2.2,2.3-3.1,3.4a7.22,7.22,0,0,0-1.7,4h-.3a7.37,7.37,0,0,1,.8-4.8c.7-1.5,1.8-2.7,2.5-4a44,44,0,0,1,2.6-3.9c.5-.7,1-1.3,1.5-1.9s1.2-1.2,1.8-1.7l3.6-2.9a22.86,22.86,0,0,1,4.1-2.8l1-.6a3.33,3.33,0,0,1,.6-.3c.2-.1.5-.2.7-.3a9.23,9.23,0,0,1,2.8-.3,21.28,21.28,0,0,0,4.3.1l-.9,1.1a.93.93,0,0,0-.1-.7c-.1-.3-.4-.5-.7-.8a14.64,14.64,0,0,0-2.5-1.3,37.61,37.61,0,0,0-6-1.5,24.91,24.91,0,0,0-6-.9,8.21,8.21,0,0,0-2.8.5,4.6,4.6,0,0,0-2,1.6,30,30,0,0,0-3.8,11c-.6,4-.7,8.1-1.3,12.3Z"/><path class="cls-1" d="M132.55,81.19a9.27,9.27,0,0,1-1.7,5.6,8.15,8.15,0,0,0-1.1,1.7,8.6,8.6,0,0,1-.9,2.7c-2.3,3.3-6.2,3.7-9.9,4.2a37.13,37.13,0,0,1-4.8.5H109a25.62,25.62,0,0,0-10.4,2.5c-1.8.8-3.5,1.5-5.3,2.3s-3.3,2.2-5.1,2.9c-1.1.5-2.1.7-3.2,1.2a24.85,24.85,0,0,0-3,2.5,22.79,22.79,0,0,0-3.7,3.9c-.7.8-1,1.9-1.7,2.7a15.91,15.91,0,0,1-2.4,2,43,43,0,0,0-6.1,5.2c-1.4,1.4-2.5,3-3.9,4.4s-2.9,2.6-4.3,3.9c-1,.9-2,1.7-3,2.6a11.56,11.56,0,0,1-1.5,1.3c-.5.1-.9-.3-1.4-.1s-1.3,1.4-1.5,2.1c-.3,1.1.3,1.5,1.2,1.9a35.8,35.8,0,0,1,3.5,1.1,26.72,26.72,0,0,0,2.6.9,8.14,8.14,0,0,1,3.1,1.5c.6.6,2.2,2.4,2,3.4-.7.7-2-.4-2.8-.7-1.1-.3-2.2-.4-3.3-.7a30.9,30.9,0,0,1-5.1-1.8c-2-1-4-.7-6.1-.7-.9,0-2.4-.3-3.2.1s-1,1.6-1.3,2.4c-.9,1.9-1.6,3.8-2.4,5.8s-1.8,3.7-1.8,6.1a13.81,13.81,0,0,0,1.2,6.7c.8,1.6,1.2,5,3.2,5.6,1.2-2.9,1.7-6,3.8-8.5,1-1.1,2-2,3-3a27.17,27.17,0,0,1,2.4-2.4c.7-.5,1.6-.8,2.4-1.3s1.5-1.1,2.2-1.6c1-.7,2.1-1,3.1-1.6a9.08,9.08,0,0,1,3.5-1.5c2.7-.3,5.2.7,7.7-1,1.2-.8,1.9-1.8,3.4-2.4a15.34,15.34,0,0,1,4.7-1.1c2.8-.2,4.7-1.2,7.1-2.5.8-.4,1.5-1.1,2.3-1.5a12.09,12.09,0,0,1,1.8-.5c1.2-.4,2.1-1.6,3.2-2.3a20.65,20.65,0,0,1,3.4-1.5c1.2-.4,2.9-1.2,4.2-1.1a48.18,48.18,0,0,0-7.5,1.8c-1.4.5-2.8.7-4.2,1.2-.8.3-2.4,1.5-3.2,1.5a15,15,0,0,1,3.7-3.4c2-1.6,4.2-3,6.3-4.5a60,60,0,0,1,5.4-3.3c.9-.5,2.4-1.8,3.4-1.8.3,1.7-1.1,3.8-1.7,5.4-1.3,3.3-2.7,6.5-4,9.8-.9,2.4-2.4,5.2-2.4,7.8A7.74,7.74,0,0,1,98,146c.5-1.2.8-2.5,1.3-3.8.5-1.1,1.3-2.1,1.8-3.1a11,11,0,0,1,.9-2.3c.5,1.2.1,3.2.1,4.4.1,3.6.9,7.1,1.2,10.6.3,3,.9,6.2.9,9.2,0,1.9.1,2.8,1.7,4.2,1.7,1.1,3.4,2.2,5.2,3.3,2.2,1.5,4.4,2.9,6.6,4.4a109.2,109.2,0,0,0,9.8,6.3c3.6,1.9,7.5,3.1,11,5.2a17.47,17.47,0,0,0,4.3,2.2,50.31,50.31,0,0,1,7.5,2.4c2.4,1,4.9,1.3,7.3,2.4,2,.9,4.2,2.1,6.4,2.1,5,0,9.6-2.9,14-4.9,4-1.9,8-3.8,11.9-5.9a43.45,43.45,0,0,1,5.3-2.6c1-.3,2.3-.1,2.7-1.1a19.83,19.83,0,0,1-.3-3.5c-.1-1.9-.2-3.8-.4-5.7-.3-3.9-.7-7.9-.7-11.8s0-7.8-.1-11.7c0-1.2-.1-2.4,0-3.6,0-1.5.8-2.1,1.2-3.6.3-.8.1-4.3,1.3-4.4.8,0,3.2,2.4,3.8,2.7,1.6,1.1,3.6,1.9,5,3.4.9.9,1.6,2,2.4,2.9a13.11,13.11,0,0,1,2.6,6.2,33.09,33.09,0,0,0,1.4,4.1c.2.5,1.2,2.3.8,2.8a5.23,5.23,0,0,1-1.7-1.2c-.4.8-.1,2.7,0,3.5a48.37,48.37,0,0,0,1.4,5.1c.6,1.5,2.8,5.3,4.4,5.7.4-1.8,0-4.1,0-6,0-3.4-.5-6.8.9-10a17.37,17.37,0,0,1,8.9-8.8c.8-.3,2.9-.4,3.3-1.3s-.6-2-1-2.7a2.29,2.29,0,0,1-.7-1,1.21,1.21,0,0,1,.2-1.4c.1-.8.4-1.4-.8-1.3s-2,2.2-2.6,3c-.8,1.1-1.6,2.1-2.3,3.2a149.07,149.07,0,0,1-9.3,11.7c-1.4,1.7-2,2.1-3.6,0-1.1-1.5-2.1-3.1-3.2-4.7-2.9-4.2-5.2-8.7-7.9-13a11.63,11.63,0,0,0,1.8,3.5c1.2,1.9,2.3,3.9,3.5,5.8,2.4,3.6,5.5,6.8,7.4,10.7.5,0,.7-3.1.9-3.6a36.51,36.51,0,0,1,2.5-5.3c3-5.3,7.9-6.8,13.3-8.7,0-1.7-2.6-2.7-3.7-3.7a27.14,27.14,0,0,1-4.1-4.2c-3.4-4.6-4.7-10.3-7.7-15.1a70.73,70.73,0,0,0-4.4-6.3c-1.6-1.9-3.1-4.5-5.2-6-1.7-1.1-3.9-1.5-5.6-2.4-2-1-3.7-2.6-5.9-3.1-1.6-.4-3.1-.1-4.7-.3a32.08,32.08,0,0,1-4.3-.7,24.92,24.92,0,0,1-6-1.4c-2-.8-5.3-.9-6.6-2.9a10.11,10.11,0,0,1-.7-3c-.3-1.3-1.2-2.5-1.4-3.8a23.59,23.59,0,0,1,1.5,8.4c0,1.9.3,4.2.1,6.1-.3,2.1-2.6,3.6-4.4,4.7a9.1,9.1,0,0,1-5.3,1.1c-4.3.1-8.6,1-13,.6a20.37,20.37,0,0,1-9.1-3.8c-2.3-1.6-5-3.2-6.1-5.8-.9-2-2.2-2.8-3.7-4.4"/><path class="cls-2" d="M132.65,81.19a9.39,9.39,0,0,1-1.7,5.8,8.34,8.34,0,0,0-.8,1.2,5.73,5.73,0,0,0-.4,1.4,4.42,4.42,0,0,1-.5,1.5,6.42,6.42,0,0,1-1,1.3,10,10,0,0,1-5.5,2.8c-2,.4-4,.7-6,1-1,.1-2.1.2-3.1.2l-3,.1c-1,0-2,0-3,.1a14.68,14.68,0,0,0-2.9.5,23.45,23.45,0,0,0-5.6,2l-5.5,2.4c-1.7.8-3.2,2.2-5.3,3.1a13.75,13.75,0,0,0-2.7,1.1,11.61,11.61,0,0,0-2.2,1.8c-.8.8-1.5,1.3-2.2,2s-1.3,1.4-2,2.2c-.3.4-.5.7-.8,1.1s-.5.9-.8,1.4a8.61,8.61,0,0,1-2.4,2.3c-1.6,1.2-3.2,2.4-4.7,3.7a32.84,32.84,0,0,0-4,4.3,22.92,22.92,0,0,1-2.1,2.3c-.8.7-1.5,1.4-2.3,2.1l-4.5,4-.1.1-1.4-1.7c-1.2-1.5,2.2,1.7,1.6,1.6h0l-.1.1-.1.1-.3.3c-.2.2-.4.3-.6.5a1.38,1.38,0,0,1-.4.3l-.1.1-.1.1a.35.35,0,0,0-.2.1h-.5a1.85,1.85,0,0,1-1-.2h.1l-.2.2a2.62,2.62,0,0,0-.5.9,2.81,2.81,0,0,0-.1.5h0c.1,0,.2.1.4.2a19.74,19.74,0,0,0,2.6.7c1,.3,1.9.7,2.7,1a24.25,24.25,0,0,1,2.8,1,11.91,11.91,0,0,1,1.5.9,12,12,0,0,1,1.1,1.2,14.64,14.64,0,0,1,.9,1.3c.1.3.3.5.4.8a3.92,3.92,0,0,1,.2,1.3l-.1.4-.3.3a2,2,0,0,1-1.7.5,8.12,8.12,0,0,1-1.1-.3,4.49,4.49,0,0,0-1.3-.6c-.8-.2-1.9-.3-3-.6s-2.1-.6-3.1-.9l-1.5-.6a3,3,0,0,1-.8-.4l-.6-.3a7.66,7.66,0,0,0-2.7-.4h-3.2c-.5,0-1-.1-1.4-.1-.2,0-.3.1-.3,0v.1c-.1.2-.3.7-.5,1.2s-.5,1-.7,1.5c-.8,1.8-1.5,3.8-2.4,5.8a23.31,23.31,0,0,0-1,2.7,12.3,12.3,0,0,0-.2,2.8,13.57,13.57,0,0,0,.3,2.9,5,5,0,0,0,.4,1.3l.3.6.3.7a26.28,26.28,0,0,1,1,3c.3.9.8,1.5,1.1,1.5l-1.6.8c.5-1.3.9-2.7,1.5-4.2a15.05,15.05,0,0,1,2.3-4.3,33.72,33.72,0,0,1,3.2-3.3c.5-.5.9-1,1.5-1.5a6.42,6.42,0,0,1,2-1.6c.8-.4,1.4-.7,1.9-1a15.5,15.5,0,0,0,1.7-1.3,12,12,0,0,1,2.2-1.2l1-.4a4.05,4.05,0,0,0,.9-.5,11.29,11.29,0,0,1,2.2-1.1c.4-.1.9-.2,1.4-.3s.8-.1,1.2-.1a29.29,29.29,0,0,0,4.2,0,3.29,3.29,0,0,0,1.6-.7,15.3,15.3,0,0,0,1.6-1.3,8.58,8.58,0,0,1,2.3-1.3,15.46,15.46,0,0,1,2.3-.7,22.3,22.3,0,0,1,2.3-.4,12,12,0,0,0,2-.3,20.83,20.83,0,0,0,3.9-1.5l1-.5a3.51,3.51,0,0,0,.8-.5,7,7,0,0,1,2.3-1.3,6.53,6.53,0,0,1,1.1-.2,4.87,4.87,0,0,1,.7-.3,15.3,15.3,0,0,0,1.6-1.3,14.24,14.24,0,0,1,4.3-2.1c.7-.2,1.3-.5,2.1-.7a8.5,8.5,0,0,1,2.5-.5l9.4.2-9.2,1.8a53.49,53.49,0,0,0-7.4,1.7,30.64,30.64,0,0,1-3.8,1,4.88,4.88,0,0,0-.7.3l-.8.5c-.3.2-.6.3-.9.5a4.15,4.15,0,0,1-1.3.3h-1.5l.9-1.3a12,12,0,0,1,2.2-2.3l2.3-1.8c1.6-1.2,3.2-2.2,4.8-3.3.8-.5,1.6-1.1,2.4-1.6s1.7-1,2.5-1.5l1.2-.7a8.34,8.34,0,0,0,1.2-.8,5.67,5.67,0,0,1,1.3-.8,4.25,4.25,0,0,1,1.7-.5h.6l.1.6a7,7,0,0,1-.7,3.3c-.4,1-.9,1.8-1.3,2.8l-2.3,5.7-2.3,5.7a14.83,14.83,0,0,0-1.6,5.6l-1.1-.1a5.21,5.21,0,0,1,.6-1.5,5,5,0,0,0,.5-1.3,20,20,0,0,1,1-2.9c.5-1,1.1-1.8,1.5-2.6l.3-.6a6.39,6.39,0,0,0,.2-.7,5.07,5.07,0,0,1,.7-1.5l.5-.6.3.8a4.88,4.88,0,0,1,.3,2c0,.6-.1,1.3-.1,1.8a14.79,14.79,0,0,0,.2,3.6c.3,2.4.7,4.8.9,7.2s.6,4.8.9,7.3c.1,1.2.1,2.5.2,3.7a3.31,3.31,0,0,0,.4,1.5,6.28,6.28,0,0,0,1.1,1.2h0l5.4,3.4,5.3,3.5c3.6,2.3,7,4.9,10.7,6.9s7.9,3.2,11.6,5.5a18.21,18.21,0,0,0,2.7,1.5c.9.3,2,.5,3,.8,2.1.6,4.1,1.4,6.1,2.1s4.1,1.1,6.1,1.8,3.9,1.9,5.8,2.2a14.32,14.32,0,0,0,2.9-.1c1-.2,2-.4,3-.7a57.86,57.86,0,0,0,5.7-2.5l11.4-5.7,2.8-1.4c1-.5,1.8-1,2.8-1.5a29.17,29.17,0,0,1,3.1-1.4c.7-.2,1.3-.2,1.7-.3a1,1,0,0,0,.4-.1c.1,0,0,0,.1-.1l-.1.5c-.2-1.6-.3-3.2-.5-4.7l-.4-4.5c-.2-3.1-.5-6.1-.7-9.2s-.1-6.1-.1-9.2l-.1-4.6v-4.8a7.28,7.28,0,0,1,.9-2.5,3.18,3.18,0,0,0,.3-.9c0-.1.1-.6.1-.9a11.77,11.77,0,0,1,.4-2.5,5.89,5.89,0,0,1,.4-.8c.1-.1.2-.3.4-.5a1,1,0,0,1,.7-.4,3.08,3.08,0,0,1,1-.1c.2,0,.2.1.3.1a.35.35,0,0,1,.2.1,4.35,4.35,0,0,1,.7.4,15.75,15.75,0,0,1,1.9,1.5l.8.7.1.1.2.1.5.3a38.48,38.48,0,0,1,4,2.6,35.17,35.17,0,0,1,3.2,3.7,11.53,11.53,0,0,1,2.2,4.6c.2.8.4,1.6.5,2.3s.4,1.3.7,2l.4,1.1c.2.4.2.6.4,1s.3.7.5,1.2a1.85,1.85,0,0,1,.2.7c0,.2.1.3.1.6a2,2,0,0,1-.3,1.1l-.5.8-1-.3a5.3,5.3,0,0,1-1.5-.8,6.53,6.53,0,0,1-.8-.7l2.2-.4v1.2c0,.3.1.6.1.9l.1.4.1.5c.3,1.3.6,2.6,1,3.8a7.74,7.74,0,0,0,.7,1.6,14,14,0,0,0,1,1.6,7.55,7.55,0,0,0,1.1,1.4,2.65,2.65,0,0,0,.6.5,1.24,1.24,0,0,1,.3.2l-1.8,1.1a17.78,17.78,0,0,0,0-4,17.71,17.71,0,0,1-.1-2.3l-.1-2.2a25,25,0,0,1,.2-4.7,10.55,10.55,0,0,1,.6-2.4,15.06,15.06,0,0,1,1.1-2.2,19,19,0,0,1,6.6-6.9,15.06,15.06,0,0,1,2.2-1.1c.6-.2,1-.3,1.3-.4a6.37,6.37,0,0,0,.9-.2c.3-.1.5-.2.4-.1a.62.62,0,0,0-.2.4l-.2-.4-.6-.9.3.4a3.6,3.6,0,0,1-1.2-1.8l.1.2a3.81,3.81,0,0,1-.3-1.6,3.48,3.48,0,0,1,.7-1.5l-.4.9.1-.6v.2a.91.91,0,0,0,.3.5c.3.3.5.3.5.3h0c.1,0,0,0-.1.1a4.31,4.31,0,0,0-.7,1,8,8,0,0,1-.9,1.4l-3.8,5.2c-2.6,3.5-5.3,6.7-8.1,9.9a5.84,5.84,0,0,1-1.6,1.4,2.08,2.08,0,0,1-1.9.2,3.22,3.22,0,0,1-1.3-.8,6.91,6.91,0,0,1-1.2-1.4l-.9-1.3c-1.2-1.8-2.4-3.5-3.6-5.3-2.3-3.6-4.3-7.4-6.5-10.9l2.8-1.1c.2,1,1.7,2.9,2.7,4.6s2,3.4,3.1,4.9c2.2,3.1,5,6.1,6.9,10l-1.3-.9a.75.75,0,0,0-.5.1.35.35,0,0,0-.2.1c-.1.1-.1.1-.2.1l-.2.2-.1.1a.31.31,0,0,1,.1-.2c0-.2.1-.4.1-.7l.2-1.6a.9.9,0,0,1,.1-.5l.1-.2v-.1l.1-.2.3-.8a10.09,10.09,0,0,1,.7-1.5c.5-1,1-2,1.6-3a14.63,14.63,0,0,1,2.1-2.8,20.28,20.28,0,0,1,5.7-4,59.06,59.06,0,0,1,6.1-2.4l-.9,1.3c0-.1,0-.2-.2-.4l-.7-.7c-.6-.5-1.4-.9-2.3-1.6a30.23,30.23,0,0,1-4-4c-2.4-3.1-3.8-6.6-5.2-9.8-.7-1.7-1.4-3.3-2.2-4.8s-1.8-3-2.8-4.5c-.5-.7-1-1.4-1.6-2.1s-1.2-1.4-1.7-2.2a21.81,21.81,0,0,0-3.3-3.9c-1.1-1-2.8-1.4-4.5-2.1a12.64,12.64,0,0,1-2.6-1.3c-.8-.5-1.5-1-2.3-1.4a10.72,10.72,0,0,0-2.2-1,9,9,0,0,0-2.4-.2h-1.4a1.7,1.7,0,0,1-.7-.1l-.7-.1-2.7-.4-2.7-.5a13.1,13.1,0,0,1-2.7-.6,7.84,7.84,0,0,1-1.4-.5l-.6-.2c-.2-.1-.4-.1-.6-.2-.8-.2-1.7-.4-2.6-.7a7.76,7.76,0,0,1-2.7-1.4,5.25,5.25,0,0,1-1.1-1.4c-.2-.6-.3-1.1-.4-1.5s-.1-.9-.2-1.2a4.87,4.87,0,0,0-.4-1.1,13.94,13.94,0,0,1-1-2.7l1.6-.5a25.31,25.31,0,0,1,1.5,8.2c0,1.3.1,2.6.1,4V101a4.25,4.25,0,0,1-.2,1.1,3.7,3.7,0,0,1-.5,1.1,8.5,8.5,0,0,1-3.1,2.9c-.6.4-1.1.7-1.8,1.1a8.3,8.3,0,0,1-2.1.6c-1.4.2-2.8.1-4.1.2s-2.6.2-4,.3a43.84,43.84,0,0,1-8.1.1,19.1,19.1,0,0,1-7.5-3c-1.1-.7-2.2-1.5-3.3-2.3a12.9,12.9,0,0,1-3-2.7,9.91,9.91,0,0,1-1.1-1.7,9.49,9.49,0,0,0-1-1.7,37.65,37.65,0,0,0-2.8-2.9l.2-.2c.9.9,2,1.8,2.9,2.8a6.37,6.37,0,0,1,1,1.8,9.06,9.06,0,0,0,1.1,1.6,14.25,14.25,0,0,0,3,2.5c1.1.7,2.2,1.5,3.3,2.2a19.58,19.58,0,0,0,7.3,2.7,35.08,35.08,0,0,0,7.9-.3c1.3-.1,2.7-.3,4-.4s2.7,0,3.9-.2a8.45,8.45,0,0,0,1.7-.5,14,14,0,0,0,1.6-1,7,7,0,0,0,2.6-2.5,2.73,2.73,0,0,0,.4-1.6v-1.9c-.1-1.3-.2-2.7-.2-4a20.89,20.89,0,0,0-1.5-7.5l1.6-.5a8.38,8.38,0,0,0,.9,2.3,5.78,5.78,0,0,1,.5,1.4c.1.5.2,1,.3,1.4s.2.8.3,1.1a1.87,1.87,0,0,0,.6.7,8.22,8.22,0,0,0,2.1,1c.8.2,1.7.4,2.6.7.2.1.5.1.7.2l.6.2c.4.1.8.3,1.2.4.8.2,1.7.3,2.6.5l2.7.4,2.6.4.7.1h1.9a10.89,10.89,0,0,1,3,.3,11.06,11.06,0,0,1,2.7,1.2,23.36,23.36,0,0,0,4.6,2.5c.8.3,1.7.6,2.6.9a6.81,6.81,0,0,1,2.6,1.5,20.69,20.69,0,0,1,3.7,4.3,26.23,26.23,0,0,0,1.7,2.1c.6.7,1.1,1.5,1.7,2.2a37.58,37.58,0,0,1,3,4.7,45.9,45.9,0,0,1,2.4,5c1.4,3.3,2.8,6.6,4.9,9.2a24.5,24.5,0,0,0,3.6,3.6c.5.4,1.4.9,2.2,1.5a13.09,13.09,0,0,1,1.3,1.2,3.34,3.34,0,0,1,.8,2.1v1l-.9.4c-2,.8-4,1.5-5.9,2.3a16.67,16.67,0,0,0-4.8,3.4,19.53,19.53,0,0,0-1.7,2.3c-.5.9-1,1.8-1.4,2.7-.2.5-.4.9-.6,1.4l-.3.7-.1.2v.1h0v.3l-.2,1.6a2.92,2.92,0,0,1-.2.9,1.42,1.42,0,0,1-.2.6c-.1.1-.1.3-.2.5s-.2.3-.4.4a.35.35,0,0,1-.2.1.37.37,0,0,1-.3.1,1.27,1.27,0,0,1-.6.1h-.9l-.4-.9c-1.6-3.3-4.2-6.2-6.6-9.5-1.2-1.7-2.2-3.5-3.2-5.1-.5-.9-1-1.6-1.5-2.5a6.38,6.38,0,0,1-.8-1.4,6.9,6.9,0,0,1-.7-1.9l-1.5-8,4.3,6.9c2.3,3.6,4.3,7.4,6.5,10.9,1.1,1.7,2.3,3.4,3.5,5.2a17.18,17.18,0,0,0,1.7,2.3c.1.1.2.1,0,.1s-.4,0-.4,0l.7-.7c2.7-3.2,5.5-6.4,7.9-9.7l3.7-5.1a4.89,4.89,0,0,0,.8-1.3,7.37,7.37,0,0,1,1.2-1.6,2.8,2.8,0,0,1,1.2-.8,2.92,2.92,0,0,1,.9-.2h.7a1.53,1.53,0,0,1,1.2.6,2.18,2.18,0,0,1,.5.8c0,.1.1.2.1.3v.3a7.72,7.72,0,0,1-.1,1v.4l-.3.5v-.3l.1.2v.1a.35.35,0,0,0,.1.2l.2.2.1.2.6.9a8.36,8.36,0,0,1,.7,1.6,2.64,2.64,0,0,1-.8,2.4,3,3,0,0,1-1.6.8l-1.2.3c-.4.1-.7.1-.8.2a7.57,7.57,0,0,0-1.8.9,16.39,16.39,0,0,0-5.6,5.8,10,10,0,0,0-1.4,3.6,27.48,27.48,0,0,0-.2,4.1l.1,2.2a16.21,16.21,0,0,0,.1,2.2,19.55,19.55,0,0,1-.1,4.8l-.3,1.5-1.5-.4a3,3,0,0,1-1.4-.8,7.64,7.64,0,0,1-.9-.9,20.28,20.28,0,0,1-1.3-1.8A11.78,11.78,0,0,1,214,166a13.27,13.27,0,0,1-.9-2.1c-.4-1.4-.8-2.7-1.1-4l-.1-.5c0-.2-.1-.4-.1-.6a4.1,4.1,0,0,1-.1-1.1v-1.2a2.85,2.85,0,0,1,.4-1.6l.8-1.6,1.4,1.2c.3.3.6.5.8.7s.3.2.4.2l-1.5.5a1,1,0,0,0-.2.6h0c0-.1-.1-.2-.1-.4a3.55,3.55,0,0,0-.4-.9c-.1-.3-.4-.8-.5-1.1l-.4-1.1a15.55,15.55,0,0,1-.8-2.3c-.2-.8-.3-1.5-.5-2.2a10,10,0,0,0-1.7-3.6,24.11,24.11,0,0,0-2.8-3.3,37.46,37.46,0,0,0-3.6-2.4l-.5-.3-.3-.2a1.44,1.44,0,0,0-.3-.2l-.9-.8a15.3,15.3,0,0,0-1.6-1.3c-.1-.1-.2-.2-.3-.2h.4c.1-.1.2-.1.3-.2h0a.35.35,0,0,0-.1.2,9.43,9.43,0,0,0-.3,2,11.47,11.47,0,0,1-.2,1.4c-.2.5-.3.9-.5,1.3a7.15,7.15,0,0,0-.7,1.8v18.1c.1,3,.4,6.1.6,9.1l.3,4.6c.1,1.6.2,3,.4,4.5v.3l-.1.2a2.17,2.17,0,0,1-1,1.1,7.6,7.6,0,0,1-1.1.4q-.9.15-1.5.3a16,16,0,0,0-2.7,1.2c-.9.5-1.9,1-2.9,1.5l-2.9,1.4-11.5,5.5a39.86,39.86,0,0,1-6,2.5,29.92,29.92,0,0,1-3.2.8,12.79,12.79,0,0,1-3.4.1c-2.3-.4-4.2-1.6-6.1-2.3s-4-1.2-6.1-1.9-4-1.6-6-2.2a8.33,8.33,0,0,0-1.5-.4,9.83,9.83,0,0,1-1.6-.5,19.88,19.88,0,0,1-2.9-1.6c-3.5-2.3-7.6-3.5-11.4-5.6s-7.2-4.7-10.8-7l-5.3-3.5-5.2-3.7h0a4.71,4.71,0,0,1-1.3-1.5,3.51,3.51,0,0,1-.5-2c0-1.3,0-2.4-.1-3.6-.2-2.4-.6-4.8-.8-7.3s-.7-4.8-1-7.2a22.35,22.35,0,0,1-.2-3.7,7.65,7.65,0,0,0-.1-3.4l.8.1c-.5.5-.5,1.7-1.1,2.6s-1.1,1.7-1.5,2.5a18.44,18.44,0,0,0-.9,2.8,9.39,9.39,0,0,1-.6,1.5,5.13,5.13,0,0,0-.5,1.2l-1.1-.1a16.7,16.7,0,0,1,1.7-6l2.3-5.7,2.3-5.7c.4-1,.9-1.9,1.2-2.8a5.18,5.18,0,0,0,.6-2.6l.7.6a2.11,2.11,0,0,0-1,.4,4.44,4.44,0,0,0-1.1.8,8.34,8.34,0,0,1-1.2.8l-1.2.7-2.4,1.5c-.8.5-1.5,1.1-2.3,1.7a54.76,54.76,0,0,0-4.6,3.4c-1.5,1.2-3.2,2.3-4,3.6l-.7-1.3a4.71,4.71,0,0,0,.5-.2,5.94,5.94,0,0,1,.8-.4l.9-.5a4.67,4.67,0,0,1,1-.5c1.3-.4,2.6-.7,3.7-1.1a27.19,27.19,0,0,1,3.8-1.1c1.3-.3,2.6-.5,3.8-.8l.2,1.9a6.54,6.54,0,0,0-1.8.4c-.7.2-1.3.5-2.1.8a10.15,10.15,0,0,0-3.6,1.8c-.5.4-1.1,1-1.8,1.5a5.17,5.17,0,0,1-1.3.6,8.12,8.12,0,0,0-1.1.3,4.8,4.8,0,0,0-1.5,1l-1,.7-1,.5a19.31,19.31,0,0,1-4.4,1.8,20,20,0,0,1-2.4.4,11.8,11.8,0,0,0-2,.4l-2,.6a6.47,6.47,0,0,0-1.6.9c-.5.4-1.1,1-1.8,1.5a7.07,7.07,0,0,1-2.5,1.1,18.82,18.82,0,0,1-4.7.1h-1a2.35,2.35,0,0,0-.8.2,9.47,9.47,0,0,0-1.7.9c-.3.2-.7.4-1,.6a9.29,9.29,0,0,0-1,.5,6.93,6.93,0,0,0-1.7,1,18.89,18.89,0,0,1-1.9,1.4c-.8.5-1.5.8-2,1.1-1,.5-1.8,1.7-3,2.8s-2.1,2-3,3c-1.6,2-2.2,4.9-3.3,7.8l-.4,1.1-1.2-.4a3.42,3.42,0,0,1-1.9-1.4,7,7,0,0,1-.9-1.7c-.4-1.1-.7-2.2-1-3l-.3-.7c-.1-.3-.2-.5-.3-.8-.2-.6-.3-1.1-.5-1.7a19.27,19.27,0,0,1-.3-3.3,14.62,14.62,0,0,1,.3-3.5,18.25,18.25,0,0,1,1.2-3.1c.8-1.8,1.5-3.8,2.4-5.8a14.66,14.66,0,0,0,.6-1.4,8,8,0,0,1,.8-1.7,3.64,3.64,0,0,1,1.1-1,3.46,3.46,0,0,1,1.2-.3,10.28,10.28,0,0,1,1.8.1c1.8.2,4.2-.3,6.6.5a2,2,0,0,1,.8.4,4.87,4.87,0,0,0,.7.3,5.78,5.78,0,0,0,1.4.5c.9.3,1.9.6,2.9.9s1.9.3,3.1.6a14.36,14.36,0,0,1,1.6.7.76.76,0,0,0,.4.1c.1,0-.1,0-.2.1l-.4.7c0,.2-.1-.2-.3-.5a6.07,6.07,0,0,0-.7-1c-.3-.3-.6-.7-.8-.9l-.9-.6c-.7-.3-1.7-.6-2.5-.9s-1.8-.7-2.6-.9-1.8-.4-2.8-.8a3.55,3.55,0,0,1-.9-.4,2.55,2.55,0,0,1-.9-1.1,2,2,0,0,1-.1-1.3,1.93,1.93,0,0,1,.3-1,4.62,4.62,0,0,1,.9-1.5,3.51,3.51,0,0,1,.9-.7,2.35,2.35,0,0,1,.8-.2,3.54,3.54,0,0,1,.6.1c.3.1.4.1.3.1h-.1c-.1,0-.1,0-.2.1h0l.2-.2.5-.4.2-.2.1-.1.1-.1h0c-.7-.1,2.8,3.1,1.6,1.6l-1.5-1.7,4.6-4a27.25,27.25,0,0,0,4.2-4.1,36.43,36.43,0,0,1,4.3-4.5c1.6-1.4,3.2-2.5,4.9-3.8a7.09,7.09,0,0,0,2-1.8c.2-.4.5-.8.7-1.3.1-.2.3-.5.4-.7a3,3,0,0,0,.5-.7,22.92,22.92,0,0,1,2.1-2.3,20.53,20.53,0,0,1,2.3-2,10,10,0,0,1,2.5-2,27.54,27.54,0,0,1,2.9-1.1c1.7-.6,3.2-2,5.2-2.9l5.6-2.4A29.05,29.05,0,0,1,105,96c1-.2,2.1-.3,3.1-.4s2.1,0,3.1,0h3c1,0,2,0,3-.1,2-.3,4-.5,6-.9a10.14,10.14,0,0,0,5.2-2.5,4.81,4.81,0,0,0,.9-1.1,5,5,0,0,0,.4-1.3,4.42,4.42,0,0,1,.5-1.5,14.61,14.61,0,0,1,.9-1.3,9.06,9.06,0,0,0,1.8-5.5Z"/><path class="cls-1" d="M129.65,92.49c.8,3.8,5.1,7.6,7.9,10.1a8.39,8.39,0,0,0,3.4,1.7,15.5,15.5,0,0,1,2.9,1.4,19.24,19.24,0,0,0,6.3,1.4c5.1.3,10.1.9,15-1.3,1.7-.8,3.4-1.6,5.1-2.5,1.2-.7,2.2-1.6,3.4-2.3a9.72,9.72,0,0,0,2.9-1.9"/><path class="cls-2" d="M129.75,92.39a20.8,20.8,0,0,0,4.2,5.1,26.22,26.22,0,0,0,2.5,2.2l1.3,1.1,1.1,1.1a9.61,9.61,0,0,0,2.7,1.5c1.2.6,2,1.4,3,1.8a13.45,13.45,0,0,0,6.6.9c2.3-.1,4.6-.2,6.8-.4a20.22,20.22,0,0,0,6.1-1.5c1-.4,2-.9,3.1-1.3l1.6-.6.8-.3a4.88,4.88,0,0,0,.7-.3,17.92,17.92,0,0,1,3.1-1.6,9.65,9.65,0,0,0,3.1-1.3l.2.2a7.77,7.77,0,0,1-2.6,2.5c-.8.6-1.6,1.5-2.6,2.2a2.18,2.18,0,0,1-.8.5l-.8.4-1.5.9a30.13,30.13,0,0,1-3.1,1.6,18.59,18.59,0,0,1-7.3,1.4,40.55,40.55,0,0,1-7-.8,57.27,57.27,0,0,1-6.9-1.6c-1.2-.3-2.2-1-3.2-1.1a8.92,8.92,0,0,1-3.6-1,5.55,5.55,0,0,1-.8-.6,4.35,4.35,0,0,0-.7-.6c-.4-.4-.9-.8-1.3-1.2-.8-.8-1.6-1.7-2.4-2.6a16.07,16.07,0,0,1-1.9-3.1,7.19,7.19,0,0,1-.8-3.5Z"/><path class="cls-1" d="M133.45,78.79a8.59,8.59,0,0,0,.5,3.9,24.07,24.07,0,0,0,3,4.8c.4.6,1.1,1,1.5,1.6.6.7.7,1.5,1.4,2.2a24.71,24.71,0,0,0,4.2,3c2.7,1.6,4.4,4.1,7.8,4.1h3.7a4.92,4.92,0,0,0,2.1-.4,18.44,18.44,0,0,0,2.8-1.5c.7-.4,1.6-.4,2.2-.9a8.47,8.47,0,0,0,1.4-1.9,17.22,17.22,0,0,0,2.8-4.7c.2-.6.2-1.3.4-1.9.3-.8,1-1.5,1.4-2.3a32.7,32.7,0,0,0,2.2-5.1c.5-1.7.9-3.5,1.3-5.2s.4-3.3.9-4.9.2-3.3.8-4.9a46.61,46.61,0,0,1,1.6-4.9,25.92,25.92,0,0,0,1.8-10.4c0-1.6.4-3,.5-4.5.1-1.9.7-3.5.2-5.4a27.43,27.43,0,0,1-.3-5,37.75,37.75,0,0,0-1.4-6.5,5.94,5.94,0,0,0-1.2-2.7c-.6-.7-1.4-1.1-1.9-1.8a9.35,9.35,0,0,0-1.6-1.8,6.62,6.62,0,0,1-2.3-2.4c-.9-1.6-1.8-2-3.5-2.7-1.9-.8-3-2.2-5.1-2.1-1.8,0-3.8.2-5.6.1a14.62,14.62,0,0,1-2-.5c-1.1-.2-2.2,0-3.4-.3-2.1-.4-3.8.2-5.8.3s-3.6,1.5-5,2.9a37.14,37.14,0,0,0-4.3,5.5,12.1,12.1,0,0,0-1.8,2.8c-.6,1.4-1.5,2.5-2,3.9-1.1,3.4-1.4,6.8-2.2,10.2-.5,2.2-.2,4.6-.2,6.9v13.4a23.82,23.82,0,0,0,1,6.5c.5,1.9.8,3.9,1.4,5.8.3,1,.5,1.9.7,2.8s1,2.1.9,3.2"/><path class="cls-2" d="M133.65,78.79a12,12,0,0,0,.5,3.3,12.23,12.23,0,0,0,1.7,2.9,14.7,14.7,0,0,0,1,1.3l.5.6c.2.2.3.4.5.5a5.31,5.31,0,0,1,1.3,1.3c.4.5.6,1.1.9,1.4a5.47,5.47,0,0,0,1.1,1c.4.3.9.6,1.4.9.9.6,1.9,1.1,3,1.8,2,1.4,3.6,2.9,5.5,3.1a7.5,7.5,0,0,0,1.5,0h3.4a7,7,0,0,0,1.4-.3c.9-.2,1.5-.9,2.8-1.6.8-.3,1.4-.4,1.6-.5s.4-.3.7-.8l.5-.7c.2-.3.4-.5.5-.7l1-1.3a13.41,13.41,0,0,0,1.4-2.6,9.53,9.53,0,0,1,.4-1.7,7.2,7.2,0,0,1,1-1.8,5.39,5.39,0,0,0,.7-1.3l.8-1.5a19.44,19.44,0,0,0,1.3-3l.9-3.3.5-1.6c.1-.5.3-1,.4-1.6a20.93,20.93,0,0,1,.8-3.4,25.75,25.75,0,0,0,.5-3.3c.1-.3.1-.6.2-.9a6.89,6.89,0,0,1,.3-.8,7.49,7.49,0,0,0,.5-1.6,13.06,13.06,0,0,1,1.2-3.3,17.26,17.26,0,0,0,1.1-3.2,25,25,0,0,0,.6-6.7,19.73,19.73,0,0,1,.4-3.5,9.7,9.7,0,0,0,.1-1.7,8.8,8.8,0,0,1,.2-1.7,9.15,9.15,0,0,0,.1-1.6,2.2,2.2,0,0,0-.1-.8,2.35,2.35,0,0,0-.2-.8,14.21,14.21,0,0,1-.3-3.5,17.61,17.61,0,0,0-.3-3.3c-.2-1.1-.6-2.1-.9-3.2a17.24,17.24,0,0,0-1.1-3c-.2-.4-.6-.6-1-1a8.3,8.3,0,0,1-1.4-1.3c-.4-.5-.7-.9-1-1.2s-.8-.6-1.3-1a6.73,6.73,0,0,1-1.4-1.5c-.1-.1-.2-.3-.3-.4l-.2-.3a2.18,2.18,0,0,0-.4-.5,7.16,7.16,0,0,0-2.5-1.4c-1.2-.5-2.2-1.3-3-1.6a5.27,5.27,0,0,0-1.2-.3h-1.6c-1.1.1-2.3.1-3.5.1h-.9a3.59,3.59,0,0,1-1.1-.2,3.93,3.93,0,0,0-1.4-.3H151a3.4,3.4,0,0,1-1-.1l-.4-.1h-.3a16.17,16.17,0,0,0-3,.2,11,11,0,0,1-1.8.2,2,2,0,0,0-1.1.3,8.5,8.5,0,0,0-2.3,1.7,25,25,0,0,0-2.2,2.4c-.7.9-1.3,1.8-2,2.7l-.5.7-.5.7c-.3.5-.7.9-.9,1.3l-.3.6c-.1.3-.3.6-.4.9a9.87,9.87,0,0,1-.9,1.5,4.88,4.88,0,0,0-.6,1.3c-.2.4-.3,1-.5,1.5-.6,2.1-.9,4.3-1.4,6.6-.1.6-.3,1.1-.4,1.7l-.2.8c0,.2-.1.5-.1.7-.1,1-.1,2.1-.1,3.2.1,2.3,0,4.6-.1,6.9l-.2,6.9v3.3c.1,1.1.2,2.2.4,3.3s.5,2.2.7,3.4a32.27,32.27,0,0,0,.6,3.3c.3,1.1.5,2.3.7,3.4s.9,2.1.8,3.3h-.3c0-1.1-.8-2-1.1-3.2s-.6-2.2-1-3.3-.6-2.2-.9-3.3-.6-2.1-.9-3.3a19.73,19.73,0,0,1-.7-3.5,10.87,10.87,0,0,1-.1-1.8l-.1-1.7-.2-6.9c-.1-2.3-.1-4.6-.3-6.8a21.64,21.64,0,0,1,0-3.6c0-.3.1-.6.1-1s.1-.7.2-.9c.1-.5.2-1.1.3-1.6.4-2.2.7-4.5,1.3-6.8a16.68,16.68,0,0,1,.5-1.8,7.5,7.5,0,0,1,.8-1.8,10.93,10.93,0,0,0,.8-1.5,4.88,4.88,0,0,0,.3-.7,4.67,4.67,0,0,1,.5-1,9.74,9.74,0,0,1,1.1-1.5l.5-.6.5-.7c.7-.9,1.4-1.9,2.1-2.8a30.84,30.84,0,0,1,2.4-2.7,12,12,0,0,1,3.3-2.3,5.45,5.45,0,0,1,2.2-.5,10,10,0,0,0,1.6-.2,22.37,22.37,0,0,1,3.8-.2.9.9,0,0,1,.5.1l.4.1c.2,0,.4.1.7.1a12.13,12.13,0,0,1,1.8.1,7.81,7.81,0,0,1,1.9.4,1.27,1.27,0,0,0,.6.1,2.48,2.48,0,0,1,.8.1h5.2a5,5,0,0,1,2.1.5c1.3.6,2.1,1.3,3,1.7.5.2,1,.5,1.6.8a7,7,0,0,1,1.7,1.3l.6.9.4.7a2.84,2.84,0,0,0,.9,1c.4.4.8.6,1.4,1.2a11.24,11.24,0,0,1,1.1,1.5,4.74,4.74,0,0,0,1,1,10.28,10.28,0,0,1,1.4,1.5,14,14,0,0,1,1.1,3.5,33.84,33.84,0,0,1,.8,3.4,14.52,14.52,0,0,1,.2,3.6,18.22,18.22,0,0,0,.1,3.3,3.71,3.71,0,0,0,.2.9,2.77,2.77,0,0,1,.1.9,11,11,0,0,1-.2,1.8,9.85,9.85,0,0,0-.2,1.7,9.15,9.15,0,0,0-.1,1.7,21.09,21.09,0,0,0-.4,3.3,32.19,32.19,0,0,1-.6,6.9,14.6,14.6,0,0,1-1,3.4,15,15,0,0,0-1,3.2,10.92,10.92,0,0,1-.5,1.7,2.35,2.35,0,0,0-.2.8,2,2,0,0,0-.1.8,23.61,23.61,0,0,1-.3,3.5,17.49,17.49,0,0,0-.5,3.3l-.3,1.8-.4,1.7-.7,3.4a19.57,19.57,0,0,1-1.2,3.4l-.7,1.6a3,3,0,0,1-.4.8,4.05,4.05,0,0,0-.5.9c-.3.5-.6.9-.7,1.1s-.1.9-.3,1.6c-.8,2.7-2.5,4.5-3.7,6.3-.2.3-.4.5-.6.8a2.42,2.42,0,0,1-1.1.8c-.8.4-1.4.4-1.7.6a14.94,14.94,0,0,1-3.2,1.7,12.86,12.86,0,0,1-1.9.4h-3.5a13.43,13.43,0,0,1-1.9-.1,8.46,8.46,0,0,1-3.6-1.6c-1-.7-1.8-1.5-2.7-2.1s-1.9-1.2-2.8-1.9a7.55,7.55,0,0,1-1.4-1.1c-.2-.2-.5-.4-.7-.6a5.72,5.72,0,0,1-.7-.8,11.55,11.55,0,0,1-.8-1.5,9,9,0,0,0-1-1.2c-.2-.2-.4-.5-.6-.7l-.5-.7-.9-1.5a15.7,15.7,0,0,1-1.5-3.2,10.36,10.36,0,0,1-.1-3.5Z"/><path class="cls-1" d="M154.15,13c.4-1.7-2.3-3.8-3.7-4.6a6.77,6.77,0,0,0-4.9-1c-2.2.3-4.6,1.4-6.7,2.1a35.45,35.45,0,0,0-6.2,3,25.24,25.24,0,0,0-6.5,5.2c-1.6,1.9-2.8,4.2-4.2,6.2a21.32,21.32,0,0,0-2.8,5.9,16,16,0,0,1-1.3,3,5.64,5.64,0,0,0-1.1,2c-1.1,3.8-3.5,7.6-4.3,11.6-1.2,5.9-.5,12.3-.5,18.4,0,3.6,0,7.2.1,10.7v5.3a13.84,13.84,0,0,1-.1,2.9c-.3,1-.9,1.7,0,2.7a10.82,10.82,0,0,1,1.1-1.8c.2-.2,1.5-.9,1.5-1,.4-1.1-2.7-2-3.5-2.5,2.2,1.5,4.4,2.9,6.6,4.4,1.7,1.2,3.2,2.5,4.9,3.8,1.5,1.1,3.3,1.4,5,2.1a33.91,33.91,0,0,0,5.3,2c4,.8,2.7-4.5,2.4-6.4-.5-2.8-2-5.6-3.2-8.2-2-4.3-2.3-8.8-2.8-13.4a102.05,102.05,0,0,1-.1-22.1c.4-3.5.7-7.2,2-10.6a40.34,40.34,0,0,1,5.8-9.5c1.1-1.5,2.9-2.2,4.2-3.5a32.18,32.18,0,0,1,2.4-2.8c.8-.7,1.6-1,2.4-1.7,2-1.8,3.6-3.2,6.4-3.8a14.47,14.47,0,0,1,3.6-.1A16.31,16.31,0,0,1,153,9c-.9-.7-2.3-1.1-2.9-2.1,1.3-.4,3.4-.1,4.8-.1h6.7c3.2,0,6.6-.4,9.8-.1,2.8.3,5.8,2,8,3.6a18.66,18.66,0,0,1,3.3,3,13.38,13.38,0,0,1,1.3,2.3c.7,1.1,1.8,1.9,2.5,3a66.56,66.56,0,0,1,5.7,10.9c.7,1.7.5,3.5.5,5.3,0,4.4.1,8.8.1,13.2.1,9.7,1.2,19.7-2.3,29a76.54,76.54,0,0,1-4.6,9.6c-.7,1.3-1.8,1.6-3.1,2.6a23.5,23.5,0,0,0-5.5,5.4c-.9,1.3-2.1,2.2-3.1,3.4s-1,2-2.6.4a28.45,28.45,0,0,1-2.3-3.7c-.7-1.2-2-3-1.8-4.4.2-1.7,1.8-3.5,2.3-5.1.5-1.4,1.3-2.6,1.8-3.9.8-2.4,1.4-4.8,2.1-7.3a88,88,0,0,0,2.1-11.4c.2-1.6.4-3.3.7-4.8s.2-3,.4-4.6a45.19,45.19,0,0,0,.6-5.3c-.1-3.4.6-6.8.6-10.2-.1-4.8,0-9.1-2.5-13.4-1.9-3.3-6-5.7-9.2-7.8-1.7-1.1-3.6-1.3-5.4-2.2-2.4-1.3-5.4-1.8-8-2.7"/><path class="cls-2" d="M154,13a2.15,2.15,0,0,0-.4-1.5,4,4,0,0,0-1-1.2,15.72,15.72,0,0,0-2.6-1.9,7.45,7.45,0,0,0-6.2-.2c-1,.3-2.1.7-3.1,1.1s-2.1.8-3.1,1.2a39.14,39.14,0,0,0-5.7,3.1,21.79,21.79,0,0,0-4.9,4.1,42.75,42.75,0,0,0-3.7,5.4c-.6,1-1.2,1.8-1.7,2.8a25.49,25.49,0,0,0-1.3,2.9c-.4,1-.7,2-1.2,3.1a7.46,7.46,0,0,1-.9,1.5,5.62,5.62,0,0,0-.7,1.3c-1.2,4.3-3.7,8.1-4.4,12.3a62.42,62.42,0,0,0-.4,13c.2,4.4.1,8.8.2,13.2v8.2a10.87,10.87,0,0,1-.1,1.8,1.93,1.93,0,0,1-.3,1,4.88,4.88,0,0,1-.3.7c-.1.2,0,.3,0,.3s.1.2.2.4l-1.4.1a9.26,9.26,0,0,1,1.2-1.9l.3-.3.2-.2.5-.3.4-.3h0a1.44,1.44,0,0,0-.2.3h0v.1l-.3-.3a2,2,0,0,0-.8-.4l-.9-.4a11.73,11.73,0,0,0-1.1-.5l.9-1.4,6.4,4.3a36.55,36.55,0,0,1,3.1,2.4l1.5,1.2a7.84,7.84,0,0,0,1.5,1c1.1.5,2.3.9,3.5,1.4s2.4,1.1,3.5,1.5,2.5.8,3.2.5.9-1.7.8-2.9a13.66,13.66,0,0,0-.2-1.9l-.2-1a2.92,2.92,0,0,0-.2-.9,14.76,14.76,0,0,0-1.3-3.5c-.5-1.2-1.1-2.3-1.6-3.5a16.27,16.27,0,0,1-1.3-3.7,39.83,39.83,0,0,1-1.2-7.7c-.3-2.6-.5-5.1-.7-7.7a100.07,100.07,0,0,1,.3-15.5c.3-2.6.4-5.1.9-7.7a22.88,22.88,0,0,1,2.7-7.3,73.1,73.1,0,0,1,4.3-6.5,12.18,12.18,0,0,1,3.1-2.5,17.41,17.41,0,0,0,1.4-1.2l1.2-1.5a6.73,6.73,0,0,1,1.5-1.4c.5-.4,1.1-.7,1.6-1.1a24.85,24.85,0,0,1,3-2.5,10.16,10.16,0,0,1,3.7-1.6,10.77,10.77,0,0,1,4-.1l-.3,1a18.22,18.22,0,0,1-3-2.3c-.4-.3-1-.6-1.5-.9a4.84,4.84,0,0,1-1.6-1.3l-.5-.7.7-.2a13.11,13.11,0,0,1,3.9-.2c1.2.1,2.4,0,3.6,0,2.5,0,4.9,0,7.3-.2a37.7,37.7,0,0,1,7.5.1,19.24,19.24,0,0,1,7,3.1,31.52,31.52,0,0,1,3,2.4,9.33,9.33,0,0,1,1.3,1.5c.4.6.7,1.2,1,1.7a13.06,13.06,0,0,0,2.2,2.7c.2.2.4.6.6.8l.5.8c.3.5.7,1.1,1,1.6a58.86,58.86,0,0,1,3.4,6.6l.7,1.7a4.55,4.55,0,0,1,.5,2c.2,1.4,0,2.6.1,3.8l.1,14.7c.1,4.9.4,9.8.2,14.8a41.61,41.61,0,0,1-3.1,14.7c-1,2.3-2.1,4.5-3.3,6.7l-.5.8a7.25,7.25,0,0,0-.5.9,4.5,4.5,0,0,1-1.6,1.5c-.6.4-1.1.7-1.5,1a13.44,13.44,0,0,0-1.4,1.1,29.56,29.56,0,0,0-2.6,2.4,12.66,12.66,0,0,0-1.1,1.3l-.2.3c-.1.1-.2.3-.3.4a5,5,0,0,1-.7.8,27.28,27.28,0,0,0-2.4,2.6c-.2.2-.3.5-.7.9a1.6,1.6,0,0,1-1.1.4,1.27,1.27,0,0,1-.6-.1c-.1-.1-.3-.1-.4-.2a9.68,9.68,0,0,1-.9-.7,5.72,5.72,0,0,1-.7-.8c-.8-1.1-1.3-2.3-1.9-3.3a19,19,0,0,1-1.7-3.5,5,5,0,0,1-.2-1.2,4.3,4.3,0,0,1,.2-1.2,7.5,7.5,0,0,1,.8-1.8l.9-1.6c.1-.3.3-.5.4-.8l.3-.9c.5-1.2,1.2-2.3,1.6-3.3s.8-2.3,1.1-3.4c.6-2.3,1.3-4.7,1.8-7.1s.9-4.8,1.3-7.2l1-7.2c.1-1.2.1-2.5.3-3.7s.4-2.4.5-3.6v-1.8a12.1,12.1,0,0,1,.1-1.9c.1-1.2.2-2.5.3-3.7s.2-2.4.2-3.6v-3.7a24.47,24.47,0,0,0-1.1-7.1,18.67,18.67,0,0,0-1.5-3.2,15.46,15.46,0,0,0-2.4-2.7,42.46,42.46,0,0,0-5.9-4.3,12.37,12.37,0,0,0-3.3-1.5,8.65,8.65,0,0,1-1.7-.7,13,13,0,0,0-1.7-.8c-2.2-1-4.6-1.5-7-2.4l.1-.2c2.3.8,4.7,1.2,7,2.2a13,13,0,0,1,1.7.8c.6.2,1.1.4,1.7.6a10.39,10.39,0,0,1,3.4,1.5,50.78,50.78,0,0,1,6.1,4.2,17.58,17.58,0,0,1,2.6,2.8,15.44,15.44,0,0,1,1.7,3.4,23.52,23.52,0,0,1,1.3,7.4c.1,1.2.1,2.5.1,3.7s-.1,2.5-.2,3.7-.2,2.4-.3,3.7c0,.6-.1,1.2-.1,1.8v1.9c-.1,1.3-.3,2.5-.5,3.7s-.2,2.3-.3,3.6l-.9,7.3c-.3,2.5-.7,4.9-1.2,7.3s-1.1,4.8-1.7,7.2c-.3,1.2-.7,2.4-1.1,3.6s-1.2,2.3-1.6,3.4l-.3.9c-.1.3-.3.6-.4.9l-.9,1.6a10.09,10.09,0,0,0-.7,1.5,1.65,1.65,0,0,0,0,1.2,18.49,18.49,0,0,0,1.6,3.1,22.93,22.93,0,0,0,1.8,3.1c.2.2.3.4.5.6s.4.4.5.4H172c-.1,0-.3.1-.2.1l.4-.6a23.83,23.83,0,0,1,2.6-2.8,2.65,2.65,0,0,0,.5-.6l.5-.7,1.2-1.5a22.72,22.72,0,0,1,2.8-2.6l1.5-1.2a14,14,0,0,1,1.6-1,2.4,2.4,0,0,0,1-1c.1-.2.3-.5.4-.7l.4-.8a55.9,55.9,0,0,0,3.2-6.5,41.25,41.25,0,0,0,3-14c.3-4.8,0-9.7-.1-14.6l-.1-14.7c0-1.3.1-2.5,0-3.6a8.33,8.33,0,0,0-.4-1.5l-.7-1.7c-1-2.2-2.1-4.4-3.3-6.5l-.9-1.6-.5-.8c-.2-.3-.3-.4-.5-.7a14.2,14.2,0,0,0-1.2-1.3,10.38,10.38,0,0,1-1.2-1.7,10.19,10.19,0,0,0-.8-1.5,12.67,12.67,0,0,0-1.1-1.3,29.77,29.77,0,0,0-2.7-2.3,17.41,17.41,0,0,0-6.3-3,42.72,42.72,0,0,0-7.2-.2c-2.5.1-4.9.1-7.4.1-1.2,0-2.4,0-3.7-.1a9.48,9.48,0,0,0-3.4.1l.3-.9a3.06,3.06,0,0,0,1.2,1,14,14,0,0,1,1.6,1,25.59,25.59,0,0,0,2.7,2.3l2.9,1.4-3.2-.4a9.23,9.23,0,0,0-3.7.1,11.12,11.12,0,0,0-3.4,1.4c-1,.7-1.9,1.5-3,2.4a11.33,11.33,0,0,0-2.9,2.3l-1.2,1.5a17.38,17.38,0,0,1-1.5,1.3,11.61,11.61,0,0,0-2.9,2.4,43.85,43.85,0,0,0-4.3,6.3,20.27,20.27,0,0,0-2.6,7.1,65.59,65.59,0,0,0-.9,7.6,113.09,113.09,0,0,0-.2,15.4c.2,2.6.4,5.1.7,7.7a45.17,45.17,0,0,0,1.3,7.5,36.17,36.17,0,0,0,1.3,3.5c.6,1.2,1.2,2.3,1.7,3.5s1,2.4,1.4,3.7a3.55,3.55,0,0,1,.2,1l.2.9c.1.6.2,1.3.3,2a5,5,0,0,1-.1,2.1,2.66,2.66,0,0,1-1.3,2,3.71,3.71,0,0,1-2.3.2,7.62,7.62,0,0,1-2-.6,38.78,38.78,0,0,1-3.6-1.5c-1.1-.4-2.4-.8-3.7-1.4a10.81,10.81,0,0,1-1.8-1.1l-1.5-1.2c-1-.8-2-1.6-3-2.3l-6.4-4.3.9-1.4a5.94,5.94,0,0,0,.8.4l1,.4a5.3,5.3,0,0,1,1,.6,3,3,0,0,1,1.1,1.3.64.64,0,0,1,0,.6v.2a.76.76,0,0,1-.2.4l-.1.1c-.1.1-.1.1-.2.1l-.5.3-.7.5a15.34,15.34,0,0,0-1,1.7l-.6,1-.8-.9a2.58,2.58,0,0,1-.6-2.4c.2-.7.4-1,.5-1.5a3.75,3.75,0,0,0,0-1.5v-8.3c0-4.4,0-8.8-.1-13.2s-.3-8.9.5-13.3a32,32,0,0,1,2.1-6.4,51.35,51.35,0,0,0,2.4-6.1,6.08,6.08,0,0,1,.9-1.6,5.67,5.67,0,0,0,.8-1.3c.4-.9.8-2,1.2-3s.9-2.1,1.4-3.1a26.75,26.75,0,0,1,1.8-2.8,60.38,60.38,0,0,1,3.8-5.5,23.93,23.93,0,0,1,5.3-4.2,36.41,36.41,0,0,1,5.9-3c1-.4,2.1-.8,3.1-1.2a30.06,30.06,0,0,1,3.2-1.1,12.57,12.57,0,0,1,3.3-.5,6.56,6.56,0,0,1,3.3.9,13.5,13.5,0,0,1,2.7,2,4.12,4.12,0,0,1,1,1.3,2,2,0,0,1,.3,1.7Z"/><path class="cls-1" d="M136.35,42.89c6.6,0,13.3.1,19.9-.1,2-.1,1.9-1,1.9-2.9v-9.2c0-1.6-.6-3-.6-4.5,5.2,2.4,7.1,8.5,7.1,13.9,0,.8-.4,3.1.1,3.6s2.1.2,2.9.2a27.49,27.49,0,0,1,6.4.3c2,.5,4.1.7,6.2,1.1,1.3.2,2.3,1.2,3.1-.2.4-.7.1-2.7-.1-3.5a98.67,98.67,0,0,0-2.6-12c-.5-1.8-.9-3.7-1.5-5.5a12.13,12.13,0,0,0-3.7-5.2,29.81,29.81,0,0,0-5.1-4.3,6.33,6.33,0,0,0-3.2-.8c-1.1-.1-2.1-.5-3.2-.7s-2.2.2-3.3.1c-1.4-.1-2.7-.6-4.1-.7-2.7-.1-5.5.1-8.3.1-2.3,0-4.4-.3-6.4,1-2.9,1.8-5.5,3.6-6.9,6.8a78.24,78.24,0,0,0-4.9,15.8c-.3,1.6-1.6,5.9.2,6.8.7.3,2.4-.1,3.2-.1,1.3,0,3.3-.4,4.3.6"/><path class="cls-2" d="M136.35,42.89c6.3-.3,12.6-.3,18.8-.7a8.48,8.48,0,0,0,2-.3.59.59,0,0,0,.2-.5v-1l-.2-4.8-.1-4.7c0-1.4-.6-2.7-.7-4.6l-.1-1.7,1.6.7a11.38,11.38,0,0,1,3.9,2.9,13.77,13.77,0,0,1,2.5,4.2,18.92,18.92,0,0,1,1.3,9.4V43a.1.1,0,0,0-.1-.1l-.1-.1c-.2-.1,0,0,.3,0s.6-.1,1-.1c.2,0,.4-.1.7-.1h4a11.34,11.34,0,0,1,2.5.3,17,17,0,0,0,2.2.4l2.2.3,1.1.2.6.1h.3l.4.1a8.34,8.34,0,0,1,1.2.4c.1,0,.2.1.3.1H182a.1.1,0,0,0-.1.1v-.1c0-.1-.1.1,0,.1V44c-.1-1.2-.4-2.8-.6-4.2-.5-2.9-1.1-5.8-1.9-8.7-.2-.7-.4-1.4-.6-2.2l-.5-2.2-.6-2.1a13,13,0,0,0-.8-1.7,16,16,0,0,0-2.8-3.1c-1-1-2.1-2-3.2-2.9a5.55,5.55,0,0,1-.8-.6,9.22,9.22,0,0,0-.8-.5,5.29,5.29,0,0,0-1.6-.4h-.6a1.7,1.7,0,0,1-.7-.1c-.5-.1-.9-.2-1.3-.3a8.09,8.09,0,0,0-1.9-.4c-.6,0-1.3.1-2.2.1a9.35,9.35,0,0,1-2.5-.4,17.66,17.66,0,0,0-2-.4c-.7,0-1.4-.1-2.2-.1h-4.5c-1.5,0-3.1-.1-4.5,0a5.82,5.82,0,0,0-1.9.3,10,10,0,0,0-1.8.9,24.14,24.14,0,0,0-3.5,2.5,10.3,10.3,0,0,0-2.5,3.3c-.6,1.3-1.2,2.7-1.8,4.1a83.91,83.91,0,0,0-2.7,8.5l-1.1,4.4a14.35,14.35,0,0,0-.4,2.2,4.89,4.89,0,0,0,.1,2.1c.1.3.2.6.5.7a1.34,1.34,0,0,0,.9.2c.7,0,1.5-.1,2.3-.1h2.3a3.23,3.23,0,0,1,2.1.8,3.22,3.22,0,0,0-2.1-.6,16.35,16.35,0,0,0-2.2.2l-2.2.3a2.09,2.09,0,0,1-1.3-.2,1.59,1.59,0,0,1-.8-1A4.92,4.92,0,0,1,129,40c.1-.8.2-1.5.3-2.3l.8-4.4a67,67,0,0,1,2.3-8.8c.5-1.4,1-2.9,1.6-4.3a12.1,12.1,0,0,1,2.8-4,33.66,33.66,0,0,1,3.7-2.9,11.42,11.42,0,0,1,2.2-1.2,11.08,11.08,0,0,1,2.5-.5c1.6-.1,3,0,4.5-.1s3-.1,4.5-.1h2.3a8.6,8.6,0,0,1,2.4.4,4.4,4.4,0,0,0,1.9.2c.6,0,1.4-.1,2.3-.2a9.47,9.47,0,0,1,2.6.4,5.07,5.07,0,0,0,.9.2h1a7,7,0,0,1,2.7.6c.5.3.8.5,1.1.7l1,.7a35.15,35.15,0,0,1,3.5,3.1,28.26,28.26,0,0,1,3.2,3.6,10.08,10.08,0,0,1,1.2,2.3,20.16,20.16,0,0,1,.7,2.3l.6,2.2.6,2.1c.8,3,1.4,6,1.9,8.9l.4,2.2a19.67,19.67,0,0,1,.3,2.4,5,5,0,0,1-.2,1.6,1.69,1.69,0,0,1-.3.6c-.1.1-.2.3-.3.4a1.83,1.83,0,0,1-1,.7,3,3,0,0,1-1.2.2,1.55,1.55,0,0,1-.8-.2,5.39,5.39,0,0,0-1-.3h-.5l-.5-.1-1.1-.2a22.31,22.31,0,0,1-2.3-.4,18.91,18.91,0,0,1-2.3-.5c-.6-.1-1.3-.2-2-.3H167c-.4,0-.8.1-1.3.1a3.16,3.16,0,0,1-1.9-.5c-.1-.1-.2-.2-.3-.2a1.38,1.38,0,0,1-.3-.4,1.42,1.42,0,0,1-.2-.6,2.49,2.49,0,0,1-.1-.8v-1.3l.1-1.1v-.9c0-.7-.1-1.4-.1-2.1a18.9,18.9,0,0,0-1-4.1,10.83,10.83,0,0,0-5.2-6.1l1.5-1c0,1.3.6,2.9.5,4.7l-.1,4.7-.1,4.7a6.15,6.15,0,0,1-.1,1.3,2,2,0,0,1-.9,1.5,2.54,2.54,0,0,1-1.4.3h-1.2C148.85,43.39,142.55,43.09,136.35,42.89Z"/><path class="cls-1" d="M128.45,52.39c-.6-.5-1-1.3-1.6-1.8a19.52,19.52,0,0,0-2.3-1.7c-.7-.6-.7-1-1.6-.8-.5.2-1.1,1-1.5,1.4-1.4,1.4-1.4,1.9-1.4,3.9a6.56,6.56,0,0,0,.1,2c.2.8.9,1.3,1.2,2.1.5,1.3.7,2.7,1.3,3.9s1.2,2.3,1.7,3.4c.7,1.3,1.4,2.5,2.2,3.8.6,1.1,2.7,2.1,2.9,3.2"/><path class="cls-2" d="M128.35,52.49a10.46,10.46,0,0,1-1.9-1.2c-.5-.3-1.1-.5-1.8-.9-.3-.2-.7-.4-1.1-.7l-.4-.4H123a.35.35,0,0,0,.2.1c.2.1.2,0,.2,0h.1l-.6.6a2.18,2.18,0,0,1-.5.4l-.4.3a4.35,4.35,0,0,0-.7.6,2.2,2.2,0,0,0-.6,1.7,14.7,14.7,0,0,0,0,2.1c.1.6.6.9,1.2,1.5,1.2,1.5,1.4,2.9,2,4l1.1,1.8a17.37,17.37,0,0,1,1,1.9,22,22,0,0,1,1.7,3.9,2.74,2.74,0,0,0,.4.7l.6.9a8.65,8.65,0,0,1,.7,1,2.84,2.84,0,0,1,.4,1.2l-.3.1a7.12,7.12,0,0,0-1.7-1.1,5.3,5.3,0,0,1-1-.6,7.29,7.29,0,0,1-1.1-.9,30.86,30.86,0,0,1-2.6-3.7,12.44,12.44,0,0,1-1-2l-.4-1c-.1-.3-.3-.7-.4-1.1a10.61,10.61,0,0,1-.5-2.3,9.46,9.46,0,0,0-.3-1.9,9.24,9.24,0,0,0-.5-1,3.08,3.08,0,0,1-.3-1.3v-2.3c0-.4-.1-.7-.1-1.2a5.85,5.85,0,0,1,.2-1.3l.6-1.2c.1-.2.2-.3.3-.5s.1-.2.2-.4a3.51,3.51,0,0,1,.8-1,1.38,1.38,0,0,1,.4-.3,1.42,1.42,0,0,1,.6-.2,2.4,2.4,0,0,1,1.2,0,4.88,4.88,0,0,1,.7.3q.3.15.3.3l.3.4.6.6a8.69,8.69,0,0,1,1.6,1.7,12,12,0,0,1,.9,2.1Z"/><path class="cls-1" d="M178.25,57c4.9-.6,1.4,7.6.3,9.5-.4.7-1.1,1.2-1.4,2a21.29,21.29,0,0,0-.7,2.7c-.4,1.8-1.5,3.2-2.4,4.9"/><path class="cls-2" d="M178.25,56.89a2.31,2.31,0,0,1,1.7-.5,2.26,2.26,0,0,1,1.7,1.3,4.46,4.46,0,0,1,.5,1.8,4.15,4.15,0,0,1-.3,1.6,16.38,16.38,0,0,1-1.6,2.6,13.09,13.09,0,0,0-.9,2.8,6.71,6.71,0,0,1-.6,1.5,3.08,3.08,0,0,0-.4.9c-.2.6-.2,1.5-.5,2.4a6.21,6.21,0,0,1-1.5,2.9,10.59,10.59,0,0,1-2.3,1.9l-.3-.1a12.51,12.51,0,0,1,.5-2.9c.2-.9.4-1.6.5-2.3a7.59,7.59,0,0,1,1-3,3.84,3.84,0,0,1,1.2-1.3,8.64,8.64,0,0,0,1-.7,4.25,4.25,0,0,0,1.4-2.3,12.18,12.18,0,0,0,0-2.7c0-.8.1-1.6.1-2.1a1.08,1.08,0,0,0-.2-.7,3.48,3.48,0,0,0-1.1-.7Z"/></g></svg>