<svg id="Layer_1" data-name="Layer 1" xmlns="http://www.w3.org/2000/svg" viewBox="0 0 366.27 31.33"><defs><style>.cls-1{fill:#231f20;}</style></defs><title>ink</title><path class="cls-1" d="M0,16.62a152.16,152.16,0,0,1,22.89-6.35C30.52,8.7,38.15,7.56,45.78,6.72S61,5.37,68.67,5.1a136.47,136.47,0,0,1,22.89.82c7.63.91,15.26,2.61,22.89,4.12a169.54,169.54,0,0,0,22.89,3.35,161,161,0,0,0,22.89-.21c7.63-.57,15.26-1.75,22.89-3.08S198.39,7.33,206,6.36s15.26-1.49,22.89-2,15.26-1.12,22.89-1.51,15.26-.52,22.89-.29,15.26.7,22.89,1.41,15.26,1.55,22.89,2.65,15.26,2.4,22.89,4a210.65,210.65,0,0,1,22.89,6v2.91a210.65,210.65,0,0,1-22.89,6c-7.63,1.62-15.26,2.93-22.89,4s-15.26,2-22.89,2.65-15.26,1.19-22.89,1.41-15.26.08-22.89-.29-15.26-1-22.89-1.51-15.26-1-22.89-2-15.26-2.4-22.89-3.74S167.87,23.53,160.24,23a161,161,0,0,0-22.89-.21,169.54,169.54,0,0,0-22.89,3.35c-7.63,1.51-15.26,3.21-22.89,4.12A136.47,136.47,0,0,1,68.67,31c-7.63-.27-15.26-.78-22.89-1.62s-15.26-2-22.89-3.55A152.16,152.16,0,0,1,0,19.53Z" transform="translate(0 -2.41)"/></svg>