<?xml version="1.0" encoding="utf-8"?>
<!-- Generator: Adobe Illustrator 21.0.2, SVG Export Plug-In . SVG Version: 6.00 Build 0)  -->
<svg version="1.1" xmlns="http://www.w3.org/2000/svg" xmlns:xlink="http://www.w3.org/1999/xlink" x="0px" y="0px"
	 viewBox="0 0 647.4 221.4" style="enable-background:new 0 0 647.4 221.4;" xml:space="preserve">
<style type="text/css">
	.st0{fill:#FFFFFF;}
	.st1{fill:#010101;}
	.st2{fill:#5786F2;}
	.st3{fill:#231F20;}
</style>
<g id="Layer_1">
	<title>interior_border</title>
	<g id="Layer_5">
		<rect x="0.8" y="1.6" class="st0" width="566.3" height="129.6"/>
		<path class="st1" d="M567.3,131.3l-70.5,0.4l-70.7,0.3l-141.7,0.4l-71-0.1l-71-0.3c-47.3-0.3-94.6-0.4-141.8-0.4H0.4v-0.5
			L0.3,66.4L0,1.6V0.8h0.8l141.6-0.5L284,0l141.6,0.1l141.6,0.5h1v1L567.3,131.3z M567.1,131.1L566.2,1.6l1,1L425.6,3.1L284,3.2
			L142.4,2.9L0.8,2.4l0.8-0.8L1.4,66.4l-0.1,64.8l-0.5-0.5c47.2,0,94.3-0.1,141.4-0.4l70.6-0.3l70.6-0.1l141.5,0.4l70.9,0.3
			L567.1,131.1z"/>
	</g>
</g>
<g id="Layer_5_1_">
	<g>
		<g>
			<path class="st2" d="M510.1,39.3c-1.8-1.5-1.6-2.8-2.2-4.7c-0.2-0.8-0.5-1.3-0.5-2.2c0-0.6,0.1-1.3-0.1-1.9
				c-0.2-0.5-0.9-0.8-1.1-1.3c-1.9-4.5,3.4-5.6,6.6-5.5c4.3,0.2,9.4,2.6,12.9,5.1c2,1.4,3.8,3.2,5.7,4.8c2.2,1.9,4.8,4.1,6.7,6.3
				c3.1,3.6,6,7.5,8.5,11.5c1,1.7,2.6,3.5,3.2,5.4c0.9,2.5,1.5,5,2,7.5c0.2,0.9,0,1.7,0.1,2.5c0.1,1,0.6,1.8,0.7,2.8
				c0.2,2,0,4.1,0,6.1c0,3.6-1.3,7.1-2.3,10.5c-0.7,2.3-2.1,4.1-3.3,6.1c-1.5,2.4-2.3,4.8-3.4,7.3c-1,2.3-1.8,5.3-1.8,7.8
				c0,2.8-0.6,5.3-1.2,8c-0.9,4-3.5,7.6-5.5,11.1c-1.1,2-2.3,4.3-4.1,5.8c-2.3,1.9-5.1,3.1-7.5,4.8c-2.3,1.7-3.3,1.3-5.4-0.7
				c-2-1.9-3.7-3.9-5.4-6c-1.1-1.4-3.3-4.1-2.6-6c0.3-0.8,1-1.6,1.4-2.3c0.6-1.2,1.1-2.3,1.5-3.6c0.6-1.9,1.7-3.4,1.7-5.4
				c0-1.8,1.4-3.8,1.7-5.6c0.6-4.1,0.5-11.9,0.8-16c0.4-4.5-1.3-4.9-2.9-9.1c-0.5-1.3-1-1.6-1.7-2.7c-0.7-1-0.8-2.3-1-3.5
				c-0.6-3.3-1.2-6.7-2.2-9.9c-1.4-4.8-0.8-10-0.8-15c0-4.9,0-9.9,0-14.8"/>
			<path class="st3" d="M510.1,39.4c-0.6-0.5-1.1-1-1.4-1.7c-0.3-0.7-0.5-1.4-0.6-2.1c-0.2-0.7-0.4-1.4-0.6-2.1
				c-0.2-0.7-0.2-1.5-0.2-2.2c0-0.3,0-0.7-0.2-0.9c-0.2-0.3-0.5-0.4-0.7-0.7c-0.1-0.1-0.3-0.3-0.4-0.5c-0.1-0.2-0.1-0.3-0.2-0.5
				c-0.1-0.4-0.2-0.7-0.2-1.1c-0.1-0.8,0.2-1.6,0.7-2.2c0.5-0.6,1.2-1,1.8-1.3c2.8-1.1,5.9-0.8,8.6-0.1c2.8,0.8,5.4,2,7.9,3.6
				c2.5,1.5,4.6,3.5,6.7,5.4c2.2,1.9,4.4,3.7,6.4,5.8c3.9,4.3,7.2,9,10.2,13.9c0.8,1.2,1.6,2.4,2.2,3.8c0.5,1.4,0.9,2.8,1.2,4.2
				l0.5,2.1c0.1,0.7,0.4,1.4,0.4,2.2c0,0.8-0.1,1.4,0.1,2.1c0.1,0.7,0.4,1.3,0.6,2.1c0.2,1.5,0.1,2.9,0.1,4.4
				c-0.1,1.4,0,2.9-0.2,4.3c-0.4,2.9-1.4,5.6-2.2,8.3c-0.8,2.9-2.8,5-4.1,7.5c-0.7,1.3-1.2,2.6-1.7,3.9c-0.5,1.3-1.2,2.6-1.6,4
				c-0.4,1.3-0.8,2.7-0.9,4.1c-0.2,1.4-0.1,2.8-0.3,4.3c-0.2,1.4-0.4,2.9-0.7,4.3c-0.3,1.4-0.6,2.8-1.2,4.2
				c-1.1,2.7-2.7,5.1-4.2,7.6c-0.7,1.2-1.4,2.5-2.1,3.7c-0.8,1.2-1.7,2.4-2.9,3.3c-2.3,1.8-5,3-7.2,4.7c-0.6,0.4-1.3,0.9-2.1,1
				c-0.9,0.1-1.7-0.3-2.3-0.7c-1.2-0.9-2.1-2-3.1-3c-1-1.1-1.9-2.1-2.9-3.2c-0.9-1.1-1.9-2.2-2.6-3.5c-0.4-0.6-0.7-1.3-0.9-2.1
				c-0.1-0.4-0.1-0.8,0-1.2c0.1-0.4,0.3-0.8,0.5-1.2c0.4-0.7,0.9-1.2,1.2-1.8c0.3-0.6,0.6-1.2,0.9-1.9c0.3-0.7,0.5-1.3,0.7-2
				c0.3-0.7,0.6-1.4,0.8-2c0.3-0.6,0.5-1.3,0.6-1.9c0.1-0.3,0.1-0.6,0.1-1c0-0.4,0.1-0.8,0.2-1.2c0.4-1.5,1.1-2.7,1.4-4
				c0.2-1.3,0.3-2.8,0.4-4.2c0.2-2.8,0.2-5.7,0.3-8.6c0-1.4,0.1-2.9,0.2-4.3c0-1.4-0.2-2.7-0.8-3.9c-0.6-1.2-1.4-2.5-1.9-3.9
				c-0.2-0.7-0.5-1.2-0.9-1.8c-0.4-0.5-1-1.1-1.3-1.9c-0.3-0.7-0.4-1.5-0.5-2.2c-0.1-0.7-0.2-1.4-0.4-2.1c-0.3-1.4-0.5-2.8-0.8-4.2
				c-0.3-1.4-0.6-2.8-1-4.1c-0.4-1.4-0.7-2.8-0.8-4.3c-0.3-2.9-0.1-5.8-0.1-8.6l0.2-17.2h0.1c0,5.7,0.2,11.4,0.2,17.2
				c0,2.9-0.1,5.7,0.2,8.5c0.2,1.4,0.4,2.8,0.8,4.1c0.4,1.4,0.8,2.8,1.1,4.2c0.3,1.4,0.6,2.8,0.9,4.2c0.1,0.7,0.3,1.4,0.4,2.1
				c0.1,0.7,0.2,1.4,0.5,2c0.2,0.6,0.7,1.1,1.2,1.7c0.5,0.6,0.9,1.3,1.1,2c0.5,1.3,1.2,2.5,1.9,3.8c0.3,0.7,0.6,1.4,0.8,2.1
				c0.2,0.7,0.2,1.5,0.2,2.2c-0.1,1.5-0.2,2.8-0.2,4.3c-0.1,2.9-0.1,5.7-0.3,8.6c-0.1,1.4-0.2,2.9-0.4,4.3c-0.3,1.5-1.1,2.8-1.4,4.1
				c-0.1,0.3-0.2,0.6-0.2,0.9c0,0.3,0,0.8-0.1,1.1c-0.1,0.8-0.4,1.5-0.7,2.2c-0.3,0.7-0.6,1.3-0.8,2c-0.2,0.6-0.5,1.4-0.7,2
				c-0.3,0.7-0.6,1.3-0.9,2c-0.4,0.7-0.8,1.3-1.2,1.8c-0.7,1-0.2,2.3,0.4,3.5c0.7,1.2,1.6,2.3,2.5,3.4c0.9,1.1,1.8,2.2,2.8,3.2
				c1,1,2,2.1,3,2.9c0.5,0.4,1.1,0.7,1.7,0.6c0.6-0.1,1.2-0.4,1.7-0.8c2.3-1.7,5-2.9,7.2-4.6c2.3-1.6,3.4-4.3,4.9-6.8
				c1.5-2.4,3.1-4.8,4.2-7.4c0.6-1.3,0.9-2.7,1.2-4.1c0.3-1.4,0.6-2.8,0.7-4.2c0.2-1.4,0.1-2.8,0.3-4.3c0.2-1.4,0.5-2.8,1-4.2
				c0.5-1.4,1.1-2.7,1.6-4c0.5-1.3,1.1-2.6,1.8-3.9c1.3-2.6,3.3-4.7,4.1-7.5c0.8-2.7,1.8-5.5,2.1-8.3c0.2-1.4,0.1-2.8,0.1-4.3
				c0-1.4,0.1-2.9-0.1-4.2c-0.1-0.7-0.5-1.3-0.6-2.1c-0.2-0.8-0.1-1.5-0.1-2.2c0-0.6-0.3-1.3-0.4-2l-0.5-2.1
				c-0.4-1.4-0.8-2.7-1.3-4.1c-0.5-1.3-1.3-2.4-2.1-3.6c-0.8-1.2-1.6-2.4-2.4-3.6c-0.8-1.2-1.6-2.3-2.5-3.5
				c-1.7-2.3-3.5-4.5-5.4-6.6c-1.9-2.1-4.1-3.9-6.3-5.8c-2.1-1.9-4.2-3.9-6.6-5.4c-2.4-1.5-5-2.8-7.7-3.6c-1.4-0.4-2.7-0.7-4.1-0.7
				c-1.4,0-2.8,0.1-4.1,0.6c-0.6,0.3-1.2,0.6-1.7,1.1c-0.4,0.5-0.6,1.1-0.6,1.8c0,0.3,0.1,0.7,0.2,1c0,0.2,0.1,0.3,0.2,0.5
				c0,0.1,0.1,0.3,0.3,0.4c0.2,0.2,0.5,0.4,0.8,0.8c0.2,0.4,0.2,0.8,0.2,1.1c-0.1,0.7-0.1,1.4,0.1,2.1c0.2,0.7,0.4,1.4,0.5,2.1
				c0.1,0.7,0.3,1.4,0.6,2C509.1,38.3,509.6,38.8,510.1,39.4L510.1,39.4z"/>
		</g>
		<g>
			<path class="st2" d="M503.5,26.5c0,0.2-0.2,0.3-0.2,0.4c-0.1,0.2,0,0.4-0.1,0.6c-0.1,0.3-0.2,0.6-0.3,0.9c-0.1,0.6-0.1,1.3-0.1,2
				c0,1.4-0.2,2.9,0.3,4.1c0.2,0.6,0.5,1.3,0.8,1.8c0.2,0.3,0.3,0.5,0.4,0.9c0.1,0.3,0.3,0.6,0.3,0.9c0.1,0.6,0,1.3,0,1.9
				c0,0.7,0,1.4,0,2.1c0,0.7,0,1.3-0.1,1.9c-0.1,0.3-0.1,0.6,0.1,0.9c0.3,0.4,0.6,0.4,1,0.5c0.3,0.1,0.8,0.1,0.9,0.5
				c0.1,0.3-0.1,0.6,0.1,1c0.1,0.2,0.2,0.2,0.4,0.3c0.1,0.1,0.1,0.3,0.2,0.4c0.2,0.3,0.6,0.4,0.8,0.7c0.5,0.6,0.8,1.3,1,2
				c0.2,0.8,0.7,1.4,1.5,1.7c0.9,0.4,1.5,0.3,2.4,0c0.4-0.1,0.5-0.3,0.8-0.6c0.3-0.2,0.7-0.4,1-0.5c0.3-0.2,0.7-0.3,1-0.4
				c0.4-0.1,0.7-0.5,1.1-0.5c0.4-0.1,0.9,0,1.2,0c0.5,0,0.8,0.2,1.3,0.4c0.7,0.3,1.4,0.6,2,1.1c0.4,0.4,0.3,0.5,0.4,1
				c0.1,0.4,0.3,0.8,0.3,1.2c0,0.3,0.2,0.7,0.2,1c0,0.3,0,0.7,0,1c0,0.2,0.1,0.5,0.2,0.7c0,0.2-0.1,0.4,0,0.6c0,0.2,0.1,0.2,0.1,0.4
				c0.1,0.2,0,0.5,0,0.7c0.2,0.7,0.9,0.5,1.4,0.5c0.6,0,1.1,0.3,1.7,0.3c0.8,0,1.7-0.6,2.4-1c0.8-0.5,1.7-0.7,2.4-1.3
				c0.9-0.7,1.7-1.7,2.4-2.5c0.4-0.5,1-1.2,1.1-1.9c0-0.4-0.1-0.9-0.4-1.3c-0.2-0.3-0.4-0.4-0.6-0.6c-0.3-0.3-0.4-0.6-0.7-0.9
				c-0.4-0.3-0.8-0.5-1-0.9c-0.3-0.5-0.2-1.1-0.6-1.6c-0.5-0.7-0.9-1.3-1.8-1.4c-0.8,0-1.7-0.2-2.5-0.4c-0.4-0.1-0.8-0.4-1.2-0.7
				c-0.4-0.3-0.9-0.9-1.4-1c-0.6-0.2-1.2,0.1-1.8-0.2c-0.7-0.3-1.4-0.6-2-1c-1.1-0.6-2.4-1-3.3-1.9c-0.6-0.6-0.8-1.6-1.2-2.3
				c-0.4-0.7-1.2-1.3-1.9-1.8c-0.6-0.4-1.1-0.8-1.6-1.3c-0.9-0.7-1.7-1.7-2.4-2.6c-0.5-0.6-0.7-1.3-0.9-2c-0.1-0.2-0.2-0.4-0.3-0.7
				c-0.1-0.3,0-0.5-0.2-0.8c-0.1-0.2-0.3-0.4-0.4-0.6c-0.2-0.3-0.3-0.6-0.5-0.8c-0.3-0.5-0.6-0.6-1.1-0.9c-0.9-0.4-1.5-0.5-2.4-0.5"
				/>
			<path class="st3" d="M503.6,26.5c0,0.2-0.1,0.3-0.2,0.4c-0.1,0.1-0.1,0.2-0.1,0.3c0,0.3-0.1,0.6-0.1,0.8c-0.2,0.5-0.2,1-0.2,1.6
				c0.1,1.1,0,2.2,0.1,3.2c0,0.5,0.1,1,0.3,1.5l0.7,1.4c0.1,0.2,0.2,0.5,0.4,0.7c0.2,0.2,0.3,0.6,0.3,0.8c0.1,0.2,0.3,0.5,0.3,0.9
				c0,0.3,0,0.6,0,0.9c-0.1,1.1,0,2.1,0,3.2c0,0.5,0,1.1,0,1.7c-0.1,0.7-0.1,0.8,0.2,1c0.1,0.1,0.5,0.1,0.7,0.2
				c0.1,0,0.3,0.1,0.5,0.1c0.2,0.1,0.4,0.2,0.5,0.5c0.2,0.5,0,0.8,0.1,0.9c0,0.1,0,0.1,0.1,0.1c0,0,0.3,0.2,0.4,0.4
				c0.1,0.2,0.1,0.3,0.1,0.3c0,0,0.1,0.1,0.2,0.2c0.1,0.1,0.2,0.1,0.4,0.3c0.1,0.1,0.1,0.2,0.2,0.2l0.1,0.2c0.3,0.5,0.6,1,0.8,1.5
				c0,0.1,0.1,0.3,0.1,0.4c0,0.1,0.1,0.2,0.1,0.3c0.1,0.2,0.2,0.4,0.3,0.6c0.3,0.4,0.7,0.6,1.2,0.8c0.5,0.2,0.9,0.1,1.4,0l0.4-0.1
				c0.1,0,0.2-0.1,0.3-0.1c0.2-0.1,0.4-0.4,0.7-0.5c0.5-0.3,1-0.5,1.5-0.7l0.4-0.2c0.1,0,0.2-0.1,0.3-0.2c0.2-0.1,0.5-0.3,0.8-0.4
				c0.3-0.1,0.6,0,0.9,0c0.3,0,0.5,0,0.8,0.1c0.6,0.2,1,0.4,1.5,0.6c0.5,0.2,1,0.5,1.4,0.9c0.1,0.1,0.2,0.2,0.3,0.4
				c0.1,0.2,0.1,0.3,0.1,0.4c0,0.3,0.1,0.5,0.2,0.8c0.1,0.3,0.2,0.6,0.2,0.8c0,0.3,0.1,0.5,0.2,0.8c0,0.3,0,0.6,0,0.8
				c0,0.3,0.1,0.5,0.1,0.8c0.1,0.3,0,0.7,0,0.8c0,0.1,0.1,0.2,0.1,0.4c0,0.2,0,0.3,0,0.5c0,0.2,0.1,0.4,0.2,0.5c0.2,0.1,0.4,0,0.7,0
				c0.6,0,1.2,0.2,1.6,0.3c0.5,0.1,0.9-0.1,1.4-0.3c0.5-0.2,0.9-0.5,1.4-0.8c0.5-0.3,1-0.5,1.5-0.7c0.9-0.5,1.6-1.3,2.3-2.1
				c0.3-0.4,0.7-0.8,1-1.2c0.3-0.4,0.5-0.9,0.6-1.2c0-0.4-0.2-0.9-0.5-1.1c-0.2-0.1-0.4-0.4-0.6-0.6c-0.2-0.2-0.3-0.4-0.4-0.5
				c-0.2-0.1-0.4-0.3-0.7-0.5c-0.2-0.2-0.5-0.5-0.6-0.8c-0.2-0.6-0.2-1.1-0.5-1.4c-0.3-0.4-0.6-0.8-0.9-0.9
				c-0.2-0.1-0.3-0.1-0.6-0.1c-0.3,0-0.6,0-0.9-0.1c-0.6-0.1-1.1-0.2-1.7-0.4c-0.3-0.1-0.6-0.3-0.8-0.5l-0.3-0.3
				c-0.1-0.1-0.2-0.2-0.4-0.3c-0.4-0.4-0.7-0.7-1.1-0.7c-0.2,0-0.4,0-0.8,0c-0.3,0-0.7-0.1-1-0.2c-1-0.5-2-1-2.9-1.4
				c-1-0.4-2.1-1-2.8-2.1c-0.3-0.5-0.5-1.1-0.7-1.5c-0.2-0.5-0.4-0.8-0.8-1.2c-0.4-0.3-0.8-0.6-1.2-1l-1.3-1
				c-0.9-0.7-1.6-1.6-2.3-2.5c-0.3-0.4-0.7-0.9-0.9-1.5c-0.1-0.3-0.2-0.5-0.2-0.8c-0.1-0.3-0.1-0.4-0.3-0.8
				c-0.1-0.3-0.1-0.6-0.2-0.8c0-0.2-0.2-0.4-0.4-0.6c-0.3-0.5-0.5-1-0.9-1.3c-0.4-0.3-0.9-0.6-1.4-0.8c-0.5-0.2-1-0.2-1.6-0.2v-0.1
				c0.5,0,1.1,0,1.6,0.1c0.5,0.2,1,0.4,1.5,0.7c0.5,0.4,0.7,0.9,1,1.3c0.1,0.2,0.4,0.4,0.5,0.7c0.1,0.3,0.1,0.6,0.2,0.8
				c0.1,0.2,0.2,0.5,0.3,0.8c0.1,0.3,0.2,0.5,0.3,0.8c0.2,0.5,0.5,0.8,0.8,1.3c0.7,0.8,1.4,1.6,2.2,2.2l1.3,1c0.4,0.3,0.9,0.6,1.4,1
				c0.4,0.4,0.9,0.9,1.1,1.4c0.2,0.5,0.4,1,0.7,1.4c0.5,0.8,1.4,1.2,2.4,1.7c1,0.4,2,0.9,2.9,1.4c0.4,0.2,0.7,0.1,1.5,0.1
				c0.4,0,0.8,0.2,1,0.4c0.3,0.2,0.5,0.4,0.6,0.6c0.1,0.1,0.2,0.2,0.3,0.2l0.3,0.2c0.2,0.1,0.4,0.3,0.6,0.3c0.4,0.1,1,0.3,1.5,0.4
				c0.3,0,0.5,0.1,0.8,0.1c0.2,0,0.7,0,1,0.2c0.7,0.3,1.1,0.9,1.4,1.3c0.4,0.5,0.4,1.2,0.6,1.6c0.1,0.4,0.5,0.5,1,1
				c0.3,0.2,0.4,0.5,0.6,0.7c0.1,0.2,0.3,0.3,0.5,0.5c0.2,0.2,0.4,0.5,0.5,0.8c0.1,0.3,0.2,0.6,0.2,1c-0.2,1.4-1.2,2.1-1.9,2.9
				c-0.7,0.8-1.5,1.7-2.6,2.2c-0.5,0.3-1,0.4-1.5,0.7c-0.4,0.2-0.9,0.6-1.4,0.8c-0.5,0.2-1.1,0.4-1.7,0.3c-0.6-0.1-1.1-0.4-1.5-0.3
				c-0.3,0-0.6,0-0.9-0.1c-0.4-0.2-0.5-0.6-0.5-0.9c0-0.1,0-0.3,0-0.4c0-0.1-0.1-0.2-0.1-0.4c0-0.4,0.1-0.6,0-0.8
				c-0.1-0.2-0.2-0.5-0.1-0.8c0-0.3,0-0.6,0-0.8c0-0.2-0.1-0.5-0.1-0.8c0-0.3-0.1-0.5-0.2-0.8c-0.1-0.3-0.2-0.5-0.2-0.8
				c0-0.3-0.1-0.5-0.3-0.6c-0.4-0.4-0.8-0.6-1.3-0.8c-0.5-0.2-1-0.5-1.5-0.6c-0.2-0.1-0.5,0-0.8-0.1c-0.3,0-0.5,0-0.7,0
				c-0.2,0.1-0.4,0.2-0.7,0.4c-0.1,0.1-0.2,0.1-0.4,0.2l-0.4,0.2c-0.5,0.2-1,0.5-1.4,0.7c-0.2,0.1-0.3,0.3-0.6,0.5
				c-0.1,0.1-0.3,0.2-0.4,0.2c-0.1,0-0.3,0.1-0.4,0.1c-0.5,0.2-1.2,0.2-1.8,0c-0.6-0.2-1.1-0.4-1.6-0.9c-0.2-0.2-0.4-0.5-0.5-0.8
				c-0.1-0.1-0.1-0.3-0.1-0.4c0-0.1-0.1-0.2-0.1-0.4c-0.2-0.5-0.4-0.9-0.7-1.3l-0.1-0.2c0,0,0-0.1-0.1-0.1c-0.1-0.1-0.2-0.1-0.3-0.2
				c-0.1-0.1-0.3-0.2-0.4-0.4c-0.2-0.2-0.2-0.4-0.2-0.4c0,0,0,0-0.2-0.2c-0.2-0.2-0.3-0.4-0.3-0.6c-0.1-0.4,0-0.7-0.1-0.7
				c0.1,0.1-0.1-0.1-0.4-0.1c-0.3-0.1-0.5-0.1-0.9-0.3c-0.3-0.2-0.6-0.5-0.7-0.9c-0.1-0.4,0-0.7,0.1-1c0.1-0.5,0.1-1,0.1-1.6
				c0-1.1,0-2.2,0.1-3.3c0-0.3,0-0.5,0-0.7c0-0.2-0.1-0.4-0.2-0.7c-0.1-0.3-0.1-0.5-0.3-0.7c-0.1-0.2-0.3-0.5-0.4-0.7l-0.6-1.5
				c-0.2-0.6-0.3-1.1-0.3-1.7c0-1.1,0.1-2.2,0.1-3.3c0-0.5,0.1-1.1,0.3-1.6c0.1-0.3,0.2-0.5,0.2-0.8c0-0.1,0.1-0.3,0.2-0.4
				c0.1-0.1,0.2-0.2,0.2-0.3L503.6,26.5z"/>
		</g>
		<g>
			<path class="st2" d="M508.6,51c-0.6,0-2.5,0-3,0c-1.1,0-1.4,0.6-2,1.5c-0.2,0.3-0.4,0.6-0.5,0.9c-0.2,0.4-0.3,0.8-0.5,1.2
				c-0.3,0.7-0.6,1.4-0.8,2.1c-0.2,0.6-0.4,1.3-0.5,1.9c-0.1,0.4,0,0.8-0.1,1.2c-0.1,0.5,0,1.1,0,1.7c-0.1,0.8-0.4,1.6-0.3,2.5
				c0,0.3-0.1,0.6-0.1,0.9c-0.1,0.4,0,0.9-0.1,1.3c-0.4,2-0.9,3.9-1.4,5.8c-0.2,0.9-0.4,1.9-0.6,2.8c-0.1,0.2-0.1,0.5-0.2,0.8
				c-0.1,0.6-0.3,1-0.5,1.6c-0.5,1.8-1.2,3.6-1.9,5.3c-0.2,0.4-0.3,0.8-0.5,1.2c-0.1,0.3-0.3,0.5-0.4,0.8c-0.1,0.4,0,0.8-0.1,1.2
				c-0.1,0.6-0.1,1-0.4,1.6c-0.4,0.7-0.8,1.4-1.1,2.2c-0.3,0.7-0.6,1.4-0.8,2.1c-0.2,0.4-0.2,0.9-0.3,1.3c-0.1,0.4-0.2,0.8-0.3,1.2
				c-0.2,0.9-0.7,1.8-0.8,2.8c-0.4,2.1-1,4.2-1,6.4c0,0.4,0,0.7,0,1.1c0,0.3-0.1,0.6-0.2,0.9c-0.1,0.4-0.1,0.7-0.2,1.1
				c-0.1,0.5-0.1,0.9-0.2,1.4c-0.3,1.5-0.5,3-0.5,4.5c0,0.8-0.2,1.7-0.3,2.5c-0.1,0.6,0.1,1.3,0,1.9c-0.1,0.6-0.2,1.3-0.3,1.9
				c-0.2,1-0.6,1.8-1.2,2.7c-0.2,0.2-0.3,0.5-0.5,0.7c-0.2,0.3-0.3,0.9-0.5,1.1c-0.2,0.2-0.7,0.3-0.9,0.5c-0.3,0.2-0.6,0.5-1,0.6
				c-0.3,0.1-0.7,0.1-1,0.2c-0.4,0.2-0.8,0.4-1.3,0.5c-0.5,0.1-0.9,0.2-1.4,0.3c-0.5,0.1-0.9,0.4-1.5,0.5c-0.8,0.1-1.7,0-2.5,0
				c-1,0-2.1-0.5-3-0.1c-1.2,0.5-1.7,1.8-2.4,2.7c-0.2,0.3-0.5,0.6-0.7,0.9c-0.1,0.1-0.1,0.2-0.2,0.4c-0.1,0.2-0.4,0.6-0.4,0.8
				c0,0.4,0.6,0.7,0.9,0.7c0.6,0,0.9-0.7,1.3-1c0.3-0.3,0.7-0.8,1-1.1c0.3-0.2,0.8-0.3,1.2-0.5c0.7-0.3,1.2-0.3,2-0.3
				c-0.8-0.1-1.7,0.8-2.1,1.4c-0.5,0.6-1,1.1-1.3,1.8c-0.2,0.4-0.5,1.2,0,1.5c0.4,0.2,0.5-0.1,0.7-0.3c0.2-0.4,0.5-0.7,0.8-1
				c0.2-0.3,0.4-0.6,0.7-0.8c0.4-0.2,0.8-0.2,1.2-0.2c0.7,0,1.4,0,2,0c0.6,0,1.2-0.3,1.7-0.5c0.3-0.1,0.6-0.3,0.9-0.4
				c0.3-0.1,0.7-0.1,0.9-0.3c-0.4,0-0.9,0.2-1.3,0.3c-0.5,0.1-0.9,0.4-1.3,0.7c-0.5,0.3-0.8,0.7-1.2,1.1c-0.3,0.3-1,0.7-1.2,1.1
				c0.2,0.2,0.6,0.5,0.9,0.6c0.3,0.1,0.6,0,0.9,0c0.7,0,1.3-0.4,1.9-0.5c1.5-0.3,2.6-1.3,4.1-1.6c0.7-0.2,1.5-0.2,2.2-0.3
				c0.8-0.1,1.4-0.7,2-1.2c0.6-0.5,1.3-1,1.8-1.6c0.3-0.3,0.5-0.7,0.7-1.1c0.2-0.4,0.1-0.7,0.2-1.1c0.1-0.4,0.3-0.8,0.5-1.2
				c0.2-0.4,0.3-0.8,0.5-1.3c0.5-1.3,1-2.7,1.4-4.1c0.5-1.5,0.7-3.1,1.2-4.5c0.5-1.2,1-2.5,1.7-3.7c1.3-2.4,2.2-5.1,2.8-7.8
				c0.3-1.6,0.8-3.1,1.2-4.6c0.5-1.9,0.8-3.8,1.3-5.6c0.5-1.8,1.2-3.6,1.7-5.4c0.6-1.8,1.2-3.6,2-5.3c0.7-1.4,1.1-2.9,1.9-4.2
				c0.5-0.8,1-2.2,1.9-2.5c0.3,0.2,0.4,0.5,0.6,0.8c0.3,0.3,0.6,0.5,0.9,0.7c0.6,0.5,1.1,1.1,1.6,1.8c0.3,0.5,0.9,1.1,1.3,1.5
				c0.5,0.6,0.9,1.2,1.2,1.9c0.5,0.9,0.8,1.9,1.1,2.9c0.3,0.8,0.2,1.6,0.3,2.4c0.1,0.7,0.2,1.4,0.3,2.1c0.3,1.4,0.1,3,0.1,4.4
				c0,2.4,0,4.7,0,7.1c0,1.3,0.1,2.7-0.3,4c-0.1,0.6-0.1,1.1-0.4,1.6c-0.1,0.3-0.5,1.3-0.2,1.6c0.5-0.1,1-0.3,1.6-0.4
				c0.6-0.2,1.3-0.3,1.9-0.4c0.7-0.1,1.4-0.2,2-0.4c0.8-0.3,1.6-0.5,2.3-0.8c0.9-0.3,1.7-0.9,2.6-1.2c0.8-0.3,1.5-0.7,2.2-1.1
				c0.4-0.2,0.9-0.4,1.2-0.7c0.3-0.2,0.4-0.4,0.8-0.5c0.7-0.2,1.4-0.6,2-1c0.4-0.2,0.7-0.5,1.1-0.8c0.4-0.3,0.9-0.5,1.4-0.8
				c1.1-0.8,2.2-1.5,3.3-2.2c0.4-0.2,0.7-0.5,1-0.8c0.2-0.2,0.5-0.4,0.7-0.7c0.4-0.5,0.4-1.2,0.3-1.8c0-0.7-0.2-1.4-0.2-2
				c0-1,0-2,0-2.9c0-1,0.1-2,0.2-3c0-1,0-1.9,0.2-2.9c0.2-0.9,0.5-1.7,0.8-2.6c0.3-0.8,0.5-1.5,0.7-2.3c0.4-1,0.8-2,1-3.1
				c0.1-0.5,0.2-1.1,0.3-1.6c0.1-0.4,0-0.8,0.1-1.2c0.1-0.4,0.1-0.7,0.1-1c0-0.4,0.2-0.7,0.2-1.1c0.1-1.4-1.2-2-2.3-2.5
				c-0.9-0.5-2-0.6-3-0.8c-0.9-0.2-1.8-0.3-2.7-0.3c-0.9,0-1.9,0.1-2.8,0.3c-0.5,0.1-0.9,0.3-1.4,0.3c-0.5,0.1-1,0.1-1.5,0.2
				c-0.8,0.2-1.5,0.6-2.3,0.8c-0.7,0.2-1.2,0.2-1.9,0.2c-0.5,0-1.1,0.1-1.6,0c-1-0.2-2.1-0.8-3.1-1.2c-1.3-0.5-2.6-0.9-4-1.3
				c-1.2-0.3-2.4-0.7-3.7-0.7c-0.6,0-1.1-0.2-1.8-0.2c-0.6,0-1.3,0-1.9,0c-0.5,0-1.1,0.3-1.2,0.8c-0.1,0.3,0.1,0.7,0.2,1
				c0.1,0.4,0.2,0.8,0.3,1.2c0.2,0.6,0.4,1.2,0.4,1.9c0,0.4,0.2,1.3,0,1.6c-0.2-0.4-0.4-0.7-0.5-1.1c-0.2-0.5-0.4-1.1-0.6-1.5
				c-0.3-0.6-0.3-1.2-0.5-1.7c-0.2-0.4-0.4-0.8-0.4-1.3c-0.2-1.1,1.3-1.7,2.2-1.9c1.2-0.2,2.5-0.1,3.6,0c0.6,0,1.1,0.2,1.6,0.3
				c0.7,0.1,1.3,0.2,2,0.3c1.5,0.1,3.1,0.3,4.6,0.7c1,0.3,2,0.8,3,0.9c1.2,0.2,2.3,0.2,3.5,0c0.7-0.1,1.3-0.1,2-0.1
				c1,0,1.9-0.3,2.9-0.4c1.6-0.1,3.2,0,4.8,0c0.9,0,1.7,0,2.7,0.2c0.4,0.1,0.8,0.3,1.2,0.3c1,0.1,0.4-0.7,0.2-1.3
				c-0.6-1.6-0.6-3.5-0.6-5.2c0-0.7-0.1-1.4,0.1-2.1c0.1-0.5,0.7-1.2,0.6-1.7c-0.1-0.7-1.9-1.3-2.5-1.6c-0.6-0.3-0.9-0.6-1.6-0.8
				c-0.6-0.2-1.3-0.3-1.9-0.6c-0.5-0.3-0.9-0.8-1.2-1.3c-0.3-0.4-0.5-1-0.7-1.5c-0.1-0.3-0.1-0.7-0.2-1c-0.1-0.2-0.4-0.5-0.4-0.8
				c0-0.3,0-0.3,0.2-0.4c0.5-0.1,0.9-0.1,1.4-0.2c0.5,0,1-0.1,1.6-0.2c2.2-0.2,4.4,0.1,6.5,0.8c0.7,0.2,1.4,0.6,2.1,0.9
				c0.6,0.2,1.1,0.5,1.7,0.7c0.5,0.2,0.9,0.5,1.3,0.8c0.5,0.2,1,0.4,1.4,0.6c0.6,0.3,1.2,0.8,1.7,1.2c0.7,0.4,1.4,0.8,2,1.2
				c0.4,0.3,0.9,0.3,1.1,0.9c0.3,0.8,0.4,1.6,0.8,2.3c0.4,0.7,0.7,1.3,0.9,2c0.2,0.9,0.1,2,0,3c-0.1,1.1-0.4,2.2-0.6,3.3
				c-0.6,2.1-0.8,4.3-1.1,6.4c-0.1,0.9-0.2,1.8-0.3,2.7c-0.2,1.2-0.1,2.4-0.1,3.7c0,0.9-0.4,1.9-0.6,2.8c-0.3,1.1-0.7,2.2-0.9,3.3
				c-0.2,1.2-0.8,2.2-1.2,3.3c-0.1,0.4-0.3,0.7-0.5,1.1c-0.4,0.8-0.6,1.9-0.8,2.8c-0.4,1.4-0.8,2.7-1.3,4c-0.3,0.8-0.4,1.5-0.6,2.3
				c-0.2,0.9-0.5,1.8-0.7,2.7c-0.1,0.7-0.4,1.8-0.7,2.4c-0.3,0.4-0.6,0.7-1,1c-0.5,0.4-0.8,0.9-1.3,1.3c-0.5,0.5-1.1,1-1.6,1.5
				c-0.6,0.6-1.3,1.1-1.9,1.6c-1.2,0.9-2.5,1.4-3.8,2.1c-1.1,0.6-2.2,1.4-3.4,1.8c-1.4,0.4-2.9,0.3-4.3,0.7
				c-1.2,0.3-2.5,0.4-3.7,0.6c-0.6,0.1-1.1,0.1-1.7,0.1c-0.7,0-1.3,0.2-2,0.2c-1.2,0-2.5,0.1-3.7,0.3c-0.8,0.1-1.8,0.2-2.5,0.6
				c-0.9,0.5-1.8,0.8-2.8,1.1c-1.3,0.4-2.3,0.8-3.5,1.5c-0.6,0.4-1.2,0.7-1.8,1.1c-0.8,0.5-1.7,0.8-2.4,1.4
				c-0.6,0.4-1.2,0.7-1.8,1.1c-0.4,0.2-0.7,0.6-1.1,0.8c-0.4,0.2-0.8,0.3-1.2,0.4c-0.8,0.2-1,0.7-1.5,1.3c-0.1,0.2-0.3,0.3-0.5,0.5
				c-0.2,0.4-0.3,0.8-0.8,0.8c-0.8,0-0.7-0.7-0.5-1.1c0.3-0.6,0.4-1.2,0.5-1.8c-0.3,0.3-0.5,0.7-0.7,1.1c-0.2,0.3-0.3,0.9-0.7,0.9
				c-0.5-0.2-0.7-1.3-0.8-1.8c-0.1-0.5-0.1-1.2,0-1.6c0-0.2,0.2-0.5,0.2-0.7c0-0.3,0-0.4-0.1-0.7c-0.1-0.5-0.1-0.9-0.1-1.4
				c0-0.6-0.3-1.3-0.2-1.9c0.1-0.3,0.2-0.5,0.3-0.7c0.2-0.3,0.2-0.6,0.4-0.8c0.6-1,2.2-1.5,3.2-2c0.3-0.1,0.5-0.2,0.8-0.3
				c0.4-0.2,0.8-0.5,1.2-0.7c0.5-0.3,1-0.6,1.6-0.8c1.9-0.5,3.7-1.1,5.6-1.4c1.5-0.2,3-0.4,4.4-0.8c0.8-0.2,1.5-0.8,2.3-0.8
				c0,0,5.7-19.6-6.1-31.7c-5-5.1-1.3-25.6-1.3-25.6"/>
			<path class="st3" d="M508.6,51c-1.1,0-2.2,0-3.3,0c-0.5,0.1-1,0.4-1.3,0.9c-0.3,0.5-0.6,0.9-0.9,1.4c-0.4,1-0.9,2-1.2,3.1
				c-0.2,0.5-0.3,1.1-0.5,1.6c-0.2,0.5-0.1,1.1-0.2,1.6c-0.1,0.5-0.1,1.1-0.1,1.6c0,0.6-0.1,1.1-0.2,1.7c0,0.3-0.1,0.5-0.1,0.8
				c0,0.3,0,0.6-0.1,0.8c-0.1,0.3-0.1,0.5-0.1,0.8c0,0.3,0,0.6,0,0.9c-0.4,2.2-1,4.3-1.5,6.5l-0.7,3.2c-0.1,0.6-0.3,1.1-0.5,1.6
				c-0.1,0.5-0.3,1.1-0.5,1.6c-0.4,1.1-0.8,2.1-1.2,3.1l-0.6,1.5c-0.1,0.3-0.3,0.5-0.3,0.7c-0.1,0.2,0,0.5,0,0.8
				c0,0.1,0,0.3-0.1,0.5l-0.1,0.4c0,0.3-0.1,0.6-0.2,0.8c-0.2,0.6-0.5,1-0.8,1.5c-0.3,0.5-0.4,1-0.6,1.5l-0.6,1.5
				c-0.2,0.5-0.2,1-0.4,1.6c-0.1,0.5-0.2,1.1-0.4,1.6l-0.5,1.6c-0.2,0.5-0.2,1-0.4,1.6c-0.5,2.2-0.9,4.3-0.8,6.5
				c0,0.3-0.1,0.6-0.2,0.9c0,0.2-0.1,0.5-0.1,0.8c-0.1,0.3-0.2,0.5-0.2,0.8c0,0.3,0,0.5-0.1,0.8c-0.2,1.1-0.4,2.2-0.4,3.3
				c0,0.6,0,1.1,0,1.7c0,0.6-0.1,1.1-0.2,1.7c-0.1,0.6-0.1,1-0.1,1.6c0,0.3,0,0.6-0.1,0.9l-0.1,0.8c-0.1,0.5-0.2,1.1-0.3,1.7
				c-0.2,0.6-0.4,1.1-0.7,1.6c-0.3,0.5-0.6,1-0.9,1.4c-0.1,0.2-0.2,0.5-0.3,0.8c-0.1,0.1-0.2,0.3-0.4,0.4c-0.2,0.1-0.3,0.2-0.4,0.2
				c-0.3,0.1-0.4,0.2-0.6,0.4c-0.2,0.2-0.5,0.4-0.8,0.5c-0.3,0.1-0.6,0.1-0.9,0.2c-0.2,0-0.4,0.2-0.7,0.3c-0.5,0.2-1.1,0.4-1.7,0.5
				c-0.6,0.1-1,0.3-1.5,0.5c-0.6,0.2-1.2,0.2-1.8,0.2l-1.7,0c-1.2-0.1-2.2-0.5-3,0.1c-0.8,0.5-1.2,1.6-1.9,2.5l-0.5,0.7
				c-0.1,0.1-0.1,0.1-0.2,0.3c-0.1,0.2-0.2,0.3-0.2,0.4c-0.1,0.1-0.1,0.2-0.2,0.3c0,0,0,0.1,0,0c0,0,0,0,0,0c0,0.1,0.2,0.2,0.4,0.3
				c0.2,0,0.2,0,0.4-0.1c0.2-0.1,0.3-0.4,0.5-0.6c0.4-0.4,0.7-0.8,1.2-1.3c0.3-0.2,0.6-0.3,0.9-0.4c0.1,0,0.2-0.1,0.3-0.1
				c0.1-0.1,0.3-0.1,0.4-0.2c0.6-0.2,1.2-0.2,1.8-0.2l0,0.8c-0.5,0-1,0.4-1.5,0.8c-0.1,0.1-0.2,0.2-0.3,0.4l-0.3,0.4
				c-0.2,0.3-0.4,0.5-0.6,0.8c-0.2,0.3-0.3,0.5-0.4,0.8c-0.1,0.3-0.1,0.6-0.1,0.7c0,0,0,0,0,0c0,0,0.1,0,0,0c-0.1,0-0.1,0,0-0.1
				c0.2-0.3,0.5-0.7,0.7-0.9c0.2-0.3,0.3-0.5,0.6-0.8c0.1-0.2,0.3-0.4,0.6-0.5c0.2-0.1,0.5-0.1,0.7-0.1c0.7,0,1.4,0,2.1,0
				c0.4,0,0.6,0,0.9-0.1c0.3-0.1,0.6-0.2,0.9-0.3c0.3-0.1,0.6-0.3,1-0.4c0.4-0.1,0.8-0.2,0.8-0.2l0.3,0.8c-0.2,0-0.8,0.3-1.3,0.4
				c-0.4,0.1-0.8,0.5-1.2,0.7c-0.4,0.3-0.7,0.6-1.1,1c-0.4,0.4-0.9,0.7-1,0.9l-0.1-0.5c0.1,0.1,0.6,0.4,0.7,0.4c0.1,0,0.3,0,0.4,0
				l0.3,0c0.1,0,0.1,0,0.2,0c0.3,0,0.6-0.2,1-0.3c0.2-0.1,0.4-0.1,0.6-0.2c0.2,0,0.3-0.1,0.5-0.1c1.3-0.4,2.6-1.4,4.2-1.6
				c0.8-0.1,1.5-0.1,2.1-0.4c0.6-0.3,1.1-0.8,1.7-1.3c0.6-0.4,1.1-0.9,1.5-1.5c0.2-0.3,0.4-0.6,0.5-0.9c0.1-0.2,0.1-0.6,0.2-1.1
				c0.1-0.4,0.3-0.8,0.5-1.1c0.2-0.3,0.3-0.6,0.4-1c0.3-0.7,0.5-1.4,0.8-2.1l0.7-2.1c0.2-0.7,0.4-1.4,0.6-2.1
				c0.2-0.7,0.3-1.5,0.6-2.2c0.3-0.7,0.6-1.4,0.9-2.1c0.3-0.7,0.6-1.4,1-2c0.3-0.6,0.7-1.3,1-2c0.6-1.3,1-2.7,1.4-4.2
				c0.4-1.4,0.7-2.9,1.1-4.3c0.4-1.4,0.8-2.9,1.1-4.3c0.3-1.5,0.6-2.9,1.1-4.4c0.4-1.4,1-2.8,1.4-4.2c0.5-1.4,1-2.8,1.6-4.2
				c0.3-0.7,0.6-1.4,0.9-2c0.3-0.7,0.6-1.4,0.9-2.1c0.3-0.7,0.7-1.3,1.1-2c0.4-0.6,0.8-1.4,1.6-1.7l0.1-0.1l0.1,0.1
				c0.4,0.3,0.5,0.7,0.7,0.9c0.2,0.2,0.5,0.4,0.8,0.7c0.6,0.5,1.1,1.1,1.5,1.7c0.4,0.6,0.9,1.1,1.4,1.7c0.5,0.6,0.9,1.2,1.2,1.9
				c0.3,0.7,0.6,1.4,0.8,2.1l0.4,1c0.1,0.4,0.2,0.8,0.2,1.1c0,0.4,0,0.7,0.1,1.1c0.1,0.4,0.1,0.7,0.1,1.1c0.1,0.7,0.3,1.4,0.3,2.2
				c0,1.5-0.1,2.9-0.1,4.4l0,4.4c0,1.5,0.1,2.9-0.1,4.4c0,0.4-0.1,0.7-0.2,1.1c-0.1,0.3-0.1,0.7-0.2,1.1c-0.1,0.4-0.3,0.7-0.3,1.1
				c-0.1,0.3-0.2,0.7,0,0.9l-0.2-0.1c0.5-0.1,0.9-0.2,1.4-0.4c0.5-0.1,1-0.2,1.5-0.3c1-0.2,2-0.3,2.9-0.7c0.9-0.4,1.9-0.6,2.8-1.1
				c0.4-0.2,0.9-0.5,1.4-0.7c0.5-0.2,0.9-0.4,1.4-0.6c0.4-0.2,0.9-0.5,1.3-0.7c0.5-0.2,0.9-0.4,1.3-0.7c0.2-0.2,0.5-0.3,0.7-0.4
				c0.2-0.1,0.5-0.2,0.7-0.3c0.4-0.2,0.9-0.5,1.3-0.7c0.4-0.2,0.8-0.6,1.2-0.9c0.4-0.3,0.9-0.5,1.3-0.8c0.8-0.6,1.7-1.1,2.5-1.7
				c0.4-0.3,0.9-0.5,1.2-0.8c0.2-0.2,0.4-0.3,0.6-0.5c0.2-0.2,0.4-0.3,0.5-0.5c0.3-0.3,0.3-0.8,0.3-1.3c0-0.5-0.1-1-0.1-1.5
				c-0.1-1-0.1-2-0.1-3.1c0-1,0-2,0.1-3c0.1-1,0-2,0.1-3c0.1-1,0.5-2,0.8-3c0.4-0.9,0.6-1.9,1-2.9c0.4-0.9,0.7-1.9,0.9-2.8l0.2-1.5
				c0.1-0.4,0-1,0.1-1.5l0.1-0.7c0-0.3,0.1-0.5,0.1-0.8c0.1-0.5,0-0.9-0.2-1.3c-0.5-0.7-1.5-1.1-2.4-1.5c-0.9-0.3-1.9-0.5-2.9-0.7
				c-1.9-0.4-4-0.2-5.9,0.4c-0.5,0.1-1.1,0.1-1.5,0.2c-0.5,0.1-0.9,0.2-1.4,0.4c-0.9,0.4-2,0.7-3,0.7c-0.5,0-1,0-1.5,0
				c-0.6,0-1.1-0.2-1.6-0.4c-1-0.4-1.8-0.8-2.8-1.1c-0.9-0.3-1.9-0.6-2.9-0.9c-1-0.2-1.9-0.6-2.9-0.7c-0.5-0.1-0.9,0-1.5-0.1
				c-0.5-0.1-1-0.2-1.5-0.1l-1.5,0c-0.4,0-0.8,0.2-1,0.5c-0.1,0.2-0.1,0.2,0,0.5c0.1,0.2,0.2,0.5,0.2,0.7l0.4,1.5
				c0.1,0.5,0.2,1.1,0.2,1.6l0.1,0.8c0,0.3,0.1,0.5-0.1,0.9l-0.3,0.6l-0.3-0.6c-0.1-0.3-0.3-0.6-0.4-0.9c-0.1-0.4-0.2-0.6-0.4-0.9
				c-0.1-0.3-0.3-0.6-0.4-0.9c-0.1-0.4-0.2-0.7-0.3-1c-0.1-0.6-0.6-1.2-0.6-2c-0.1-0.5,0.1-0.9,0.4-1.2c0.3-0.3,0.6-0.5,0.9-0.7
				c0.7-0.3,1.4-0.4,2.1-0.4c0.7,0,1.4,0,2.1,0c0.3,0,0.7,0,1.1,0c0.4,0.1,0.7,0.1,1,0.2c0.6,0.1,1.3,0.2,2,0.3
				c1.3,0.1,2.7,0.2,4.1,0.5c1.4,0.2,2.6,1,3.9,1.1c1.3,0.2,2.6,0.1,3.9-0.1c0.7-0.1,1.4,0,2-0.1c0.6-0.1,1.3-0.2,2-0.3
				c1.4-0.1,2.7,0,4.1,0c1.3,0,2.7-0.1,4.2,0.3c0.3,0.1,0.6,0.2,0.8,0.2c0,0,0.1,0,0.1,0c0,0-0.1,0.1-0.1,0.1c0,0,0-0.1-0.1-0.3
				c-0.3-0.6-0.5-1.4-0.6-2c-0.2-1.4-0.2-2.8-0.2-4.1c0-0.7-0.1-1.4,0.2-2.2c0.1-0.4,0.3-0.7,0.4-0.9c0.1-0.1,0.1-0.3,0.1-0.4
				c0-0.1,0,0-0.1-0.1c-0.3-0.3-1-0.6-1.6-0.9c-0.3-0.1-0.7-0.3-0.9-0.5c-0.3-0.2-0.6-0.3-0.8-0.4c-0.6-0.2-1.2-0.3-2-0.6
				c-0.8-0.3-1.2-1-1.6-1.6c-0.2-0.3-0.4-0.7-0.5-1l-0.2-0.5c-0.1-0.2-0.1-0.4-0.2-0.6c0-0.2-0.1-0.3-0.1-0.5c0-0.1,0-0.1-0.1-0.1
				l-0.1-0.2c-0.1-0.1-0.3-0.4-0.3-0.7l0-0.1c0-0.1,0-0.2,0.1-0.4c0.1-0.2,0.2-0.2,0.2-0.2l0.1-0.1l0.1-0.1l0.1,0l2.1-0.2l1-0.1
				c0.4,0,0.7-0.1,1.1-0.1c1.4,0,2.8,0.2,4.2,0.5c0.7,0.2,1.3,0.3,2,0.6c0.7,0.3,1.2,0.6,1.9,0.8c0.7,0.3,1.3,0.5,1.9,0.9
				c0.3,0.2,0.6,0.4,0.8,0.5c0.3,0.1,0.6,0.2,0.9,0.4c0.7,0.3,1.3,0.7,1.8,1.1c0.5,0.4,1.1,0.7,1.7,1.1c0.3,0.2,0.6,0.4,0.9,0.5
				c0.3,0.1,0.7,0.3,1,0.7c0.1,0.1,0.1,0.2,0.2,0.3l0.1,0.3l0.2,0.5c0.1,0.3,0.2,0.7,0.3,0.9c0.2,0.6,0.6,1.1,0.9,1.8
				c0.3,0.7,0.4,1.5,0.4,2.2c0,0.7,0,1.4-0.1,2.1c-0.1,0.7-0.2,1.4-0.4,2.1c-0.8,2.6-1,5.3-1.4,8l-0.3,2c-0.1,0.6-0.1,1.3-0.1,2
				c0,0.7,0,1.3,0,2.1c-0.1,0.7-0.3,1.4-0.5,2.1c-0.4,1.3-0.8,2.6-1.1,3.9c-0.2,0.7-0.5,1.4-0.8,2c-0.1,0.3-0.3,0.6-0.4,0.9
				c-0.1,0.3-0.3,0.7-0.5,1c-0.6,1-0.7,2.5-1.2,3.8c-0.2,0.7-0.4,1.3-0.6,2c-0.2,0.7-0.5,1.3-0.6,1.9c-0.2,0.6-0.3,1.3-0.5,2
				c-0.2,0.7-0.4,1.3-0.5,2c-0.1,0.6-0.3,1.4-0.5,2c-0.1,0.3-0.2,0.7-0.5,1c-0.2,0.4-0.5,0.6-0.8,0.8c-0.5,0.4-0.9,0.9-1.4,1.4
				c-0.5,0.5-1,1-1.5,1.4c-0.5,0.5-1,1-1.6,1.4c-0.5,0.4-1.1,0.9-1.7,1.2c-1.2,0.7-2.5,1.2-3.6,1.9c-0.6,0.4-1.2,0.7-1.8,1
				c-0.7,0.3-1.4,0.5-2.1,0.6c-0.7,0.1-1.4,0.1-2,0.2c-0.3,0-0.7,0.1-1,0.2c-0.3,0.1-0.7,0.1-1,0.2c-0.7,0.1-1.4,0.2-2,0.3
				c-0.6,0.1-1.4,0.2-2.1,0.2c-0.7,0-1.3,0.1-2,0.2c-0.8,0-1.4,0-2,0.1c-0.7,0-1.3,0.1-2,0.2c-0.7,0.1-1.3,0.2-1.9,0.4
				c-0.3,0.1-0.5,0.2-0.9,0.4c-0.3,0.2-0.6,0.3-1,0.4c-0.6,0.3-1.4,0.5-2,0.6c-1.3,0.4-2.4,1-3.6,1.7c-0.6,0.3-1.1,0.7-1.8,1.1
				c-0.6,0.3-1.2,0.6-1.7,1c-0.6,0.5-1.3,0.8-1.8,1.1c-0.5,0.3-1,0.9-1.8,1.1c-0.4,0.1-0.7,0.2-0.9,0.3c-0.2,0.1-0.4,0.3-0.6,0.5
				c-0.2,0.2-0.4,0.5-0.7,0.8c-0.1,0.1-0.2,0.2-0.3,0.3c-0.1,0.1-0.1,0.3-0.3,0.5c-0.1,0.2-0.4,0.4-0.7,0.4c-0.3,0-0.5,0-0.7-0.1
				c-0.3-0.1-0.5-0.5-0.5-0.7c0-0.3,0-0.5,0.1-0.7c0.3-0.7,0.5-1.2,0.5-1.9l0.7,0.3c-0.2,0.3-0.4,0.6-0.6,1
				c-0.1,0.2-0.1,0.3-0.3,0.6c-0.1,0.2-0.3,0.5-0.7,0.6l-0.1,0l-0.1-0.1c-0.5-0.3-0.6-0.7-0.7-1c-0.1-0.3-0.2-0.7-0.2-1
				c-0.1-0.3-0.1-0.7-0.1-1c0-0.4,0-0.6,0.1-1.1c0.1-0.4,0.2-0.5,0.2-0.7c-0.1-0.3-0.2-0.7-0.2-1c0-0.3,0-0.7,0-0.9
				c0-0.3-0.1-0.6-0.2-0.9c0-0.3-0.1-0.7,0.1-1.1c0.2-0.5,0.4-0.6,0.5-0.9c0.1-0.3,0.3-0.7,0.5-0.9c0.2-0.3,0.5-0.5,0.8-0.7
				c0.6-0.4,1.2-0.6,1.8-0.9l0.4-0.2c0.2-0.1,0.3-0.1,0.5-0.2c0.2,0,0.3-0.1,0.4-0.2l0.4-0.2c0.6-0.3,1.1-0.6,1.7-1
				c0.7-0.3,1.3-0.4,1.9-0.6c1.2-0.3,2.5-0.7,3.8-1c1.3-0.3,2.6-0.4,3.8-0.6c0.6-0.1,1.3-0.2,1.8-0.4c0.6-0.2,1.1-0.6,1.9-0.6
				l-0.3,0.2c1.2-4.8,1.7-9.8,1.2-14.8c-0.5-4.9-1.9-9.8-4.8-13.9c-0.7-1-1.5-2-2.4-2.9c-0.9-1-1.4-2.2-1.8-3.4
				c-0.7-2.4-0.8-5-0.9-7.5c0-5,0.6-10,1.4-14.9l0.1,0c-0.8,4.9-1.2,9.9-1.2,14.9c0.1,2.5,0.3,5,0.9,7.4c0.4,1.2,0.8,2.3,1.7,3.2
				c0.9,0.9,1.7,1.9,2.4,2.9c3,4.1,4.5,9.1,5,14.1c0.5,5,0.1,10.1-1.2,15l-0.1,0.2l-0.2,0c-0.5,0-1.1,0.3-1.7,0.6
				c-0.7,0.3-1.3,0.3-1.9,0.5c-1.3,0.2-2.6,0.4-3.8,0.6c-1.2,0.3-2.5,0.6-3.7,1c-0.6,0.2-1.3,0.3-1.8,0.6c-0.5,0.3-1.1,0.6-1.7,0.9
				l-0.4,0.2c-0.1,0.1-0.4,0.2-0.5,0.2c-0.2,0.1-0.3,0.1-0.4,0.1l-0.5,0.2c-0.6,0.2-1.2,0.5-1.7,0.8c-0.3,0.2-0.5,0.3-0.7,0.5
				c-0.2,0.2-0.3,0.4-0.4,0.7c-0.1,0.4-0.4,0.7-0.4,0.8c-0.1,0.2-0.1,0.5,0,0.8c0,0.3,0.1,0.6,0.2,1c0,0.4,0,0.7,0,1
				c0,0.3,0.1,0.5,0.2,0.9c0.2,0.4-0.1,1-0.2,1.1c0,0.2-0.1,0.6-0.1,0.8c0,0.3,0,0.6,0.1,0.9c0.1,0.3,0.1,0.6,0.2,0.9
				c0.1,0.3,0.2,0.5,0.3,0.6l-0.2,0c0,0,0.1,0,0.2-0.2c0.1-0.2,0.1-0.4,0.3-0.6c0.2-0.4,0.4-0.8,0.7-1.1l0.8-1l-0.1,1.3
				c-0.1,0.7-0.3,1.5-0.6,2.1c0,0.1-0.1,0.2-0.1,0.3c0,0.1,0,0.1,0.1,0.1c0,0,0.2,0.1,0.3,0c0,0,0.1,0,0.1-0.1
				c0.1-0.1,0.1-0.2,0.2-0.4c0.1-0.2,0.3-0.4,0.4-0.5c0.2-0.2,0.4-0.5,0.6-0.8c0.2-0.3,0.6-0.6,0.9-0.8c0.4-0.2,0.7-0.2,1-0.3
				c0.5-0.1,1-0.6,1.6-1c0.6-0.4,1.2-0.6,1.7-1c0.6-0.5,1.2-0.8,1.8-1.1c0.6-0.3,1.1-0.7,1.7-1c1.2-0.7,2.4-1.4,3.8-1.8
				c0.7-0.2,1.3-0.4,1.9-0.6c0.3-0.1,0.6-0.3,0.9-0.4c0.3-0.1,0.6-0.3,1-0.4c0.7-0.2,1.4-0.3,2.1-0.4c0.7-0.1,1.4-0.2,2.1-0.2
				c0.7-0.1,1.4,0,2-0.1c0.6-0.1,1.4-0.2,2.1-0.2c0.7,0,1.3-0.1,2-0.2c0.7-0.1,1.3-0.2,2-0.3c0.3-0.1,0.7-0.1,1-0.2
				c0.4-0.1,0.7-0.1,1.1-0.2c0.7-0.1,1.4-0.1,2-0.2c0.7-0.1,1.3-0.2,1.8-0.5c0.6-0.3,1.1-0.6,1.7-1c1.2-0.8,2.5-1.2,3.6-1.9
				c0.6-0.3,1.1-0.7,1.6-1.1c0.5-0.4,1-0.8,1.5-1.3c0.5-0.5,1-0.9,1.5-1.4c0.4-0.5,0.9-1,1.4-1.5c0.3-0.2,0.5-0.4,0.6-0.6
				c0.1-0.2,0.3-0.5,0.4-0.8c0.2-0.6,0.3-1.2,0.5-1.9c0.1-0.7,0.3-1.4,0.5-2c0.2-0.6,0.3-1.3,0.5-2c0.2-0.7,0.5-1.3,0.7-2
				c0.2-0.6,0.4-1.3,0.6-1.9c0.2-0.7,0.4-1.3,0.5-2c0.2-0.7,0.4-1.4,0.7-2c0.2-0.3,0.3-0.5,0.4-0.9c0.1-0.3,0.3-0.7,0.4-1
				c0.3-0.6,0.6-1.2,0.7-1.8c0.2-1.3,0.7-2.7,1.1-4c0.2-0.7,0.4-1.3,0.4-1.9c0.1-0.6,0-1.3,0-2c0-0.7,0-1.4,0.1-2.1l0.3-2
				c0.4-2.7,0.7-5.5,1.5-8.1c0.2-0.6,0.3-1.3,0.4-1.9c0-0.6,0.1-1.4,0.1-2c0-0.7-0.1-1.3-0.3-1.8c-0.2-0.6-0.7-1.1-0.9-1.9
				c-0.1-0.3-0.2-0.7-0.3-1l-0.1-0.5l-0.1-0.2c0,0,0-0.1-0.1-0.1c-0.1-0.1-0.3-0.3-0.7-0.4c-0.3-0.2-0.6-0.4-0.9-0.5
				c-0.6-0.4-1.2-0.7-1.8-1.1c-0.6-0.4-1.1-0.8-1.6-1c-0.3-0.1-0.6-0.2-1-0.4c-0.4-0.2-0.7-0.4-0.9-0.5c-0.5-0.3-1.2-0.6-1.8-0.8
				c-0.6-0.2-1.3-0.6-1.9-0.8c-0.6-0.2-1.2-0.4-1.9-0.6c-1.3-0.3-2.6-0.5-3.9-0.5c-0.7,0-1.3,0.1-2,0.2l-2,0.2l0.2-0.1l-0.1,0.1
				c0,0,0,0,0.1-0.1c0.1-0.2,0-0.1,0,0c0,0,0,0.1,0.1,0.2c0,0.1,0.1,0.1,0.2,0.3c0.1,0.1,0.1,0.2,0.1,0.3c0.1,0.2,0.1,0.4,0.1,0.5
				c0,0.2,0,0.3,0.1,0.4l0.2,0.5c0.1,0.3,0.3,0.6,0.4,0.8c0.4,0.5,0.8,1.1,1.2,1.2c0.5,0.2,1.2,0.3,1.9,0.6c0.3,0.1,0.7,0.3,1,0.5
				c0.3,0.2,0.5,0.3,0.9,0.4c0.6,0.3,1.3,0.5,1.9,1.1c0.2,0.2,0.3,0.5,0.3,0.8c0,0.3-0.1,0.4-0.2,0.6c-0.1,0.3-0.3,0.7-0.4,0.9
				c-0.2,0.5-0.1,1.2-0.1,1.9c0,1.4,0,2.7,0.2,4c0.1,0.6,0.3,1.3,0.5,1.8c0.1,0.2,0.2,0.3,0.2,0.7c0,0.2-0.2,0.5-0.4,0.5
				c-0.2,0.1-0.3,0.1-0.4,0.1c-0.5,0-0.8-0.1-1.2-0.2c-1.2-0.4-2.5-0.3-3.9-0.3c-1.4,0-2.7-0.1-4,0c-0.6,0-1.3,0.2-2,0.3
				c-0.7,0.1-1.4,0-2,0.1c-1.3,0.2-2.8,0.3-4.1,0.1c-1.5-0.2-2.6-1-3.9-1.2c-1.3-0.3-2.6-0.4-4-0.5c-0.7-0.1-1.4-0.1-2.1-0.3
				c-0.3-0.1-0.7-0.2-1-0.2c-0.3,0-0.6,0-1,0c-0.7,0-1.3-0.1-2,0c-0.7,0-1.3,0.1-1.8,0.4c-0.6,0.2-1,0.7-1,1.1
				c0,0.6,0.4,1.1,0.6,1.9c0.1,0.3,0.1,0.7,0.3,0.9c0.1,0.3,0.3,0.6,0.4,0.9c0.1,0.3,0.3,0.7,0.4,1c0.1,0.3,0.3,0.6,0.4,0.9l-0.6,0
				c0-0.1,0.1-0.3,0-0.5l-0.1-0.8c0-0.5-0.1-0.9-0.2-1.4l-0.4-1.5c-0.1-0.3-0.1-0.4-0.2-0.7c0-0.1-0.1-0.3-0.1-0.5
				c0-0.2,0.1-0.4,0.2-0.5c0.4-0.6,1-0.8,1.6-0.8l1.5,0c0.5,0,1.1,0.1,1.5,0.2c0.4,0,1,0,1.5,0.1c1,0.2,2,0.5,3,0.7
				c1,0.3,2,0.6,2.9,0.9c1,0.3,1.9,0.8,2.8,1.2c0.5,0.2,0.9,0.3,1.4,0.3c0.5,0,1,0,1.5,0c1,0,1.9-0.3,2.9-0.6c0.5-0.2,1-0.4,1.5-0.4
				c0.5-0.1,1-0.1,1.5-0.2c1.9-0.6,4.1-0.8,6.1-0.3c1,0.2,2,0.4,3,0.7c0.5,0.2,0.9,0.4,1.4,0.7c0.4,0.3,0.9,0.6,1.2,1
				c0.3,0.5,0.4,1.1,0.3,1.6c-0.1,0.3-0.1,0.5-0.1,0.7l-0.1,0.8c-0.1,0.5,0,1-0.1,1.5l-0.2,1.5c-0.2,1-0.5,2-0.9,2.9
				c-0.4,0.9-0.6,1.9-1,2.9c-0.3,0.9-0.7,1.9-0.8,2.9c-0.1,1,0,2-0.1,3c-0.1,1-0.1,2-0.1,3c0,1-0.1,2,0.1,3c0.1,0.5,0.1,1,0.1,1.5
				c0,0.5,0,1.1-0.4,1.6c-0.2,0.2-0.4,0.4-0.6,0.5c-0.2,0.2-0.4,0.4-0.6,0.5c-0.4,0.3-0.9,0.6-1.3,0.8c-0.9,0.5-1.7,1.1-2.5,1.6
				c-0.4,0.3-0.9,0.5-1.3,0.8c-0.4,0.3-0.8,0.6-1.2,0.9c-0.4,0.2-0.9,0.5-1.3,0.7c-0.2,0.1-0.5,0.2-0.7,0.3
				c-0.2,0.1-0.4,0.2-0.6,0.3c-0.4,0.3-0.9,0.6-1.3,0.8c-0.4,0.2-0.9,0.5-1.3,0.7c-0.4,0.2-0.9,0.4-1.4,0.6
				c-0.4,0.2-0.9,0.5-1.3,0.7c-0.9,0.5-1.9,0.7-2.8,1.1c-1,0.4-2,0.5-3,0.7c-0.5,0.1-1,0.2-1.5,0.3c-0.5,0.1-1,0.3-1.5,0.4l-0.1,0
				l-0.1-0.1c-0.2-0.2-0.2-0.5-0.2-0.7c0-0.2,0.1-0.4,0.1-0.6c0.1-0.4,0.3-0.7,0.3-1c0.1-0.3,0.1-0.7,0.2-1.1
				c0.1-0.3,0.1-0.7,0.2-1.1c0.1-1.4,0-2.9,0.1-4.4l0-4.4c0-1.5,0.1-3,0-4.4c0-0.7-0.2-1.4-0.3-2.2c0-0.4-0.1-0.7-0.1-1.1
				c-0.1-0.4-0.1-0.8-0.1-1.1c0-0.4-0.1-0.7-0.2-1l-0.4-1c-0.3-0.7-0.5-1.4-0.8-2c-0.3-0.6-0.7-1.3-1.2-1.8c-0.5-0.5-1-1.1-1.4-1.7
				c-0.4-0.6-0.8-1.2-1.4-1.6c-0.3-0.2-0.6-0.4-0.9-0.7c-0.3-0.3-0.5-0.7-0.7-0.8l0.2,0c-0.6,0.2-1,0.9-1.3,1.5
				c-0.3,0.7-0.8,1.3-1,1.9c-0.3,0.7-0.6,1.4-0.9,2c-0.3,0.7-0.6,1.4-0.9,2c-0.6,1.4-1.1,2.8-1.5,4.2c-0.4,1.4-1,2.8-1.4,4.2
				c-0.4,1.4-0.7,2.9-1,4.3c-0.3,1.5-0.7,2.9-1.1,4.4c-0.4,1.4-0.7,2.9-1.1,4.3c-0.4,1.5-0.9,2.9-1.4,4.3c-0.3,0.7-0.6,1.4-1,2
				c-0.3,0.6-0.7,1.3-1,2c-0.3,0.7-0.6,1.4-0.8,2c-0.2,0.7-0.4,1.4-0.6,2.1c-0.2,0.7-0.3,1.5-0.6,2.2l-0.7,2.1
				c-0.2,0.7-0.5,1.4-0.8,2.1c-0.1,0.3-0.2,0.7-0.4,1.1c-0.2,0.4-0.3,0.7-0.4,1c-0.1,0.3,0,0.7-0.2,1.1c-0.2,0.4-0.4,0.7-0.6,1.1
				c-0.5,0.6-1.1,1.1-1.7,1.6l-0.9,0.7c-0.3,0.2-0.6,0.5-1,0.7c-0.8,0.4-1.6,0.3-2.3,0.4c-1.4,0.1-2.5,1.1-4.1,1.6
				c-0.2,0.1-0.4,0.1-0.6,0.1c-0.2,0-0.3,0.1-0.5,0.1c-0.3,0.1-0.7,0.3-1.1,0.3c-0.1,0-0.2,0-0.3,0l-0.3,0c-0.2,0-0.4,0-0.7,0
				c-0.3-0.1-0.5-0.2-0.6-0.3c-0.2-0.1-0.3-0.2-0.5-0.4l-0.2-0.2l0.2-0.3c0.4-0.6,0.9-0.9,1.2-1.2c0.3-0.3,0.7-0.7,1.2-1.1
				c0.4-0.3,0.8-0.6,1.4-0.8c0.1,0,0.1-0.1,0.2-0.1l0.2,0l0.4-0.1c0.3-0.1,0.5-0.2,0.9-0.2l1.2,0l-1,0.8c-0.3,0.2-0.5,0.2-0.7,0.3
				c-0.2,0-0.3,0-0.4,0.1c-0.3,0.1-0.6,0.3-0.9,0.4c-0.3,0.1-0.7,0.3-1.1,0.4c-0.4,0.1-0.8,0.1-1.1,0.1c-0.7,0-1.4,0-2.1,0
				c-0.3,0-0.4,0.1-0.6,0.3c-0.1,0.2-0.4,0.6-0.6,0.9c-0.2,0.3-0.4,0.5-0.6,0.8c0,0.1-0.1,0.2-0.2,0.3c-0.1,0.1-0.3,0.3-0.5,0.3
				c-0.2,0-0.4-0.1-0.5-0.1c-0.1-0.1-0.3-0.2-0.3-0.3c-0.3-0.6-0.1-1,0-1.4c0.1-0.4,0.3-0.7,0.5-1c0.2-0.3,0.4-0.6,0.7-0.8l0.3-0.4
				c0.1-0.2,0.2-0.3,0.4-0.4c0.5-0.5,1.1-1.1,2.1-1.1l0,0.8c-0.6,0-1.1,0-1.5,0.1c-0.1,0-0.2,0.1-0.3,0.1c-0.2,0.1-0.3,0.1-0.4,0.2
				c-0.3,0.1-0.5,0.1-0.6,0.3c-0.3,0.2-0.7,0.8-1.1,1.1c-0.2,0.2-0.3,0.4-0.6,0.7c-0.1,0.1-0.3,0.2-0.5,0.3c-0.2,0.1-0.4,0.1-0.6,0
				c-0.3-0.1-0.7-0.2-0.9-0.6c-0.1-0.1-0.1-0.2-0.1-0.4c0-0.2,0-0.3,0.1-0.4c0.1-0.2,0.2-0.3,0.2-0.4c0.1-0.1,0.2-0.2,0.2-0.3
				c0-0.1,0.2-0.3,0.3-0.4l0.5-0.7c0.7-0.8,1-1.9,2.1-2.7c0.5-0.4,1.2-0.5,1.8-0.5c0.6,0,1.1,0.2,1.7,0.2c1.1,0,2.2,0.2,3.2-0.1
				c0.5-0.2,1.1-0.4,1.6-0.5c0.6-0.1,1-0.2,1.5-0.5c0.2-0.1,0.5-0.3,0.8-0.3c0.3-0.1,0.6-0.1,0.7-0.2c0.2-0.1,0.4-0.2,0.6-0.4
				c0.2-0.2,0.6-0.4,0.8-0.5c0.1-0.1,0.2-0.1,0.3-0.1c0.1,0,0.1-0.1,0.2-0.2c0.1-0.2,0.2-0.5,0.3-0.8c0.3-0.5,0.6-0.9,0.9-1.4
				c0.6-0.9,0.8-1.9,0.9-3l0.1-0.8c0.1-0.3,0.1-0.5,0.1-0.8c0-0.5,0-1.2,0.1-1.7c0.1-0.6,0.2-1.1,0.2-1.6c0-0.5,0-1.1,0.1-1.7
				c0.1-1.1,0.3-2.2,0.4-3.3c0-0.2,0-0.5,0.1-0.8c0-0.3,0.1-0.6,0.2-0.8c0.1-0.3,0.1-0.5,0.1-0.8c0.1-0.3,0.2-0.5,0.2-0.8
				c0-1.1,0-2.2,0.2-3.3c0.2-1.1,0.4-2.2,0.6-3.3c0.1-0.5,0.2-1.1,0.4-1.6l0.5-1.6c0.2-0.5,0.3-1.1,0.4-1.6c0.1-0.5,0.2-1.1,0.4-1.6
				l0.6-1.5c0.2-0.5,0.4-1.1,0.6-1.5c0.2-0.5,0.6-1,0.7-1.4c0.1-0.2,0.1-0.5,0.2-0.8l0.1-0.4c0-0.1,0-0.2,0-0.4c0-0.3,0-0.6,0.1-0.9
				c0.1-0.3,0.3-0.6,0.4-0.8l0.6-1.5c0.4-1,0.8-2,1.2-3.1c0.2-0.5,0.3-1,0.5-1.6c0.1-0.5,0.4-1.1,0.5-1.6l0.7-3.2
				c0.6-2.2,1.2-4.3,1.6-6.4c0-0.2,0-0.5,0-0.8c0-0.3,0.1-0.6,0.1-0.8c0.1-0.3,0.1-0.5,0.1-0.8c0-0.3,0.1-0.6,0.1-0.8
				c0.1-0.5,0.2-1.1,0.2-1.6c0-0.5-0.1-1.1,0.1-1.7c0.1-0.5,0.1-1.1,0.2-1.7c0.2-0.5,0.3-1.1,0.5-1.6c0.4-1.1,0.8-2.1,1.3-3.1
				c0.3-0.5,0.6-0.9,0.9-1.4c0.3-0.5,0.8-0.8,1.4-0.9C506.4,50.9,507.5,50.9,508.6,51L508.6,51z"/>
		</g>
		<g>
			<path class="st2" d="M500,124c-0.6,0.6-0.9,1.6-1.3,2.4c-0.5,0.9-1,1.8-1.4,2.8c-0.4,1-0.5,2-0.8,3c-1.9,6.8,0.6,11.9,2.8,13.1
				c14,7.5,31.4,7.1,46.6,9.7c1.6,0.3,3.1,0.1,4.7,0.5c2.1,0.6,4.2,1.1,6.4,1.5c1.1,0.2,2.3,0.3,3.4,0.5c1.4,0.2,3,0.3,4.3,0.7
				c1.3,0.3,2.7,0.7,4,1.2c0.8,0.3,1.7,0.4,2.5,0.7c0.6,0.2,0.8,0.4,1.2,0.8c0.3,0.3,1.1,0.6,1.3,1c0.2,0.4,0,1,0,1.4
				c-0.2,0.8-0.3,1.3-0.3,2.2c0,1.3,0.3,2.6,0.7,3.9c0.5,1.4,1.5,2.6,2,4c0.4,1,0.7,2,1.3,2.9c0.8,1.3,1.1,3,2.1,4.1
				c1.1,1.2,1.9,2.5,3,3.7c2.4,2.9,4.9,6,7.8,8.4c1.9,1.7,3.9,3.3,5.7,5.1c1.5,1.5,3.1,3,4.7,4.2c0.9,0.6,1.7,1.3,2.6,2
				c1.3,1,2.8,1.5,4.1,2.3c2.3,1.4,4.5,2.7,6.5,4.6c1.5,1.5,2.8,3.1,4,4.8c0.6,0.8,0.9,1.7,1.3,2.7c0.3,0.9,0.6,2.2,1.3,2.9
				c0.2-1.3,0.1-2.7,0.1-3.9c0-1.3,0-2.6,0-3.8c0-2.5,0.6-4.9,0.7-7.3c0.1-2.2,0.1-4.4,0-6.6c0-1.2-0.3-2.3-0.7-3.4
				c-0.4-1-0.4-2.1-0.7-3.2c-0.5-2.5-1.3-5.1-2.2-7.5c-0.6-1.6-1.3-3.1-2.2-4.5c-0.8-1.2-1.5-2.5-2.4-3.6c-0.3-0.5-0.7-0.9-1-1.4
				c-0.5-0.7-1.2-1.2-1.6-2c0.5-0.8,2.6-0.1,3.2-0.1c2.6,0.3,5.1,0.6,7.7,1.1c4.4,0.8,8.6,2.4,12.7,4.1c3.1,1.3,6.3,3.3,8.8,5.7
				c1.3,1.3,3.6,2.9,4.1,4.8c-0.2-0.9-0.7-1.7-1.1-2.5c-0.9-1.7-1.6-3.5-2.5-5.3c-1.1-2-1.9-4.1-3-6.1c-1.2-2-2.2-4-3.1-6.1
				c-0.8-1.7-1.4-3.6-2.6-5c-1.4-1.7-3-3.3-4.6-4.7c-3.1-2.8-6.6-5-10.3-6.8c-1.4-0.6-2.6-1.1-3.9-2c-2-1.3-3.8-2.6-6.1-3.4
				c-3.8-1.2-8.1-1.8-12.2-1.7c-3.1,0-5.8,0.3-8.8,1.4c-1.5,0.6-3,0.9-4.4,1.6c-1.5,0.6-2.9,1.1-4.4,1.5c-0.6,0.2-1.3,0.6-2,0.6
				c-1.2,0.1-2.8-1.2-3.7-1.8c-0.9-0.7-1.9-1.2-2.8-1.9c-0.8-0.6-1.3-1.2-2.2-1.7c-1.4-0.8-2.6-1.8-4.2-2.3
				c-1.6-0.5-3.1-1.1-4.6-1.8c-1.6-0.7-3-1.9-4.8-2.3c-1.7-0.4-3.4-0.7-5.2-1.2c-1.2-0.3-2.4-0.7-3.5-0.9c-0.3-0.1-4-0.5-4.2-1
				c2.6-2.5,12.6-8,13-8.6c6.8-10,4.5-16.1-3.8-35.7c-0.6-1.5,0.7-5.2,0.3-4.3c-0.5,1.4-0.5,2.7-0.7,4.2c-0.3,1.8-0.6,3.3-1.3,5
				c-1.1,2.5-2.4,5.1-3.2,7.7c-1.5,4.9-5.9,6.6-10.1,8.6c-1.5,0.7-2.5,1.4-4.2,1.5c-1.5,0.1-2.9,0.3-4.4,0.3c-2,0-4-0.1-5.9,0.3
				c-0.9,0.2-1.8,0-2.7,0.1c-1.3,0.1-2.6,0.5-3.9,0.7c-0.8,0.1-1.7,0.3-2.5,0.5c-1,0.2-2,0.9-2.9,1.3c-2.1,0.9-4.2,1.8-6,3.1
				c-0.8,0.6-1.6,1.1-2.4,1.8c-0.5,0.5-1.4,1.9-2,2"/>
			<path class="st3" d="M500,124.1c-0.6,0.7-0.8,1.6-1.3,2.4c-0.4,0.8-0.8,1.7-1.2,2.5c-0.4,0.8-0.5,1.8-0.8,2.7
				c-0.2,0.9-0.5,1.8-0.6,2.7c-0.3,1.8-0.2,3.7,0.1,5.5c0.4,1.8,1.1,3.6,2.5,4.8c0.3,0.3,0.7,0.5,1.1,0.7c0.4,0.2,0.8,0.4,1.2,0.6
				c0.8,0.4,1.7,0.8,2.5,1.1c1.7,0.7,3.5,1.3,5.2,1.8c3.6,1.1,7.2,1.8,10.9,2.4c7.3,1.2,14.8,1.7,22.1,2.7l2.8,0.4
				c0.9,0.2,1.8,0.3,2.7,0.3c0.9,0,1.9,0.1,2.8,0.3c0.9,0.2,1.8,0.5,2.7,0.7c1.8,0.4,3.6,0.9,5.4,1.1c0.9,0.1,1.9,0.2,2.8,0.4
				c0.9,0.1,1.8,0.2,2.8,0.4c1,0.2,1.8,0.4,2.7,0.7c0.5,0.1,0.9,0.3,1.3,0.4c0.5,0.1,0.9,0.3,1.3,0.4c0.8,0.3,1.8,0.2,2.8,0.9
				c0.2,0.2,0.4,0.3,0.6,0.4c0.1,0.1,0.3,0.2,0.5,0.3c0.2,0.1,0.4,0.3,0.6,0.5c0.1,0.1,0.2,0.2,0.3,0.4c0.1,0.2,0.1,0.3,0.1,0.5
				c-1,3.9,0,7.2,2.1,10.4c0.4,0.9,0.7,1.8,1.1,2.6c0.2,0.4,0.4,0.8,0.7,1.2c0.2,0.4,0.4,0.9,0.6,1.3c0.3,0.9,0.7,1.7,1.3,2.3
				c0.6,0.7,1.2,1.5,1.8,2.2c2.3,2.9,4.6,5.8,7.2,8.4c1.3,1.3,2.8,2.4,4.2,3.7c1.4,1.2,2.8,2.5,4.1,3.8c1.3,1.3,2.7,2.5,4.2,3.6
				c0.7,0.6,1.5,1.2,2.2,1.7c0.7,0.5,1.5,1,2.3,1.4c0.8,0.4,1.7,0.9,2.5,1.4c0.8,0.5,1.6,1,2.4,1.5c1.6,1,3,2.3,4.3,3.6
				c1.3,1.4,2.4,2.8,3.5,4.4c0.5,0.8,0.8,1.7,1.1,2.6c0.3,0.9,0.5,1.8,1.1,2.4l-0.4,0.1c0.3-4-0.3-8.3,0.5-12.4
				c0.3-2.1,0.4-4.1,0.3-6.2c0-1,0-2.1-0.1-3.1c0-1-0.3-2-0.6-3c-0.4-1-0.5-2.1-0.7-3.1c-0.2-1-0.4-2-0.7-3c-0.6-2-1.2-4-2-5.9
				c-0.4-1-0.8-1.9-1.4-2.8c-0.6-0.9-1.1-1.7-1.7-2.6c-0.5-0.9-1.2-1.7-1.8-2.6c-0.3-0.4-0.6-0.8-1-1.2c-0.4-0.4-0.7-0.8-1-1.2
				l-0.1-0.1l0.1-0.1c0.2-0.3,0.4-0.4,0.7-0.4c0.2-0.1,0.5-0.1,0.7-0.1c0.5,0,0.9,0.1,1.3,0.2c0.8,0.2,1.7,0.2,2.5,0.3
				c1.7,0.2,3.4,0.4,5.1,0.7c3.4,0.6,6.7,1.6,10,2.9c1.6,0.6,3.2,1.2,4.8,2c1.6,0.7,3.1,1.6,4.5,2.6c0.7,0.5,1.4,1,2.1,1.6
				c0.7,0.6,1.3,1.2,1.9,1.7c0.6,0.6,1.3,1.2,1.9,1.8c0.6,0.7,1.1,1.4,1.4,2.3l-0.6,0.1c-2.3-4.7-4.5-9.8-7.1-14.5
				c-1.4-2.4-2.5-4.8-3.6-7.3c-0.5-1.2-1.2-2.4-2-3.4c-0.9-1-1.8-2-2.8-2.9c-3.8-3.8-8.4-6.7-13.3-8.9c-0.6-0.3-1.2-0.6-1.9-0.9
				c-0.6-0.4-1.2-0.7-1.7-1.1c-1.1-0.7-2.3-1.5-3.4-2c-1.2-0.5-2.5-0.9-3.8-1.2c-1.3-0.3-2.6-0.5-3.9-0.7
				c-5.3-0.6-10.8-0.6-15.8,1.5c-1.3,0.4-2.5,0.8-3.8,1.4c-1.3,0.5-2.6,0.9-3.9,1.3c-0.6,0.2-1.2,0.6-2.1,0.6
				c-0.8-0.1-1.5-0.4-2.1-0.8c-0.6-0.4-1.2-0.8-1.7-1.2c-0.5-0.4-1.1-0.7-1.7-1.1c-0.6-0.4-1.2-0.8-1.7-1.2c-0.5-0.4-1-0.9-1.5-1.2
				c-1.2-0.7-2.3-1.5-3.4-2c-2.5-0.8-5.2-1.7-7.5-3.2c-0.6-0.3-1.2-0.6-1.7-0.9c-0.3-0.1-0.6-0.2-0.9-0.3l-1-0.2l-4-0.9
				c-1.3-0.3-2.7-0.8-3.9-1c-0.7-0.1-1.3-0.2-2-0.3c-0.3-0.1-0.7-0.1-1-0.2c-0.2,0-0.3-0.1-0.5-0.2c-0.1,0-0.2-0.1-0.3-0.1
				c-0.1-0.1-0.3-0.1-0.4-0.5l-0.1-0.3l0.2-0.2c1-1,2.2-1.7,3.3-2.5c1.1-0.8,2.3-1.5,3.4-2.2l3.5-2.1l1.7-1.1
				c0.3-0.2,0.6-0.4,0.8-0.5c0.1-0.1,0.2-0.2,0.3-0.2l0.3-0.4c1.5-2.2,2.7-4.6,3.2-7.2c0.6-2.6,0.4-5.2-0.1-7.8
				c-0.5-2.6-1.4-5.2-2.3-7.7c-0.9-2.5-1.9-5-3-7.5l-1.6-3.7c-0.1-0.3-0.3-0.6-0.4-1c-0.1-0.4-0.1-0.8-0.1-1.1
				c0-0.7,0.1-1.4,0.3-2.1c0.1-0.3,0.2-0.7,0.2-1l0.1-0.2c0,0,0,0,0,0c-0.2,0,1.3,0.4,0.7,0.2c0,0,0,0,0,0l0,0.1
				c-0.1,0.1-0.1,0.3-0.1,0.5c-0.2,0.6-0.3,1.3-0.3,1.9c-0.1,1.3-0.3,2.7-0.6,4c-0.3,1.3-0.8,2.6-1.4,3.9c-0.6,1.2-1.1,2.5-1.7,3.7
				c-0.3,0.6-0.5,1.2-0.7,1.9c-0.2,0.6-0.4,1.3-0.7,1.9c-0.6,1.3-1.4,2.4-2.4,3.4c-2,1.9-4.6,3-7,4.2c-1.2,0.5-2.4,1.3-3.8,1.6
				c-0.7,0.2-1.4,0.2-2,0.2l-2,0.2c-1.4,0.1-2.7,0-4.1,0c-0.7,0-1.3,0-2,0.1c-0.7,0-1.3,0.2-2,0.2c-0.7,0-1.4-0.1-2,0
				c-0.7,0-1.3,0.2-2,0.3c-1.3,0.3-2.7,0.4-4,0.7c-1.3,0.2-2.4,1.1-3.7,1.5c-1.2,0.5-2.5,1.1-3.7,1.7c-1.2,0.6-2.3,1.5-3.3,2.3
				c-0.5,0.4-1,0.9-1.4,1.4c-0.4,0.5-0.8,1.1-1.5,1.4l0-0.1c0.6-0.2,1-0.8,1.4-1.3c0.4-0.5,0.9-1,1.4-1.4c1.1-0.8,2.1-1.6,3.3-2.3
				c1.2-0.7,2.4-1.2,3.7-1.8c1.3-0.5,2.4-1.3,3.8-1.6c1.3-0.3,2.7-0.5,4-0.8c0.7-0.1,1.3-0.3,2-0.3c0.7-0.1,1.4,0,2,0
				c0.6,0,1.3-0.2,2-0.3c0.7-0.1,1.4-0.1,2-0.1c1.4,0,2.7,0.1,4,0l2-0.2c0.7-0.1,1.4-0.1,2-0.2c1.3-0.3,2.4-1,3.7-1.6
				c2.4-1.2,4.9-2.3,6.8-4.1c0.9-0.9,1.7-2,2.2-3.2c0.2-0.6,0.4-1.2,0.7-1.9c0.2-0.6,0.5-1.3,0.7-1.9c0.5-1.3,1.1-2.5,1.6-3.7
				c0.6-1.2,1.1-2.4,1.3-3.7c0.3-1.3,0.5-2.6,0.6-4c0.1-0.7,0.2-1.4,0.3-2.1c0-0.2,0.1-0.3,0.2-0.5l0-0.1l0-0.1
				c-0.6-0.2,0.9,0.2,0.7,0.2l0,0.1l-0.1,0.3c-0.1,0.3-0.2,0.6-0.2,1c-0.1,0.6-0.2,1.3-0.2,1.9c0,0.3,0,0.6,0.1,0.9
				c0.1,0.2,0.3,0.6,0.4,0.9l1.6,3.7c1.1,2.5,2.1,5,3,7.5c0.9,2.5,1.8,5.1,2.4,7.8c0.6,2.7,0.8,5.5,0.2,8.2
				c-0.6,2.7-1.9,5.2-3.4,7.5l-0.3,0.4c-0.2,0.2-0.4,0.4-0.5,0.5c-0.3,0.2-0.6,0.4-0.9,0.6l-1.7,1.1l-3.5,2.1
				c-1.1,0.7-2.3,1.4-3.4,2.2c-1.1,0.7-2.2,1.5-3.2,2.4l0.1-0.5c-0.1-0.2-0.1-0.1,0-0.1c0,0,0.1,0,0.2,0.1c0.1,0.1,0.3,0.1,0.4,0.1
				c0.3,0.1,0.6,0.1,1,0.2c0.7,0.1,1.3,0.2,2,0.3c1.4,0.3,2.7,0.7,4,1l3.9,0.9l1,0.2c0.3,0.1,0.7,0.2,1,0.3c0.7,0.3,1.3,0.6,1.9,0.9
				c0.6,0.3,1.2,0.7,1.7,1c0.6,0.3,1.2,0.5,1.8,0.8c0.6,0.3,1.2,0.5,1.9,0.7c0.6,0.2,1.3,0.4,1.9,0.7c1.3,0.6,2.4,1.4,3.6,2.1
				c0.6,0.4,1.2,0.9,1.7,1.3c0.5,0.4,1,0.8,1.6,1.2c0.6,0.4,1.1,0.7,1.7,1.1c0.6,0.4,1.1,0.8,1.6,1.1c0.5,0.3,1.1,0.6,1.7,0.7
				c0.5,0,1.1-0.3,1.8-0.5c1.4-0.4,2.6-0.8,3.8-1.3c0.6-0.2,1.2-0.5,1.9-0.8c0.6-0.2,1.3-0.4,1.9-0.7c1.3-0.4,2.5-1,3.9-1.2
				c1.3-0.3,2.7-0.5,4.1-0.6c2.7-0.1,5.5-0.1,8.2,0.3c1.4,0.2,2.7,0.4,4,0.7c1.3,0.3,2.7,0.7,3.9,1.3c1.3,0.6,2.4,1.3,3.6,2.1
				c0.6,0.4,1.1,0.8,1.7,1.1c0.6,0.3,1.2,0.6,1.8,0.9c5,2.2,9.6,5.3,13.5,9.1c1,1,1.9,2,2.8,3c0.9,1,1.6,2.3,2.1,3.6
				c1,2.5,2.2,4.9,3.5,7.3c2.6,4.8,4.7,9.7,7.1,14.7l-0.6,0.1c-0.2-0.8-0.7-1.5-1.2-2.1c-0.6-0.6-1.2-1.2-1.8-1.8
				c-0.7-0.6-1.3-1.2-1.9-1.7c-0.6-0.6-1.3-1.1-2-1.6c-1.4-1-2.9-1.9-4.4-2.6c-1.5-0.7-3.2-1.3-4.8-2c-3.2-1.2-6.5-2.3-9.9-2.9
				c-1.7-0.3-3.4-0.5-5.1-0.8c-0.8-0.1-1.7-0.2-2.6-0.4c-0.4-0.1-0.8-0.2-1.2-0.2c-0.4,0-0.9,0-1,0.3l0-0.2c0.2,0.4,0.6,0.8,1,1.2
				c0.4,0.4,0.7,0.8,1,1.2c0.6,0.8,1.2,1.7,1.8,2.6c0.5,0.9,1.1,1.7,1.7,2.6c0.5,0.9,1,1.9,1.4,2.8c0.8,2,1.4,3.9,2,5.9
				c0.3,1,0.5,2,0.7,3.1c0.2,1,0.3,2.1,0.7,3c0.3,1,0.6,2,0.6,3.1c0,1,0.1,2.1,0.1,3.1c0,2.1,0,4.2-0.3,6.3c-0.1,1-0.3,2.1-0.4,3.1
				c-0.1,1,0,2.1-0.1,3.1c0,1,0,2.1,0,3.1c0,1,0.1,2.1-0.1,3.2l-0.1,0.5l-0.3-0.3c-0.8-0.8-0.9-1.7-1.2-2.6
				c-0.3-0.9-0.6-1.7-1.1-2.5c-1-1.5-2.2-3-3.5-4.3c-1.3-1.4-2.7-2.5-4.2-3.5c-0.8-0.5-1.6-1-2.4-1.5c-0.8-0.5-1.6-0.9-2.4-1.3
				c-0.8-0.4-1.7-0.8-2.5-1.4c-0.7-0.6-1.5-1.2-2.2-1.7c-1.5-1.1-2.9-2.3-4.3-3.6c-1.3-1.3-2.6-2.6-4.1-3.8
				c-1.4-1.2-2.9-2.4-4.2-3.7c-2.7-2.6-5-5.5-7.4-8.5c-0.6-0.7-1.1-1.5-1.7-2.1c-0.7-0.7-1.1-1.7-1.5-2.5c-0.2-0.4-0.3-0.9-0.5-1.3
				c-0.2-0.4-0.5-0.8-0.7-1.2c-0.4-0.9-0.7-1.8-1.1-2.6c-0.4-0.8-0.9-1.6-1.4-2.4c-0.5-0.9-0.7-1.8-0.9-2.7
				c-0.2-0.9-0.4-1.9-0.3-2.9c0-0.5,0.1-1,0.2-1.4c0.1-0.5,0.2-0.9,0.2-1.3c0-0.1,0-0.1,0-0.2c0,0,0-0.1-0.1-0.1
				c-0.1-0.1-0.3-0.2-0.5-0.4c-0.2-0.1-0.4-0.2-0.6-0.4c-0.2-0.1-0.4-0.3-0.5-0.4c-0.6-0.4-1.6-0.5-2.5-0.7
				c-0.5-0.1-0.9-0.3-1.3-0.5c-0.4-0.1-0.9-0.3-1.3-0.4c-0.9-0.2-1.8-0.5-2.7-0.7c-0.9-0.2-1.8-0.3-2.7-0.4
				c-0.9-0.1-1.8-0.3-2.8-0.4c-1.9-0.2-3.7-0.7-5.5-1.1l-2.7-0.7c-0.9-0.2-1.8-0.2-2.7-0.3c-0.9,0-1.9-0.2-2.8-0.4l-2.8-0.4
				c-7.3-1.1-14.8-1.6-22.1-2.9c-3.7-0.6-7.3-1.4-10.9-2.5c-1.8-0.5-3.6-1.2-5.3-1.9c-0.9-0.4-1.7-0.7-2.6-1.2
				c-0.4-0.2-0.8-0.4-1.2-0.6c-0.4-0.2-0.9-0.4-1.2-0.8c-1.4-1.3-2.1-3.2-2.5-5c-0.4-1.8-0.4-3.8-0.1-5.6c0.1-0.9,0.4-1.8,0.6-2.7
				c0.2-0.9,0.4-1.8,0.8-2.7c0.4-0.9,0.8-1.7,1.2-2.5C499.1,125.6,499.3,124.7,500,124.1L500,124.1z"/>
		</g>
		<g>
			<path class="st2" d="M502.7,32.3c-1.3,0.2-1.4-2.5-1.3-3.3c0-1.4,0-2.5,0.6-3.8c0.3-0.7,0.6-1.2,1.1-1.7c0.3-0.3,0.6-0.5,0.9-0.9
				c0.3-0.4,0.4-0.8,0.6-1.2c0.5-0.6,1.5-0.9,2.2-1.3c0.8-0.5,1.3-1.3,2.1-1.9c1.1-0.8,2.4-1.4,3.7-1.5c1.8-0.2,3.8,0,5.7,0
				c3.1,0,6.6-0.5,9.5,0.5c1.8,0.6,3.2,1.3,4.5,2.7c1.5,1.6,2.7,3.3,4.3,4.9c1.3,1.3,2.2,2.7,3.7,3.7c0.8,0.5,1.4,0.8,2.4,1
				c1.4,0.4,2.8,0.8,4.2,1.1c3.2,0.6,6.3,0.8,9.4,1.6c1.5,0.4,2.9,1,4.4,1.4c2,0.6,3.7,1.3,5.4,2.6c0.9,0.7,1.9,1,2.7,1.7
				c0.8,0.7,1.4,1.5,2.3,2.1c2.3,1.5,4.3,3.5,6.3,5.3c1.4,1.2,3.6,2,5.4,2c0.8,0,1.5,0.3,2.3,0.3c0.8,0.1,1.8-0.2,2.5,0.1
				c-1.1,0.6-3,0.3-4.2,0.3c-1.6,0-3.2,0.2-4.7-0.2c-1.3-0.4-2.7-0.9-3.8-1.6c-1.5-1-2.7-2.4-4.3-3.4c-2.5-1.6-5.3-2.7-8.1-3.7
				c-1.2-0.5-2.6-1.1-3.9-1.2c-0.9-0.1-3.1,0.5-3.7-0.3c1-0.2,2.6,1.2,3.3,1.7c0.9,0.6,1.9,1.5,2.8,2.3c1.6,1.4,3.3,2.7,5.1,3.9
				c1.8,1.2,3.9,2.5,6,3.2c2.2,0.8,4.5,1.2,6.7,1.7c3.1,0.7,6.3,0.9,9.4,1c4.2,0.2,8.1,2.5,11.9,4c2.1,0.8,3.9,1.8,5.7,3
				c1.6,1.1,3.1,2.2,4.9,2.9c-1.6-0.4-3-0.9-4.6-1.2c-1.7-0.3-3.6-0.6-5.3-0.7c-4.4-0.2-8.9,0.1-13.3-0.4c-1.6-0.2-3.2-0.8-4.8-1
				c-1-0.1-2.1-0.2-3-0.6c-0.7-0.3-1.2-0.7-1.9-1c-1.2-0.4-2.2-0.5-3.3-1.1c-0.8-0.4-2.3-1.1-3.2-1.2c0.7,1,2.1,1.4,3.1,1.9
				c1.5,0.7,2.9,1.4,4.5,2c1.8,0.7,3.4,1.7,5.1,2.6c1.7,0.9,3.1,1.9,4.7,3c2,1.3,4,2.5,6.1,3.7c1.2,0.7,2.4,1.3,3.7,1.8
				c0.8,0.3,1.7,0.6,2.5,0.9c-1.8,0.5-4.1,0.1-6,0.1c-2,0-4,0.1-6,0c-1.6-0.1-3-0.8-4.5-1.3c-2.5-1-4.8-2.3-7-3.7
				c-0.7-0.4-1.4-0.8-2.1-1.2c-0.8-0.4-1.3-1-2-1.5c-0.9-0.7-2-1.6-3.2-1.9c-1.2-0.3-2.5-0.3-3.7-0.5c-1.3-0.3-2.3-1.6-3.6-1.8
				c1.3,1.7,2.5,3.1,3.3,5.1c0.6,1.5,1.1,3.1,1.5,4.7c0.2,0.8,0.2,1.7,0.5,2.5c0.3,0.9,1,1.8,1.5,2.7c0.6,1,1.2,2.1,2,3
				c0.5,0.6,1.5,1.1,1.5,2c-1,0.4-2.4-1.1-3.2-1.6c-1.3-0.9-2.6-2-3.7-3.1c-0.9-0.9-1.4-1.9-2-3c-0.8-1.4-1.7-2.9-2.3-4.4
				c-0.5-1.3-1-2.8-1.4-4.1c-0.3-0.9-0.3-1.8-0.6-2.6c-0.8-1.8-1.9-3.1-3.1-4.7c-0.7-0.9-1.3-1.9-2-2.8c-1-1.3-2-2.1-3.4-3
				c-1.4-0.9-2.8-1.5-4.4-1.9c-1.1-0.3-2.3,0.1-3.4-0.3c-0.7-0.2-1.3-0.3-2-0.5c-0.6-0.2-1.4-0.8-2-0.5c-0.1,0.8,0.9,2,1.1,2.9
				c0.4,1.5,0.4,3.2,0,4.7c-0.5,2.3-0.8,4.5-0.8,6.8c0,1.5-0.2,3.4,0.1,4.9c0.5,2.5,1.6,5.3,3.4,7.2c1.4,1.5,4.2,4.3,3.6,6.6
				c-0.8-0.5-1.2-1.4-1.8-2.1c-1.1-1.2-2-2.5-3-3.7c-1.1-1.4-2.2-2.7-3.2-4.1c-0.8-1-1.5-1.8-1.9-3c-0.4-1.2-0.7-2.3-0.9-3.5
				c-0.2-1.8-0.1-3.7-0.5-5.5c-0.3-1.4-1-2.7-1.5-4.1c-0.4-0.8-0.7-1.9-1.5-2.2c-0.7,0.4-0.3,1.9-0.3,2.6c-0.2,1.3-0.3,2.4-0.3,3.7
				c0,0.8-0.1,1.7,0,2.5c0.1,0.9,0.5,1.7,0.9,2.6c-2.4-1.7-3.6-5.1-3.8-7.9c-0.1-1.2,0-2.6,0-3.8c0-1.3-0.2-2.1-0.5-3.4
				c-0.3-1.4-0.7-2.2-1.6-3.4c-0.9-1.1-1.8-1.4-3-2c-1.9-1-3.8-2.1-5.5-3.4c-0.9-0.7-1.8-0.7-2.6-1.6c-0.8-0.9-1.2-2.3-1.5-3.5
				c-0.4-1.3-1.1-2.7-1.7-4c-0.4-0.7-1.2-2.1-2-2.4c-0.4-0.1-0.9,0-1.3-0.1c-0.5-0.1-0.8-0.3-1.3-0.3c-0.8,0-1.8-0.2-2.4,0.3
				c-0.6,0.4-1.8,1.9-2,2.6C503.1,30.2,502.6,31.5,502.7,32.3"/>
			<path class="st3" d="M502.7,32.3c-0.3,0-0.6-0.1-0.8-0.3c-0.2-0.2-0.3-0.5-0.4-0.8c-0.2-0.5-0.2-1.1-0.3-1.7
				c0-1.1-0.1-2.2,0.2-3.3c0.1-0.6,0.4-1.1,0.6-1.6c0.2-0.5,0.6-1,1-1.4c0.4-0.4,0.8-0.7,1-1.3c0.1-0.3,0.2-0.5,0.4-0.8
				c0.2-0.2,0.4-0.4,0.7-0.5c0.5-0.3,1-0.5,1.4-0.8c0.4-0.3,0.8-0.7,1.2-1.1c0.8-0.8,1.8-1.4,2.8-1.8c1.1-0.4,2.2-0.5,3.3-0.6
				c1.1,0,2.2,0,3.3,0.1c2.2,0.1,4.4-0.2,6.7-0.1c2.3,0,4.5,0.7,6.5,1.8c1,0.6,1.8,1.4,2.5,2.3l2.2,2.5c0.7,0.9,1.5,1.6,2.3,2.4
				c0.7,0.8,1.4,1.7,2.3,2.4c0.8,0.7,1.8,1.2,2.8,1.4c1.1,0.3,2.1,0.6,3.2,0.9c2.1,0.5,4.3,0.7,6.5,1.1c2.2,0.3,4.4,0.8,6.5,1.6
				c1,0.4,2.1,0.7,3.2,1.1c1.1,0.4,2.1,0.9,3.1,1.5c0.5,0.3,1,0.7,1.4,1c0.4,0.3,0.9,0.5,1.4,0.8c1,0.6,1.8,1.5,2.6,2.2
				c0.4,0.4,0.8,0.6,1.3,1c0.5,0.3,0.9,0.7,1.3,1c0.9,0.7,1.7,1.4,2.5,2.2c0.8,0.7,1.7,1.5,2.5,2.1c0.9,0.6,1.9,1,2.9,1.2
				c0.5,0.1,1,0.2,1.6,0.2c0.6,0,1.2,0.1,1.7,0.2c0.5,0.1,1,0.1,1.6,0.1c0.5,0,1.1-0.1,1.8,0.1l1,0.3l-0.9,0.5
				c-0.8,0.4-1.6,0.4-2.4,0.4c-0.8,0-1.5-0.1-2.2-0.1c-1.4,0-3,0.2-4.5-0.2c-1.4-0.4-2.9-0.9-4.2-1.8c-1.3-0.9-2.3-2-3.4-2.8
				c-2.3-1.7-5.1-2.8-7.8-3.8c-1.4-0.5-2.8-1.2-4.1-1.4c-0.4-0.1-0.7-0.1-1-0.1l-1.1,0.1c-0.4,0-0.8,0-1.2,0c-0.4,0-0.9-0.1-1.2-0.5
				l-0.5-0.5l0.7-0.1c0.9-0.1,1.5,0.3,2,0.7c0.6,0.4,1.1,0.8,1.6,1.1c1.1,0.8,2,1.7,3,2.5c1.9,1.7,4,3.2,6.2,4.6
				c1.1,0.7,2.2,1.3,3.4,1.8c1.2,0.5,2.4,0.9,3.6,1.2c1.2,0.3,2.5,0.6,3.8,0.9c1.3,0.3,2.5,0.5,3.8,0.7c1.3,0.2,2.5,0.3,3.8,0.4
				c1.3,0.1,2.6,0.1,3.9,0.3c2.6,0.5,5,1.5,7.3,2.6c1.2,0.5,2.3,1,3.5,1.5c1.2,0.5,2.4,1.1,3.5,1.7c2.2,1.3,4.2,3,6.6,4l-0.1,0.3
				c-1.7-0.4-3.2-1-4.9-1.3c-1.6-0.3-3.3-0.6-5-0.6c-3.4-0.1-6.7,0-10.1-0.1c-1.7-0.1-3.4-0.1-5-0.6c-0.8-0.2-1.6-0.4-2.4-0.6
				c-0.8-0.2-1.6-0.2-2.5-0.4c-0.4-0.1-0.8-0.2-1.3-0.4c-0.4-0.2-0.8-0.4-1.1-0.6c-0.7-0.4-1.6-0.5-2.4-0.7c-0.8-0.2-1.6-0.6-2.4-1
				c-0.8-0.3-1.5-0.6-2.3-0.8l0.2-0.3c0.7,1.1,2.3,1.4,3.5,2.1c1.3,0.6,2.5,1.2,3.8,1.7c1.4,0.5,2.6,1.2,3.8,1.9
				c0.6,0.4,1.2,0.7,1.9,1c0.6,0.3,1.2,0.7,1.8,1.1c2.3,1.7,4.8,3,7.2,4.5c1.2,0.7,2.4,1.4,3.7,2c1.3,0.6,2.6,0.9,4,1.5l0.8,0.4
				l-0.9,0.2c-1.8,0.4-3.5,0.2-5.2,0.1c-1.7-0.1-3.4,0.1-5.1,0.1c-0.9,0-1.7,0-2.6-0.2c-0.9-0.2-1.7-0.5-2.5-0.8
				c-1.6-0.6-3.2-1.3-4.7-2.1c-0.8-0.4-1.5-0.8-2.2-1.3c-0.7-0.5-1.5-0.9-2.2-1.3l-1.1-0.6c-0.4-0.2-0.8-0.5-1.1-0.7
				c-0.7-0.6-1.3-1.1-2-1.6c-0.7-0.5-1.4-0.9-2.1-1.1c-0.8-0.2-1.7-0.2-2.5-0.3c-0.4-0.1-0.9-0.1-1.3-0.2c-0.5-0.1-0.9-0.4-1.3-0.6
				c-0.7-0.5-1.4-1-2.1-1.1l0.4-0.7c1.2,1.5,2.4,3,3.2,4.8c0.7,1.8,1.3,3.6,1.7,5.5c0.2,1,0.2,1.9,0.6,2.6c0.4,0.8,1,1.6,1.4,2.4
				c0.5,0.8,0.9,1.6,1.5,2.3c0.3,0.4,0.6,0.6,1,1c0.3,0.3,0.8,0.9,0.8,1.6l0,0.3l-0.3,0.1c-0.4,0.2-0.8,0.1-1.1,0
				c-0.3-0.1-0.6-0.2-0.8-0.4c-0.5-0.3-0.9-0.6-1.3-1c-0.8-0.6-1.7-1.2-2.5-1.9c-0.4-0.3-0.8-0.7-1.2-1.1c-0.4-0.3-0.8-0.7-1.1-1.2
				c-0.7-0.9-1.1-1.9-1.7-2.7c-0.5-0.9-1.1-1.8-1.5-2.8c-0.5-1-0.8-2-1.2-3c-0.3-1-0.7-1.9-1-3c-0.1-0.5-0.2-1.1-0.3-1.5
				c-0.1-0.4-0.3-0.9-0.6-1.3c-0.5-0.9-1.1-1.7-1.7-2.5c-0.6-0.8-1.2-1.7-1.8-2.5c-0.6-0.8-1.2-1.7-1.9-2.4
				c-0.7-0.7-1.5-1.3-2.4-1.9c-0.8-0.6-1.8-1-2.7-1.4c-0.5-0.2-1-0.3-1.4-0.5c-0.5-0.2-0.9-0.2-1.4-0.2c-0.5,0-1.1,0-1.7-0.1
				c-0.3-0.1-0.6-0.2-0.8-0.2c-0.2-0.1-0.5-0.1-0.7-0.2l-0.8-0.2c-0.2,0-0.6-0.2-0.8-0.3c-0.5-0.2-0.9-0.4-1.1-0.3l0.3-0.4
				c0,0.4,0.4,1.1,0.7,1.8c0.1,0.2,0.2,0.4,0.3,0.5c0.1,0.2,0.1,0.4,0.2,0.6c0.1,0.4,0.1,0.8,0.2,1.2c0.1,0.8,0.1,1.6,0,2.3
				c-0.1,0.8-0.2,1.5-0.4,2.2c-0.3,1.4-0.5,2.9-0.6,4.4c-0.1,0.7-0.1,1.5-0.1,2.2c0,0.7-0.1,1.5-0.1,2.2c0,0.7,0.1,1.4,0.2,2.1
				c0.2,0.7,0.4,1.4,0.6,2.1c0.5,1.4,1.1,2.7,2,3.8c0.8,1.1,2,2.1,2.9,3.4c0.5,0.6,0.9,1.3,1.2,2c0.3,0.7,0.5,1.6,0.3,2.5l-0.2,0.7
				l-0.6-0.4c-0.7-0.5-1.1-1.1-1.5-1.6c-0.4-0.5-0.8-1-1.2-1.6l-2.6-3.2l-2.5-3.2c-0.8-1.1-1.8-2.1-2.3-3.5
				c-0.4-1.3-0.8-2.7-0.9-4.1c-0.1-1.4-0.1-2.7-0.3-4.1c-0.2-1.3-0.6-2.5-1.2-3.8c-0.3-0.6-0.6-1.3-0.8-1.9
				c-0.3-0.6-0.6-1.2-1.1-1.4l0.3,0c-0.2,0.1-0.3,0.6-0.2,1c0,0.4,0.1,1,0,1.5c-0.1,1-0.3,1.9-0.3,2.9c0,0.9-0.1,2-0.1,2.9
				c0,0.9,0.5,1.7,0.8,2.7l0.4,1.1l-0.9-0.7c-2-1.5-3-3.8-3.6-6.1c-0.3-1.2-0.4-2.3-0.4-3.5c0-1.2,0.1-2.3,0-3.5
				c-0.1-1.1-0.4-2.3-0.7-3.3c-0.3-1.1-1-2.1-1.8-2.8c-0.8-0.7-2-1.1-3-1.7c-1-0.5-2-1.1-3-1.8c-0.5-0.3-1-0.7-1.4-1
				c-0.5-0.4-0.9-0.7-1.4-0.9c-0.5-0.2-1.1-0.5-1.5-1c-0.4-0.5-0.7-1-0.9-1.6c-0.4-1.1-0.6-2.3-1.1-3.3c-0.4-1.1-0.9-2.1-1.5-3.1
				c-0.3-0.5-0.6-1-1-1.4c-0.2-0.2-0.4-0.4-0.7-0.5c-0.2-0.1-0.5-0.1-0.8-0.1c-0.6,0-1.1-0.3-1.7-0.3c-0.6,0-1.2-0.1-1.7,0
				c-0.6,0.1-1,0.5-1.3,0.9c-0.4,0.4-0.7,0.9-1,1.4c-0.3,0.5-0.4,1.1-0.6,1.6C502.9,31.1,502.7,31.7,502.7,32.3L502.7,32.3
				c-0.1-0.6,0.1-1.2,0.2-1.8c0.2-0.5,0.3-1.1,0.6-1.6c0.3-0.5,0.7-1,1-1.4c0.4-0.4,0.8-0.9,1.4-1c0.6-0.1,1.2-0.1,1.8,0
				c0.6,0,1.2,0.3,1.7,0.3c0.3,0,0.6,0,0.9,0.1c0.3,0.1,0.5,0.3,0.8,0.5c0.4,0.4,0.8,0.9,1.1,1.4c0.6,1,1.1,2.1,1.5,3.2
				c0.5,1.1,0.7,2.3,1.1,3.3c0.2,0.5,0.5,1,0.9,1.4c0.4,0.4,0.9,0.7,1.4,0.9c0.5,0.2,1.1,0.6,1.5,0.9c0.5,0.3,0.9,0.7,1.4,1
				c1,0.6,2,1.2,3,1.7c1,0.6,2.1,0.9,3.1,1.7c0.9,0.9,1.5,1.9,1.9,3c0.2,0.6,0.3,1.1,0.5,1.7c0.1,0.6,0.3,1.1,0.3,1.7
				c0.1,1.2,0,2.4,0,3.5c0,1.1,0.1,2.3,0.4,3.4c0.5,2.2,1.6,4.4,3.4,5.7l-0.5,0.4c-0.3-0.9-0.8-1.8-0.9-2.9c-0.1-1,0.1-1.9,0-2.9
				c0-1,0.1-2,0.3-2.9c0.1-0.4,0-0.9,0-1.4c0-0.3,0-0.5,0-0.8c0-0.3,0.2-0.6,0.5-0.8l0.2-0.1l0.2,0.1c0.8,0.3,1.2,1.1,1.5,1.7
				c0.3,0.6,0.5,1.2,0.8,1.9c0.6,1.2,1.1,2.6,1.2,4c0.2,1.4,0.2,2.8,0.3,4.1c0.1,1.3,0.5,2.6,0.9,3.9c0.4,1.2,1.3,2.2,2.2,3.2
				l2.5,3.2l2.6,3.1c0.4,0.5,0.9,1,1.3,1.6c0.4,0.6,0.8,1.1,1.2,1.4l-0.7,0.3c0.3-1.2-0.5-2.5-1.3-3.7c-0.4-0.6-0.9-1.1-1.4-1.7
				c-0.5-0.5-1-1.1-1.5-1.7c-0.9-1.2-1.6-2.6-2.1-4.1c-0.2-0.7-0.4-1.5-0.6-2.2c-0.2-0.8-0.2-1.6-0.2-2.3c0-0.8,0-1.5,0.1-2.3
				c0-0.7,0-1.5,0.1-2.2c0.1-1.5,0.3-3,0.6-4.5c0.1-0.8,0.3-1.5,0.4-2.2c0.1-0.7,0.1-1.4,0-2.1c0-0.4-0.1-0.7-0.2-1
				c-0.1-0.3-0.2-0.6-0.3-0.9c-0.2-0.3-0.3-0.7-0.5-1c-0.2-0.4-0.3-0.8-0.3-1.3l0-0.3l0.3-0.1c0.4-0.1,0.8-0.1,1.1,0
				c0.3,0.1,0.6,0.2,0.8,0.3c0.3,0.1,0.4,0.2,0.7,0.2l0.8,0.2c0.5,0.1,1.1,0.3,1.5,0.4c0.4,0.1,0.9,0.1,1.5,0.1c0.5,0,1.2,0,1.7,0.2
				c0.5,0.2,1,0.3,1.5,0.5c1,0.4,2,0.9,2.9,1.5c0.9,0.6,1.8,1.2,2.5,2c0.8,0.8,1.3,1.7,2,2.5c0.6,0.9,1.2,1.7,1.8,2.5
				c0.6,0.8,1.3,1.7,1.8,2.7c0.2,0.5,0.5,1,0.6,1.6c0.1,0.6,0.2,1.1,0.3,1.5c0.3,0.9,0.7,1.9,1,2.9c0.3,1,0.6,2,1.1,2.9
				c0.5,0.9,1,1.8,1.5,2.7c0.5,0.9,1,1.9,1.6,2.6c0.3,0.4,0.7,0.7,1,1.1c0.4,0.4,0.8,0.7,1.2,1c0.8,0.7,1.6,1.2,2.5,1.9
				c0.4,0.3,0.8,0.7,1.2,0.9c0.4,0.2,0.9,0.4,1.1,0.3l-0.3,0.4c0-0.3-0.2-0.6-0.5-0.9c-0.3-0.3-0.7-0.6-1-1.1
				c-0.6-0.8-1.1-1.6-1.6-2.4c-0.4-0.8-1-1.6-1.4-2.5c-0.5-0.9-0.6-2-0.7-2.9c-0.4-1.8-1-3.6-1.7-5.3c-0.7-1.7-1.9-3.2-3-4.6
				l-0.7-0.9l1.1,0.2c1.1,0.2,1.8,0.8,2.5,1.2c0.3,0.2,0.7,0.4,1,0.5c0.3,0.1,0.8,0.2,1.2,0.2c0.8,0.1,1.7,0.2,2.6,0.3
				c0.9,0.2,1.8,0.7,2.5,1.2c0.7,0.5,1.4,1.1,2,1.6c0.3,0.3,0.6,0.5,1,0.7l1.1,0.6c0.8,0.4,1.5,0.9,2.2,1.3c0.7,0.4,1.5,0.9,2.2,1.3
				c1.5,0.8,3,1.5,4.6,2.1c0.8,0.3,1.6,0.6,2.4,0.8c0.8,0.1,1.7,0.1,2.5,0.2c1.7,0,3.4-0.1,5.2,0c1.7,0.1,3.4,0.3,5-0.1l-0.1,0.6
				c-1.2-0.6-2.6-0.9-3.9-1.5c-1.3-0.6-2.5-1.3-3.7-2.1c-2.4-1.5-4.9-2.9-7.2-4.5c-0.6-0.4-1.2-0.8-1.8-1.1c-0.6-0.3-1.3-0.7-1.9-1
				c-1.2-0.7-2.4-1.4-3.8-1.9c-1.3-0.5-2.6-1.1-3.9-1.8c-0.6-0.3-1.3-0.6-1.9-0.9c-0.6-0.3-1.3-0.7-1.7-1.4l-0.3-0.4l0.5,0.1
				c0.9,0.1,1.7,0.5,2.4,0.8c0.8,0.4,1.5,0.7,2.3,1c0.8,0.3,1.6,0.4,2.4,0.8c0.4,0.2,0.7,0.4,1.1,0.6c0.4,0.2,0.7,0.3,1.2,0.4
				c0.8,0.2,1.7,0.2,2.5,0.4c0.8,0.2,1.6,0.4,2.5,0.6c1.6,0.4,3.3,0.5,5,0.6c3.4,0.2,6.7,0,10.1,0.2c1.7,0.1,3.4,0.3,5,0.6
				c1.7,0.3,3.3,0.9,4.9,1.3l-0.1,0.3c-2.4-1-4.5-2.7-6.6-4c-2.2-1.3-4.7-2.1-7-3.2c-2.3-1-4.7-2.1-7.2-2.5
				c-1.2-0.2-2.5-0.2-3.8-0.3c-1.3-0.1-2.6-0.2-3.9-0.3c-1.3-0.2-2.6-0.4-3.8-0.7c-1.3-0.3-2.5-0.5-3.8-0.8
				c-1.3-0.3-2.5-0.7-3.7-1.2c-1.2-0.5-2.3-1.2-3.4-1.8c-2.2-1.4-4.3-2.9-6.3-4.6c-1-0.9-1.9-1.7-2.9-2.4c-0.5-0.4-1-0.8-1.6-1.1
				c-0.5-0.3-1.1-0.6-1.5-0.6l0.2-0.6c0.1,0.1,0.4,0.2,0.8,0.3c0.3,0,0.7,0,1.1,0l1.1-0.1c0.4,0,0.8,0,1.2,0.1
				c1.5,0.3,2.9,1,4.2,1.5c2.8,1,5.6,2.1,8.1,3.9c1.2,0.9,2.2,2,3.4,2.8c1.2,0.8,2.6,1.3,3.9,1.6c1.3,0.4,2.8,0.2,4.3,0.2
				c0.8,0,1.5,0.1,2.2,0.1c0.7,0,1.4,0,1.9-0.3l0.1,0.8c-0.4-0.1-0.9-0.1-1.5-0.1c-0.6,0.1-1.2,0-1.8-0.1c-0.6-0.1-1.1-0.2-1.6-0.2
				c-0.6,0-1.2-0.1-1.7-0.3c-1.1-0.3-2.2-0.7-3.2-1.4c-1-0.7-1.7-1.4-2.6-2.2c-0.8-0.7-1.6-1.5-2.5-2.2c-0.4-0.3-0.9-0.7-1.3-1
				c-0.4-0.3-0.9-0.6-1.4-1c-0.9-0.8-1.5-1.6-2.4-2.1c-0.5-0.3-1-0.5-1.4-0.9c-0.5-0.4-0.9-0.7-1.3-1c-0.9-0.6-1.9-1-2.9-1.4
				c-1-0.4-2.1-0.7-3.2-1.1c-2.1-0.8-4.2-1.2-6.4-1.6c-2.2-0.3-4.4-0.6-6.6-1.1c-1.1-0.3-2.1-0.6-3.2-0.9c-1.1-0.3-2.2-0.8-3.1-1.5
				c-0.9-0.7-1.6-1.6-2.3-2.4c-0.7-0.8-1.6-1.6-2.3-2.4l-2.1-2.6c-0.7-0.9-1.5-1.6-2.4-2.2c-0.9-0.6-1.9-1-3-1.3
				c-1-0.3-2.1-0.4-3.2-0.5c-2.2-0.1-4.4,0.1-6.7,0.1c-1.1,0-2.2-0.1-3.3-0.1c-1.1,0-2.2,0.1-3.2,0.5c-1,0.4-2,1-2.7,1.7
				c-0.4,0.4-0.8,0.8-1.3,1.1c-0.5,0.3-1,0.5-1.5,0.8c-0.5,0.3-0.9,0.6-1,1.1c-0.2,0.5-0.7,1-1.1,1.3c-0.4,0.4-0.7,0.8-1,1.3
				c-0.3,0.5-0.5,1-0.6,1.5c-0.3,1.1-0.2,2.2-0.2,3.3c0,0.6,0.1,1.1,0.2,1.6C501.8,31.7,502.1,32.3,502.7,32.3L502.7,32.3z"/>
		</g>
		<g>
			<path class="st2" d="M507.7,48.5c0,2.3,0,4.5,0,6.8c0,1,0.1,1.8-0.3,2.8c-0.4,1-1.1,1.7-1.6,2.6c-0.8,1.3-1.5,3-2,4.4
				c-0.3,0.9-0.7,1.8-0.7,2.7c-0.1,2.4-0.1,4.9,0,7.3c0.1,3.1,2,5.7,3.2,8.5c1,2.3,1.7,5,2.2,7.4c0.3,1.3,0.7,2.6,0.6,4
				c0,1.3,0,2.6,0,3.8c0,1.9-1,3.2-1.7,4.8c-0.6,1.2-0.6,2.2-0.7,3.6c0-1.9-0.2-4,0.1-5.9c0.3-2,1.1-4.2,1.7-6.1
				c0.4-1.2,0.5-2.3,0.7-3.5c0.2-1.1,0.6-2.2,0.9-3.3c0.3-1.4,0.1-2.9,0.1-4.3c0-1.5-0.6-3.1-1-4.5c-0.4-1.3-1-2.6-1.3-3.9
				c-0.2-0.9-0.7-1.8-0.4-2.7c1.1,0.7,1.6,2.3,2.3,3.3c0.6,0.9,1.1,1.8,1.6,2.7c1.1,1.9,0.3,3.7,0.4,5.9c0.2,2.9,1.3,8.1,2.1,9
				c0-1.5-0.2-2.8-0.4-4.3c-0.5-3.2-0.3-6.4-0.3-9.7c0-2.2,0.3-4.1,1-6.2c0.2-0.7,0.3-1.2,0.5-1.9c0.2-1,0.6-2,0.9-3
				c0.5-1.8,0-4.2,0.1-6c0-0.9-0.2-1.6-0.4-2.4c-0.3-1.1-0.5-2.3-0.8-3.4c-0.3-0.8-0.8-1.4-1.1-2.1c-0.4-0.8-0.7-1.5-1.3-2.2
				c-0.7-0.8-1.7-0.5-2.3-1.3C508.9,50.4,508.2,49.3,507.7,48.5"/>
			<path class="st3" d="M507.8,48.5l0.2,7.7c0,0.6,0,1.3-0.3,2c-0.3,0.6-0.6,1.2-1,1.7c-0.7,1-1.3,2.2-1.8,3.3
				c-0.5,1.1-0.9,2.4-1.3,3.6c-0.2,0.6-0.2,1.1-0.2,1.8l0,1.9c0,1.3,0,2.5,0.1,3.8c0,0.6,0,1.3,0.1,1.9c0.1,0.6,0.3,1.2,0.5,1.8
				c0.8,2.3,2.3,4.5,3.2,6.9c0.9,2.4,1.5,5,2,7.4c0.1,0.6,0.2,1.3,0.3,1.9c0,0.7,0,1.3,0,1.9l0,1.9c0,0.6,0,1.3-0.2,2
				c-0.3,1.3-1,2.4-1.6,3.5c-0.6,1.1-0.7,2.4-0.7,3.6l-0.4,0c0-1.5-0.1-2.9,0-4.4c0-1.5,0.3-2.9,0.7-4.4c0.4-1.4,0.9-2.8,1.3-4.2
				c0.3-1.4,0.3-2.9,0.8-4.3c0.2-0.7,0.4-1.4,0.5-2.1c0.1-0.7,0.1-1.4,0-2.1c-0.1-0.7-0.1-1.5-0.1-2.2c-0.1-0.7-0.2-1.4-0.4-2.1
				c-0.4-1.4-0.9-2.8-1.4-4.1c-0.3-0.7-0.5-1.5-0.6-2.1c-0.2-0.7-0.5-1.5-0.2-2.4l0.2-0.5l0.5,0.3c0.9,0.6,1.4,1.6,1.8,2.4
				c0.2,0.4,0.4,0.8,0.7,1.2c0.3,0.4,0.5,0.8,0.7,1.2l0.7,1.2c0.2,0.4,0.5,0.9,0.6,1.4c0.2,1,0.1,2,0,2.9c-0.1,0.9-0.1,1.8,0,2.7
				c0.1,0.9,0.2,1.8,0.4,2.7c0.2,0.9,0.4,1.8,0.6,2.7c0.1,0.4,0.3,0.9,0.4,1.3c0.1,0.4,0.3,0.9,0.5,1.1l-0.9,0.4c0-2-0.4-3.9-0.5-6
				c-0.2-2-0.1-4.1-0.1-6.1c0-1,0-2,0-3c0.1-1,0.2-2.1,0.4-3.1c0.2-1,0.6-2,0.8-2.9c0.1-0.5,0.2-0.9,0.3-1.5c0.1-0.5,0.3-1,0.4-1.5
				c0.3-1,0.6-1.8,0.6-2.8c0-1,0-2-0.1-3c0-0.5,0-1,0-1.5c0-0.5-0.1-0.9-0.2-1.4c-0.3-1-0.4-2-0.7-2.9c-0.1-0.5-0.2-1-0.4-1.4
				c-0.2-0.4-0.4-0.9-0.7-1.3c-0.5-0.9-0.8-1.8-1.5-2.6c-0.3-0.4-0.7-0.6-1.2-0.7c-0.2-0.1-0.5-0.2-0.7-0.3
				c-0.2-0.1-0.4-0.4-0.5-0.6C508.7,50.2,508.2,49.4,507.8,48.5L507.8,48.5c0.5,0.8,1.1,1.7,1.7,2.5c0.3,0.4,0.7,0.6,1.2,0.8
				c0.5,0.1,1,0.3,1.4,0.8c0.7,0.7,1.1,1.8,1.6,2.6c0.2,0.4,0.5,0.9,0.8,1.3c0.2,0.5,0.3,1,0.5,1.5c0.3,1,0.4,2,0.7,2.9
				c0.1,0.5,0.2,1,0.3,1.6c0,0.5,0,1,0.1,1.5c0.1,1,0.2,2,0.2,3c0,0.5,0,1-0.2,1.6c-0.1,0.5-0.3,1-0.4,1.5c-0.1,0.5-0.3,1-0.4,1.4
				c-0.1,0.5-0.2,1-0.3,1.5c-0.3,1-0.6,1.9-0.8,2.9c-0.4,1.9-0.4,3.9-0.4,5.9c0,2,0,4,0.1,6c0.2,1.9,0.6,4,0.6,6.1l0,1.5l-0.9-1.1
				c-0.4-0.5-0.6-1-0.7-1.4c-0.2-0.5-0.3-0.9-0.4-1.4c-0.2-0.9-0.4-1.9-0.6-2.8c-0.2-0.9-0.3-1.9-0.4-2.8c-0.1-0.9-0.1-2,0-2.9
				c0.1-0.9,0.2-1.8,0-2.7c-0.1-0.4-0.2-0.8-0.5-1.2l-0.7-1.2c-0.2-0.4-0.5-0.8-0.7-1.2c-0.3-0.4-0.5-0.9-0.7-1.3
				c-0.4-0.8-0.8-1.7-1.5-2.1l0.6-0.2c-0.2,0.6,0,1.2,0.2,1.9c0.2,0.8,0.4,1.4,0.6,2.1c0.5,1.4,0.9,2.8,1.3,4.2
				c0.2,0.7,0.4,1.5,0.4,2.2c0,0.8,0,1.4,0,2.2c0,0.7,0,1.5-0.1,2.2c-0.1,0.8-0.4,1.5-0.6,2.2c-0.5,1.4-0.5,2.8-0.9,4.3
				c-0.4,1.4-1,2.8-1.4,4.2c-0.4,1.4-0.7,2.8-0.7,4.3c0,1.5,0.1,2.9,0.1,4.4l-0.4,0c0-1.3,0.1-2.6,0.7-3.8c0.5-1.2,1.2-2.3,1.5-3.5
				c0.1-0.6,0.1-1.2,0.1-1.9l0-1.9c0-0.6,0-1.3-0.1-1.9c-0.1-0.6-0.2-1.2-0.3-1.8c-0.6-2.5-1.2-4.9-2-7.3c-0.8-2.4-2.3-4.5-3.2-7
				c-0.2-0.6-0.4-1.3-0.5-1.9c-0.1-0.7-0.1-1.3-0.1-2c0-1.3,0-2.6,0-3.8l0.1-1.9c0-0.6,0.1-1.4,0.3-2c0.4-1.2,0.8-2.4,1.4-3.6
				c0.5-1.2,1.2-2.3,1.9-3.4c0.4-0.5,0.7-1,1-1.6c0.3-0.5,0.3-1.1,0.3-1.8L507.8,48.5L507.8,48.5z"/>
		</g>
	</g>
</g>
</svg>
