<svg xmlns="http://www.w3.org/2000/svg" viewBox="0 0 568.15 132.47"><defs><style>.cls-1{fill:#fff;}.cls-2{fill:#010101;}</style></defs><title>interior_border</title><g id="Layer_5" data-name="Layer 5"><rect class="cls-1" x="0.82" y="1.59" width="566.34" height="129.64"/><path class="cls-2" d="M567.27,131.34l-70.45.44-70.66.32-141.66.38-71-.06-71-.31q-71-.4-141.75-.41H.36v-.46L.26,66.41,0,1.59V.77H.82L142.41.24,284,0,425.58.11l141.59.5h1v1Zm-.21-.21L566.19,1.59l1,1-141.59.5L284,3.18,142.41,2.94.82,2.41l.82-.82L1.38,66.41l-.1,64.82-.46-.46q70.75,0,141.42-.41l70.61-.31,70.63-.06,141.51.38,70.92.32Z"/></g></svg>