<svg id="Layer_1" data-name="Layer 1" xmlns="http://www.w3.org/2000/svg" viewBox="0 0 304.98 414"><defs><style>.cls-1{fill:none;}.cls-2{fill:#df5e61;}.cls-3{fill:#fff;}.cls-4{fill:#fad0ce;}.cls-5{fill:#e99992;}</style></defs><title>Artboard 1</title><rect class="cls-1" x="10.59" y="7.47" width="281.4" height="393.53"/><path class="cls-2" d="M37.3,234.29C42.6,245,49.93,254.8,55.1,265.35c5.62,11.48,8.11,24.57,12.71,36.47,1.55,4,4.57,7.81,5.81,11.85,1.43,4.64.58,10.22.57,15,0,9.63-.19,19.28,0,28.91.1,5.93,1.62,10.19,2.62,16,1.09,6.26.25,13.33.24,19.72,0,12.94,0,21.49,12.66,28.4,5.14,2.81,9.2,1.89,14.59,3,6.52,1.28,13.1,3.84,19.6,5.43,11.87,2.9,20.94,5.66,33.17,5.67h75.75c13.3,0,26.64.31,39.94.07,14.34-.26,27.61-3.65,41.19-7.25,6.32-1.67,11,.51,11.44-6.74.44-7.52-7.23-13.57-11.18-18.71-4.63-6-6.09-12-9-18.79-2.77-6.53-7-13.23-10.31-19.5-2.63-4.94-6.43-9.14-8.73-14.27-2-4.38-2.24-9-4-13.48-4.83-12.26-23.42-18.73-34.82-23.49-11.08-4.62-22.91-6.76-34-11.78-13-5.83-22.63-13.66-33.92-22C164.65,269,148.54,260.27,134,249.15c-18.64-14.25-41.23-7.9-63-9-8.28-.42-20.22-1.18-28.15-3.55-4.88-1.46-8.6-5.88-13-8.17l1.87.22"/><path class="cls-3" d="M37.43,234.22c3.93,7.6,8.8,14.66,13.25,22a113.38,113.38,0,0,1,6.18,11.34,114.08,114.08,0,0,1,4.61,12.07c1.35,4.08,2.57,8.19,3.88,12.26.65,2,1.32,4.06,2,6.06.35,1,.73,2,1.11,3a24.62,24.62,0,0,0,1.27,2.83c1,1.85,2.1,3.66,3.13,5.6a20.28,20.28,0,0,1,2.29,6.33c.76,4.48.13,8.84.14,13l.08,25.67v3.21q0,1.55.2,3.1a57.24,57.24,0,0,0,1.09,6.19c.46,2.08.95,4.19,1.33,6.34a43.26,43.26,0,0,1,.61,6.59c.1,4.37-.21,8.67-.27,12.88,0,2.12,0,4.27,0,6.37a47.06,47.06,0,0,0,.48,6.23,22.17,22.17,0,0,0,1.65,5.81A16.75,16.75,0,0,0,84,415.94a24,24,0,0,0,2.26,2l1.25.89a12.55,12.55,0,0,0,1.29.84,17.5,17.5,0,0,0,5.48,2.44,45.41,45.41,0,0,0,6.19.81,42.58,42.58,0,0,1,6.48,1.15c4.23,1,8.3,2.45,12.37,3.69,2,.63,4.06,1.18,6.14,1.7l6.22,1.61c4.14,1.06,8.28,2.07,12.46,2.79a80.17,80.17,0,0,0,12.66,1.18l12.84.11,25.69.1,51.39.07c8.56.06,17.13.1,25.68-.11a126.42,126.42,0,0,0,25.28-3.41c4.16-.94,8.29-2,12.42-3.14l3.1-.84a26.59,26.59,0,0,1,3.24-.7c1.09-.17,2.17-.27,3.21-.41a8.73,8.73,0,0,0,2.76-.69,3,3,0,0,0,1.5-1.83,8.73,8.73,0,0,0,.41-2.82,12,12,0,0,0-1.51-5.62c-1.92-3.58-4.95-6.58-7.82-9.81a37.69,37.69,0,0,1-4-5.3,45.25,45.25,0,0,1-3-5.87c-1.72-4-3.08-8-4.88-11.84s-3.91-7.5-6-11.23c-1.06-1.86-2.12-3.74-3.14-5.64a53.48,53.48,0,0,0-3.28-5.35c-2.37-3.5-5-7.09-6.59-11.39s-1.91-8.6-3.57-12.22a24,24,0,0,0-7.74-9.11A63.68,63.68,0,0,0,262,321.63c-3.8-1.84-7.73-3.44-11.7-5.05-2-.81-4-1.65-5.92-2.41s-4-1.45-6-2.12c-8.06-2.64-16.45-4.76-24.47-8.24a118.89,118.89,0,0,1-22.42-13.11c-7-5-13.67-10.36-20.72-15.13s-14.29-9.37-21.45-14.1c-3.58-2.37-7.14-4.78-10.64-7.29q-2.62-1.89-5.19-3.86c-.86-.63-1.71-1.2-2.56-1.8-.43-.29-.85-.61-1.29-.88l-1.36-.76-1.36-.76-.68-.38-.72-.31-2.86-1.25-3-1a12.23,12.23,0,0,0-1.51-.43l-1.52-.38a66.46,66.46,0,0,0-12.52-1.65c-8.48-.37-17,.28-25.64.3-4.31,0-8.62-.22-12.89-.54s-8.56-.75-12.81-1.38c-2.13-.32-4.25-.7-6.35-1.18-1.05-.24-2.1-.5-3.13-.81a14.41,14.41,0,0,1-3-1.21c-3.88-2-6.81-5.3-10.55-7.34l-.82-.45.92.12,1.87.24,0,.3-1.87-.2.1-.33c3.86,2,6.9,5.19,10.69,7.05a13.69,13.69,0,0,0,2.94,1.08c1,.28,2.06.51,3.1.72,2.09.42,4.19.75,6.31,1,4.23.52,8.49.83,12.76,1.05s8.53.42,12.79.3c8.52-.17,17.08-1,25.73-.74a68.55,68.55,0,0,1,12.94,1.48c1.06.27,2.15.43,3.18.8l3.13,1,3,1.29.76.32.73.39,1.45.79,1.45.79c.47.28.91.61,1.37.91.9.62,1.84,1.24,2.71,1.86q2.55,1.92,5.16,3.75c3.48,2.45,7,4.8,10.63,7.12,7.18,4.63,14.49,9.11,21.64,13.9s13.93,10.13,20.86,15.06A115.83,115.83,0,0,0,215.18,301c7.72,3.34,16,5.42,24.23,8.09,2.05.68,4.1,1.38,6.14,2.16s4,1.62,6,2.42c4,1.62,8,3.28,11.86,5.19a66.65,66.65,0,0,1,11.25,6.78,27,27,0,0,1,8.61,10.34c1.87,4.23,2.19,8.63,3.57,12.42s3.8,7.22,6.21,10.8a56.4,56.4,0,0,1,3.39,5.62c1,1.88,2,3.73,3.08,5.6,2.09,3.74,4.21,7.5,6,11.46s3.17,8.09,4.79,12a36.87,36.87,0,0,0,6.46,10.59c2.76,3.19,5.89,6.31,8,10.34a14.17,14.17,0,0,1,1.67,6.68,10.7,10.7,0,0,1-.59,3.49,4.28,4.28,0,0,1-.39.87,4,4,0,0,1-.56.83,3.64,3.64,0,0,1-.74.7l-.41.3-.44.23a10.5,10.5,0,0,1-3.44.85c-1.09.13-2.15.2-3.17.35a24.55,24.55,0,0,0-3,.61l-3.12.79c-4.16,1.05-8.33,2.07-12.54,3a127.87,127.87,0,0,1-25.61,3.1c-8.58.08-17.15,0-25.71-.11-17.12-.2-34.26-.15-51.39-.08l-25.69.1-12.85.1a81.74,81.74,0,0,1-12.92-1c-4.27-.66-8.48-1.61-12.65-2.61l-6.24-1.5c-2.08-.48-4.2-1-6.26-1.63-4.14-1.19-8.2-2.51-12.31-3.45a40.09,40.09,0,0,0-6.17-1,42.08,42.08,0,0,1-6.55-.8,20,20,0,0,1-6.22-2.71,14.21,14.21,0,0,1-1.4-.9c-.46-.32-.92-.63-1.37-1a26.49,26.49,0,0,1-2.54-2.24,19.33,19.33,0,0,1-3.94-5.58,24.75,24.75,0,0,1-1.89-6.49,49.6,49.6,0,0,1-.54-6.56c-.07-2.18-.07-4.31-.07-6.47,0-4.35.4-8.61.33-12.8a40.66,40.66,0,0,0-.53-6.19c-.35-2.07-.82-4.14-1.27-6.24a59.67,59.67,0,0,1-1.09-6.47c-.11-1.1-.17-2.21-.19-3.31V354.4L73,328.68c0-4.38.62-8.62,0-12.65s-3.08-7.48-5-11.39a26.66,26.66,0,0,1-1.31-3c-.37-1-.74-2-1.08-3.05-.7-2-1.34-4.09-2-6.15-1.25-4.11-2.41-8.23-3.68-12.3a124.91,124.91,0,0,0-4.33-12,112.26,112.26,0,0,0-5.83-11.36c-4.26-7.4-9-14.61-12.64-22.38Z"/><path class="cls-4" d="M323.87,265.5c-14.3,0-28.61-.06-42.91,0-11.4,0-26.24-.1-35.26-7-6.53-5-15.31-8.56-22.59-12.52-5.79-3.15-10.32-8.5-16-11.2-3.66-1.75-9.64-1.05-13.61-1.94a45.39,45.39,0,0,0-7.6-1.47c-6.92-.4-12.9-.8-19.59-3.08-5.21-1.77-10.31-4.23-15.53-6.11-8.19-2.95-9.54-2.34-15.5,3.36-10.11,9.68-26.09,0-35.72-5.57C75.8,206.09,54.13,232.9,30.76,231.3c11.37,2.73,27,2.18,37.39,7.75,8.16,4.39,3.55,8.52,6.25,15,3.49,8.35,13.38,8.86,20.85,8.66,12.42-.33,21.4.82,32.84,5.52,6.11,2.51,9.56,6.78,14.2,11.46,5.25,5.3,13.26,10.52,16.29,17.35-3.89,7.93-34.49-7.34-39.84-11.54-4.76-3.74-7.53-10.19-13.34-11.76-3.11-.84-10.34-.25-13.55.48a74.9,74.9,0,0,0,21.92,19.49c9.48,5.75,17.25,13.14,27,18.71,6.52,3.73,13,8.59,15.28,16.21,2.08,6.93.15,14,2.44,21.21,2.35,7.37,4.9,15.8,12.3,19.24,6.15,2.86,18.26,2.89,25,1.54,12.6-2.51,28.34-6.06,41.5-2.56-2.37,6.48-3.95,4.34-2.18,11.41,1.48,5.9,2.72,11.73,6.37,16.6,5.48,7.3,14.92,13,22.61,17.66,11.35,6.83,24.31,5.34,37.22,5,7.78-.18,7.85.06,8.51-7.66.46-5.35-.68-10.9-.23-16.26.38-4.58,2.49-8.49,3.09-13,.71-5.38-.15-11.58-.15-17,0-5.74-.58-11.79-.15-17.51.53-7,2.93-13.53,3.09-20.65.45-20.35-.11-40.78-.11-61.14"/><path class="cls-3" d="M323.87,265.65l-38.94.44a189.44,189.44,0,0,1-19.53-.39,59.89,59.89,0,0,1-9.72-1.65,31,31,0,0,1-9.16-3.91c-1.44-1-2.65-1.9-4-2.77s-2.72-1.68-4.12-2.46c-2.81-1.55-5.71-3-8.63-4.39s-5.84-2.79-8.74-4.52a85.67,85.67,0,0,1-7.89-5.89c-1.26-1-2.53-1.95-3.85-2.79a16.14,16.14,0,0,0-4-2c-2.88-.77-6.15-.64-9.47-.95a22.35,22.35,0,0,1-2.59-.39c-.82-.23-1.54-.41-2.33-.59a44.4,44.4,0,0,0-4.67-.78c-1.51-.13-3.19-.19-4.81-.31s-3.27-.26-4.91-.47a53.32,53.32,0,0,1-9.73-2.08c-3.16-1-6.19-2.27-9.19-3.5s-6-2.46-9-3.45a18.23,18.23,0,0,0-4.39-1,5.62,5.62,0,0,0-3.77,1.11,30.26,30.26,0,0,0-3.53,3c-.56.53-1.22,1.15-1.91,1.69a16.32,16.32,0,0,1-2.22,1.46,17.61,17.61,0,0,1-10.2,1.82,35.56,35.56,0,0,1-9.74-2.59,80,80,0,0,1-8.88-4.35c-1.43-.8-2.84-1.62-4.24-2.43-.71-.43-1.39-.78-2.08-1.15a19.86,19.86,0,0,0-2.11-1,26.67,26.67,0,0,0-9-2.1C80.23,216.89,74,218.69,68,221s-11.83,5.2-18,7.53-12.66,4.1-19.37,3.62l.25-1.65c6.22,1.49,12.71,2,19.15,3s13,2.13,18.84,5.4a10.48,10.48,0,0,1,3.83,3.36,7.09,7.09,0,0,1,1,2.45,14.43,14.43,0,0,1,.21,2.52,21.23,21.23,0,0,0,.36,4.73,11.9,11.9,0,0,0,5.21,7.43,17.17,17.17,0,0,0,4.32,1.87,35.11,35.11,0,0,0,9.51,1.07,102.33,102.33,0,0,1,19.49,1,66.35,66.35,0,0,1,9.51,2.34c1.55.51,3.09,1.05,4.61,1.65a28.73,28.73,0,0,1,4.48,2.08,36.9,36.9,0,0,1,7.6,6.25c2.29,2.34,4.48,4.68,6.93,6.78s4.94,4.21,7.28,6.51a27.51,27.51,0,0,1,5.95,7.92l.13.28-.14.26a4.46,4.46,0,0,1-2,1.9,7.58,7.58,0,0,1-2.48.66,19.08,19.08,0,0,1-4.87-.24,56.52,56.52,0,0,1-9.19-2.49,123.74,123.74,0,0,1-17.27-7.75c-1.39-.76-2.76-1.54-4.11-2.44a20.32,20.32,0,0,1-3.71-3.19c-2.2-2.34-4-4.9-6.3-6.82a10.89,10.89,0,0,0-3.72-2.13,14.56,14.56,0,0,0-4.36-.49,46.49,46.49,0,0,0-9.11.91l.61-1.66a73.89,73.89,0,0,0,17.66,16.56c.84.57,1.7,1.1,2.56,1.64s1.75,1,2.65,1.6q2.67,1.66,5.2,3.45c3.4,2.38,6.67,4.89,10,7.3a117.11,117.11,0,0,0,10.15,6.76,48.75,48.75,0,0,1,10.29,7.37,23.28,23.28,0,0,1,6.57,11.16c1,4.29.79,8.56,1,12.55a31.89,31.89,0,0,0,.74,5.84c.1.47.26.93.38,1.39l.46,1.46,1,2.9c1.32,3.81,2.88,7.53,5.36,10.41a14.26,14.26,0,0,0,4.33,3.46,19.86,19.86,0,0,0,5.45,1.71,55.31,55.31,0,0,0,11.94.7,50.42,50.42,0,0,0,6-.58c1.91-.34,4-.79,6-1.18,4-.8,8.13-1.56,12.25-2.13,8.22-1.13,16.8-1.55,25.14.59l1.66.43-.6,1.61a26.8,26.8,0,0,1-1.77,3.88c-.34.62-.7,1.19-.88,1.61a2.59,2.59,0,0,0-.19,1.3,22.13,22.13,0,0,0,.68,3.65l1,3.89c1.28,5.15,3,10,6.41,13.81a59.68,59.68,0,0,0,11.94,10.08c2.2,1.48,4.45,2.89,6.73,4.28a43.59,43.59,0,0,0,6.86,3.66,45,45,0,0,0,15.24,2.89c5.27.2,10.6-.1,16-.23,1.34,0,2.7,0,4-.1s2.52-.25,2.79-.71a7.3,7.3,0,0,0,.8-3.14c.13-1.3.28-2.65.33-3.91.23-5.17-.87-10.55-.08-16.19a62.09,62.09,0,0,1,2.13-7.9,27.6,27.6,0,0,0,.85-3.76,34.91,34.91,0,0,0,.29-3.88c.06-2.62-.08-5.28-.2-8-.06-1.34-.11-2.69-.13-4.06s0-2.67,0-4c-.09-5.33-.48-10.74.17-16.2s2.24-10.59,2.83-15.83c.15-1.32.23-2.6.26-3.95l.1-4,.14-8c.08-5.36.11-10.72.13-16.08,0-10.72,0-21.45.1-32.17h.3c.11,10.72.38,21.44.57,32.17.1,5.36.17,10.73.2,16.09,0,2.68,0,5.37,0,8l0,4c0,1.34-.07,2.73-.21,4.08-.54,5.44-2,10.63-2.6,15.87s-.11,10.56.07,15.94c.05,1.33.06,2.73.08,4s.1,2.65.18,4c.16,2.67.34,5.37.32,8.11a35.16,35.16,0,0,1-.27,4.14,29.82,29.82,0,0,1-.88,4.09,60.93,60.93,0,0,0-2,7.63c-.69,5,.41,10.38.24,15.93-.05,1.42-.18,2.73-.31,4.1-.08.69-.16,1.39-.32,2.12a5.71,5.71,0,0,1-1,2.38,4.17,4.17,0,0,1-2.43,1.4,13.51,13.51,0,0,1-2.21.28c-1.4.08-2.72.09-4.06.14-5.33.17-10.71.53-16.16.37a47.87,47.87,0,0,1-16.23-3,45.09,45.09,0,0,1-7.34-3.83c-2.3-1.4-4.59-2.83-6.85-4.34a62.55,62.55,0,0,1-12.57-10.61,26.81,26.81,0,0,1-4.51-7.16,52.35,52.35,0,0,1-2.57-7.87l-1-3.91a24.32,24.32,0,0,1-.78-4.25,5.73,5.73,0,0,1,.42-2.64,21.41,21.41,0,0,1,1-1.93,23.64,23.64,0,0,0,1.56-3.43l1.06,2c-7.68-2-15.89-1.6-23.91-.47-4,.56-8,1.32-12.06,2.12l-3,.61c-1,.2-2,.41-3.09.59a53.51,53.51,0,0,1-6.33.59,58.32,58.32,0,0,1-12.65-.81,22.85,22.85,0,0,1-6.27-2,17.32,17.32,0,0,1-5.24-4.21c-2.89-3.42-4.51-7.48-5.86-11.42l-1-3-.46-1.49c-.14-.53-.32-1.05-.42-1.59a34.76,34.76,0,0,1-.79-6.39c-.17-4.2,0-8.26-.85-12a20.44,20.44,0,0,0-5.75-9.85,46.11,46.11,0,0,0-9.7-7,110.12,110.12,0,0,1-10.34-7c-3.32-2.47-6.55-5-9.86-7.38q-2.48-1.79-5-3.43c-.84-.54-1.73-1.08-2.62-1.62s-1.76-1.12-2.62-1.72a76.13,76.13,0,0,1-18-17.26l-1-1.34,1.61-.32a48.28,48.28,0,0,1,9.59-.86c.81,0,1.61,0,2.44.12a10.19,10.19,0,0,1,2.51.51,12.82,12.82,0,0,1,4.36,2.54c2.51,2.18,4.31,4.8,6.39,7a18.52,18.52,0,0,0,3.37,3c1.26.85,2.6,1.64,4,2.4a122.92,122.92,0,0,0,16.94,7.83,55.16,55.16,0,0,0,8.92,2.53,17.8,17.8,0,0,0,4.5.28,6.3,6.3,0,0,0,2-.51,3.16,3.16,0,0,0,1.38-1.29v.54a26.33,26.33,0,0,0-5.6-7.61c-2.26-2.28-4.74-4.36-7.18-6.52-5-4.24-8.78-9.73-14.31-13a27.71,27.71,0,0,0-4.33-2c-1.5-.6-3-1.14-4.55-1.65a65.38,65.38,0,0,0-9.37-2.34,71.83,71.83,0,0,0-9.62-1c-3.23-.13-6.45,0-9.71,0a36,36,0,0,1-9.78-1.05,18.18,18.18,0,0,1-4.6-2,13,13,0,0,1-5.72-8.07,22.22,22.22,0,0,1-.41-4.95,7.84,7.84,0,0,0-1-4.37,9.39,9.39,0,0,0-3.45-3,34.67,34.67,0,0,0-8.93-3.35,88.9,88.9,0,0,0-9.51-1.67c-6.41-.85-12.91-1.27-19.35-2.72l.25-1.65c6.33.37,12.6-1.41,18.55-3.76s11.77-5.31,17.85-7.77,12.57-4.45,19.38-4.16A29.16,29.16,0,0,1,96.45,217a22.12,22.12,0,0,1,2.29,1.07c.74.39,1.5.79,2.19,1.2,1.4.81,2.8,1.62,4.21,2.39a77.47,77.47,0,0,0,8.61,4.18,33,33,0,0,0,9,2.37,15,15,0,0,0,8.68-1.55,13.64,13.64,0,0,0,1.84-1.22c.58-.46,1.1-1,1.72-1.54a32.24,32.24,0,0,1,3.91-3.26,8.36,8.36,0,0,1,5.4-1.53,20.54,20.54,0,0,1,5.07,1.16c3.14,1,6.17,2.32,9.16,3.57s6,2.5,9,3.48a50.82,50.82,0,0,0,9.27,2c1.58.21,3.18.36,4.78.48s3.18.2,4.9.35a46.78,46.78,0,0,1,4.92.85c.8.18,1.65.4,2.39.61A20.9,20.9,0,0,0,196,232c3.13.33,6.44.17,9.87,1.08a12.23,12.23,0,0,1,2.46,1c.76.39,1.48.83,2.19,1.28,1.41.91,2.73,1.92,4,2.94a92.62,92.62,0,0,0,7.64,5.83c2.65,1.63,5.62,3.06,8.5,4.53s5.81,2.93,8.66,4.55c1.42.82,2.83,1.67,4.2,2.58s2.71,2,4,2.82a29.33,29.33,0,0,0,8.62,3.8,58.34,58.34,0,0,0,9.44,1.72c6.4.67,12.89.64,19.38.72l38.94.44Z"/><path class="cls-5" d="M137.22,257.63c-2.18,2-1.42,7.51-.5,9.88,1.46,3.72,5.61,6.16,9.11,7.95,1.69.86,3.46,1.23,5.18,1.94,2.7,1.11,3.64,2.49,5.71,4.37a34.51,34.51,0,0,1,4.16,4.16c1.81,2.24,4.29,2.89,6.25,4.94,3,3.14,5,7.29,8,10.49,1.6,1.74,4.23,2.58,5.58,4.48,1.2,1.69,2.27,4,3.42,5.84.94,1.5.87,3.08,1.56,4.61.91,2,3.34,2.63,5.1,3.93a103.13,103.13,0,0,1,10.29,9.34c1.75,1.7,9.92,5.77,6.85,9-3.22,3.44-8.45-2.13-11.61-2.73-2.87-.55-2.55.3-4.17-1.47-2-2.2-2.47-2.3-5.49-3.18-3.21-.94-8-4.95-10.11-.12-1.11,2.59-2.15,7.88-1.52,10.71,1.07,4.85,7.85,6.11,11.63,8.08,4.29,2.23,9.1,1.86,13.32,4.29a160,160,0,0,1,13.6,8.61c3.63,2.63,10.19.95,15.19,1.95,2.16.43,8.5,1.46,9.75,3.25,1.75,2.5-5,7.92-1.25,9,2.42.69,3,4,5,5.38,1.83,1.24,3.67,1.73,5.59,2.78,4,2.2,6.51,7.28,11.21,8.19,4.51.87,7.23-1.72,9.19,4,.73,2.12,1.07,5.64,2.45,7.54,1.61,2.21,6.58,4.16,9,5,4.24,1.49,8.64,2.13,13,3.19,5,1.21,9,2.85,14.4,2.13,2.51-.34,3.52-1.53,5.53-3,1.85-1.34,4-1.61,6-2.81a45.66,45.66,0,0,0,5.74-4.26c2.79-2.54,2.61-5.11,2.55-8.78-.06-4.42.2-8.88,0-13.29-.1-2.46-1.08-3.63-2.07-5.79-1.5-3.25-1.67-6.14-4.31-8.78a17.67,17.67,0,0,1-3.11-4.21c-.94-1.64-2.68-3.23-3.14-5-.69-2.62,1-4.91-1.82-6.22-1.7-.79-4.33,0-5.67-1.84-2.39-3.23,1.07-8.65-.7-12.07-1.2-2.32-4.2-1.82-6.28-2.32-2.76-.66-4.78-2.84-7.08-4.47-5.92-4.2-11-8.83-14.77-15.16-1.45-2.44-2.18-5-5.12-5.63-1.57-.36-3.82,0-5.43.06-5.36.05-8.32,4.65-13.44,5.71-5,1-10.57-1.09-12.59-6-1.08-2.59.11-5.37-2-7.28-2.88-2.66-6.15-.58-9.19-1.8-2.05-.83-3.22-3.66-4.46-5.26-2.76-3.55-5.17-4.52-9-6.6-5.64-3.06-9.09-9.29-12.74-14.32-1.88-2.59-4.81-4.68-7.07-7-2.87-2.94-5.07-6.33-8-9.2"/><path class="cls-3" d="M137.32,257.74a3.86,3.86,0,0,0-1,1.89,9.05,9.05,0,0,0-.25,2.19,16.89,16.89,0,0,0,.62,4.39c.72,2.88,3,5,5.49,6.55a39.63,39.63,0,0,0,3.91,2.15,32.55,32.55,0,0,0,4.19,1.48,12.1,12.1,0,0,1,4.2,2.24c1.23,1,2.21,2.1,3.37,3.07a32.92,32.92,0,0,1,3.32,3.24l.38.45.34.38a8.93,8.93,0,0,0,.75.7,16.78,16.78,0,0,0,1.77,1.23,16,16,0,0,1,3.77,2.9,36.07,36.07,0,0,1,2.91,3.63c.89,1.24,1.74,2.49,2.62,3.68.44.6.89,1.18,1.36,1.73a12.28,12.28,0,0,0,1.42,1.5c1,.85,2.38,1.52,3.71,2.56a8.49,8.49,0,0,1,1,.89,8.14,8.14,0,0,1,.79,1c.45.67.84,1.34,1.22,2l1.1,2,.55,1,.28.46c.11.18.24.39.33.59.82,1.68.85,3.3,1.4,4.28s1.62,1.57,3,2.29c.34.18.69.38,1,.6s.72.49,1,.71c.62.46,1.23.95,1.83,1.43,2.39,2,4.58,4.11,6.74,6.21l1.6,1.54a20.81,20.81,0,0,0,1.69,1.24,35.8,35.8,0,0,1,3.75,2.84,10.06,10.06,0,0,1,1.72,2,5,5,0,0,1,.63,1.42,3.39,3.39,0,0,1,0,1.81,3.86,3.86,0,0,1-.85,1.51,5,5,0,0,1-1.19,1,4.81,4.81,0,0,1-3,.6,13,13,0,0,1-4.7-1.84,23.39,23.39,0,0,0-3.74-1.94,7.26,7.26,0,0,0-.92-.18c-.34,0-.66-.08-1-.1-.18,0-.37,0-.64,0a2.87,2.87,0,0,1-1-.27,4.46,4.46,0,0,1-1.24-1c-.58-.61-1-1.12-1.51-1.57a4.43,4.43,0,0,0-1.51-.95c-.6-.24-1.33-.45-2-.66a15.81,15.81,0,0,1-2.28-.9,18.37,18.37,0,0,0-3.91-1.54,2,2,0,0,0-2.49,1.17,18.82,18.82,0,0,0-1.3,4,23.77,23.77,0,0,0-.58,4.28,6,6,0,0,0,.82,3.73,8.69,8.69,0,0,0,3.07,2.59,38,38,0,0,0,4,1.84c.7.29,1.41.58,2.12.9.35.16.71.33,1.06.52s.63.33,1,.47a23.54,23.54,0,0,0,4.17,1.32c1.45.35,3,.65,4.44,1.11a17.45,17.45,0,0,1,4.28,1.91c2.61,1.54,5.18,3.15,7.72,4.8,1.27.83,2.53,1.67,3.78,2.54l1.83,1.3a7,7,0,0,0,1.92.82c2.8.72,5.86.42,8.89.52a22.76,22.76,0,0,1,4.58.52c1.48.29,3,.59,4.46,1a12.88,12.88,0,0,1,4.34,1.82,2.27,2.27,0,0,1,.8,1.15,2.76,2.76,0,0,1,0,1.35,8.84,8.84,0,0,1-.91,2.21c-.37.67-.75,1.33-1.09,2a4.3,4.3,0,0,0-.62,1.89.7.7,0,0,0,.35.58,1.87,1.87,0,0,0,.41.18l.58.21a5.1,5.1,0,0,1,1.87,1.63c.94,1.26,1.57,2.66,2.65,3.48a20.15,20.15,0,0,0,3.92,2,15,15,0,0,1,4,2.4c1.18,1,2.23,2.11,3.31,3.14a15.59,15.59,0,0,0,3.46,2.65,8.58,8.58,0,0,0,4.12.9c.73,0,1.47-.06,2.25-.08a6,6,0,0,1,2.49.34,4.35,4.35,0,0,1,2,1.74,10.6,10.6,0,0,1,1,2.19c.51,1.52.77,3,1.18,4.42a7,7,0,0,0,1.89,3.57,16.27,16.27,0,0,0,3.67,2.22A42.59,42.59,0,0,0,279.8,409a66,66,0,0,0,8.67,2.15c1.48.29,3,.59,4.47.93s3,.74,4.42,1.11a25.11,25.11,0,0,0,8.58,1,6.62,6.62,0,0,0,3.68-1.18c.55-.38,1.13-.86,1.75-1.34a11,11,0,0,1,2.12-1.35c1.51-.72,3-1.11,4.09-1.76a42,42,0,0,0,3.58-2.47,19,19,0,0,0,3.12-2.79,6,6,0,0,0,1.23-3.47c.1-1.35,0-2.87,0-4.41s0-3.05,0-4.56l0-4.51,0-2.23,0-1.09a7,7,0,0,0-.12-.93,16.32,16.32,0,0,0-1.66-3.8,39.53,39.53,0,0,1-1.7-4.37,11.85,11.85,0,0,0-1.84-3.57,9.56,9.56,0,0,0-.65-.72c-.26-.27-.56-.57-.84-.87a17,17,0,0,1-1.52-2c-.23-.34-.44-.68-.64-1l-.56-.94c-.34-.54-.79-1.1-1.26-1.72a14.59,14.59,0,0,1-1.41-2.11,6.67,6.67,0,0,1-.53-1.39,7.42,7.42,0,0,1-.2-1.42c0-.91.06-1.74.06-2.34a2.31,2.31,0,0,0-.07-.66.67.67,0,0,0-.18-.3,2,2,0,0,0-.51-.33,2.73,2.73,0,0,0-.68-.2c-.58-.11-1.33-.13-2.21-.26a5.33,5.33,0,0,1-2.88-1.26,4.74,4.74,0,0,1-.59-.65,5.9,5.9,0,0,1-1-2.11,13.45,13.45,0,0,1,.12-5.12,14.88,14.88,0,0,0,.32-4,2.55,2.55,0,0,0-.49-1.28,2,2,0,0,0-1.1-.62c-1.09-.33-2.65-.2-4.51-.74a14.1,14.1,0,0,1-4.42-2.51l-1.77-1.41-.85-.64-.93-.68c-1.24-.91-2.46-1.86-3.65-2.85a51.79,51.79,0,0,1-6.63-6.57,42.57,42.57,0,0,1-2.8-3.77c-.44-.65-.84-1.32-1.25-2s-.75-1.39-1.1-2a5.11,5.11,0,0,0-2.33-2.56,4.32,4.32,0,0,0-1.67-.33c-.65,0-1.37,0-2.12.08l-1.16.07c-.4,0-.86,0-1.13,0a7.72,7.72,0,0,0-1.89.32,15.85,15.85,0,0,0-3.73,1.81,43.39,43.39,0,0,1-4,2.35,13.14,13.14,0,0,1-4.83,1.29,12.93,12.93,0,0,1-9.36-3,10.86,10.86,0,0,1-3-4.12,17,17,0,0,1-.7-4.77,3.5,3.5,0,0,0-.52-1.61,4,4,0,0,0-1.28-1.11,7.4,7.4,0,0,0-3.86-.5,8.05,8.05,0,0,1-5-1.07,12.86,12.86,0,0,1-3-3.85,13.83,13.83,0,0,0-1.22-1.76,17.16,17.16,0,0,0-1.44-1.58,17.66,17.66,0,0,0-3.48-2.54c-1.28-.75-2.61-1.41-4-2.23a20.69,20.69,0,0,1-3.68-2.93,45.45,45.45,0,0,1-5.67-7.23l-2.51-3.76a19.89,19.89,0,0,0-2.88-3.35l-3.31-3.1A37.26,37.26,0,0,1,194.6,267c-1.92-2.35-3.65-4.83-5.77-7l.21-.22a86.92,86.92,0,0,1,6.07,6.75,36.51,36.51,0,0,0,3.12,3.22l3.41,3a21,21,0,0,1,3.13,3.41l2.65,3.69a46.45,46.45,0,0,0,5.68,6.86,19.1,19.1,0,0,0,3.46,2.62c1.24.72,2.64,1.37,4,2.11a19.48,19.48,0,0,1,3.89,2.7,19,19,0,0,1,1.65,1.72,15.91,15.91,0,0,1,1.41,1.93,11.35,11.35,0,0,0,2.57,3.19,3.85,3.85,0,0,0,1.66.56,11.78,11.78,0,0,0,2.07,0,18.3,18.3,0,0,1,2.4,0,6.64,6.64,0,0,1,2.61.71,6.19,6.19,0,0,1,2.13,1.82,5.81,5.81,0,0,1,.94,2.63,16.13,16.13,0,0,0,.61,4.16,8.4,8.4,0,0,0,2.33,3.13,10.66,10.66,0,0,0,11.38,1.13,41.54,41.54,0,0,0,3.75-2.26,18.51,18.51,0,0,1,4.37-2.18,10.59,10.59,0,0,1,2.56-.47l1.13-.06,1.1-.09c.76-.06,1.55-.13,2.41-.12a7.33,7.33,0,0,1,2.75.53,6.25,6.25,0,0,1,2.36,1.71,11.85,11.85,0,0,1,1.45,2.14c.39.69.72,1.35,1.08,2s.75,1.24,1.16,1.84A39.51,39.51,0,0,0,283,321.6a48.67,48.67,0,0,0,6.28,6.13q1.71,1.4,3.51,2.7l.91.65,1,.72,1.78,1.4a11.1,11.1,0,0,0,3.4,2c1,.36,2.59.24,4.42.72a5.2,5.2,0,0,1,2.71,1.68,5.69,5.69,0,0,1,1.19,2.87,17.28,17.28,0,0,1-.33,5,10.84,10.84,0,0,0-.17,3.88,2.72,2.72,0,0,0,.43,1c.07.06.1.14.17.18a2.29,2.29,0,0,0,1.23.47c.61.1,1.38.13,2.29.29a5.89,5.89,0,0,1,1.48.48,5.08,5.08,0,0,1,1.35.94,3.84,3.84,0,0,1,1,1.63,5.34,5.34,0,0,1,.19,1.58c0,.91-.11,1.59-.08,2.19a4.33,4.33,0,0,0,.11.82,3.57,3.57,0,0,0,.27.72,11.84,11.84,0,0,0,1.1,1.66c.44.59.93,1.21,1.4,1.95l.59,1c.18.31.37.61.56.9a14,14,0,0,0,1.24,1.63c.23.26.46.5.72.77a12.55,12.55,0,0,1,.86,1,14.78,14.78,0,0,1,2.28,4.44,37.2,37.2,0,0,0,1.54,4.09l1,2a10.21,10.21,0,0,1,.85,2.48,9.86,9.86,0,0,1,.15,1.32l0,1.18,0,2.3-.07,4.56c0,1.51-.06,3-.06,4.5s.08,3-.05,4.65a10.19,10.19,0,0,1-.52,2.55,8,8,0,0,1-1.33,2.35,21,21,0,0,1-3.64,3.21,43.34,43.34,0,0,1-3.92,2.61c-1.52.82-3,1.19-4.25,1.77a25.77,25.77,0,0,0-3.58,2.44,8.3,8.3,0,0,1-2.37,1.13,8.93,8.93,0,0,1-1.28.27l-1.2.12a22.31,22.31,0,0,1-4.77-.19,38.73,38.73,0,0,1-4.55-1c-1.47-.41-2.91-.83-4.35-1.2s-2.91-.69-4.39-1a67.72,67.72,0,0,1-8.86-2.41,44.28,44.28,0,0,1-4.25-1.81,17.78,17.78,0,0,1-4-2.55,6,6,0,0,1-1.49-2.07,14.16,14.16,0,0,1-.78-2.26c-.4-1.5-.64-3-1.07-4.36s-1.09-2.72-2.19-3.19-2.7-.19-4.24-.24a9.83,9.83,0,0,1-4.62-1.12,16.63,16.63,0,0,1-3.69-2.86c-1.09-1.07-2.12-2.16-3.24-3.12a13.89,13.89,0,0,0-3.73-2.27,20.83,20.83,0,0,1-4.11-2.15c-1.34-1.06-2-2.55-2.82-3.69a4.18,4.18,0,0,0-1.49-1.34l-.48-.18a2.76,2.76,0,0,1-.62-.28,1.65,1.65,0,0,1-.76-1.3,5,5,0,0,1,.74-2.38l1.1-2c.67-1.25,1.38-2.83.31-3.54a12.24,12.24,0,0,0-4-1.61c-1.44-.38-2.91-.66-4.4-.94a21.7,21.7,0,0,0-4.41-.47c-3-.09-6,.26-9.16-.49a8.15,8.15,0,0,1-2.24-.94l-1.88-1.31c-1.24-.85-2.5-1.67-3.77-2.48-2.54-1.61-5.15-3.12-7.78-4.6s-5.39-2-8.39-2.65a25.14,25.14,0,0,1-4.49-1.31c-.37-.15-.73-.33-1.09-.5s-.65-.31-1-.45c-.67-.29-1.37-.55-2.07-.82a39.4,39.4,0,0,1-4.26-1.83A10.61,10.61,0,0,1,175,344.4,6.84,6.84,0,0,1,174,342a11.2,11.2,0,0,1-.22-2.49,25.9,25.9,0,0,1,.52-4.7,20.57,20.57,0,0,1,1.41-4.63,4.77,4.77,0,0,1,2.05-2.16,4.86,4.86,0,0,1,3-.35,20,20,0,0,1,4.54,1.67,13.28,13.28,0,0,0,1.94.74c.73.21,1.46.4,2.27.71a7.12,7.12,0,0,1,2.32,1.41c.62.56,1.19,1.19,1.65,1.67a2.48,2.48,0,0,0,.5.44s0,0,.11,0l.49,0c.4,0,.83.06,1.24.11a9.5,9.5,0,0,1,1.3.25,24,24,0,0,1,4.31,2.17,10.77,10.77,0,0,0,3.67,1.49,2.09,2.09,0,0,0,1.36-.25,2.32,2.32,0,0,0,.55-.45,1.21,1.21,0,0,0,.27-.44c.09-.21,0-.58-.29-1.07a7.54,7.54,0,0,0-1.25-1.43,33.58,33.58,0,0,0-3.45-2.65,21.66,21.66,0,0,1-1.94-1.47L198.63,329c-2.15-2.13-4.27-4.23-6.53-6.13-.57-.47-1.14-.94-1.73-1.38a10.15,10.15,0,0,0-.84-.6c-.28-.18-.59-.36-.92-.54a21.63,21.63,0,0,1-2.06-1.24,5.85,5.85,0,0,1-1.88-2.1,10.44,10.44,0,0,1-.78-2.42,8.52,8.52,0,0,0-.59-1.9c-.07-.14-.13-.25-.22-.4l-.31-.51-.58-1-1.08-2c-.36-.65-.72-1.28-1.11-1.87a5.83,5.83,0,0,0-.57-.77,6.22,6.22,0,0,0-.69-.66c-1-.85-2.42-1.54-3.71-2.65a9.05,9.05,0,0,1-.9-.91q-.39-.44-.76-.9c-.49-.61-1-1.24-1.4-1.87-.89-1.26-1.71-2.53-2.55-3.76a34.2,34.2,0,0,0-2.67-3.5,14.16,14.16,0,0,0-3.34-2.67,18.44,18.44,0,0,1-1.92-1.41,10.65,10.65,0,0,1-.89-.86l-.4-.48-.34-.42a31.33,31.33,0,0,0-3.1-3.15c-1.13-1-2.2-2.18-3.26-3.11a11.25,11.25,0,0,0-3.69-2.1,33.2,33.2,0,0,1-4.29-1.7,40.71,40.71,0,0,1-3.94-2.36,17.64,17.64,0,0,1-3.48-3.07,9.68,9.68,0,0,1-2.12-4.16,16.52,16.52,0,0,1-.45-4.58,9.5,9.5,0,0,1,.37-2.29,4.21,4.21,0,0,1,1.2-2Z"/><path class="cls-2" d="M187.47,18.82c2.12-.95,4.09-2.08,6.16-3.09a50.46,50.46,0,0,1,6.17-2.53,42.12,42.12,0,0,1,13.76-1.88,12.1,12.1,0,0,1,8.75,3.11c3.15,2.66,5.18,8.11,5.84,11.92a47.07,47.07,0,0,1,.15,7.78V59.5c0,6.32-.56,12.88.13,19.18.37,3.35,1.15,6.66,1.71,10,.77,4.55,1.08,9.14,1.65,13.71.3,2.42,1.12,4.69,1.21,7.13s-.19,4.89.47,7.37c1.64,6.16,1.26,15.58-6.83,17.79a19.7,19.7,0,0,1-6,.31c-2.06-.12-3.87-1.13-5.91-1.31a53,53,0,0,0-5.53,0c-1.3,0-2.07.27-3.27-.34-2-1-4.28-3.69-5.79-5.26-4.4-4.57-2.87-10.56-4.41-16-2.34-8.2-14.25-10.54-16.19-19.15a26.32,26.32,0,0,1-.61-10c.8-4.3,1.28-9.4-.09-13.67-1.9-5.91-5.54-11.46-7-17.45a18,18,0,0,1,.76-10c.83-2.49,2-4.83,2.73-7.37a34.26,34.26,0,0,0,.79-6.37c.42-4.68,4.74-6,8.06-8.77"/><path class="cls-3" d="M187.4,18.68c2.89-1.48,5.64-3.28,8.67-4.62a36.29,36.29,0,0,1,9.47-3,48.45,48.45,0,0,1,5-.55c.83-.05,1.65-.08,2.48-.11a21.48,21.48,0,0,1,2.56,0,12.37,12.37,0,0,1,5.09,1.49,14.91,14.91,0,0,1,2.18,1.47,12.22,12.22,0,0,1,1.9,1.9,24.77,24.77,0,0,1,4.37,9.27,21.73,21.73,0,0,1,.48,2.57,24.67,24.67,0,0,1,.14,2.58c0,1.7-.08,3.3-.06,4.9q.06,9.8-.08,19.59c-.05,3.25-.1,6.54-.27,9.82s-.34,6.51-.33,9.75a55.08,55.08,0,0,0,.83,9.64l.83,4.83c.27,1.62.45,3.26.64,4.88.38,3.25.61,6.52,1.06,9.72.25,1.58.7,3.15,1,4.8a32.91,32.91,0,0,1,.24,5,22.62,22.62,0,0,0,.14,2.39,17.3,17.3,0,0,0,.48,2.33,24.32,24.32,0,0,1,.73,5,18.34,18.34,0,0,1-.44,5.05,12.08,12.08,0,0,1-2.21,4.7,10.26,10.26,0,0,1-4.24,3.15c-.42.15-.82.32-1.26.45a10.85,10.85,0,0,1-1.31.27,19.08,19.08,0,0,1-2.58.19c-.86,0-1.65,0-2.53-.05a13.1,13.1,0,0,1-2.62-.5c-.8-.23-1.56-.46-2.27-.59a12.1,12.1,0,0,0-2.23-.15c-.78,0-1.58,0-2.39.08s-1.65.06-2.41.12a7.43,7.43,0,0,1-1.46,0,4.91,4.91,0,0,1-1.58-.48,11.73,11.73,0,0,1-2.29-1.56,46.63,46.63,0,0,1-3.58-3.53l-.42-.44-.46-.52a9.53,9.53,0,0,1-.84-1.09,13.06,13.06,0,0,1-1.29-2.43c-1.32-3.44-1.22-6.9-1.7-9.94a17.86,17.86,0,0,0-.46-2.22,9.71,9.71,0,0,0-.36-1l-.18-.49-.26-.46a12.12,12.12,0,0,0-1.19-1.78,20.53,20.53,0,0,0-1.56-1.62c-2.23-2.1-5-3.84-7.58-6.13a18.27,18.27,0,0,1-3.52-4l-.38-.58-.31-.63a9.45,9.45,0,0,1-.57-1.28L178,93.49c-.11-.44-.18-.83-.27-1.26a34.19,34.19,0,0,1-.61-5.1,22.16,22.16,0,0,1,0-2.63,23.12,23.12,0,0,1,.38-2.56,33.29,33.29,0,0,0,.51-9.3A18.2,18.2,0,0,0,177,68.2c-.53-1.49-1.16-3-1.81-4.44a96.3,96.3,0,0,1-3.79-9.17c-.26-.81-.49-1.62-.69-2.45a13.67,13.67,0,0,1-.35-2.62,19,19,0,0,1,.54-5.14,28.9,28.9,0,0,1,1.63-4.78c.65-1.52,1.33-3,1.83-4.48a19.69,19.69,0,0,0,.93-4.63c.09-.81.15-1.62.27-2.45a7.37,7.37,0,0,1,.8-2.5,10.36,10.36,0,0,1,3.6-3.54c1.38-.91,2.81-1.68,4.1-2.66l.19.23c-1.24,1.09-2.62,2-3.91,3A9.58,9.58,0,0,0,177.18,26a6.32,6.32,0,0,0-.55,2.18c-.06.79-.07,1.61-.11,2.43a19.53,19.53,0,0,1-.75,5c-.47,1.63-1.1,3.16-1.66,4.67a27,27,0,0,0-1.32,4.55,16.92,16.92,0,0,0-.28,4.59,13.41,13.41,0,0,0,.38,2.21c.2.75.44,1.5.7,2.25a94.64,94.64,0,0,0,3.95,8.82c.71,1.49,1.4,3,2,4.57a21.11,21.11,0,0,1,1.39,5,33.65,33.65,0,0,1-.35,10.2,20.14,20.14,0,0,0-.32,2.28,19.06,19.06,0,0,0,0,2.26,31.07,31.07,0,0,0,.62,4.61c.08.38.16.78.26,1.14l.31,1a6.49,6.49,0,0,0,.42,1l.22.47.3.45a15.14,15.14,0,0,0,2.94,3.32c2.29,2.08,5.1,3.83,7.6,6.25a23.51,23.51,0,0,1,1.81,1.93,15.16,15.16,0,0,1,1.49,2.3l.33.61.25.66a13,13,0,0,1,.44,1.32,20.83,20.83,0,0,1,.49,2.58c.45,3.4.36,6.62,1.39,9.35a10.26,10.26,0,0,0,1,1.9,6.92,6.92,0,0,0,.64.85l.35.41.42.45c1.12,1.21,2.18,2.4,3.32,3.42a9.34,9.34,0,0,0,1.71,1.26,2.81,2.81,0,0,0,1.73.27c.87,0,1.67,0,2.48-.06s1.65,0,2.51,0a14.33,14.33,0,0,1,2.65.26c.89.19,1.69.47,2.45.7a11.36,11.36,0,0,0,2.17.51c.75.07,1.59.12,2.36.15a11.16,11.16,0,0,0,4.47-.59A8.51,8.51,0,0,0,231,131c2-2.29,2.66-5.55,2.63-8.69a22.8,22.8,0,0,0-.53-4.73,18.54,18.54,0,0,1-.46-2.47,23.63,23.63,0,0,1-.1-2.5,28.32,28.32,0,0,0-.15-4.82c-.24-1.58-.68-3.16-.93-4.81-.43-3.27-.73-6.51-1.12-9.75s-1-6.4-1.72-9.61a56.59,56.59,0,0,1-1.29-9.82c-.16-3.3-.11-6.59-.1-9.84s-.09-6.49-.13-9.77q-.13-9.8-.08-19.59c0-1.67.11-3.33.11-4.9a17.72,17.72,0,0,0-.49-4.56,22.68,22.68,0,0,0-3.71-8.42,9.87,9.87,0,0,0-1.52-1.59,14.33,14.33,0,0,0-1.83-1.32,10.23,10.23,0,0,0-4.2-1.39,41.54,41.54,0,0,0-4.76-.1,46.74,46.74,0,0,0-4.8.3,38.22,38.22,0,0,0-9.3,2.39c-3,1.12-5.88,2.74-8.94,4Z"/><path class="cls-2" d="M163.37,259.85c-4.89,0-9.88-.3-14.75,0a27.58,27.58,0,0,0-2.8.68,23.5,23.5,0,0,1-3.2,0c-1.33,0-5,.48-6-.72-.48-.63-.07-3-.07-3.66s0-1.64,0-2.46c0-1.82-.61-4.79.62-6.31.62-.77,1.6-1,2.39-1.57s1.49-1.46,2.31-2.13c2.4-2,5-3.28,6.34-6.17,3.81-8.4,2.35-18,2.39-26.9,0-2.45-.9-4.16-1.29-6.53-.34-2.09.51-4.24-.67-6.14-.65-1-1.81-1.78-2.11-3a9.33,9.33,0,0,1,0-2c0-3.53.17-7.09.05-10.61-.14-4-2.51-7.77-2.76-11.71-.19-3,0-6.21,0-9.24s1.39-5.81,1.36-8.87c0-2.52,1-7.47-1.28-9.38-1.5.07-2.44,1.68-3.53,2.48-1.51,1.11-3.37,1.92-4.63,3.29q-.63.85-1.18,1.75a1.84,1.84,0,0,0,0,1.21,6.1,6.1,0,0,1-2.91,2.39,10.23,10.23,0,0,1-6.51.29c-3.82-1.16-4.52-3.65-6.07-6.8a13.59,13.59,0,0,1-1.32-7.11c.08-2.34,1.19-3.92,2.68-5.76a22.05,22.05,0,0,1,2.68-3c.8-.7,2.89-1.59,3.31-2.47.89-1.87-1.57-4.81-1.91-6.66-.54-3,1-5.29,3.46-7.14,1.59-1.21,2.83-1.93,3.89-3.7.91-1.52.92-2.86,1.45-4.43.45-1.32.79-1.53-.13-2.94-.79-1.21-1.86-1.46-1.29-3.11.41-1.16,2.19-1.87,2-3.29-.13-1.12-1.53-2-2.39-2.68-2.48-1.85-3-2.74-1.23-5.41s3-6,4.85-8.77c.89-1.38,1.62-2.88,2.51-4.23.76-1.15,1.72-2,2.06-3.4s.82-5.74-.47-6.87c-.46,3.3,8.85,2.23,10.53,1.1,2.25-1.51,3.76-3.89,6.09-5.46a34.14,34.14,0,0,1,6-3.26c2.64-1.13,5.24-2.31,7.88-3.43,3.15-1.33,5.16-3.77,8.09-5.39A60.56,60.56,0,0,1,184,47.67c2.36-1,3.75-.65,6.17,0,1.83.53,3.35.25,5.23.5A9.92,9.92,0,0,1,201.6,52a5.51,5.51,0,0,1,1.16,2c.22,1-.19,1.19-.54,2.11-.69,1.82,2.91,5.37,3.82,7.24a56.86,56.86,0,0,1,4,9.09,27.39,27.39,0,0,1,.75,5.07c.27,2.46,3,4.86,2.84,7.45-.17,2.24-4,2.12-3.79,4.39,1,1,2.45.65,3.44,1.67a4.64,4.64,0,0,1,1,3.55c-.08,1.5-1.08,2.46-1.32,3.83s.32,1.64.93,2.76c.68,1.28.55,2.51,1.08,3.75s2.08,1.6,2.53,2.79c.71,1.88.06,4.73.06,6.71,0,5.32.53,10.8-.85,16-.45,1.69-1.14,4.26-.09,5.85l2.37,2a7.84,7.84,0,0,1,.77,2.22,3.58,3.58,0,0,1,.43,2.53c-.8,3.31-3.93,6.15-5.32,9.18-1.15,2.5-3.17,3.39-5.85,4.2-2.43.73-3.66,1.53-6.1.18-1.41-.79-2.15-2.35-4-1.81l-3.14,2.11a56.15,56.15,0,0,0-6.42,6.59c-2.62,3-4.86,5.57-6.56,9.14a88.88,88.88,0,0,0-6.27,17.72C173.61,203,190,214.4,186.17,226.92c-1.3,4.27,4.29,9.28,2.84,13.51-.49,1.44-24.51,11.51-24.11,12.73.67,2,.48,4,.48,6.08"/><path class="cls-3" d="M163.37,260c-3.15.06-6.31,0-9.45.06-1.57,0-3.14.06-4.7.16a6.91,6.91,0,0,0-1.11.12,10,10,0,0,0-1.08.33,6.42,6.42,0,0,1-2.48.39c-.82,0-1.59-.09-2.32,0s-1.57.11-2.38.12a8.4,8.4,0,0,1-2.53-.27,2.15,2.15,0,0,1-1.32-1,3.76,3.76,0,0,1-.22-1.43c0-.83.11-1.69.12-2.35l0-2.36a29.64,29.64,0,0,1-.09-4.84,5.14,5.14,0,0,1,.38-1.34,3.43,3.43,0,0,1,.91-1.22,23.56,23.56,0,0,1,2.07-1.27,13.55,13.55,0,0,0,1.6-1.53,18.5,18.5,0,0,1,1.9-1.59A23.48,23.48,0,0,0,146.1,239a7.57,7.57,0,0,0,1.17-1.74c.29-.65.59-1.38.83-2.09a29.45,29.45,0,0,0,1.12-4.41,42.54,42.54,0,0,0,.48-4.57c.15-3.08.05-6.2-.06-9.34-.06-1.57-.11-3.16-.14-4.74,0-.79,0-1.64,0-2.28a11.84,11.84,0,0,0-.39-2.11c-.19-.73-.43-1.49-.63-2.3-.1-.41-.18-.82-.26-1.25a9.42,9.42,0,0,1-.1-1.36c0-1.74.22-3.15-.31-4.09a9.22,9.22,0,0,0-1.31-1.61,5.51,5.51,0,0,1-.84-1.27,3.6,3.6,0,0,1-.27-.88,4.3,4.3,0,0,1,0-.84l.09-1.16v-1.15l0-2.37c0-1.58,0-3.14,0-4.7,0-.78,0-1.55-.05-2.32a13.1,13.1,0,0,0-.28-2.11c-.59-2.86-2.13-5.74-2.5-9.26-.24-3.31-.08-6.45,0-9.6a23,23,0,0,1,.78-4.92c.18-.76.34-1.5.45-2.22.06-.36.1-.71.13-1.06s0-.63,0-1.11c.06-1.7.25-3.19.22-4.66s-.31-2.85-1-3.43l.87.3a2.33,2.33,0,0,0-1.35.83c-.28.27-.57.58-.93.9a7,7,0,0,1-.6.49l-.57.39a21.64,21.64,0,0,0-3.92,2.69l.08-.1-1.14,1.66.1-.2a.7.7,0,0,0,0,.49l.13.51-.23.39A6.37,6.37,0,0,1,134.2,154a7.26,7.26,0,0,1-1.79,1.11,12.25,12.25,0,0,1-3.85.82,10.42,10.42,0,0,1-3.9-.57,8.1,8.1,0,0,1-3.41-2.13,12.29,12.29,0,0,1-2-3.28l-.75-1.62a17.19,17.19,0,0,1-.73-1.73,13.14,13.14,0,0,1-.72-3.75c0-.63,0-1.25,0-1.86a8.84,8.84,0,0,1,.22-1.94A9.51,9.51,0,0,1,119,135.6c.76-1,1.5-1.88,2.31-2.82a15.28,15.28,0,0,1,1.32-1.33,9.45,9.45,0,0,1,1.59-1.07,11,11,0,0,0,1.4-.92,1.08,1.08,0,0,0,.37-.44,1.41,1.41,0,0,0,.11-.62,8.64,8.64,0,0,0-1.06-3.11c-.26-.54-.53-1.08-.75-1.69a6.05,6.05,0,0,1-.33-1.95A6.75,6.75,0,0,1,125,118a11.09,11.09,0,0,1,2.59-2.72,29.5,29.5,0,0,0,2.76-2.17,7.12,7.12,0,0,0,1.76-2.8c.35-1.05.52-2.3,1-3.46a4.84,4.84,0,0,0,.25-.76,1,1,0,0,0-.1-.6,5,5,0,0,0-.39-.7,5.14,5.14,0,0,0-.51-.64,8.11,8.11,0,0,1-.62-.73,2,2,0,0,1-.37-1.09,3,3,0,0,1,.19-1,2.87,2.87,0,0,1,.56-.91c.43-.49.89-.87,1.18-1.28a1.2,1.2,0,0,0,.2-1.24,3.43,3.43,0,0,0-1-1.19c-.43-.36-.93-.69-1.41-1.07a9.62,9.62,0,0,1-1.4-1.25,2.66,2.66,0,0,1-.73-2,9,9,0,0,1,1.59-3.41c.6-1,1.14-2.06,1.68-3.12s1.07-2.14,1.66-3.19c.3-.53.6-1.05.93-1.57s.61-1,.9-1.51c.59-1,1.15-2.09,1.85-3.12a9.32,9.32,0,0,0,1.75-2.88,16,16,0,0,0,.37-3.41,9.27,9.27,0,0,0-.13-1.68,2.46,2.46,0,0,0-.54-1.27l1-.36a.86.86,0,0,0,.49.9,4,4,0,0,0,1.44.47,14.21,14.21,0,0,0,3.37.06,17.08,17.08,0,0,0,3.33-.6,5.06,5.06,0,0,0,.73-.27,4,4,0,0,0,.62-.41,14.18,14.18,0,0,0,1.26-1.11c.82-.79,1.6-1.68,2.47-2.53a16.51,16.51,0,0,1,2.9-2.25,40.9,40.9,0,0,1,6.38-3.3l6.45-2.89A26.51,26.51,0,0,0,175,51.06a20.23,20.23,0,0,1,3.11-2c1.09-.57,2.2-1,3.3-1.49l1.63-.67a14.65,14.65,0,0,1,1.78-.66,7.84,7.84,0,0,1,4,0c.61.13,1.22.31,1.75.45a7.84,7.84,0,0,0,1.53.23c1.07.07,2.31,0,3.62.19a11.09,11.09,0,0,1,6.67,4,9.53,9.53,0,0,1,1.18,1.65,4.58,4.58,0,0,1,.25.56,3.72,3.72,0,0,1,.17.65,2.92,2.92,0,0,1-.12,1.51c-.2.49-.34.68-.42.88s-.1.24-.07.21h0a.53.53,0,0,1,0,.07,3.11,3.11,0,0,0,.4,1.09,24.79,24.79,0,0,0,1.89,2.75c.36.48.72,1,1.08,1.51a8.94,8.94,0,0,1,.51.89l.39.78a65.27,65.27,0,0,1,3.06,6.52,20,20,0,0,1,1,3.64c.22,1.25.28,2.49.42,3.56A8.39,8.39,0,0,0,213.41,80,11.76,11.76,0,0,1,215,83.71a5.59,5.59,0,0,1,.07,1.21,5.26,5.26,0,0,1-.13.76,4.21,4.21,0,0,1-.32.73,5,5,0,0,1-1.83,1.65,10.71,10.71,0,0,0-1.3.8c-.11.1-.19.18-.18.2s0,0,0,.1l-.44-.94a1.89,1.89,0,0,0,.82.38,7.57,7.57,0,0,1,1.83.67,4.9,4.9,0,0,1,2.23,3.81,8.66,8.66,0,0,1,.05,1v.47c0,.16,0,.37-.05.55A6.82,6.82,0,0,1,215.1,97a10.43,10.43,0,0,0-.56,1.27,1.88,1.88,0,0,0-.09.78,1,1,0,0,0,.15.28c.11.18.29.43.46.71a6.78,6.78,0,0,1,.78,1.88c.16.62.23,1.17.34,1.6a4.75,4.75,0,0,0,.17.57l.05.12,0,0a.6.6,0,0,0,.08.11,6.77,6.77,0,0,0,1,.82,4.56,4.56,0,0,1,1.49,1.84,9.32,9.32,0,0,1,.44,3.82c-.06,1.14-.19,2.22-.22,3.17s0,2.08,0,3.12c.06,2.13.12,4.3,0,6.51a32.55,32.55,0,0,1-.86,6.68,23.38,23.38,0,0,0-.64,2.93,3.27,3.27,0,0,0,.24,2l-.28-.32,2.36,2,.24.2.14.27a9.46,9.46,0,0,1,.93,2.67l-.07-.25.36.94a4.14,4.14,0,0,1,.25,1.57,5.24,5.24,0,0,1-.25,1.36,10.28,10.28,0,0,1-.39,1.11,19.89,19.89,0,0,1-2.18,3.71c-.78,1.1-1.56,2.14-2.19,3.17-.15.26-.31.51-.43.77s-.29.59-.49.95a7.76,7.76,0,0,1-1.55,1.93,11,11,0,0,1-4,2.16l-1.9.6a13.72,13.72,0,0,1-2.16.58,5.75,5.75,0,0,1-2.66-.2,7.79,7.79,0,0,1-2.22-1.14c-.64-.49-1.1-.95-1.42-1.12a.77.77,0,0,0-.72-.09l.43-.2-3.14,2.1.15-.11a57.57,57.57,0,0,0-5.44,5.38c-1.71,2-3.5,3.89-5,5.93a26.07,26.07,0,0,0-2,3.16c-.56,1.09-1.12,2.31-1.64,3.47q-1.57,3.54-2.84,7.21c-.85,2.44-1.58,4.92-2.18,7.42a14.56,14.56,0,0,0,.26,7.18c1.31,4.82,4.19,9.26,6.5,14a32.39,32.39,0,0,1,2.79,7.6,17.27,17.27,0,0,1,.35,4.14,15.34,15.34,0,0,1-.26,2.08,9.17,9.17,0,0,1-.24,1l-.14.51-.09.4a6.25,6.25,0,0,0,.43,3.4c.42,1.18,1,2.35,1.5,3.58a12.48,12.48,0,0,1,1.1,4,6.53,6.53,0,0,1,0,1.12,4.65,4.65,0,0,1-.12.56l-.07.28a1.11,1.11,0,0,1-.18.44,2.31,2.31,0,0,1-.52.48l-.45.3c-.3.18-.59.35-.88.51-4.72,2.44-9.53,4.47-14.29,6.69-2.37,1.1-4.77,2.19-7,3.45-.28.16-.56.32-.81.5a2.59,2.59,0,0,0-.34.27s-.05.12,0,0a2,2,0,0,0,.05.2,9.87,9.87,0,0,1,.34,2c.1,1.33,0,2.65,0,4h-.3c0-1.32,0-2.63-.12-3.91a9.38,9.38,0,0,0-.39-1.87,2.22,2.22,0,0,1-.08-.27.55.55,0,0,1,.17-.44,3,3,0,0,1,.41-.36c.28-.21.56-.39.84-.56,2.28-1.36,4.63-2.51,7-3.7,4.68-2.36,9.47-4.57,14-7.1.28-.16.55-.32.81-.49l.36-.25a1.74,1.74,0,0,0,.21-.17c-.09.17,0,0,0,0l0-.2a3.21,3.21,0,0,0,.08-.4,5.09,5.09,0,0,0,0-.85,11.14,11.14,0,0,0-1.07-3.5c-.52-1.17-1.13-2.35-1.62-3.63a7.88,7.88,0,0,1-.58-4.3c1.6-5-.23-9.91-2.6-14.46s-5.37-9-6.92-14.35a17,17,0,0,1-.4-8.37c.58-2.61,1.3-5.17,2.14-7.7s1.77-5,2.82-7.46c.53-1.23,1-2.41,1.67-3.66a28.87,28.87,0,0,1,2.14-3.53c1.57-2.25,3.38-4.21,5-6.21a55.45,55.45,0,0,1,5.67-5.74l.07-.06.08-.06,3.13-2.12.21-.14.22-.06a4.24,4.24,0,0,1,1.57-.15,3.83,3.83,0,0,1,1.53.52,18.31,18.31,0,0,1,1.71,1.31,4.84,4.84,0,0,0,1.3.65,2.6,2.6,0,0,0,1.26.08,11.24,11.24,0,0,0,1.66-.47l1.88-.61a8,8,0,0,0,2.92-1.53,4.59,4.59,0,0,0,.91-1.16c.12-.22.22-.44.41-.82s.35-.65.53-1c.74-1.24,1.55-2.32,2.29-3.38a17.88,17.88,0,0,0,1.84-3.11,7.07,7.07,0,0,0,.27-.76,2.31,2.31,0,0,0,.13-.58.89.89,0,0,0-.07-.38l-.35-.91,0-.11,0-.14a6.25,6.25,0,0,0-.61-1.77l.38.48-2.38-2.05-.16-.14-.12-.18a5.09,5.09,0,0,1-.77-2.2,8.42,8.42,0,0,1,0-2,25.82,25.82,0,0,1,.72-3.33,29.4,29.4,0,0,0,.78-6c.08-2.07,0-4.18,0-6.33,0-1.09,0-2.11,0-3.29s.2-2.23.25-3.23a6.67,6.67,0,0,0-.2-2.52,1.75,1.75,0,0,0-.55-.58,8.57,8.57,0,0,1-1.43-1.31,3.61,3.61,0,0,1-.37-.56,4.39,4.39,0,0,1-.25-.56,7.78,7.78,0,0,1-.28-1c-.14-.62-.21-1.13-.31-1.55a3.65,3.65,0,0,0-.43-1.07l-.41-.64a3.89,3.89,0,0,1-.52-1.17,4.57,4.57,0,0,1,.15-2.39,12.49,12.49,0,0,1,.73-1.66,4,4,0,0,0,.39-1.1c0-.08,0-.14,0-.25V94a5.71,5.71,0,0,0,0-.63,2.05,2.05,0,0,0-.77-1.6,5.46,5.46,0,0,0-1.18-.4,4.73,4.73,0,0,1-2-1.08l-.44-.43v-.5a4.73,4.73,0,0,1,0-.8,3,3,0,0,1,.27-.81,3.43,3.43,0,0,1,.94-1.15,12,12,0,0,1,1.69-1.06,2.56,2.56,0,0,0,.82-.63s0-.05,0-.08,0,0,0-.11a2.77,2.77,0,0,0,0-.55A9.47,9.47,0,0,0,211,81.44a10.58,10.58,0,0,1-1.53-3.76c-.14-1.26-.2-2.39-.37-3.46a17.2,17.2,0,0,0-.87-3.15,68.18,68.18,0,0,0-2.88-6.28l-.39-.8a6,6,0,0,0-.36-.64c-.28-.44-.61-.9-1-1.38a26.64,26.64,0,0,1-2.05-3.1,5.26,5.26,0,0,1-.68-2.23c0-.13,0-.25,0-.37s.05-.28.09-.42a2.87,2.87,0,0,1,.22-.61c.16-.34.34-.64.36-.71s0,0,0-.23a1.17,1.17,0,0,0,0-.2,2.11,2.11,0,0,0-.11-.24,7.26,7.26,0,0,0-.86-1.22,8.7,8.7,0,0,0-5.14-3.21c-1-.18-2.15-.13-3.42-.22a10.16,10.16,0,0,1-2-.33c-.6-.17-1.12-.33-1.66-.46a5.67,5.67,0,0,0-2.95,0c-.92.25-2.12.8-3.19,1.18s-2.16.85-3.16,1.35a18.14,18.14,0,0,0-2.85,1.76,28,28,0,0,1-6.11,3.94l-6.5,2.75a38.4,38.4,0,0,0-6.21,3.06,14.91,14.91,0,0,0-2.71,2c-.83.78-1.63,1.65-2.51,2.48a15.55,15.55,0,0,1-1.41,1.19l-.39.27a2.91,2.91,0,0,1-.48.27A6.36,6.36,0,0,1,149,69a18.34,18.34,0,0,1-3.62.58,15.4,15.4,0,0,1-3.68-.14,5.17,5.17,0,0,1-1.87-.67,2.25,2.25,0,0,1-.81-.85,2.07,2.07,0,0,1-.19-1.21l.15-1.16.81.81a3.42,3.42,0,0,1,.89,1.94,11.07,11.07,0,0,1,.13,1.89,16.89,16.89,0,0,1-.43,3.69A10.06,10.06,0,0,1,138.4,77c-.65.93-1.22,2-1.82,3-.3.52-.61,1-.94,1.55s-.61,1-.91,1.51c-.58,1-1.11,2.09-1.66,3.15s-1.1,2.13-1.73,3.17c-.31.53-.66,1-.93,1.51a3.94,3.94,0,0,0-.55,1.47c-.11.91.86,1.71,1.76,2.42a8.25,8.25,0,0,1,2.7,2.63,2.13,2.13,0,0,1-.28,2.13c-.4.56-.88.94-1.22,1.36a2,2,0,0,0-.38.61,2.11,2.11,0,0,0-.13.7c0,.4.32.73.76,1.2a6.1,6.1,0,0,1,.61.76,5.9,5.9,0,0,1,.48.85,2,2,0,0,1,.17,1.14,5.43,5.43,0,0,1-.29.95c-.42,1.07-.56,2.21-.94,3.43a8.17,8.17,0,0,1-2,3.23,29.77,29.77,0,0,1-2.84,2.28,10,10,0,0,0-2.31,2.45,5.59,5.59,0,0,0-.89,3.07,4.86,4.86,0,0,0,.27,1.56,16.62,16.62,0,0,0,.72,1.57,9.5,9.5,0,0,1,1.26,3.61,2.7,2.7,0,0,1-.18,1.13,2.38,2.38,0,0,1-.71,1,12,12,0,0,1-1.56,1.08,8.23,8.23,0,0,0-1.35.95,13.85,13.85,0,0,0-1.17,1.23c-1.44,1.84-3.14,3.64-3.55,5.69a13.58,13.58,0,0,0-.09,3.33,11.38,11.38,0,0,0,.7,3.25,15.36,15.36,0,0,0,.7,1.54l.79,1.61a10.51,10.51,0,0,0,1.77,2.75,6.12,6.12,0,0,0,2.64,1.55,8.36,8.36,0,0,0,3.15.39,10.24,10.24,0,0,0,3.11-.72,5.05,5.05,0,0,0,2.13-1.86l-.1.9a3,3,0,0,1,0-1.94l0-.13,0-.08,1.21-1.85,0,0,.06-.06a22.47,22.47,0,0,1,4.28-3.15l.47-.34a4.64,4.64,0,0,0,.37-.32l.87-.87a6.91,6.91,0,0,1,1.18-1,3.74,3.74,0,0,1,1.79-.59l.49,0,.38.32a5.24,5.24,0,0,1,1.58,2.63,11,11,0,0,1,.36,2.64c.06,1.68-.13,3.32-.16,4.78,0,.31,0,.84,0,1.25s-.07.86-.14,1.28c-.13.84-.3,1.64-.48,2.41a20.57,20.57,0,0,0-.7,4.39c-.06,3.15-.2,6.31,0,9.29.24,2.8,1.67,5.66,2.38,9a15.74,15.74,0,0,1,.31,2.57c0,.8,0,1.6,0,2.4,0,1.59,0,3.18-.07,4.75l0,2.35,0,1.21c0,.51-.08.88-.1,1.19a1,1,0,0,0,.08.58,3.1,3.1,0,0,0,.47.69,10.62,10.62,0,0,1,1.61,2.09,6.25,6.25,0,0,1,.62,2.83c0,.88-.08,1.67-.08,2.38a7.07,7.07,0,0,0,.06,1c.06.35.12.71.21,1.07.16.72.39,1.46.59,2.26a14.19,14.19,0,0,1,.44,2.53c.05.93,0,1.65,0,2.44l.1,4.7a94.21,94.21,0,0,1-.07,9.55,44.64,44.64,0,0,1-.61,4.81,31.46,31.46,0,0,1-1.3,4.71c-.29.78-.6,1.5-1,2.28a9.47,9.47,0,0,1-1.5,2.14,24.89,24.89,0,0,1-3.8,3.09,17,17,0,0,0-1.75,1.4,14.49,14.49,0,0,1-1.86,1.68c-.8.53-1.55.76-2,1.14a2.45,2.45,0,0,0-.78,1.57,30.22,30.22,0,0,0,0,4.59l0,2.36c-.06.91-.18,1.61-.2,2.36a2.94,2.94,0,0,0,.07.9,1.14,1.14,0,0,0,.54.35,7.36,7.36,0,0,0,2.14.29c.76,0,1.53,0,2.34,0s1.64.08,2.4.11a5.39,5.39,0,0,0,2.16-.26,10.69,10.69,0,0,1,1.19-.32,4.9,4.9,0,0,1,.65-.08l.6,0c1.58-.05,3.17,0,4.74,0l9.45.34Z"/><path class="cls-2" d="M194.16,257.35c0,3.94-1.38,5-4.29,7.76a7.73,7.73,0,0,1-3,2.11c-1.52.42-3,0-4.57.58-2.81,1-5.66.95-8.58,1.48-1.87.34-2.61.75-4.17-.66a8.07,8.07,0,0,1-2.17-4.58,11.65,11.65,0,0,1,1.72-7.64c1.36-2.39,5.34-4.39,5-7.14-.39-3.08-1.54-7.14-.61-10.27.38-1.29,1.26-2.07,1.32-3.49.07-1.78,0-3.58,0-5.36,0-4,1.18-7.58,1.32-11.51a25.77,25.77,0,0,1,.69-3.7c.24-1.38,1.41-4.07.31-5.32-.72-.81-2.24-.72-3-1.52s-.8-2.88-1.29-3.95c-1.09-2.37-2.36-5.51-.36-7.67.87-.95,2.34-1.58,2.48-2.94.29-2.67-3-2.33-4.07-3.88-.58-.88.09-2.47,0-3.47a14.56,14.56,0,0,0-2-5.13c-.75-1.29-1.74-2.38-2.56-3.61s-1.16-3.12-2.14-4.42c-.34-.46-1-.62-1.26-1.17a4.71,4.71,0,0,1-.11-1.92c0-1.92.08-3.84,0-5.76a48.08,48.08,0,0,0-1.39-8.12c-.59-3,.24-6.37.71-9.25.58-3.64,2.45-6.48,4.82-9.34,1.58-1.91,3.48-3.73,5.18-5.55a9,9,0,0,1,5.58-3.08c2.07-.31,3.32-.16,5.19-1.34.85-.54,4.25-2.09,4.65-3.09.27-.66-.4-1.49-.64-2.06a19,19,0,0,1-.73-3c-.49-1.82-1.86-3.74-2.62-5.55-1.42-3.37-1.85-7.08-3.18-10.51a68.14,68.14,0,0,1-2.69-10c-.72-3.19-.12-6.88-.16-10.14,0-1.26.06-4.2,1.14-5.11,1.94-1.66,2,1.27,2.34,2.4a23.11,23.11,0,0,0,1.25,2.49,24.19,24.19,0,0,1,1,3.91,38.42,38.42,0,0,1,1,4.38c.23,2,1.14,2.81,2.06,4.56.83,1.57.91,3.16,1.95,4.7s2.54,2.27,3.39,3.62c1,1.65,2.26,3.17,3.36,4.81,1,1.47,2,2.85,3,4.29,1.69,2.37,0,3.76-.9,6a22.78,22.78,0,0,0-2.14,8.83,31.64,31.64,0,0,0,.15,5.51c.23,1.24.82,2.54.57,3.85-.62,3.25-3.69,6.33-4,9.72-.1,1.06,0,1,.7,2a8.18,8.18,0,0,1,2.09,4.12c.53,2,1.75,3.58,2.52,5.46.41,1,.4,2.13.8,3.14s1,1.52,1.09,2.57c.11,1.54-.91,3.85-1.41,5.35-.72,2.18-1.39,4.1-1.15,6.42.56,5.55,2.3,11.19,3.19,16.72.76,4.71,2.57,9.14,1.83,13.9-.38,2.46-1.26,4.94-1.58,7.38-.29,2.18.7,4.42,1.07,6.53,1.24,7.05-1.84,14.54-3.34,21.34-1.46,6.63-4.67,12.73-4.54,19.65"/><path class="cls-3" d="M194.31,257.35a8.73,8.73,0,0,1-.46,3.51,9,9,0,0,1-2.06,2.91c-.83.84-1.63,1.63-2.49,2.46a7.4,7.4,0,0,1-1.48,1.1,5.11,5.11,0,0,1-1.82.56,17.12,17.12,0,0,0-3.33.4,18.09,18.09,0,0,1-3.44.94c-1.17.21-2.33.34-3.47.49s-2.17.36-3.4.61a3.5,3.5,0,0,1-2.17-.24,5.78,5.78,0,0,1-1.62-1.24,8.83,8.83,0,0,1-1.83-3.37,11,11,0,0,1-.4-3.76,11.9,11.9,0,0,1,.82-3.67,17.4,17.4,0,0,1,.76-1.68,8.58,8.58,0,0,1,1.06-1.64c.82-1,1.7-1.76,2.46-2.56a5,5,0,0,0,1.47-2.32,1.85,1.85,0,0,0,0-.54l-.13-.83-.3-1.7a21,21,0,0,1-.41-7.34,9.8,9.8,0,0,1,.25-1,7.2,7.2,0,0,1,.4-1,11.17,11.17,0,0,0,.67-1.41,2.25,2.25,0,0,0,.11-.55c0-.19,0-.55,0-.81v-5.2a29.91,29.91,0,0,1,.32-3.61c.33-2.36.8-4.59.92-6.78a13.35,13.35,0,0,1,.17-1.88c.11-.64.27-1.23.39-1.77.06-.27.12-.53.16-.78s.14-.67.22-1c.15-.58.3-1.1.41-1.61a4.2,4.2,0,0,0,.11-1.29,1,1,0,0,0-.08-.31.41.41,0,0,0-.14-.12,11.53,11.53,0,0,0-1.41-.51,4.3,4.3,0,0,1-1.11-.59,3.15,3.15,0,0,1-.93-1.14,8.18,8.18,0,0,1-.6-2,9.39,9.39,0,0,0-.35-1.44,19.38,19.38,0,0,1-1.26-3.45,6.62,6.62,0,0,1,.2-4.22,5.24,5.24,0,0,1,1.33-1.83c.51-.46,1-.79,1.32-1.1a1.31,1.31,0,0,0,.49-.73c0-.35,0-.54-.12-.68a2.9,2.9,0,0,0-1-.64,11,11,0,0,1-1.73-.89,3.53,3.53,0,0,1-.92-.91,2.69,2.69,0,0,1-.43-1.4,9.92,9.92,0,0,1,.21-1.94,5.55,5.55,0,0,0-.51-2.84,19.41,19.41,0,0,0-1.45-2.94c-.56-.91-1.28-1.8-2-2.8a8.67,8.67,0,0,1-.93-1.68c-.24-.58-.43-1.13-.63-1.65a7.15,7.15,0,0,0-.68-1.39l-.09-.14-.05-.06a2.07,2.07,0,0,0-.24-.19,2.57,2.57,0,0,1-1.2-3c0-.14,0-.24,0-.37v-1.33l.1-3.47a27.5,27.5,0,0,0-.8-6.74,28.85,28.85,0,0,1-.61-3.5,18.3,18.3,0,0,1,.16-3.58c.16-1.17.38-2.32.59-3.45a22.12,22.12,0,0,1,.79-3.45,20.58,20.58,0,0,1,3.51-6.15,67,67,0,0,1,4.69-5.2c.81-.82,1.54-1.7,2.47-2.51a9,9,0,0,1,3.16-1.81,17.94,17.94,0,0,1,3.51-.62,6.67,6.67,0,0,0,3-1c1.06-.63,2.07-1.11,3-1.71a6.6,6.6,0,0,0,1.26-1c.17-.19.16-.2.16-.37a1.85,1.85,0,0,0-.22-.61c-.12-.24-.27-.47-.42-.79a6.72,6.72,0,0,1-.33-.9c-.18-.61-.25-1.21-.37-1.74a11.14,11.14,0,0,0-1.26-3,32.77,32.77,0,0,1-1.63-3.15,29.54,29.54,0,0,1-1.16-3.37c-.65-2.26-1.15-4.51-2-6.59a48.48,48.48,0,0,1-2.12-6.73l-.81-3.39a17.47,17.47,0,0,1-.47-3.64c-.08-2.41.14-4.73.08-7a15.65,15.65,0,0,1,.32-3.74,4.39,4.39,0,0,1,1-2.11,3.57,3.57,0,0,1,.49-.41,3.5,3.5,0,0,1,.59-.34,2.14,2.14,0,0,1,1-.17,1.81,1.81,0,0,1,1.06.44,2.88,2.88,0,0,1,.81,1.25,8.53,8.53,0,0,1,.27,1l.17.85a2.28,2.28,0,0,0,.19.57c.18.4.5.86.82,1.45a9.1,9.1,0,0,1,.72,1.88c.34,1.25.49,2.34.8,3.4a32.7,32.7,0,0,1,.84,3.52c.05.35.07.57.12.79a4.29,4.29,0,0,0,.18.64,7.28,7.28,0,0,0,.67,1.29c.29.47.63,1,.93,1.55a11,11,0,0,1,.78,1.81,11.4,11.4,0,0,0,1.18,2.87,15.24,15.24,0,0,0,2.24,2.24,9.57,9.57,0,0,1,.7.74c.12.13.23.28.34.43l.28.42c.3.46.62.92.95,1.38.66.92,1.37,1.85,2.05,2.83l2,2.84,1,1.41a7.21,7.21,0,0,1,1.06,1.89,4.31,4.31,0,0,1,.07,2.57,9.46,9.46,0,0,1-.81,1.9c-.28.53-.52,1-.71,1.44s-.42,1-.61,1.56a19.57,19.57,0,0,0-1.38,6.26l0,3.43a10.89,10.89,0,0,0,.35,3,15.32,15.32,0,0,1,.42,1.89,6.11,6.11,0,0,1,0,1.18,5.5,5.5,0,0,1-.08.63l-.12.52a15.8,15.8,0,0,1-1.5,3.56c-1.14,2.09-2.29,4-2.37,5.74a1.85,1.85,0,0,0,0,.2.61.61,0,0,0-.05-.17l.33.43c.36.47.72.91,1.11,1.47a7.47,7.47,0,0,1,1,1.95c.1.32.19.63.27.92l.21.8a15.88,15.88,0,0,0,1.32,2.87c.28.52.56,1.07.83,1.66l.19.45c.07.17.14.37.19.54a9.87,9.87,0,0,1,.24,1,13.38,13.38,0,0,0,.32,1.51,7.25,7.25,0,0,0,.66,1.3,4.53,4.53,0,0,1,.57,2.47,9.12,9.12,0,0,1-.38,2.05c-.35,1.23-.82,2.33-1.16,3.35a27.52,27.52,0,0,0-.93,3.16,8.78,8.78,0,0,0-.12,3c.11,1.11.27,2.23.46,3.35.76,4.46,2,9,2.64,13.64.38,2.21,1,4.45,1.4,6.81a19.67,19.67,0,0,1,.06,7.34c-.47,2.38-1.22,4.57-1.55,6.72-.3,1.9.65,4.07,1,6.53a24.3,24.3,0,0,1-.14,7.2,57.74,57.74,0,0,1-1.58,6.87c-.63,2.24-1.3,4.46-1.87,6.68s-1.27,4.51-2,6.7c-1.51,4.37-3.07,8.76-3.12,13.4h-.3c-.22-4.7,1.19-9.28,2.5-13.7.66-2.23,1.27-4.42,1.71-6.69s1.1-4.54,1.64-6.78c1.1-4.45,2-9,1.25-13.37-.31-2.1-1.49-4.32-1.23-7.12.29-2.46,1-4.69,1.41-6.86.83-4.26-.79-8.58-1.72-13.25-.75-4.56-2-8.94-2.91-13.61-.22-1.16-.41-2.34-.56-3.53a11.72,11.72,0,0,1-.12-1.95,12,12,0,0,1,.23-2,30,30,0,0,1,1-3.52c.39-1.18.81-2.22,1.09-3.23a6.21,6.21,0,0,0,.25-1.36,1.33,1.33,0,0,0-.22-.86,9.58,9.58,0,0,1-.89-1.8,15.2,15.2,0,0,1-.44-1.88c-.26-1.69-1.92-3.58-2.75-6.19l-.25-.88c-.07-.27-.15-.51-.23-.75a4.14,4.14,0,0,0-.57-1.15c-.27-.39-.64-.86-1-1.31a6.08,6.08,0,0,1-.68-1,2.72,2.72,0,0,1-.27-1,4.51,4.51,0,0,1,0-.66,10.82,10.82,0,0,1,1.08-3.89c.54-1.15,1.14-2.17,1.67-3.16a12.86,12.86,0,0,0,1.22-2.82l.08-.33c0-.07,0-.15,0-.23a2.94,2.94,0,0,0,0-.56,12.86,12.86,0,0,0-.35-1.5,13.55,13.55,0,0,1-.43-3.85l.07-3.52a22.59,22.59,0,0,1,1.65-7.24c.22-.57.44-1.1.68-1.67s.57-1.17.84-1.67a6.91,6.91,0,0,0,.58-1.27,1.29,1.29,0,0,0,0-.85,18.48,18.48,0,0,0-1.65-2.56l-2-2.87c-.63-.92-1.32-1.85-2-2.82-.34-.49-.68-1-1-1.5l-.2-.31-.19-.25a6.78,6.78,0,0,0-.49-.53,16.52,16.52,0,0,1-2.6-2.73,13.66,13.66,0,0,1-1.46-3.53,8.19,8.19,0,0,0-.58-1.39c-.24-.46-.53-.92-.84-1.44a9.39,9.39,0,0,1-.89-1.81,7,7,0,0,1-.27-1c-.07-.35-.1-.71-.13-.93a30.88,30.88,0,0,0-.72-3.25c-.31-1.18-.47-2.39-.72-3.38a6.74,6.74,0,0,0-.49-1.37c-.22-.44-.56-.93-.86-1.6a4.81,4.81,0,0,1-.34-1.08l-.16-.86a6.41,6.41,0,0,0-.17-.69c-.05-.18-.16-.3-.07-.22a.68.68,0,0,0,.28.11c.13,0,.12,0,.12,0s-.07,0-.16.09-.19.13-.18.14a2.36,2.36,0,0,0-.44,1,13.55,13.55,0,0,0-.32,3.16c0,2.41-.3,4.71-.28,6.94a15.43,15.43,0,0,0,.32,3.26l.71,3.39a46.67,46.67,0,0,0,1.86,6.58c.81,2.26,1.25,4.57,1.83,6.78a28.15,28.15,0,0,0,1,3.23,31.77,31.77,0,0,0,1.49,3.06,12.33,12.33,0,0,1,1.3,3.4,7.71,7.71,0,0,0,.94,3.16,2.85,2.85,0,0,1,.33,1,1.52,1.52,0,0,1-.1.68c-.05.1-.11.2-.17.3l-.18.22a7.42,7.42,0,0,1-1.51,1.14c-1,.62-2.1,1.14-3,1.68a7.75,7.75,0,0,1-3.48,1.17,17.13,17.13,0,0,0-3.33.55,8,8,0,0,0-2.84,1.6c-.83.71-1.6,1.61-2.42,2.43a54,54,0,0,0-4.62,5.12,19.64,19.64,0,0,0-3.32,5.88,18.9,18.9,0,0,0-.71,3.33c-.19,1.15-.38,2.28-.51,3.41a17.21,17.21,0,0,0-.09,3.36,24.77,24.77,0,0,0,.66,3.32,28.86,28.86,0,0,1,1.05,7v4.76c0,.16,0,.35,0,.5a2,2,0,0,0,.09,1.16,2.14,2.14,0,0,0,.46.35,3.73,3.73,0,0,1,.44.34,2.21,2.21,0,0,1,.24.26l.16.22a8.81,8.81,0,0,1,.91,1.7c.24.56.44,1.09.66,1.58a6.71,6.71,0,0,0,.79,1.33c.65.89,1.42,1.78,2.11,2.82a21.33,21.33,0,0,1,1.72,3.24,12.09,12.09,0,0,1,.6,1.8,7.27,7.27,0,0,1,.18,1,5.37,5.37,0,0,1,0,1.1,8.71,8.71,0,0,0-.14,1.51c0,.17.05.25.06.25a1.35,1.35,0,0,0,.33.28,9.73,9.73,0,0,0,1.39.64,5.05,5.05,0,0,1,1.89,1.23,3.61,3.61,0,0,1,.41.59,4.05,4.05,0,0,1,.25.68,4,4,0,0,1,.07,1.31,3.73,3.73,0,0,1-1.22,2.21c-.51.49-1,.83-1.33,1.15a2.66,2.66,0,0,0-.69,1,4.11,4.11,0,0,0,0,2.6,18.72,18.72,0,0,0,1.18,3,10.87,10.87,0,0,1,.5,1.93,6,6,0,0,0,.38,1.33c.08.15.08.14.15.2a1.76,1.76,0,0,0,.43.21,10.73,10.73,0,0,1,1.84.7,3.11,3.11,0,0,1,1.1,1.07,3.59,3.59,0,0,1,.44,1.34,6.68,6.68,0,0,1-.14,2.16c-.13.63-.29,1.23-.44,1.77-.07.27-.14.52-.18.73s-.13.62-.19.92c-.14.59-.28,1.13-.37,1.63a10.79,10.79,0,0,0-.15,1.58c-.16,2.44-.67,4.76-1,7a27.37,27.37,0,0,0-.32,3.3l0,3.47v1.75c0,.31,0,.54,0,.93a4.77,4.77,0,0,1-.24,1.15,12.41,12.41,0,0,1-.83,1.72,4.65,4.65,0,0,0-.46,1.32,19,19,0,0,0,.31,6.47l.27,1.73.12.89a4.22,4.22,0,0,1,0,1.19,5,5,0,0,1-.88,2A12.24,12.24,0,0,1,173,253.7c-.86.85-1.74,1.6-2.43,2.38a6.34,6.34,0,0,0-.86,1.25,15.4,15.4,0,0,0-.72,1.46,10,10,0,0,0-.78,3.07,9.24,9.24,0,0,0,.24,3.13,7.17,7.17,0,0,0,1.37,2.74,4.28,4.28,0,0,0,1.09.9,1.87,1.87,0,0,0,1.22.14c1.05-.19,2.32-.42,3.46-.52s2.31-.2,3.43-.35a16.85,16.85,0,0,0,3.3-.75,17.06,17.06,0,0,1,3.57-.28,4.66,4.66,0,0,0,2.85-1.29c.85-.74,1.73-1.54,2.56-2.31a8.81,8.81,0,0,0,2.09-2.61,8.33,8.33,0,0,0,.63-3.31Z"/><path class="cls-2" d="M142,49.42H152a36.9,36.9,0,0,0,11.14-1.69c2-.61,3.62-1.79,5.52-2.53a9.54,9.54,0,0,0,2.72-1.12c1-.74,1.64-1.73,2.63-2.47,2-1.51,3.38-2.27,3.38-4.84a36.15,36.15,0,0,1,.67-4.79c.36-2.91.61-7.5-.81-10.18-1.13-2.14-3.3-3.34-5.2-4.85a18.73,18.73,0,0,0-6.75-3c-1.66-.39-3.37,0-5-.42A18.8,18.8,0,0,0,156,13.2a13.78,13.78,0,0,0-6.57,1.11c-1.5.69-2.92.65-4.45,1.15,2.47-3.15,4.77-6.2,9.14-7.12A29.24,29.24,0,0,1,166,8.82c1.23.34,2.35.82,3.53,1.26a24.69,24.69,0,0,1,3.77,1.2,25.22,25.22,0,0,1,5.81,5.29,26,26,0,0,1,4,6.06c1.24,2.54,2.05,5.26,3.34,7.75,1,1.84,1.66,3.72,2.6,5.56s1.76,3.14,1.75,5.35c0,1.52.07,3.63-1.42,4.32-.48.22-1.22,0-1.73.16a14.78,14.78,0,0,0-1.65.83c-1.52.65-3.17.82-4.63,1.57-2.09,1.07-3.87,2.7-6,3.78a80.13,80.13,0,0,0-7.46,4.31,90.83,90.83,0,0,1-15.89,7.84c-2.94,1.19-5.09,3.34-8.29,3.94-2.74.52-3.13-1.52-3.15-3.63,0-.85,0-1.7,0-2.55,0-1.57-1-2.34-1.34-3.73-.52-1.87-.39-5.49,1.31-6.83"/><path class="cls-3" d="M142,49.27c3.77-.25,7.59-.34,11.33-.56a37.05,37.05,0,0,0,5.5-.78c.9-.2,1.79-.44,2.68-.69l1.32-.41a11.08,11.08,0,0,0,1.21-.48,39.54,39.54,0,0,1,5.23-2.52,3.82,3.82,0,0,0,2-1.11,23.24,23.24,0,0,1,2.12-2.09,21.32,21.32,0,0,0,2-1.67,2.56,2.56,0,0,0,.76-1.75c0-.21,0-.32,0-.62s0-.54,0-.8c0-.53.12-1,.2-1.53.17-1,.36-1.84.44-2.72a31,31,0,0,0,.19-5.41,13.66,13.66,0,0,0-.4-2.53,5.67,5.67,0,0,0-1-2.09,26,26,0,0,0-4-3.54,15.55,15.55,0,0,0-4.63-2.57,13.43,13.43,0,0,0-2.53-.72c-.84-.12-1.78-.1-2.79-.19a9,9,0,0,1-1.52-.25,10.57,10.57,0,0,0-1.3-.24c-.89-.11-1.82-.13-2.77-.16a14.31,14.31,0,0,0-5.42.56c-.45.15-.81.31-1.3.51a9.63,9.63,0,0,1-1.44.41,25.78,25.78,0,0,0-2.73.58l-1.49.48,1-1.22c1.84-2.29,3.7-4.83,6.51-6.27a12.64,12.64,0,0,1,4.41-1.33,32.56,32.56,0,0,1,9.07.19A22.87,22.87,0,0,1,169,9a12.72,12.72,0,0,0,2,.59,12,12,0,0,1,2.32.66A16.63,16.63,0,0,1,177.28,13a45,45,0,0,1,3.17,3.3,26.39,26.39,0,0,1,2.75,3.77,33.72,33.72,0,0,1,2.09,4.13c.6,1.4,1.12,2.78,1.71,4.08l.46,1,.51,1c.35.69.67,1.38,1,2.06l.93,2c.31.65.64,1.26,1,1.93a14.78,14.78,0,0,1,1,2.25,8.72,8.72,0,0,1,.45,2.64,17.84,17.84,0,0,1-.07,2.45,6,6,0,0,1-.36,1.46,3.84,3.84,0,0,1-1.06,1.52,3.66,3.66,0,0,1-.87.55,3.08,3.08,0,0,1-1.11.23c-.27,0-.48,0-.62,0h-.17l-.18.08-.4.22-.56.31c-.25.13-.47.21-.66.29-1.62.61-3.08.82-4.09,1.34a35.19,35.19,0,0,0-3.56,2.28c-.63.43-1.3.86-2,1.25l-2,1q-1.94,1-3.81,2.13-.94.56-1.86,1.15c-.63.4-1.29.8-1.95,1.18a76.68,76.68,0,0,1-8.12,4.05c-1.38.59-2.77,1.15-4.17,1.7l-2.09.8a16.18,16.18,0,0,0-1.9.86c-1.26.65-2.55,1.47-4,2.1a12,12,0,0,1-2.3.74,4.41,4.41,0,0,1-2.74-.13,2.66,2.66,0,0,1-1.18-1.06,4.1,4.1,0,0,1-.47-1.31A10.3,10.3,0,0,1,139.9,64l.1-2.2a4.18,4.18,0,0,0-.53-1.88,7,7,0,0,1-.74-2.25,10,10,0,0,1,0-2.32,8.53,8.53,0,0,1,.5-2.25,4.21,4.21,0,0,1,1.33-1.89l.19.24a5.54,5.54,0,0,0-1.29,3.95,9.16,9.16,0,0,0,.21,2.12,5.94,5.94,0,0,0,.81,1.9,5.39,5.39,0,0,1,.83,2.32c0,.78,0,1.5.06,2.26a9,9,0,0,0,.21,2.05c.16.62.43,1,.8,1.14A2.84,2.84,0,0,0,144,67a10,10,0,0,0,1.89-.74c1.24-.62,2.42-1.48,3.75-2.27A18.56,18.56,0,0,1,151.73,63l2-.89c1.35-.6,2.69-1.21,4-1.84a75.2,75.2,0,0,0,7.69-4.15c.62-.39,1.21-.78,1.83-1.19s1.27-.83,1.91-1.23q1.93-1.2,3.92-2.28l1.94-1c.58-.33,1.16-.71,1.75-1.13a31.17,31.17,0,0,1,3.94-2.52,44,44,0,0,1,4.36-1.45l.36-.15.41-.23a5.41,5.41,0,0,1,1.44-.64,3.82,3.82,0,0,1,.94-.09h.49c.1,0,.12,0,0,0l.06,0a1.6,1.6,0,0,0,.37-1,15.26,15.26,0,0,0,.09-2,7.09,7.09,0,0,0-1-3.56c-.33-.64-.69-1.35-1-2.05l-.91-2.07c-.29-.68-.59-1.34-.89-2l-.49-1-.48-1.06A78.4,78.4,0,0,0,181,21.35a23.92,23.92,0,0,0-2.37-3.51c-.91-1.11-1.89-2.23-2.87-3.25a15,15,0,0,0-3.19-2.6,10.46,10.46,0,0,0-1.93-.65,14.61,14.61,0,0,1-2.21-.77,20.58,20.58,0,0,0-4.09-1.37A30.79,30.79,0,0,0,160,8.6a25.35,25.35,0,0,0-4.36,0,11.47,11.47,0,0,0-4.1,1.11c-2.56,1.29-4.42,3.65-6.21,6l-.51-.73a26,26,0,0,1,2.81-.64,7.78,7.78,0,0,0,1.28-.39c.38-.17.87-.41,1.32-.57a16.5,16.5,0,0,1,5.78-.86c.94,0,1.9-.07,2.9,0a12.07,12.07,0,0,1,1.5.19,7.33,7.33,0,0,0,1.29.13c.89,0,1.84-.06,2.88,0a14.81,14.81,0,0,1,3,.65,17.65,17.65,0,0,1,5.4,2.62,23,23,0,0,1,4.62,3.76,8.31,8.31,0,0,1,1.54,2.94,14.44,14.44,0,0,1,.53,3.06,30,30,0,0,1-.19,5.92c-.11,1-.34,2-.51,2.87-.08.44-.15.87-.19,1.28,0,.21,0,.41,0,.62s0,.53,0,.8a5.39,5.39,0,0,1-.45,1.79,5.25,5.25,0,0,1-1.07,1.52,19.26,19.26,0,0,1-2.39,1.87,23.7,23.7,0,0,0-2,1.84,6.35,6.35,0,0,1-1.41,1,8.12,8.12,0,0,1-1.54.55,47.65,47.65,0,0,0-5.07,2.2,13.15,13.15,0,0,1-1.45.5l-1.41.37q-1.41.35-2.85.57a36,36,0,0,1-5.78.43c-3.83-.14-7.58-.28-11.37-.52Z"/><path class="cls-2" d="M189.47,254.23c.15-2.44-6.27-5.76-8.33-6.53a10,10,0,0,0-3.72-.33c-1.61,0-3.17.7-4.69.62"/><path class="cls-3" d="M189.32,254.22a3.32,3.32,0,0,0-.89-.73l-.9-.54a8,8,0,0,1-1.75-1.33,10.65,10.65,0,0,0-1.58-1.89,4.34,4.34,0,0,0-2.27-.79c-.41-.05-.83-.05-1.2-.1s-.62,0-.93,0a17.13,17.13,0,0,1-2.25.15c-.65-.07-1.29-.08-2.16-.13a5.38,5.38,0,0,1-2.66-.7l0-.3c.8-.48,1.4-.91,2.15-1.31a6.14,6.14,0,0,1,2.65-.76,9,9,0,0,1,2.61.24,4.59,4.59,0,0,1,1.42.57,8.53,8.53,0,0,1,1,.86,6.71,6.71,0,0,0,2.05,1.44c.76.33,1.72.35,2.54.69a4.69,4.69,0,0,1,2,1.76,3.82,3.82,0,0,1,.6,1.36,2,2,0,0,1-.19,1.56Z"/><path class="cls-2" d="M158,246.11c-1.25-1.46-5.12-3.27-7-3.72-2.27-.52-4.86.14-7,.59"/><path class="cls-3" d="M157.9,246.21a9.11,9.11,0,0,1-2-.32,3.77,3.77,0,0,1-1.57-.81c-.44-.44-.79-1.14-1.32-1.47a2.58,2.58,0,0,0-1.82-.3c-.64.11-1.15.28-1.7.33a11.57,11.57,0,0,1-1.64.26,9.57,9.57,0,0,1-1.82-.13,6.91,6.91,0,0,1-2.05-.62l-.06-.29a6,6,0,0,1,1.65-1.4,5.89,5.89,0,0,1,1.91-.74,5.65,5.65,0,0,1,2.13.09,4.2,4.2,0,0,1,2,.93,4.42,4.42,0,0,0,1.74,1c.63.17,1.42,0,2.1.14a3.35,3.35,0,0,1,1.7,1.09,3.26,3.26,0,0,1,.93,2.08Z"/><path class="cls-5" d="M170.06,66.28c1.09.89-.79,2.8-1.19,3.59-.55,1.1-.85,2.3-1.3,3.43-1.31,3.29-2.83,6.66-4.37,9.86a16.92,16.92,0,0,0-1.81,6.78c-.23,3.72-1.39,7.23-1.38,11,0,3.36-.07,6.71,0,10.07a49.78,49.78,0,0,0,2.87,14.44c.61,1.9,1.18,3.8,1.8,5.7a32.38,32.38,0,0,0,3.95,7.49c1.3,2,2,3.45,4.11,4.92,1.7,1.21,3.08,2.62,4.68,3.92,2.43,2,4.5,3.7,7.52,4.82a26.63,26.63,0,0,0,5.22,1.1c1.56.25,4.06.93,5.4-.26s.67-2-.47-2.72c-.71-.45-1.52-.65-2.22-1.17-1.24-.91-2.21-2.07-3.41-3a39.75,39.75,0,0,1-4.13-3.61c-1.43-1.45-2.5-3-3.83-4.53a39.19,39.19,0,0,1-6.92-10.52A36.5,36.5,0,0,1,172,116.22c-.53-8.3.09-16.77,0-25.09a31,31,0,0,1,1.5-9.82c1.47-4.51,1.42-9.41,3.51-13.8,1.89-4,3.75-8,7-11.11,1.16-1.1,2.62-1.91,3.83-3.06a23.65,23.65,0,0,1,2.47-2.26c.79-.56,1.89-.66,2.24-1.66-.76-1.57-3.08-1.14-4.55-1.4-1.22-.21-2.14-.65-3.37-.36-3.25.76-4.36,2.9-6.29,5.12s-3.78,3.65-5.13,6.06c-1.47,2.64-2.49,5.43-3.94,8.07"/><path class="cls-3" d="M170.16,66.16a1.08,1.08,0,0,1,.43.92,2.61,2.61,0,0,1-.24.94,12.8,12.8,0,0,1-.91,1.58,15.19,15.19,0,0,0-1.2,3.26c-.83,2.27-1.74,4.46-2.62,6.69l-1.36,3.32A29.06,29.06,0,0,0,163,86.09a15.29,15.29,0,0,0-.58,3.3c0,.54-.05,1.19-.11,1.8s-.13,1.22-.21,1.83a68.61,68.61,0,0,0-.89,7c0,1.08,0,2.33,0,3.5l0,3.57,0,3.57a30.54,30.54,0,0,0,.22,3.43,50.1,50.1,0,0,0,1.35,6.8c.61,2.25,1.32,4.5,2,6.79l1,3.4a19.91,19.91,0,0,0,1.29,3.12c.51,1,1.11,2,1.72,3s1.22,2.08,1.83,3a9.85,9.85,0,0,0,2.18,2.45,32.17,32.17,0,0,1,2.77,2.35c3.46,3.14,7,6.6,11.63,7.45,1.14.23,2.32.37,3.51.6a9.24,9.24,0,0,0,3.37.23,2.19,2.19,0,0,0,1.28-.71c.35-.4.42-.69.18-1a3.51,3.51,0,0,0-1.22-.93,16.24,16.24,0,0,1-1.65-.8,24.55,24.55,0,0,1-2.78-2.38c-.83-.77-1.85-1.43-2.78-2.21a32.48,32.48,0,0,1-2.71-2.44c-.86-.88-1.63-1.82-2.39-2.72-3.13-3.48-6.43-7.23-8.46-11.78A39.39,39.39,0,0,1,170.57,114c-.24-4.82-.15-9.61-.09-14.37,0-2.38.06-4.75,0-7.11,0-1.15,0-2.41,0-3.66a29.64,29.64,0,0,1,.43-3.72,32.28,32.28,0,0,1,.87-3.65c.19-.63.36-1.13.5-1.67s.28-1.09.4-1.65c.48-2.24.81-4.62,1.43-7a23.61,23.61,0,0,1,1.22-3.62c.27-.62.53-1.13.79-1.67l.8-1.62a35.11,35.11,0,0,1,3.89-6.32,21.56,21.56,0,0,1,2.64-2.78c1-.86,2-1.48,2.91-2.16s1.6-1.53,2.63-2.37a8.18,8.18,0,0,1,.87-.63,8.69,8.69,0,0,1,.93-.45,3.25,3.25,0,0,0,.54-.28.42.42,0,0,0,.14-.16l.05.91c-.11-.22-.3-.39-.84-.53a15.78,15.78,0,0,0-1.93-.2,7.91,7.91,0,0,1-1.19-.18l-1-.27a3.43,3.43,0,0,0-1.62-.13,6.51,6.51,0,0,0-3.24,1.67c-.94.87-1.78,2-2.77,3.07-2,2.13-4.17,3.78-5.47,6.19s-2.49,5-4,7.41l-.26-.14c1.22-2.51,2.11-5.17,3.36-7.73a15.88,15.88,0,0,1,2.4-3.61c.93-1.09,1.92-2.08,2.78-3.13s1.63-2.22,2.69-3.32a8.44,8.44,0,0,1,4-2.35,5.47,5.47,0,0,1,2.55,0l1,.2a5.6,5.6,0,0,0,.9.08,14.86,14.86,0,0,1,2.25.16,4.08,4.08,0,0,1,1.37.51,3.09,3.09,0,0,1,1.14,1.24l.21.42-.16.49a2.82,2.82,0,0,1-.89,1.26,5.19,5.19,0,0,1-1,.61,4,4,0,0,0-1.22.79c-.8.68-1.54,1.62-2.59,2.49s-2,1.48-2.76,2.19a19,19,0,0,0-2.18,2.47,36.87,36.87,0,0,0-3.42,5.92L179,67.13c-.25.53-.52,1.09-.71,1.57a20.51,20.51,0,0,0-1,3.16c-.53,2.2-.82,4.55-1.35,7-.13.6-.28,1.21-.44,1.82s-.37,1.24-.53,1.75a29.08,29.08,0,0,0-.79,3.29,33,33,0,0,0-.42,3.36c-.09,1.13-.08,2.25-.09,3.47,0,2.4-.1,4.79-.18,7.17-.15,4.76-.32,9.49-.18,14.19a37.16,37.16,0,0,0,2.42,13.55,31.31,31.31,0,0,0,3.29,6.06c.65,1,1.35,1.91,2.08,2.83s1.52,1.83,2.25,2.79,1.43,1.88,2.2,2.74a31.2,31.2,0,0,0,2.49,2.45c.87.79,1.82,1.48,2.73,2.34a24.44,24.44,0,0,0,2.58,2.33c.85.57,2.22.86,3.11,2a1.57,1.57,0,0,1,.28,1.2,2,2,0,0,1-.54,1,3.15,3.15,0,0,1-1.79,1,10.71,10.71,0,0,1-3.71-.23c-1.15-.2-2.34-.33-3.53-.56a17.57,17.57,0,0,1-6.71-2.87c-1-.68-2-1.42-2.91-2.14s-1.9-1.51-2.8-2.26a30.59,30.59,0,0,0-2.8-2.12,11.63,11.63,0,0,1-2.7-2.72c-.73-1-1.35-2-2-3s-1.34-2-2-3.08a22.23,22.23,0,0,1-1.61-3.4c-.42-1.16-.77-2.27-1.15-3.4-.74-2.26-1.54-4.52-2.17-6.87a44.71,44.71,0,0,1-1.42-7.2,33.24,33.24,0,0,1-.19-3.69l0-3.57,0-3.57c0-1.21,0-2.34.08-3.64A62.19,62.19,0,0,1,160,92.68c.1-.57.2-1.14.27-1.71s.11-1.11.19-1.76a17.26,17.26,0,0,1,.81-3.69,28.52,28.52,0,0,1,1.49-3.38l1.53-3.21c1-2.14,2.12-4.26,3.09-6.4a15.53,15.53,0,0,1,1.53-3.32,13.51,13.51,0,0,0,1-1.42c.27-.48.46-1.06.06-1.41Z"/><path class="cls-2" d="M143.29,76.27V91.06c0,3.93-.52,8.19.15,12.07.46,2.7,1,5.37,1.52,8.09.55,3.08,1.58,6.32,1.69,9.42a31.07,31.07,0,0,0,0,4.69,28.05,28.05,0,0,1,.61,5.73c0,1.77-.56,4.59.1,6.24,2-1.26,3.42-3.52,4.58-5.48,1.51-2.54,3.54-3.13,2.05-6.18s-2.72-5.83-4.08-8.75c-1.81-3.88-1.47-8.48-2.84-12.48-.66-1.92-.33-3.58-.45-5.61-.2-3.14-1.36-6.19-1.39-9.33,0-3.78,0-7.56,0-11.33"/><path class="cls-3" d="M143.44,76.27c.56,5.13.82,10.23,1,15.38.06,2.62-.08,5.17,0,7.64a33,33,0,0,0,.33,3.62c.24,1.26.44,2.52.63,3.78s.36,2.53.54,3.8.34,2.49.55,3.76a31.91,31.91,0,0,1,.65,7.8,12.2,12.2,0,0,0,.11,3.72,31.09,31.09,0,0,1,.52,3.86c0,.66.09,1.29.07,2l-.07,1.94a8.37,8.37,0,0,0,.37,3.47l-1.13-.37a9.7,9.7,0,0,0,2.44-2.66c.34-.52.66-1.06,1-1.63s.58-1.12,1-1.77c.77-1.22,1.83-2.29,1.83-2.85a2.33,2.33,0,0,0-.26-1.17l-.39-.81-.44-.89-3.49-7.11a16.46,16.46,0,0,1-1.38-4.07c-.3-1.37-.47-2.71-.66-4A33,33,0,0,0,146,106c-.07-.3-.15-.58-.24-.87l-.15-.51c-.06-.19-.1-.39-.15-.58a10.2,10.2,0,0,1-.2-2.27,30.84,30.84,0,0,0,0-3.81c-.11-1.23-.32-2.5-.54-3.81a24.87,24.87,0,0,1-.4-4.09c0-1.39.13-2.66.22-4,.18-2.64.38-5.27.63-7.91h.3c.25,2.63.44,5.26.61,7.89l.24,3.91a28.78,28.78,0,0,0,.73,3.72c.31,1.26.66,2.57.88,4a32.71,32.71,0,0,1,.26,4.08,9,9,0,0,0,.23,1.65c0,.13.07.25.11.38l.14.43c.12.34.23.69.32,1a35.89,35.89,0,0,1,.83,4,25.94,25.94,0,0,0,1.68,7.21l3.19,7.21.4.9.42,1a4.74,4.74,0,0,1,.32,2.68,5.14,5.14,0,0,1-1.24,2.26c-.46.53-.88,1-1.23,1.44-1.38,2-3,4.61-5.51,6l-.85.48-.28-.85a6.29,6.29,0,0,1-.28-2.16c0-.68.07-1.34.14-2a21.58,21.58,0,0,0,.23-3.77,26.7,26.7,0,0,0-.43-3.75,9.91,9.91,0,0,1-.25-2c0-.67,0-1.31,0-1.95a23.76,23.76,0,0,0-1.33-7.38c-.36-1.22-.72-2.5-1-3.76s-.61-2.49-.88-3.75-.55-2.51-.79-3.77a22.82,22.82,0,0,1-.34-4c0-1.32,0-2.63.11-3.91s.18-2.55.23-3.81c.2-5.1.44-10.24,1-15.35Z"/><path class="cls-5" d="M175.5,22.17c0,2.17,0,4.33,0,6.5a12.26,12.26,0,0,1-2,6.64,10.55,10.55,0,0,1-5.29,4.92c-2.9,1.27-5.47,3.05-8.27,4.53a64.41,64.41,0,0,1-6.36,3.14c-2,.81-4.15,1.95-6.4,2.17-1.74.17-3.55.2-4.75-1a35.09,35.09,0,0,1-3.31-3.7c-.65-.93-.46-1.3-.69-2.32a27.08,27.08,0,0,1-.64-6.07c0-2.45.6-3.86,1.27-6.14a18,18,0,0,0,.28-2,3.56,3.56,0,0,1,1.33-2,28.86,28.86,0,0,1,1.52-3.35c1.13-1.62,3.92-3.52,5.73-4.48a10.25,10.25,0,0,1,2.84-.81c1.3-.22,2.81-.53,4.14-.68a49.7,49.7,0,0,1,5.79,0c2.53,0,4.61,1,6.93,1.81,1.59.57,5.9,2.35,5.73,4.18"/><path class="cls-3" d="M175.65,22.17c.18,1.44.33,2.88.44,4.31l.17,2.16a12.46,12.46,0,0,1,0,2.31,14,14,0,0,1-1.42,4.4,14,14,0,0,1-2.66,3.86,11.34,11.34,0,0,1-1.93,1.48,22.3,22.3,0,0,1-2,1c-1.23.6-2.46,1.27-3.7,2s-2.53,1.4-3.88,2-2.62,1.2-4,1.77-2.78,1-4.1,1.51a27.52,27.52,0,0,1-4.19,1.37,14.68,14.68,0,0,1-2.23.24,7,7,0,0,1-2.29-.22,4.37,4.37,0,0,1-1.11-.5,5.8,5.8,0,0,1-.9-.76l-1.56-1.52c-.52-.52-1-1-1.52-1.64a4.31,4.31,0,0,1-.69-1.09,6.2,6.2,0,0,1-.3-1.21c0-.16-.07-.31-.11-.46l-.14-.54c-.1-.36-.18-.72-.26-1.09-.16-.73-.29-1.47-.39-2.21s-.16-1.49-.2-2.23a12.57,12.57,0,0,1,.07-2.36,33,33,0,0,1,1-4.36l0,.12.21-1.85v-.11l0-.12a5.07,5.07,0,0,1,1.81-2.83l-.41.49c.27-.54.48-1.27.82-2.13a7.65,7.65,0,0,1,.69-1.34,9,9,0,0,1,.92-1.15,21.8,21.8,0,0,1,4.12-3.2c.36-.23.74-.44,1.13-.64a7.26,7.26,0,0,1,1.4-.56,18.39,18.39,0,0,1,2.57-.51l2.43-.34,1.22-.16c.43,0,.89-.06,1.32-.06,1.74,0,3.32.21,4.89.3a14.64,14.64,0,0,1,5,1.34c.76.32,1.47.66,2.21,1a20.12,20.12,0,0,1,2.21,1.14,13.36,13.36,0,0,1,2,1.46,4.75,4.75,0,0,1,.85,1,1.9,1.9,0,0,1,.33,1.29l-.3,0c-.07-.72-.74-1.2-1.36-1.61a12.44,12.44,0,0,0-2.1-1c-.73-.27-1.48-.53-2.22-.75l-2.31-.68a13.92,13.92,0,0,0-4.39-.71c-1.64.06-3.27,0-4.75.09-.37,0-.72.06-1.08.12l-1.16.23-2.32.44a15.56,15.56,0,0,0-2.14.5,4,4,0,0,0-.82.36l-1,.57a19.19,19.19,0,0,0-3.51,2.67A4.36,4.36,0,0,0,143,25.19c-.28.62-.54,1.44-1,2.32l-.17.31-.24.18a2.11,2.11,0,0,0-.84,1.16l0-.24-.35,2.16v.06l0,.07a38,38,0,0,0-1.2,4,12.75,12.75,0,0,0-.22,1.95c0,.7,0,1.39,0,2.09s0,1.38.12,2.07c0,.35.08.69.13,1l.08.52c0,.2.06.41.08.6a5.51,5.51,0,0,0,.1.91,2.84,2.84,0,0,0,.39.77,17.61,17.61,0,0,0,1.27,1.66c.45.55.94,1.07,1.43,1.6a4.87,4.87,0,0,0,.7.68,2.7,2.7,0,0,0,.83.41,8.61,8.61,0,0,0,4,0,18.62,18.62,0,0,0,3.92-1.54c1.33-.66,2.59-1.21,3.81-2s2.43-1.5,3.67-2.24l3.62-2.27A37.46,37.46,0,0,1,167,39.31a20.3,20.3,0,0,0,1.84-.86,8.78,8.78,0,0,0,1.53-1.09,11.61,11.61,0,0,0,2.41-3.07,12.74,12.74,0,0,0,1.61-3.65,10.76,10.76,0,0,0,.3-2l.17-2.16c.11-1.44.27-2.88.45-4.32Z"/><path class="cls-2" d="M194,199.27c-2.84,0-6.45.52-9.22-.07-.2-1.92,2.78-4.91,3.56-6.68,1.13-2.6,1.24-6.43,3.54-8.51"/><path class="cls-3" d="M194,199.42a12.15,12.15,0,0,1-2.26.9,13,13,0,0,1-2.31.45,6.27,6.27,0,0,1-2.4-.14,18.85,18.85,0,0,1-2.37-.87l-.48-.19,0-.3a7.79,7.79,0,0,1,.7-2.31c.3-.69.55-1.39.82-2.09a19.59,19.59,0,0,1,.85-2,6.79,6.79,0,0,0,.59-1.67,17.32,17.32,0,0,1,1.33-4,6.19,6.19,0,0,1,3.27-3.35l.2.22a16.29,16.29,0,0,0-.89,3.95,14.77,14.77,0,0,1-1,4.18,8,8,0,0,1-1.28,2.13,11.94,11.94,0,0,1-1.58,1.53,7.78,7.78,0,0,0-1.45,1.5,2.13,2.13,0,0,0-.44,1.73l-.45-.5a11.35,11.35,0,0,0,2.22-.35,8.31,8.31,0,0,1,2.22-.16,16,16,0,0,1,2.31.23,8.46,8.46,0,0,1,2.36.75Z"/><path class="cls-2" d="M164.84,200.6c-3.09,0-7.7.75-10.66-.07.22-1.47,3.32-4,4.59-4.86,1.65-1.11,4.8-.83,6.08-2.36,0-1.45-3.08-1.56-4.16-2-1.25-.51-2.4-.89-3.69-1.31a35.63,35.63,0,0,1-3.53-1.88c-1.17-.52-2.63-.51-3.55-1.46"/><path class="cls-3" d="M164.84,200.75c-.88.31-1.74.57-2.62.78a25.31,25.31,0,0,1-2.67.53,18.18,18.18,0,0,1-2.78.18,7.88,7.88,0,0,1-2.9-.56l-1.11-.46.25-.86a3.78,3.78,0,0,1,1.26-1.84c.47-.41.94-.77,1.42-1.11.95-.68,1.83-1.36,2.74-2.07a14,14,0,0,1,3.23-1.52,4.72,4.72,0,0,0,2.18-1.34l-.31.81a.14.14,0,0,0,0,.12.18.18,0,0,0,0,.13s0,.05,0,.06h0a3.85,3.85,0,0,0-.59-.18c-.54-.12-1.18-.21-1.94-.35a5.14,5.14,0,0,1-.64-.15l-.6-.2-1-.34q-.95-.36-1.88-.77l-.48-.22c-.2-.09-.4-.18-.59-.28a9.17,9.17,0,0,1-1-.64l-1.59-1.26a9,9,0,0,0-1.69-.94,3.89,3.89,0,0,1-1.77-1.48l.21-.21c1.22.62,2.5.15,4.18.75.76.25,1.42.62,2,.85a6.63,6.63,0,0,0,.82.32l.38.1.5.13q1,.29,2.06.63l1,.36.39.15.37.12c.6.18,1.33.33,2.12.64a5.2,5.2,0,0,1,1.3.7,4.88,4.88,0,0,1,.37.33,3.46,3.46,0,0,1,.34.47,3,3,0,0,1,.24.6,3.65,3.65,0,0,1,.05.64v.49l-.3.33a4,4,0,0,1-2,1.12,10.41,10.41,0,0,1-1.83.24,6.86,6.86,0,0,0-3.08.59,9.5,9.5,0,0,0-2.43,2.17,8.46,8.46,0,0,0-.86,1.34,2.07,2.07,0,0,0-.32,1.07l-.86-1.31c1.51.11,3.2.22,4.95.29.88,0,1.77.1,2.67.21a13.16,13.16,0,0,1,2.72.56Z"/><path class="cls-2" d="M208.21,92.48c-2.18,0-4.52,0-6.24,1.46-1.29,1.1-3.07,3.21-5.09,3.2-.15-1.61,1.28-3.43,1.94-4.87a12.35,12.35,0,0,1,1.56-3,15.08,15.08,0,0,1,2.11-2.12c1.05-.86,2.94-1.38,3.45-2.67-1.94-3.07-9.34-1.22-11.08-4.66.95-1.79,6-2,7.83-2,2.57,0,5.87-.5,8.36.05-.05,1.56-.74,3-.71,4.59s0,3.12,0,4.68a18.35,18.35,0,0,0,.16,4,9,9,0,0,1,.55,3.28"/><path class="cls-3" d="M208.2,92.63a29.62,29.62,0,0,0-3.07.63,5.68,5.68,0,0,0-2.42,1.31c-.66.63-1.36,1.53-2.25,2.27a5.72,5.72,0,0,1-3.6,1.6l-1.18,0-.11-1.21a5.5,5.5,0,0,1,.47-2.6,15.22,15.22,0,0,1,1-1.91,15.78,15.78,0,0,0,.91-1.64,12,12,0,0,1,1.14-1.9,13.86,13.86,0,0,1,3.33-2.84c.66-.36,1.28-.6,1.84-.91a2.57,2.57,0,0,0,1.24-1.12l0,.41a3.76,3.76,0,0,0-2.32-1.4,19.57,19.57,0,0,0-3-.41,20.3,20.3,0,0,1-3.23-.43,6.23,6.23,0,0,1-1.7-.68,5.24,5.24,0,0,1-.81-.62,6.5,6.5,0,0,1-.66-.84l-.33-.46.34-.61a4.2,4.2,0,0,1,2.25-1.84,12.13,12.13,0,0,1,2.25-.65,26.92,26.92,0,0,1,4.39-.45c1.28,0,2.66-.2,4.1-.26a16.56,16.56,0,0,1,4.56.31l1.31.31L212.59,78c-.13,1.79-.77,3.06-.88,4.14l-.27,4.08c-.05.69-.12,1.41-.2,2.1a18.77,18.77,0,0,0-.16,2,10.4,10.4,0,0,0,.19,2,4.89,4.89,0,0,1-.07,2.2l-.3,0a5,5,0,0,0-.52-1.91,10,10,0,0,1-.72-2.08,16.46,16.46,0,0,1-.27-2.18c0-.7-.1-1.37-.16-2.07l-.15-2.07-.08-1,0-.52c0-.2,0-.42,0-.63.06-1.71.55-3.06.51-4.07l1.22,1.57a18.67,18.67,0,0,0-3.76-.13c-1.35,0-2.75.12-4.25.08a26.62,26.62,0,0,0-3.93.12,11.5,11.5,0,0,0-1.8.34,3.25,3.25,0,0,0-1.09.51V79.32a2.93,2.93,0,0,0,1.68,1.49,15.28,15.28,0,0,0,2.84.86c1,.24,2.05.42,3.09.75a5,5,0,0,1,2.83,1.83l.13.19-.09.23a3.94,3.94,0,0,1-1.52,1.71c-.59.4-1.18.74-1.64,1.13a11.58,11.58,0,0,0-2.28,2.89,12.56,12.56,0,0,0-.67,1.69,14.24,14.24,0,0,1-.87,2,7.72,7.72,0,0,0-1.21,3l-1.29-1.18A3.87,3.87,0,0,0,199,95c.79-.55,1.53-1.22,2.51-1.93A6.43,6.43,0,0,1,204.94,92a13.65,13.65,0,0,1,3.27.32Z"/></svg>