<svg xmlns="http://www.w3.org/2000/svg" viewBox="0 0 76.88 90.78"><defs><style>.cls-1{fill:#f2f1d4;}.cls-2{fill:#231f20;}</style></defs><title>Asset 3</title><g id="Layer_2" data-name="Layer 2"><g id="Isolation_Mode" data-name="Isolation Mode"><polygon class="cls-1" points="76.71 44.6 1.71 1.3 1.71 87.9 76.71 44.6"/><path class="cls-2" d="M76.55,44.6c-13.31-7.19-26.1-14-38.57-20.93C31.74,20.2,25.55,16.76,19.5,13.12S7.43,5.73,1.33,2L2.47,1.3Q2.15,12.13,2.23,23c0,7.22.22,14.43.39,21.65l.3,10.83.21,10.83c.14,7.22.17,14.43.26,21.65L.87,86.45C7,82.82,13.09,79.29,19.23,75.8s12.36-6.9,18.68-10.3Zm.33,0L58.94,55.67c-6,3.76-12.22,7.54-18.43,11.33S28,74.6,21.69,78.35,9,85.77,2.55,89.35L0,90.78,0,87.9c.09-7.22.12-14.43.26-21.65L.5,55.43.8,44.6C1,37.38,1.18,30.17,1.19,23S1.17,8.52.95,1.3L.91,0,2.09.64C8.5,4.09,15,7.57,21.42,11.13s12.76,7.35,19,11.11C53,29.76,65.19,37.36,76.88,44.6Z"/></g></g></svg>