<svg xmlns="http://www.w3.org/2000/svg" viewBox="0 0 76.69 90.38"><defs><style>.cls-1{fill:#fff;}.cls-2{fill:#231f20;}</style></defs><title>Asset 1</title><g id="Layer_2" data-name="Layer 2"><g id="Isolation_Mode" data-name="Isolation Mode"><polygon class="cls-1" points="76.54 44.48 1.54 1.18 1.54 87.78 76.54 44.48"/><path class="cls-2" d="M76.39,44.48c-13.23-7.2-26-14.06-38.47-21C31.69,20,25.49,16.54,19.43,12.9L1.2,1.77l1-.6Q1.93,12,2,22.83c0,7.22.2,14.43.35,21.65L2.63,55.3l.19,10.83c.13,7.22.15,14.43.23,21.65L.79,86.47C6.9,82.84,13,79.3,19.18,75.8s12.37-6.93,18.69-10.35Zm.3,0L40.21,66.8C34,70.6,27.72,74.36,21.4,78.11s-12.71,7.4-19.1,11L0,90.38l0-2.6c.08-7.22.11-14.43.23-21.65L.45,55.3.72,44.48c.16-7.22.34-14.43.35-21.65S1.05,8.39.85,1.18L.82,0,1.89.58C8.27,4,14.71,7.53,21.16,11.1s12.74,7.34,19,11.08C52.69,29.67,64.92,37.24,76.69,44.48Z"/></g></g></svg>