<svg xmlns="http://www.w3.org/2000/svg" viewBox="0 0 76.69 90.38"><defs><style>.cls-1{fill:#fff;}.cls-2{fill:#231f20;}</style></defs><title>Asset 2</title><g id="Layer_2" data-name="Layer 2"><g id="Isolation_Mode" data-name="Isolation Mode"><polygon class="cls-1" points="0.15 44.48 75.15 1.18 75.15 87.78 0.15 44.48"/><path class="cls-2" d="M0,44.48c11.77-7.24,24-14.8,36.53-22.3,6.26-3.74,12.57-7.5,19-11.08S68.42,4,74.81.58L75.87,0l0,1.18q-.3,10.83-.22,21.65c0,7.22.2,14.43.35,21.65l.27,10.83.19,10.83c.13,7.22.15,14.43.23,21.65l0,2.6-2.3-1.29c-6.39-3.59-12.76-7.27-19.1-11S42.67,70.6,36.48,66.8Zm.3,0,38.52,21c6.31,3.42,12.5,6.88,18.69,10.35s12.29,7,18.4,10.67l-2.27,1.31c.08-7.22.1-14.43.23-21.65l.19-10.83.27-10.83c.16-7.22.34-14.43.35-21.65s0-14.43-.22-21.65l1,.6L57.27,12.9C51.2,16.54,45,20,38.77,23.47,26.29,30.41,13.53,37.28.3,44.48Z"/></g></g></svg>