<svg xmlns="http://www.w3.org/2000/svg" viewBox="0 0 76.88 90.78"><defs><style>.cls-1{fill:#f2f1d4;}.cls-2{fill:#231f20;}</style></defs><title>Asset 4</title><g id="Layer_2" data-name="Layer 2"><g id="Isolation_Mode" data-name="Isolation Mode"><polygon class="cls-1" points="0.17 44.6 75.17 1.3 75.17 87.9 0.17 44.6"/><path class="cls-2" d="M0,44.6c11.69-7.24,23.9-14.84,36.43-22.37,6.27-3.75,12.58-7.53,19-11.11S68.38,4.09,74.78.64L76,0l0,1.3Q75.6,12.13,75.68,23c0,7.22.22,14.43.39,21.65l.3,10.83.21,10.83c.14,7.22.17,14.43.26,21.65l0,2.88-2.55-1.43c-6.4-3.58-12.79-7.27-19.14-11S42.55,70.82,36.37,67,24,59.43,17.94,55.67Zm.33,0L39,65.5c6.32,3.4,12.5,6.84,18.68,10.3s12.26,7,18.36,10.65L73.49,87.9c.09-7.22.12-14.43.26-21.65L74,55.43l.3-10.83c.18-7.22.38-14.43.39-21.65s0-14.43-.25-21.65L75.55,2c-6.1,3.77-12.14,7.51-18.17,11.16S45.14,20.2,38.91,23.67C26.43,30.58,13.64,37.41.33,44.6Z"/></g></g></svg>